<?xml version="1.0" encoding="utf-8"?>
<svg id="master-artboard" viewBox="0 0 1400 980" version="1.1" xmlns="http://www.w3.org/2000/svg" x="0px" y="0px" width="1400px" height="980px" enable-background="new 0 0 1400 980"><defs><style id="ee-google-fonts">@import url(https://fonts.googleapis.com/css?family=Cairo:200,300,600,700,900,400);</style></defs>
<path d="M 0 0 H 1400 V 980 H 0 V 0 Z" fill="#B7DED3"/>
<path d="M 0 702 H 1400 V 979.899994 H 0 V 702 Z" fill="#877261"/>
<g>
</g>
<g>
</g>
<g id="Airport">
</g>
<path d="M 0 687.200012 H 1400 V 702.000012 H 0 V 687.200012 Z" fill="#BFA27A"/>
<path d="M 0 681.900024 H 1400 V 687.800025 H 0 V 681.900024 Z" fill="#EABA7B"/>
<g>
	<path d="M 0 311.600006 H 339.100006 V 683.200012 H 0 V 311.600006 Z" fill="#AACEC3"/>
	<path d="M 287.700012 142.399994 H 626.800018 V 514 H 287.700012 V 142.399994 Z" fill="#AACEC3"/>
	<path d="M 580.900024 216.899994 H 920.000031 V 588.5 H 580.900024 V 216.899994 Z" fill="#AACEC3"/>
	<path d="M 861.900024 52.099998 H 1201.000031 V 423.700005 H 861.900024 V 52.099998 Z" fill="#AACEC3"/>
	<path d="M 1066.5 167.399994 H 1400 V 539 H 1066.5 V 167.399994 Z" fill="#AACEC3"/>
</g>
<g>
	<path d="M 1400 418.3999938964844 L 563.5999755859375 418.3999938964844 L 563.5999755859375 237.89999389648438 L 1137.4000244140625 237.89999389648438 Z" fill="#FFD078"/>
	<path d="M 563.5999755859375 237.89999389648438 L 246.39999389648438 418.3999938964844 L 246.39999389648438 681.7000122070312 L 563.5999755859375 681.7000122070312 L 880.7000122070312 681.7000122070312 L 880.7000122070312 418.3999938964844 Z" fill="#FEDBA1"/>
	<path d="M 321.600006 525 H 335.400006 V 681.699997 H 321.600006 V 525 Z" fill="#E6AE5B"/>
	<path d="M 335.399994 525 H 525.599991 V 681.699997 H 335.399994 V 525 Z" fill="#FEC987"/>
	<path d="M 600 525 H 613.8 V 681.699997 H 600 V 525 Z" fill="#E6AE5B"/>
	<path d="M 613.799988 525.200012 H 803.999985 V 681.900009 H 613.799988 V 525.200012 Z" fill="#BFA27A"/>
	<path d="M 613.799988 525 H 803.999985 V 568.900002 H 613.799988 V 525 Z" fill="#FEC987"/>
	<path d="M 287.700012 452.299988 H 360.200012 V 473.299988 H 287.700012 V 452.299988 Z" fill="#FEC987"/>
	<path d="M 405.799988 452.299988 H 478.299988 V 473.299988 H 405.799988 V 452.299988 Z" fill="#FEC987"/>
	<path d="M 527.299988 452.299988 H 599.799988 V 473.299988 H 527.299988 V 452.299988 Z" fill="#FEC987"/>
	<path d="M 649.5 452.299988 H 722 V 473.299988 H 649.5 V 452.299988 Z" fill="#FEC987"/>
	<path d="M 767.700012 452.299988 H 840.200012 V 473.299988 H 767.700012 V 452.299988 Z" fill="#FEC987"/>
	<path d="M 880.700012 418.399994 H 1400 V 681.699982 H 880.700012 V 418.399994 Z" fill="#E6AE5B"/>
	<path d="M 936.900024 452.299988 H 1009.400024 V 473.299988 H 936.900024 V 452.299988 Z" fill="#EABA7B"/>
	<path d="M 1060.300049 452.299988 H 1132.800049 V 473.299988 H 1060.300049 V 452.299988 Z" fill="#EABA7B"/>
	<path d="M 1180.5 452.299988 H 1253 V 473.299988 H 1180.5 V 452.299988 Z" fill="#EABA7B"/>
	<path d="M 1303.199951 452.299988 H 1375.699951 V 473.299988 H 1303.199951 V 452.299988 Z" fill="#EABA7B"/>
	<path d="M 702.2999877929688 654.9000244140625 L 702.2999877929688 629.2000122070312 L 692.0999755859375 629.2000122070312 L 692.0999755859375 618.2999877929688 L 667.7999877929688 618.2999877929688 L 667.7999877929688 629.2000122070312 L 657.5999755859375 629.2000122070312 L 657.5999755859375 637.9000244140625 L 647.7999877929688 637.9000244140625 L 647.7999877929688 620.4000244140625 L 623.5 620.4000244140625 L 623.5 637.9000244140625 L 613.7999877929688 637.9000244140625 L 613.7999877929688 681.7000122070312 L 657.5999755859375 681.7000122070312 L 730.2999877929688 681.7000122070312 L 730.2999877929688 654.9000244140625 Z" fill="#A38A71"/>
</g>
<g>
	<g>
		<path d="M 1031.4000244140625 514.0999755859375 L 1014 514.0999755859375 L 997.5999755859375 528.2999877929688 L 997.5999755859375 627.2999877929688 L 991.4000244140625 627.2999877929688 L 991.4000244140625 526.5999755859375 L 1015.2999877929688 505.1000061035156 L 1029 505.1000061035156 Z" fill="#EABA7B"/>
		<path d="M 989.700012 627.299988 H 999.900012 V 681.899986 H 989.700012 V 627.299988 Z" fill="#EABA7B"/>
	</g>
	<g>
		<path d="M 796.5999755859375 514.0999755859375 L 814 514.0999755859375 L 830.4000244140625 528.2999877929688 L 830.4000244140625 627.2999877929688 L 836.5999755859375 627.2999877929688 L 836.5999755859375 526.5999755859375 L 812.7000122070312 505.1000061035156 L 799 505.1000061035156 Z" fill="#EABA7B"/>
		<path d="M 828.200012 627.299988 H 838.400012 V 681.899986 H 828.200012 V 627.299988 Z" fill="#EABA7B"/>
	</g>
	<g>
		<path d="M 315 514.0999755859375 L 297.6000061035156 514.0999755859375 L 281.1000061035156 528.2999877929688 L 281.1000061035156 627.2999877929688 L 274.8999938964844 627.2999877929688 L 274.8999938964844 526.5999755859375 L 298.8999938964844 505.1000061035156 L 312.6000061035156 505.1000061035156 Z" fill="#EABA7B"/>
		<path d="M 273.200012 627.299988 H 283.400012 V 681.899986 H 273.200012 V 627.299988 Z" fill="#EABA7B"/>
	</g>
	<g>
		<path d="M 144.89999389648438 514.0999755859375 L 127.5 514.0999755859375 L 111 528.2999877929688 L 111 627.2999877929688 L 104.80000305175781 627.2999877929688 L 104.80000305175781 526.5999755859375 L 128.8000030517578 505.1000061035156 L 142.39999389648438 505.1000061035156 Z" fill="#EABA7B"/>
		<path d="M 103.099998 627.299988 H 113.299998 V 681.899986 H 103.099998 V 627.299988 Z" fill="#EABA7B"/>
	</g>
	<g>
		<path d="M 1256 514.0999755859375 L 1238.5999755859375 514.0999755859375 L 1222.199951171875 528.2999877929688 L 1222.199951171875 627.2999877929688 L 1216 627.2999877929688 L 1216 526.5999755859375 L 1239.9000244140625 505.1000061035156 L 1253.5999755859375 505.1000061035156 Z" fill="#EABA7B"/>
		<path d="M 1214.300049 627.299988 H 1224.500049 V 681.899986 H 1214.300049 V 627.299988 Z" fill="#EABA7B"/>
	</g>
</g>
<g>
	<path fill="#4E3C38" d="M867.9,770.4v69l-9.7-0.6c-18.9,0-34.2-15.3-34.2-34.2c0-18.9,15.3-34.2,34.2-34.2L867.9,770.4z"/>
	<path fill="#664F4A" d="M901.6,804.9c0,19.1-15.5,34.6-34.6,34.6c-19.1,0-34.6-15.5-34.6-34.6c0-19.1,15.5-34.6,34.6-34.6&#10;&#9;&#9;C886.1,770.4,901.6,785.8,901.6,804.9z"/>
	<path fill="#4E3C38" d="M1144.9,770.4v69l-9.7-0.6c-18.9,0-34.2-15.3-34.2-34.2c0-18.9,15.3-34.2,34.2-34.2L1144.9,770.4z"/>
	<path fill="#664F4A" d="M1178.6,804.9c0,19.1-15.5,34.6-34.6,34.6c-19.1,0-34.6-15.5-34.6-34.6c0-19.1,15.5-34.6,34.6-34.6&#10;&#9;&#9;C1163.2,770.4,1178.6,785.8,1178.6,804.9z"/>
	<path fill="#4E3C38" d="M1165.2,804.9c0,11.7-9.5,21.1-21.1,21.1c-11.7,0-21.1-9.4-21.1-21.1c0-11.7,9.5-21.1,21.1-21.1&#10;&#9;&#9;C1155.7,783.8,1165.2,793.3,1165.2,804.9z"/>
	<path fill="#664F4A" d="M1009.1,804.9c0,19.1-15.5,34.6-34.6,34.6c-19.1,0-34.6-15.5-34.6-34.6c0-19.1,15.5-34.6,34.6-34.6&#10;&#9;&#9;C993.7,770.4,1009.1,785.8,1009.1,804.9z"/>
	<path fill="#4E3C38" d="M995.7,804.9c0,11.7-9.5,21.1-21.1,21.1c-11.7,0-21.1-9.4-21.1-21.1c0-11.7,9.4-21.1,21.1-21.1&#10;&#9;&#9;C986.2,783.8,995.7,793.3,995.7,804.9z"/>
	<path fill="#E36F32" d="M1314.1,736.2c-1.5,0-2.7-1-2.7-2.2c0-1.2,1.2-2.2,2.7-2.2h15v-12.1h-170.7V787h170.7v-31.5h-15&#10;&#9;&#9;c-1.5,0-2.7-1-2.7-2.2c0-1.2,1.2-2.2,2.7-2.2h15v-4.9h-15c-1.5,0-2.7-1-2.7-2.2c0-1.2,1.2-2.2,2.7-2.2h15v-5.6H1314.1z"/>
	<path fill="#C2552E" d="M1311.4,734c0,1.2,1.2,2.2,2.7,2.2h15v-4.4h-15C1312.6,731.8,1311.4,732.8,1311.4,734z"/>
	<path fill="#C2552E" d="M1311.4,744c0,1.2,1.2,2.2,2.7,2.2h15v-4.4h-15C1312.6,741.8,1311.4,742.8,1311.4,744z"/>
	<path fill="#C2552E" d="M1311.4,753.3c0,1.2,1.2,2.2,2.7,2.2h15v-4.4h-15C1312.6,751.1,1311.4,752.1,1311.4,753.3z"/>
	<path fill="#855E70" d="M1337.1,800c0,4.9-4,9-9,9h-169.8v-22h169.8c4.9,0,9,4,9,9V800z"/>
	<path fill="#363837" d="M1281.8,809c0-28.1-21.6-51-48.1-51s-48.1,22.8-48.1,51H1281.8z"/>
	<path fill="#4E3C38" d="M1240,770.4v69l-9.7-0.6c-18.9,0-34.2-15.3-34.2-34.2c0-18.9,15.3-34.2,34.2-34.2L1240,770.4z"/>
	<path fill="#664F4B" d="M1273.7,804.9c0,19.1-15.5,34.6-34.6,34.6s-34.6-15.5-34.6-34.6c0-19.1,15.5-34.6,34.6-34.6&#10;&#9;&#9;S1273.7,785.8,1273.7,804.9z"/>
	<path fill="#E4E3B4" d="M1260.3,804.9c0,11.7-9.5,21.1-21.1,21.1c-11.7,0-21.1-9.4-21.1-21.1c0-11.7,9.4-21.1,21.1-21.1&#10;&#9;&#9;C1250.8,783.8,1260.3,793.3,1260.3,804.9z"/>
	<path d="M 1251.799952 804.900024 A 12.6 12.6 0 0 1 1239.199951 817.500025 A 12.6 12.6 0 0 1 1226.599951 804.900024 A 12.6 12.6 0 0 1 1239.199951 792.300024 A 12.6 12.6 0 0 1 1251.799952 804.900024 Z" fill="#CDCBA2"/>
	<path fill="#FFAD3D" d="M1331.2,779.3h-23.4v-17.4h23.4c2.5,0,4.5,2,4.5,4.5v8.4C1335.7,777.3,1333.7,779.3,1331.2,779.3z"/>
	<path d="M 878.799988 554.200012 H 1139.799988 V 787.000015 H 878.799988 V 554.200012 Z" fill="#ECE6B3" style="fill: rgb(64, 79, 214);"/>
	<path d="M 691 771 H 750.5 V 839.400002 H 691 V 771 Z" fill="#DD8F36"/>
	<path d="M 670.599976 771 H 690.999975 V 839.400002 H 670.599976 V 771 Z" fill="#B77A2F"/>
	<path d="M 878.799988 565.700012 H 1139.799988 V 572.200012 H 878.799988 V 565.700012 Z" fill="#CDCBA2" style="fill: rgb(49, 60, 163);"/>
	<path d="M 878.799988 767.799988 H 1139.799988 V 774.299988 H 878.799988 V 767.799988 Z" fill="#CDCBA2" style="fill: rgb(49, 61, 164);"/>
	<path fill="#855E70" d="M766.1,809h373.7v-22H766.1c-5,0-9,4-9,9v4C757.1,805,761.1,809,766.1,809z"/>
	<path d="M 765.200012 554.200012 H 878.900009 V 787.000015 H 765.200012 V 554.200012 Z" fill="#CDCBA2" style="fill: rgb(49, 61, 164);"/>
	<path fill="#F47A3B" d="M1329.1,716.7c0-5-3.8-10.2-8.6-11.8l-43.4-14.1c0,0-6.7-20.2-16.9-49.9c-10.1-29.7-20.1-29.2-38.5-29.2&#10;&#9;&#9;c-18.4,0-63.3,0-63.3,0v108h170.7V716.7z"/>
	<path d="M 703.900024 831.400024 H 789.900024 V 839.500025 H 703.900024 V 831.400024 Z" fill="#B6B48E"/>
	<path d="M 858.5999755859375 778.7000122070312 L 781.0999755859375 778.7000122070312 L 703.9000244140625 831.4000244140625 L 790 831.4000244140625 Z" fill="#ECE6B3"/>
	<path d="M 790 831.4000244140625 L 790 839.4000244140625 L 858.5999755859375 787 L 858.5999755859375 778.7000122070312 Z" fill="#CDCBA2"/>
	<g>
		<path fill="#B6B48E" d="M841,787h-59.4c-0.5,0-1-0.4-1-1c0-0.5,0.4-1,1-1H841c0.5,0,1,0.4,1,1C841.9,786.5,841.5,787,841,787z"/>
	</g>
	<g>
		<path fill="#B6B48E" d="M823.2,799h-59.4c-0.5,0-1-0.4-1-1c0-0.5,0.4-1,1-1h59.4c0.5,0,1,0.4,1,1C824.2,798.5,823.8,799,823.2,799&#10;&#9;&#9;&#9;z"/>
	</g>
	<g>
		<path fill="#B6B48E" d="M804,811.5h-59.4c-0.5,0-1-0.4-1-1c0-0.5,0.4-1,1-1H804c0.5,0,1,0.4,1,1&#10;&#9;&#9;&#9;C804.9,811.1,804.5,811.5,804,811.5z"/>
	</g>
	<path d="M 790 576.099976 H 862.800003 V 778.699982 H 790 V 576.099976 Z" fill="#5C4150"/>
	<g>
		<path fill="#B6B48E" d="M786,823.6h-59.4c-0.5,0-1-0.4-1-1c0-0.5,0.4-1,1-1H786c0.5,0,1,0.4,1,1&#10;&#9;&#9;&#9;C786.9,823.2,786.5,823.6,786,823.6z"/>
	</g>
	<path d="M 1165.699951 619.5 H 1192.399952 V 690.599998 H 1165.699951 V 619.5 Z" fill="#E36F32"/>
	<path fill="#B7DED3" d="M1265,686.9c0.9,2.7-0.6,4.8-3.4,4.8H1208c-2.8,0-5.1-2.3-5.1-5.1v-62c0-2.8,2.3-5.1,5.1-5.1h28.8&#10;&#9;&#9;c2.8,0,5.8,2.2,6.8,4.8L1265,686.9z"/>
	<path fill="#855E70" d="M1268,625.4l9.8,24.6c0,0,0.9,0,2.3,0l-9.8-24.6H1268z"/>
	<path fill="#E36F32" d="M1288.7,641.5l-4.2-12.5c-2.4-6.9-5.4-8.5-8.6-8.5h-2.3h-3.4h-2.3h-18.6v5h18.6h2.3l9.8,24.6&#10;&#9;&#9;c0,0,1.4,0,3.4,0c0.7,0,1.5,0,2.3,0C1289,650,1290.3,646.2,1288.7,641.5z"/>
	<path d="M 1139.800049 787 H 1158.400049 V 809 H 1139.800049 V 787 Z" fill="#684C5B"/>
	<path d="M 780.599976 576.099976 H 789.899976 V 778.699982 H 780.599976 V 576.099976 Z" fill="#B6B48E"/>
	<path d="M 824.299988 721.400024 H 862.799988 V 778.800026 H 824.299988 V 721.400024 Z" fill="#DD8F36"/>
	<path d="M 803.5 721.400024 H 824.299999 V 778.800026 H 803.5 V 721.400024 Z" fill="#B77A2F"/>
	<path d="M 819.799988 681.299988 H 849.999989 V 721.299988 H 819.799988 V 681.299988 Z" fill="#B77A2F"/>
	<path d="M 922.299988 732.099976 H 947.499989 V 818.099976 H 922.299988 V 732.099976 Z" fill="#B77A2F"/>
	<path d="M 1139.800049 611.700012 H 1158.400049 V 787.000015 H 1139.800049 V 611.700012 Z" fill="#E06442"/>
	<path d="M 872.799988 772.299988 H 939.999985 V 839.399986 H 872.799988 V 772.299988 Z" fill="#DF8F36"/>
	<path d="M 844.299988 772.299988 H 872.799988 V 839.399986 H 844.299988 V 772.299988 Z" fill="#B77A2F"/>
	<path fill="#C2552E" d="M1139.8,611.7v-21.1h47.1c28.8,0,27.6,21.1,27.6,21.1H1139.8z"/>
	<path d="M 910.599976 818.099976 H 993.599976 V 839.399975 H 910.599976 V 818.099976 Z" fill="#DF8F36"/>
	<path d="M 894.799988 818.099976 H 910.599988 V 839.399975 H 894.799988 V 818.099976 Z" fill="#B77A2F"/>
	<path d="M 947.5 732.099976 H 979.900002 V 818.099976 H 947.5 V 732.099976 Z" fill="#DD8F36"/>
	<path d="M 850 681.299988 H 862.8 V 721.299988 H 850 V 681.299988 Z" fill="#DD8F36"/>
	<path fill="#D55F3C" d="M765.4,772.3h15.2V755h-15.2c-2.5,0-4.5,2-4.5,4.5v8.3C760.9,770.3,763,772.3,765.4,772.3z"/>
	<path fill="#F47A3B" d="M894,772.3h-15.2V755H894c2.5,0,4.5,2,4.5,4.5v8.3C898.5,770.3,896.5,772.3,894,772.3z"/>
	<path d="M 862.799988 755 H 878.899988 V 772.299999 H 862.799988 V 755 Z" fill="#D55F3C"/>
	<path d="M 650.799988 797 H 684.499989 V 839.400002 H 650.799988 V 797 Z" fill="#DD8F36"/>
	<path d="M 634 797 H 650.799999 V 839.400002 H 634 V 797 Z" fill="#B77A2F"/>
	<path d="M 664.0999755859375 755 L 684.5 755 L 691 771 L 670.5999755859375 771 Z" fill="#C2822E"/>
	<path d="M 757 755 L 697.5 755 L 691 771 L 750.5 771 Z" fill="#C2822E"/>
<path d="M 828.6113891601562 569.1481323242188 L 828.6113891601562 569.1481323242188" style="fill: rgb(64, 79, 214); fill-opacity: 1; stroke: rgb(0, 0, 0); stroke-opacity: 1; stroke-width: 0; paint-order: fill;"/><path d="M 803.4507446289062 564.7877807617188 L 803.4507446289062 564.7877807617188" style="fill: rgb(49, 61, 164); fill-opacity: 1; stroke: rgb(0, 0, 0); stroke-opacity: 1; stroke-width: 0; paint-order: fill;"/><path d="M 936.9917602539062 659.9196166992188 L 936.9917602539062 676.2396240234375 L 933.6717529296875 676.2396240234375 L 933.6717529296875 663.61962890625 L 933.311767578125 663.61962890625 L 930.1217651367188 675.5196533203125 L 926.811767578125 675.5196533203125 L 923.6217651367188 663.61962890625 L 923.2617797851562 663.61962890625 L 923.2617797851562 676.2396240234375 L 919.9517822265625 676.2396240234375 L 919.9517822265625 659.9196166992188 L 925.5917358398438 659.9196166992188 L 928.4717407226562 671.7996215820312 L 931.3517456054688 659.9196166992188 L 936.9917602539062 659.9196166992188 ZM 943.179931640625 676.5296020507812 C 940.699951171875 676.5296020507812 939.4599609375 675.21630859375 939.4599609375 672.589599609375 C 939.4599609375 671.3429565429688 939.7899780273438 670.4429321289062 940.449951171875 669.8896484375 C 941.1166381835938 669.3363037109375 942.1866455078125 669.012939453125 943.6599731445312 668.9196166992188 L 946.219970703125 668.7296142578125 L 946.219970703125 667.9796142578125 C 946.219970703125 667.4996337890625 946.11328125 667.166259765625 945.8999633789062 666.9796142578125 C 945.6866455078125 666.7863159179688 945.3233032226562 666.6896362304688 944.8099365234375 666.6896362304688 C 944.2832641601562 666.6896362304688 943.5532836914062 666.7095947265625 942.6199340820312 666.7496337890625 C 941.6932983398438 666.7896118164062 940.919921875 666.8329467773438 940.2999267578125 666.879638671875 L 940.199951171875 664.6495971679688 C 941.9266357421875 664.1829833984375 943.5599365234375 663.9496459960938 945.0999755859375 663.9496459960938 C 946.63330078125 663.9496459960938 947.7399291992188 664.2696533203125 948.419921875 664.9096069335938 C 949.0999755859375 665.5496215820312 949.43994140625 666.5729370117188 949.43994140625 667.9796142578125 L 949.43994140625 672.9796142578125 C 949.4732666015625 673.379638671875 949.5399780273438 673.6495971679688 949.6399536132812 673.7896118164062 C 949.7466430664062 673.936279296875 949.9432983398438 674.0396118164062 950.2299194335938 674.099609375 L 950.1399536132812 676.5296020507812 C 949.306640625 676.5296020507812 948.6466064453125 676.4729614257812 948.1599731445312 676.359619140625 C 947.6666259765625 676.2462768554688 947.179931640625 676.02294921875 946.699951171875 675.6896362304688 C 945.5332641601562 676.2496337890625 944.3599243164062 676.5296020507812 943.179931640625 676.5296020507812 M 943.8699340820312 673.9096069335938 C 944.4766235351562 673.9096069335938 945.1399536132812 673.8129272460938 945.8599243164062 673.61962890625 L 946.219970703125 673.5296020507812 L 946.219970703125 670.9595947265625 L 944.0399780273438 671.1495971679688 C 943.1466064453125 671.2296142578125 942.699951171875 671.7095947265625 942.699951171875 672.589599609375 C 942.699951171875 673.4696044921875 943.0899658203125 673.9096069335938 943.8699340820312 673.9096069335938 ZM 956.7117309570312 676.5296020507812 C 955.6517333984375 676.5296020507812 954.3617553710938 676.3862915039062 952.8417358398438 676.099609375 L 952.0817260742188 675.9496459960938 L 952.1717529296875 673.2596435546875 C 954.1117553710938 673.5196533203125 955.521728515625 673.6495971679688 956.4017333984375 673.6495971679688 C 956.9884033203125 673.6495971679688 957.455078125 673.5863037109375 957.8017578125 673.4595947265625 C 958.1483764648438 673.3262939453125 958.3217163085938 673.0863037109375 958.3217163085938 672.7396240234375 C 958.3217163085938 672.4196166992188 958.1550903320312 672.186279296875 957.8217163085938 672.0396118164062 C 957.4950561523438 671.8929443359375 956.9484252929688 671.7562866210938 956.1817016601562 671.629638671875 C 955.8950805664062 671.5963134765625 955.695068359375 671.5662841796875 955.5817260742188 671.5396118164062 C 954.78173828125 671.3929443359375 954.1250610351562 671.2129516601562 953.6117553710938 670.9996337890625 C 953.098388671875 670.7796020507812 952.6817016601562 670.4329833984375 952.3617553710938 669.9595947265625 C 952.041748046875 669.4929809570312 951.8817138671875 668.8329467773438 951.8817138671875 667.9796142578125 C 951.8817138671875 666.61962890625 952.2984008789062 665.6129760742188 953.1317138671875 664.9595947265625 C 953.965087890625 664.3062744140625 955.1083984375 663.9796142578125 956.5617065429688 663.9796142578125 C 957.4284057617188 663.9796142578125 958.7017211914062 664.129638671875 960.3817138671875 664.4296264648438 L 961.1717529296875 664.5796508789062 L 961.1217041015625 667.2396240234375 C 959.1884155273438 666.9862670898438 957.7584228515625 666.859619140625 956.8317260742188 666.859619140625 C 956.2850341796875 666.859619140625 955.8550415039062 666.9129638671875 955.541748046875 667.0196533203125 C 955.2350463867188 667.1329345703125 955.0817260742188 667.349609375 955.0817260742188 667.6696166992188 C 955.0817260742188 668.0096435546875 955.24169921875 668.2462768554688 955.5617065429688 668.379638671875 C 955.8817138671875 668.512939453125 956.4017333984375 668.6463012695312 957.1217041015625 668.7796020507812 L 957.9617309570312 668.9196166992188 C 959.24169921875 669.1729736328125 960.1517333984375 669.552978515625 960.6917114257812 670.0596313476562 C 961.2384033203125 670.5662841796875 961.51171875 671.379638671875 961.51171875 672.4996337890625 C 961.51171875 673.8729858398438 961.118408203125 674.8862915039062 960.3317260742188 675.5396118164062 C 959.5517578125 676.1996459960938 958.3450317382812 676.5296020507812 956.7117309570312 676.5296020507812 ZM 968.03759765625 676.5296020507812 C 966.9776000976562 676.5296020507812 965.6876220703125 676.3862915039062 964.1676025390625 676.099609375 L 963.4075927734375 675.9496459960938 L 963.4976196289062 673.2596435546875 C 965.4376220703125 673.5196533203125 966.8475952148438 673.6495971679688 967.7276000976562 673.6495971679688 C 968.3142700195312 673.6495971679688 968.7809448242188 673.5863037109375 969.1276245117188 673.4595947265625 C 969.4742431640625 673.3262939453125 969.6475830078125 673.0863037109375 969.6475830078125 672.7396240234375 C 969.6475830078125 672.4196166992188 969.48095703125 672.186279296875 969.1475830078125 672.0396118164062 C 968.8209228515625 671.8929443359375 968.2742919921875 671.7562866210938 967.507568359375 671.629638671875 C 967.220947265625 671.5963134765625 967.0209350585938 671.5662841796875 966.9075927734375 671.5396118164062 C 966.1076049804688 671.3929443359375 965.450927734375 671.2129516601562 964.9376220703125 670.9996337890625 C 964.4242553710938 670.7796020507812 964.007568359375 670.4329833984375 963.6876220703125 669.9595947265625 C 963.3676147460938 669.4929809570312 963.2075805664062 668.8329467773438 963.2075805664062 667.9796142578125 C 963.2075805664062 666.61962890625 963.624267578125 665.6129760742188 964.4575805664062 664.9595947265625 C 965.2909545898438 664.3062744140625 966.4342651367188 663.9796142578125 967.8875732421875 663.9796142578125 C 968.7542724609375 663.9796142578125 970.027587890625 664.129638671875 971.7075805664062 664.4296264648438 L 972.4976196289062 664.5796508789062 L 972.4475708007812 667.2396240234375 C 970.5142822265625 666.9862670898438 969.0842895507812 666.859619140625 968.1575927734375 666.859619140625 C 967.6109008789062 666.859619140625 967.180908203125 666.9129638671875 966.8676147460938 667.0196533203125 C 966.5609130859375 667.1329345703125 966.4075927734375 667.349609375 966.4075927734375 667.6696166992188 C 966.4075927734375 668.0096435546875 966.5675659179688 668.2462768554688 966.8875732421875 668.379638671875 C 967.2075805664062 668.512939453125 967.7276000976562 668.6463012695312 968.4475708007812 668.7796020507812 L 969.28759765625 668.9196166992188 C 970.5675659179688 669.1729736328125 971.4776000976562 669.552978515625 972.017578125 670.0596313476562 C 972.5642700195312 670.5662841796875 972.8375854492188 671.379638671875 972.8375854492188 672.4996337890625 C 972.8375854492188 673.8729858398438 972.4442749023438 674.8862915039062 971.6575927734375 675.5396118164062 C 970.8776245117188 676.1996459960938 969.6708984375 676.5296020507812 968.03759765625 676.5296020507812 ZM 992.4935302734375 659.9196166992188 L 992.4935302734375 676.2396240234375 L 989.1735229492188 676.2396240234375 L 989.1735229492188 663.61962890625 L 988.8135375976562 663.61962890625 L 985.62353515625 675.5196533203125 L 982.3135375976562 675.5196533203125 L 979.12353515625 663.61962890625 L 978.7635498046875 663.61962890625 L 978.7635498046875 676.2396240234375 L 975.4535522460938 676.2396240234375 L 975.4535522460938 659.9196166992188 L 981.093505859375 659.9196166992188 L 983.9735107421875 671.7996215820312 L 986.853515625 659.9196166992188 L 992.4935302734375 659.9196166992188 ZM 1000.497802734375 676.5296020507812 C 998.6911010742188 676.5296020507812 997.3211059570312 675.9796142578125 996.3878173828125 674.879638671875 C 995.4478149414062 673.7863159179688 994.977783203125 672.2329711914062 994.977783203125 670.2196044921875 C 994.977783203125 668.2196044921875 995.4478149414062 666.6729736328125 996.3878173828125 665.5796508789062 C 997.3211059570312 664.4929809570312 998.6911010742188 663.9496459960938 1000.497802734375 663.9496459960938 C 1002.3111572265625 663.9496459960938 1003.6844482421875 664.4929809570312 1004.6177978515625 665.5796508789062 C 1005.5511474609375 666.6729736328125 1006.017822265625 668.2196044921875 1006.017822265625 670.2196044921875 C 1006.017822265625 672.2329711914062 1005.5511474609375 673.7863159179688 1004.6177978515625 674.879638671875 C 1003.6844482421875 675.9796142578125 1002.3111572265625 676.5296020507812 1000.497802734375 676.5296020507812 M 1000.497802734375 673.7896118164062 C 1001.2711181640625 673.7896118164062 1001.8411254882812 673.5096435546875 1002.2078247070312 672.9496459960938 C 1002.574462890625 672.3896484375 1002.7578125 671.4796142578125 1002.7578125 670.2196044921875 C 1002.7578125 668.9529418945312 1002.574462890625 668.0462646484375 1002.2078247070312 667.4996337890625 C 1001.8411254882812 666.9595947265625 1001.2711181640625 666.6896362304688 1000.497802734375 666.6896362304688 C 999.7311401367188 666.6896362304688 999.1644897460938 666.9595947265625 998.7977905273438 667.4996337890625 C 998.43115234375 668.0462646484375 998.247802734375 668.9529418945312 998.247802734375 670.2196044921875 C 998.247802734375 671.4796142578125 998.43115234375 672.3896484375 998.7977905273438 672.9496459960938 C 999.1644897460938 673.5096435546875 999.7311401367188 673.7896118164062 1000.497802734375 673.7896118164062 ZM 1007.075439453125 664.2396240234375 L 1010.4354248046875 664.2396240234375 L 1012.35546875 673.4996337890625 L 1013.0254516601562 673.4996337890625 L 1015.0454711914062 664.2396240234375 L 1018.3054809570312 664.2396240234375 L 1015.4254760742188 676.2396240234375 L 1009.9554443359375 676.2396240234375 L 1007.075439453125 664.2396240234375 ZM 1020.1552124023438 676.2396240234375 M 1020.1552124023438 664.2396240234375 L 1023.365234375 664.2396240234375 L 1023.365234375 676.2396240234375 L 1020.1552124023438 676.2396240234375 L 1020.1552124023438 664.2396240234375 M 1020.1552124023438 659.4595947265625 L 1023.365234375 659.4595947265625 L 1023.365234375 662.6996459960938 L 1020.1552124023438 662.6996459960938 L 1020.1552124023438 659.4595947265625 ZM 1026.3460693359375 664.2396240234375 L 1029.5361328125 664.2396240234375 L 1029.5361328125 664.9096069335938 C 1030.1427001953125 664.5562744140625 1030.6827392578125 664.3096313476562 1031.1561279296875 664.1696166992188 C 1031.62939453125 664.02294921875 1032.1361083984375 663.9496459960938 1032.676025390625 663.9496459960938 C 1034.1494140625 663.9496459960938 1035.199462890625 664.4229736328125 1035.8260498046875 665.36962890625 C 1036.446044921875 666.3096313476562 1036.756103515625 667.7662963867188 1036.756103515625 669.7396240234375 L 1036.756103515625 676.2396240234375 L 1033.5460205078125 676.2396240234375 L 1033.5460205078125 669.8296508789062 C 1033.5460205078125 668.7296142578125 1033.4127197265625 667.9529418945312 1033.1461181640625 667.4996337890625 C 1032.8861083984375 667.052978515625 1032.3861083984375 666.8296508789062 1031.6461181640625 666.8296508789062 C 1031.119384765625 666.8296508789062 1030.5194091796875 666.9429321289062 1029.8460693359375 667.1696166992188 L 1029.5560302734375 667.2596435546875 L 1029.5560302734375 676.2396240234375 L 1026.3460693359375 676.2396240234375 L 1026.3460693359375 664.2396240234375 ZM 1044.4356689453125 681.7596435546875 C 1042.7222900390625 681.7596435546875 1041.392333984375 681.5062866210938 1040.445556640625 680.9996337890625 C 1039.4923095703125 680.4996337890625 1039.015625 679.6796264648438 1039.015625 678.5396118164062 C 1039.015625 677.9529418945312 1039.1556396484375 677.4296264648438 1039.4356689453125 676.9696044921875 C 1039.715576171875 676.5162963867188 1040.1522216796875 676.0496215820312 1040.74560546875 675.5696411132812 C 1040.4522705078125 675.3762817382812 1040.2322998046875 675.1262817382812 1040.0855712890625 674.8196411132812 C 1039.9322509765625 674.5196533203125 1039.8555908203125 674.1996459960938 1039.8555908203125 673.859619140625 C 1039.8555908203125 673.61962890625 1039.9156494140625 673.3729858398438 1040.03564453125 673.11962890625 C 1040.1556396484375 672.8662719726562 1040.4056396484375 672.4329833984375 1040.78564453125 671.8196411132812 C 1039.698974609375 671.0196533203125 1039.1556396484375 669.8529663085938 1039.1556396484375 668.3196411132812 C 1039.1556396484375 666.8662719726562 1039.5989990234375 665.782958984375 1040.485595703125 665.0696411132812 C 1041.37890625 664.3562622070312 1042.6156005859375 663.9996337890625 1044.195556640625 663.9996337890625 C 1044.868896484375 663.9996337890625 1045.678955078125 664.1029663085938 1046.6256103515625 664.3096313476562 L 1050.485595703125 664.1896362304688 L 1050.485595703125 666.7596435546875 L 1048.6856689453125 666.61962890625 C 1048.892333984375 666.9529418945312 1049.0322265625 667.2396240234375 1049.1055908203125 667.4796142578125 C 1049.178955078125 667.7196044921875 1049.215576171875 668.0462646484375 1049.215576171875 668.4595947265625 C 1049.215576171875 669.8995971679688 1048.8056640625 670.9296264648438 1047.985595703125 671.5496215820312 C 1047.1722412109375 672.1629638671875 1045.9322509765625 672.4696044921875 1044.265625 672.4696044921875 C 1043.78564453125 672.4696044921875 1043.4189453125 672.4396362304688 1043.1656494140625 672.379638671875 C 1043.005615234375 672.7596435546875 1042.9256591796875 673.0863037109375 1042.9256591796875 673.359619140625 C 1042.9256591796875 673.6929321289062 1043.0889892578125 673.8963012695312 1043.4156494140625 673.9696044921875 C 1043.7423095703125 674.04296875 1044.3555908203125 674.0863037109375 1045.255615234375 674.099609375 C 1046.4888916015625 674.1329345703125 1047.468994140625 674.2296142578125 1048.195556640625 674.3896484375 C 1048.9222412109375 674.5496215820312 1049.485595703125 674.8729858398438 1049.8856201171875 675.359619140625 C 1050.28564453125 675.8529663085938 1050.485595703125 676.5696411132812 1050.485595703125 677.5096435546875 C 1050.485595703125 678.9696044921875 1049.9888916015625 680.04296875 1048.99560546875 680.7296142578125 C 1048.0023193359375 681.4163208007812 1046.4822998046875 681.7596435546875 1044.4356689453125 681.7596435546875 M 1044.2255859375 670.0196533203125 C 1045.43896484375 670.0196533203125 1046.045654296875 669.4296264648438 1046.045654296875 668.2496337890625 C 1046.045654296875 667.0829467773438 1045.43896484375 666.4996337890625 1044.2255859375 666.4996337890625 C 1042.9923095703125 666.4996337890625 1042.3756103515625 667.0829467773438 1042.3756103515625 668.2496337890625 C 1042.3756103515625 669.4296264648438 1042.9923095703125 670.0196533203125 1044.2255859375 670.0196533203125 M 1044.6556396484375 679.11962890625 C 1045.5689697265625 679.11962890625 1046.22900390625 679.0162963867188 1046.6356201171875 678.8096313476562 C 1047.042236328125 678.6029663085938 1047.24560546875 678.282958984375 1047.24560546875 677.849609375 C 1047.24560546875 677.4496459960938 1047.0989990234375 677.1962890625 1046.8056640625 677.089599609375 C 1046.505615234375 676.9896240234375 1046.158935546875 676.9296264648438 1045.765625 676.9096069335938 C 1045.37890625 676.8963012695312 1045.118896484375 676.8896484375 1044.985595703125 676.8896484375 L 1042.8255615234375 676.7196044921875 C 1042.39892578125 677.1529541015625 1042.1856689453125 677.5863037109375 1042.1856689453125 678.0196533203125 C 1042.1856689453125 678.3995971679688 1042.388916015625 678.6796264648438 1042.795654296875 678.859619140625 C 1043.2022705078125 679.032958984375 1043.822265625 679.11962890625 1044.6556396484375 679.11962890625 Z" transform="matrix(1.5834990739822388, 0, 0, 1.5834990739822388, -552.8291015625, -419.0712585449219)" style="fill: rgb(255, 255, 255); white-space: pre; color: rgb(255, 255, 255);"/></g>
<g>
	<path d="M 398.899994 600.099976 H 407.699994 V 766.399979 H 398.899994 V 600.099976 Z" fill="#363837"/>
	<path d="M 408.20001220703125 824.7000122070312 L 220 824.7000122070312 L 220 786.5 L 344.1000061035156 786.5 L 367.20001220703125 768.2999877929688 L 408.20001220703125 759.5 Z" fill="#363837"/>
	<path d="M 407.70001220703125 591.4000244140625 L 407.70001220703125 712.5 L 391.1000061035156 712.5 L 391.1000061035156 732.9000244140625 L 407.70001220703125 732.9000244140625 L 407.70001220703125 806.4000244140625 L 419.29998779296875 806.4000244140625 L 419.29998779296875 591.4000244140625 Z" fill="#F47A3B" style="fill: rgb(46, 56, 153);"/>
	<path fill="#4E3C38" d="M428,806.4c0,18.3-14.8,33.1-33.1,33.1c-18.3,0-33.1-14.8-33.1-33.1c0-18.3,14.8-33.1,33.1-33.1&#10;&#9;&#9;C413.2,773.3,428,788.1,428,806.4z"/>
	<path d="M 417.499994 806.400024 A 22.6 22.6 0 0 1 394.899994 829.000025 A 22.6 22.6 0 0 1 372.299994 806.400024 A 22.6 22.6 0 0 1 394.899994 783.800024 A 22.6 22.6 0 0 1 417.499994 806.400024 Z" fill="#664F4B"/>
	<g>
		<path fill="#C2552E" d="M272.7,749.1c-7.4,0-10.9-12.4-13.3-20.7l-0.3-1.1c-1.9-6.6-6.1-20.2-6.1-20.3c-0.3-1,0.3-2.1,1.3-2.5&#10;&#9;&#9;&#9;c1-0.3,2.1,0.3,2.5,1.3c0,0.1,4.3,13.8,6.2,20.4l0.3,1.2c1.5,5.3,5,17.8,9.5,17.8c1.1,0,2,0.9,2,2&#10;&#9;&#9;&#9;C274.7,748.2,273.8,749.1,272.7,749.1z"/>
	</g>
	
		<path d="M 391.200012 789.799988 H 398.700012 V 822.899986 H 391.200012 V 789.799988 Z" transform="matrix(0.9204 0.3909 -0.3909 0.9204 346.6307 -90.2233)" fill="#E4E3B4"/>
	
		<path d="M 391.200012 789.799988 H 398.700012 V 822.899986 H 391.200012 V 789.799988 Z" transform="matrix(-0.3908 0.9205 -0.9205 -0.3908 1291.5577 757.9938)" fill="#E4E3B4"/>
	<path fill="#363837" d="M394.9,787c-10.7,0-19.4,8.7-19.4,19.4c0,10.7,8.7,19.4,19.4,19.4c10.7,0,19.4-8.7,19.4-19.4&#10;&#9;&#9;C414.3,795.7,405.7,787,394.9,787z M394.9,821.7c-8.5,0-15.3-6.9-15.3-15.4c0-8.5,6.9-15.3,15.3-15.3c8.5,0,15.3,6.9,15.3,15.3&#10;&#9;&#9;C410.3,814.9,403.4,821.7,394.9,821.7z"/>
	<path d="M 406.799994 806.400024 A 11.9 11.9 0 0 1 394.899994 818.300024 A 11.9 11.9 0 0 1 382.999994 806.400024 A 11.9 11.9 0 0 1 394.899994 794.500025 A 11.9 11.9 0 0 1 406.799994 806.400024 Z" fill="#CDCBA2"/>
	<path fill="#E4E3B4" d="M404.8,806.1c0,1.3-1,2.3-2.3,2.3c-1.3,0-2.3-1-2.3-2.3c0-1.3,1-2.3,2.3-2.3&#10;&#9;&#9;C403.8,803.8,404.8,804.8,404.8,806.1z"/>
	<path fill="#E4E3B4" d="M389.7,806.1c0,1.3-1,2.3-2.3,2.3c-1.3,0-2.3-1-2.3-2.3c0-1.3,1-2.3,2.3-2.3&#10;&#9;&#9;C388.7,803.8,389.7,804.8,389.7,806.1z"/>
	<path fill="#5C4150" d="M304.4,738h-28.8c-2.6,0-4.6,2.1-4.6,4.6v5.2h38v-5.2C309,740.1,306.9,738,304.4,738z"/>
	<path fill="#5C4150" d="M274.2,731.8l-8.5-27.5c-0.8-2.4-3.4-3.8-5.8-3.1l-5,1.5l11.3,36.3l5-1.5&#10;&#9;&#9;C273.6,736.9,275,734.3,274.2,731.8z"/>
	<path fill="#C2552E" d="M306.2,751.1h-32.5c-1.5,0-2.8-0.7-2.8-1.6v-1.6h38c0,0,0,0.7,0,1.6S307.8,751.1,306.2,751.1z"/>
	<path d="M 276.899994 751.099976 H 285.799994 V 754.599976 H 276.899994 V 751.099976 Z" fill="#855E70"/>
	<path d="M 294.700012 751.099976 H 303.600012 V 755.999976 H 294.700012 V 751.099976 Z" fill="#855E70"/>
	<path d="M 401.199994 812.599976 A 2.3 2.3 0 0 1 398.899994 814.899976 A 2.3 2.3 0 0 1 396.599994 812.599976 A 2.3 2.3 0 0 1 398.899994 810.299976 A 2.3 2.3 0 0 1 401.199994 812.599976 Z" fill="#E4E3B4"/>
	<path d="M 393.400006 799.599976 A 2.3 2.3 0 0 1 391.100006 801.899976 A 2.3 2.3 0 0 1 388.800006 799.599976 A 2.3 2.3 0 0 1 391.100006 797.299976 A 2.3 2.3 0 0 1 393.400006 799.599976 Z" fill="#E4E3B4"/>
	<path d="M 407.70001220703125 742.5 L 403.20001220703125 737.7999877929688 L 407.70001220703125 733.0999755859375 Z" fill="#4E4F4F"/>
	<path d="M 407.70001220703125 751.7999877929688 L 403.20001220703125 747.2000122070312 L 407.70001220703125 742.5 Z" fill="#4E4F4F"/>
	<path d="M 407.70001220703125 759.5 L 403.20001220703125 754.7999877929688 L 407.70001220703125 750.0999755859375 Z" fill="#4E4F4F"/>
	<g>
		<path fill="#363837" d="M303.6,762.2v-3.9c6.4,0,8-1.5,9.6-6.1c1.9-5.4,6.6-23.4,6.6-23.6l3.8,1c-0.2,0.7-4.8,18.3-6.7,23.9&#10;&#9;&#9;&#9;C314.7,759.9,311.2,762.2,303.6,762.2z"/>
	</g>
	<path d="M 393.500012 812.599976 A 2.3 2.3 0 0 1 391.200012 814.899976 A 2.3 2.3 0 0 1 388.900012 812.599976 A 2.3 2.3 0 0 1 391.200012 810.299976 A 2.3 2.3 0 0 1 393.500012 812.599976 Z" fill="#E4E3B4"/>
	<path d="M 401.000012 799.5 A 2.3 2.3 0 0 1 398.700012 801.8 A 2.3 2.3 0 0 1 396.400012 799.5 A 2.3 2.3 0 0 1 398.700012 797.2 A 2.3 2.3 0 0 1 401.000012 799.5 Z" fill="#E4E3B4"/>
	<path fill="#363837" d="M327.3,704.7l-4.4,2.7l4.9,7.9c0.8,1.3,2.3,2.3,3.4,2.3l1.9-0.1l22.9,36.7l3.1-1.9l-22.9-36.7&#10;&#9;&#9;c0,0,0.4-0.8,0.9-1.7c0.5-0.9,0.2-2.8-0.6-4.1l-4.9-7.9L327.3,704.7z"/>
	<path fill="#ECE6B3" d="M407.5,729.1h-16.4v-12.3h16.4c1.5,0,2.8,1.2,2.8,2.8v6.8C410.3,727.9,409,729.1,407.5,729.1z"/>
	<path fill="#F47A3B" d="M401.5,764c-32.9,0-43.1,19.7-48.6,28.4c-4.1,6.5-12.6,22.5-16.8,30.3h6.1c0,0,9.1-16.2,14.7-27&#10;&#9;&#9;c11.5-22.3,25.3-26.9,50.9-26.9V764H401.5z"/>
	<path fill="#F47A3B" d="M398.9,759.5v-16.2h-39.6l-20.8,36.3H309v-15.7c0-5.1-4.2-9.3-9.3-9.3h-75.8v24.9h-44.1v33.8&#10;&#9;&#9;c0,5.1,4.2,9.3,9.3,9.3h35v-36.1H268c5.1,0,9.3,4.2,9.3,9.3v26.8h53.9c0,0,13.6-26,19.1-34.7C355.8,779.2,366,759.5,398.9,759.5z" style="fill: rgb(64, 79, 214);"/>
	<path fill="#E36F32" d="M401.5,764h6.2v-4.4h-8.8c-32.9,0-43.1,19.7-48.6,28.4c-5.5,8.8-19.1,34.7-19.1,34.7h5&#10;&#9;&#9;c4.1-7.8,12.7-23.8,16.8-30.3C358.4,783.6,368.6,764,401.5,764z"/>
	<path d="M 397.299988 749.700012 H 410.199987 V 753.700012 H 397.299988 V 749.700012 Z" fill="#C2552E"/>
	<path fill="#ECE6B3" d="M415,746v11.3h-4.7c-3.1,0-5.7-2.5-5.7-5.7c0-3.1,2.5-5.7,5.7-5.7H415z"/>
	<path d="M 412.200012 751.700012 A 2 2 0 0 1 410.200012 753.700012 A 2 2 0 0 1 408.200012 751.700012 A 2 2 0 0 1 410.200012 749.700012 A 2 2 0 0 1 412.200012 751.700012 Z" fill="#C2552E"/>
	<path fill="#ECE6B3" d="M381.8,757.8h15.5v-12h-15.5c-5.1,0-7,2.7-7,6C374.8,755.1,376.7,757.8,381.8,757.8z"/>
	<path d="M 382.400012 751.700012 A 2.2 2.2 0 0 1 380.200012 753.900012 A 2.2 2.2 0 0 1 378.000012 751.700012 A 2.2 2.2 0 0 1 380.200012 749.500012 A 2.2 2.2 0 0 1 382.400012 751.700012 Z" fill="#C2552E"/>
	<path d="M 223.899994 773.299988 H 308.999992 V 779.599988 H 223.899994 V 773.299988 Z" fill="#E36F32" style="fill: rgb(49, 61, 166);"/>
	<path fill="#855E70" d="M194.5,754.6h-5.4c-5.1,0-9.3,4.2-9.3,9.3v15.7h5.4v-15.7C185.2,758.8,189.3,754.6,194.5,754.6z"/>
	<path fill="#684C5B" d="M194.5,754.6c-5.1,0-9.3,4.2-9.3,9.3v15.7h38.7v-24.9H194.5z"/>
	<path fill="#4E3C38" d="M274.6,814.9c0,13.3-10.8,24.2-24.2,24.2c-13.3,0-24.2-10.8-24.2-24.2c0-13.3,10.8-24.2,24.2-24.2&#10;&#9;&#9;C263.8,790.7,274.6,801.5,274.6,814.9z"/>
	<path fill="#363837" d="M267.1,814.9c0,9.2-7.4,16.6-16.6,16.6c-9.2,0-16.6-7.4-16.6-16.6c0-9.2,7.4-16.6,16.6-16.6&#10;&#9;&#9;C259.6,798.2,267.1,805.7,267.1,814.9z"/>
	<path d="M 264.8 814.900024 A 14.3 14.3 0 0 1 250.5 829.200025 A 14.3 14.3 0 0 1 236.2 814.900024 A 14.3 14.3 0 0 1 250.5 800.600024 A 14.3 14.3 0 0 1 264.8 814.900024 Z" fill="#E4E3B4"/>
	<path d="M 262.4 814.900024 A 11.9 11.9 0 0 1 250.5 826.800024 A 11.9 11.9 0 0 1 238.6 814.900024 A 11.9 11.9 0 0 1 250.5 803.000025 A 11.9 11.9 0 0 1 262.4 814.900024 Z" fill="#CDCBA2"/>
	<path fill="#E36F32" d="M224.1,786.5h-12.7v-7h-26.2v33.8c0,5.1,4.2,9.3,9.3,9.3h16.9v-30.4h12.7V786.5z" style="fill: rgb(46, 56, 153);"/>
	<path d="M 253.3 814.900024 A 2.8 2.8 0 0 1 250.5 817.700024 A 2.8 2.8 0 0 1 247.7 814.900024 A 2.8 2.8 0 0 1 250.5 812.100024 A 2.8 2.8 0 0 1 253.3 814.900024 Z" fill="#E4E3B4"/>
	<g>
		<path fill="#E4E3B4" d="M255.4,808.6c0,0.8-0.7,1.5-1.5,1.5c-0.8,0-1.5-0.7-1.5-1.5c0-0.8,0.7-1.5,1.5-1.5&#10;&#9;&#9;&#9;C254.7,807.1,255.4,807.8,255.4,808.6z"/>
		<path fill="#E4E3B4" d="M255.4,821.1c0,0.8-0.7,1.5-1.5,1.5c-0.8,0-1.5-0.7-1.5-1.5c0-0.8,0.7-1.5,1.5-1.5&#10;&#9;&#9;&#9;C254.7,819.6,255.4,820.3,255.4,821.1z"/>
		<path d="M 244.899994 814.900024 A 1.5 1.5 0 0 1 243.399994 816.400024 A 1.5 1.5 0 0 1 241.899994 814.900024 A 1.5 1.5 0 0 1 243.399994 813.400024 A 1.5 1.5 0 0 1 244.899994 814.900024 Z" fill="#E4E3B4"/>
	</g>
	
		<path d="M 335.899994 690.599976 H 338.699994 V 698.199975 H 335.899994 V 690.599976 Z" transform="matrix(0.7928 -0.6094 0.6094 0.7928 -353.3248 349.3993)" fill="#363837"/>
	<path d="M 325.5 729.099976 A 4 4 0 0 1 321.5 733.099976 A 4 4 0 0 1 317.5 729.099976 A 4 4 0 0 1 321.5 725.099976 A 4 4 0 0 1 325.5 729.099976 Z" fill="#C2552E"/>
	<path fill="#C2552E" d="M344.9,694.9c0.6,1.1,0.1,2.7-1.1,3.4l-29,16.3c-1.3,0.7-2.8,0.4-3.5-0.8c-0.6-1.1-0.1-2.7,1.1-3.4l29-16.3&#10;&#9;&#9;C342.7,693.4,344.2,693.8,344.9,694.9z"/>
	<path d="M 337.499994 689.799988 A 3.6 3.6 0 0 1 333.899994 693.399988 A 3.6 3.6 0 0 1 330.299994 689.799988 A 3.6 3.6 0 0 1 333.899994 686.199988 A 3.6 3.6 0 0 1 337.499994 689.799988 Z" fill="#C2552E"/>
	<path d="M 407.70001220703125 609.4000244140625 L 403.20001220703125 604.7000122070312 L 407.70001220703125 600.0999755859375 Z" fill="#4E4F4F"/>
	<path d="M 407.70001220703125 618.7999877929688 L 403.20001220703125 614.0999755859375 L 407.70001220703125 609.4000244140625 Z" fill="#4E4F4F"/>
	<path d="M 407.70001220703125 628.2000122070312 L 403.20001220703125 623.5 L 407.70001220703125 618.7999877929688 Z" fill="#4E4F4F"/>
	<path d="M 407.70001220703125 637.5 L 403.20001220703125 632.7999877929688 L 407.70001220703125 628.2000122070312 Z" fill="#4E4F4F"/>
	<path d="M 407.70001220703125 646.9000244140625 L 403.20001220703125 642.2000122070312 L 407.70001220703125 637.5 Z" fill="#4E4F4F"/>
	<path d="M 407.70001220703125 656.2999877929688 L 403.20001220703125 651.5999755859375 L 407.70001220703125 646.9000244140625 Z" fill="#4E4F4F"/>
	<path d="M 407.70001220703125 665.5999755859375 L 403.20001220703125 660.9000244140625 L 407.70001220703125 656.2999877929688 Z" fill="#4E4F4F"/>
	<path d="M 407.70001220703125 675 L 403.20001220703125 670.2999877929688 L 407.70001220703125 665.5999755859375 Z" fill="#4E4F4F"/>
	<path d="M 407.70001220703125 684.4000244140625 L 403.20001220703125 679.7000122070312 L 407.70001220703125 675 Z" fill="#4E4F4F"/>
	<path d="M 407.70001220703125 693.7000122070312 L 403.20001220703125 689 L 407.70001220703125 684.4000244140625 Z" fill="#4E4F4F"/>
	<path d="M 407.70001220703125 703.0999755859375 L 403.20001220703125 698.4000244140625 L 407.70001220703125 693.7000122070312 Z" fill="#4E4F4F"/>
	<path d="M 407.70001220703125 712.5 L 403.20001220703125 707.7999877929688 L 407.70001220703125 703.0999755859375 Z" fill="#4E4F4F"/>
	<path d="M 419.299988 683.200012 H 424.099988 V 754.200012 H 419.299988 V 683.200012 Z" fill="#363837"/>
	<path d="M 453.200012 652.700012 H 548.900009 V 747.800011 H 453.200012 V 652.700012 Z" fill="#B77A2F"/>
	<path d="M 424 651.599976 H 431.3 V 769.699974 H 424 V 651.599976 Z" fill="#F47A3B"/>
	<path d="M 424 764 H 431.3 V 769.8 H 424 V 764 Z" fill="#E36F32"/>
	<path d="M 424 712.099976 H 431.3 V 717.899976 H 424 V 712.099976 Z" fill="#E36F32"/>
	<path d="M 424 696 H 431.3 V 701.8 H 424 V 696 Z" fill="#E36F32"/>
	<path d="M 491.5 657.200012 H 495.2 V 743.600014 H 491.5 V 657.200012 Z" fill="#CE8638"/>
	<path d="M 506.100006 657.200012 H 509.800006 V 743.600014 H 506.100006 V 657.200012 Z" fill="#CE8638"/>
	<path d="M 473.5 657.200012 H 477.2 V 743.600014 H 473.5 V 657.200012 Z" fill="#CE8638"/>
	<path d="M 457.299988 657.200012 H 460.999988 V 743.600014 H 457.299988 V 657.200012 Z" fill="#CE8638"/>
	<path d="M 573.7999877929688 765.5 L 431.3999938964844 769.7000122070312 L 431.3999938964844 764 L 573.7999877929688 764 Z" fill="#363837"/>
	<path d="M 522.5 657.200012 H 526.2 V 743.600014 H 522.5 V 657.200012 Z" fill="#CE8638"/>
	<path d="M 541.299988 657.200012 H 544.999988 V 743.600014 H 541.299988 V 657.200012 Z" fill="#CE8638"/>
	<g>
		<path fill="#ECE6B3" d="M220.1,754.6h-7.9v-9.8l32.7-108.9c2-6.6,8.9-11.7,15.7-11.7h86.2c7.2,0,13.4,5.6,14.3,12.7l12.4,106.4&#10;&#9;&#9;&#9;h-8.1l-12.1-105.5c-0.4-3.1-3.3-5.7-6.4-5.7h-86.2c-3.4,0-7.2,2.8-8.2,6.1L220.1,746V754.6z"/>
	</g>
	<path d="M 566.7000122070312 760.7000122070312 L 431.3999938964844 760.7000122070312 L 431.3999938964844 764 L 573.7999877929688 764 Z" fill="#4E4F4F"/>
	<path d="M 450.799988 584 H 503.599987 V 645 H 450.799988 V 584 Z" fill="#B77A2F"/>
	<path d="M 503.600006 584 H 541.300007 V 645 H 503.600006 V 584 Z" fill="#DD8F36"/>
	<path fill="#DD8F36" d="M444.1,644.9V756h113.2V644.9H444.1z M491,700.5l-34.6,34.6v-69.3L491,700.5z M467.1,657.2h67.1l-33.5,33.5&#10;&#9;&#9;L467.1,657.2z M500.7,710.2l33.5,33.5h-67.1L500.7,710.2z M510.3,700.5l34.6-34.6v69.3L510.3,700.5z"/>
	<path d="M 444.100006 756 H 557.300003 V 759.5 H 444.100006 V 756 Z" fill="#CE8638"/>
	<path d="M 444.100006 771.599976 H 557.300003 V 775.099976 H 444.100006 V 771.599976 Z" fill="#CE8638"/>
	<path d="M 444.100006 759.5 H 462.400005 V 771.5 H 444.100006 V 759.5 Z" fill="#B77A2F"/>
	<path d="M 539 759.5 H 557.299999 V 771.5 H 539 V 759.5 Z" fill="#B77A2F"/>
	<path d="M 491.5 759.5 H 509.799999 V 771.5 H 491.5 V 759.5 Z" fill="#B77A2F"/>
	<path fill="#CE8638" d="M552.6,744.4c0.4,0.4,0.4,1.1,0,1.5l-5.5,5.6c-0.4,0.4-1.1,0.4-1.6,0l-0.4-0.4c-0.4-0.4-0.4-1.1,0-1.6&#10;&#9;&#9;l5.5-5.6c0.4-0.4,1.1-0.4,1.6,0L552.6,744.4z"/>
	<path fill="#CE8638" d="M456.9,751.1c0.4-0.4,0.4-1.1,0-1.6l-5.5-5.6c-0.4-0.4-1.1-0.4-1.6,0l-0.4,0.4c-0.4,0.4-0.4,1.1,0,1.5&#10;&#9;&#9;l5.5,5.6c0.4,0.4,1.1,0.4,1.5,0L456.9,751.1z"/>
	<path fill="#CE8638" d="M449.5,656.1c-0.4-0.4-0.4-1.1,0-1.6l5.5-5.6c0.4-0.4,1.1-0.4,1.6,0l0.4,0.4c0.4,0.4,0.4,1.1,0,1.6&#10;&#9;&#9;l-5.5,5.6c-0.4,0.4-1.1,0.4-1.6,0L449.5,656.1z"/>
	<path fill="#CE8638" d="M545.2,649.3c-0.4,0.4-0.4,1.1,0,1.5l5.5,5.6c0.4,0.4,1.1,0.4,1.6,0l0.4-0.4c0.4-0.4,0.4-1.1,0-1.6&#10;&#9;&#9;l-5.5-5.6c-0.4-0.4-1.1-0.4-1.5,0L545.2,649.3z"/>
<path d="M 191.9621124267578 794.8540649414062" style="fill: rgb(46, 56, 153); fill-opacity: 1; stroke: rgb(0, 0, 0); stroke-opacity: 1; stroke-width: 0; paint-order: fill;"/><path d="M 256.00775146484375 776.7667236328125 L 256.00775146484375 776.7667236328125" style="fill: rgb(49, 61, 166); fill-opacity: 1; stroke: rgb(0, 0, 0); stroke-opacity: 1; stroke-width: 0; paint-order: fill;"/><path d="M 1687.9195556640625 760.510498046875" style="fill: rgb(46, 56, 153); fill-opacity: 1; stroke: rgb(0, 0, 0); stroke-opacity: 1; stroke-width: 0; paint-order: fill;"/></g>
</svg>