<?xml version="1.0" encoding="utf-8"?>
<svg id="master-artboard" viewBox="0 0 1400 565.0851440429688" version="1.1" xmlns="http://www.w3.org/2000/svg" x="0px" y="0px" width="1400px" height="565.0851440429688px" enable-background="new 0 0 1400 980"><rect id="ee-background" x="0" y="0" width="1400" height="565.0851440429688" style="fill: white; fill-opacity: 0; pointer-events: none;"/><defs><style id="ee-google-fonts">@import url(https://fonts.googleapis.com/css?family=Cairo:200,300,600,700,900,400);</style></defs>
<path d="M 0 0 H 1400 V 980 H 0 V 0 Z" fill="#B7DED3" transform="matrix(1, 0, 0, 1, 0, -318.2356872558594)"/>
<path d="M 0 702 H 1400 V 979.899994 H 0 V 702 Z" fill="#877261" transform="matrix(1, 0, 0, 1, 0, -318.2356872558594)"/>



<path d="M 0 687.200012 H 1400 V 702.000012 H 0 V 687.200012 Z" fill="#BFA27A" transform="matrix(1, 0, 0, 1, 0, -318.2356872558594)"/>
<path d="M 0 681.900024 H 1400 V 687.800025 H 0 V 681.900024 Z" fill="#EABA7B" transform="matrix(1, 0, 0, 1, 0, -318.2356872558594)"/>
<g transform="matrix(1, 0, 0, 1, 0, -318.2356872558594)">
	<path d="M 0 311.600006 H 339.100006 V 683.200012 H 0 V 311.600006 Z" fill="#AACEC3"/>
	<path d="M 287.700012 142.399994 H 626.800018 V 514 H 287.700012 V 142.399994 Z" fill="#AACEC3"/>
	<path d="M 580.900024 216.899994 H 920.000031 V 588.5 H 580.900024 V 216.899994 Z" fill="#AACEC3"/>
	<path d="M 861.900024 52.099998 H 1201.000031 V 423.700005 H 861.900024 V 52.099998 Z" fill="#AACEC3"/>
	<path d="M 1066.5 167.399994 H 1400 V 539 H 1066.5 V 167.399994 Z" fill="#AACEC3"/>
</g>
<g transform="matrix(1, 0, 0, 1, 0, -318.2356872558594)">
	<path d="M 1400 418.3999938964844 L 563.5999755859375 418.3999938964844 L 563.5999755859375 237.89999389648438 L 1137.4000244140625 237.89999389648438 Z" fill="#FFD078"/>
	<path d="M 563.5999755859375 237.89999389648438 L 246.39999389648438 418.3999938964844 L 246.39999389648438 681.7000122070312 L 563.5999755859375 681.7000122070312 L 880.7000122070312 681.7000122070312 L 880.7000122070312 418.3999938964844 Z" fill="#FEDBA1"/>
	<path d="M 321.600006 525 H 335.400006 V 681.699997 H 321.600006 V 525 Z" fill="#E6AE5B"/>
	<path d="M 335.399994 525 H 525.599991 V 681.699997 H 335.399994 V 525 Z" fill="#FEC987"/>
	<path d="M 600 525 H 613.8 V 681.699997 H 600 V 525 Z" fill="#E6AE5B"/>
	<path d="M 613.799988 525.200012 H 803.999985 V 681.900009 H 613.799988 V 525.200012 Z" fill="#BFA27A"/>
	<path d="M 613.799988 525 H 803.999985 V 568.900002 H 613.799988 V 525 Z" fill="#FEC987"/>
	<path d="M 287.700012 452.299988 H 360.200012 V 473.299988 H 287.700012 V 452.299988 Z" fill="#FEC987"/>
	<path d="M 405.799988 452.299988 H 478.299988 V 473.299988 H 405.799988 V 452.299988 Z" fill="#FEC987"/>
	<path d="M 527.299988 452.299988 H 599.799988 V 473.299988 H 527.299988 V 452.299988 Z" fill="#FEC987"/>
	<path d="M 649.5 452.299988 H 722 V 473.299988 H 649.5 V 452.299988 Z" fill="#FEC987"/>
	<path d="M 767.700012 452.299988 H 840.200012 V 473.299988 H 767.700012 V 452.299988 Z" fill="#FEC987"/>
	<path d="M 880.700012 418.399994 H 1400 V 681.699982 H 880.700012 V 418.399994 Z" fill="#E6AE5B"/>
	<path d="M 936.900024 452.299988 H 1009.400024 V 473.299988 H 936.900024 V 452.299988 Z" fill="#EABA7B"/>
	<path d="M 1060.300049 452.299988 H 1132.800049 V 473.299988 H 1060.300049 V 452.299988 Z" fill="#EABA7B"/>
	<path d="M 1180.5 452.299988 H 1253 V 473.299988 H 1180.5 V 452.299988 Z" fill="#EABA7B"/>
	<path d="M 1303.199951 452.299988 H 1375.699951 V 473.299988 H 1303.199951 V 452.299988 Z" fill="#EABA7B"/>
	<path d="M 702.2999877929688 654.9000244140625 L 702.2999877929688 629.2000122070312 L 692.0999755859375 629.2000122070312 L 692.0999755859375 618.2999877929688 L 667.7999877929688 618.2999877929688 L 667.7999877929688 629.2000122070312 L 657.5999755859375 629.2000122070312 L 657.5999755859375 637.9000244140625 L 647.7999877929688 637.9000244140625 L 647.7999877929688 620.4000244140625 L 623.5 620.4000244140625 L 623.5 637.9000244140625 L 613.7999877929688 637.9000244140625 L 613.7999877929688 681.7000122070312 L 657.5999755859375 681.7000122070312 L 730.2999877929688 681.7000122070312 L 730.2999877929688 654.9000244140625 Z" fill="#A38A71"/>
</g>
<g transform="matrix(1, 0, 0, 1, 0, -318.2356872558594)">
	<g>
		<path d="M 1031.4000244140625 514.0999755859375 L 1014 514.0999755859375 L 997.5999755859375 528.2999877929688 L 997.5999755859375 627.2999877929688 L 991.4000244140625 627.2999877929688 L 991.4000244140625 526.5999755859375 L 1015.2999877929688 505.1000061035156 L 1029 505.1000061035156 Z" fill="#EABA7B"/>
		<path d="M 989.700012 627.299988 H 999.900012 V 681.899986 H 989.700012 V 627.299988 Z" fill="#EABA7B"/>
	</g>
	<g>
		<path d="M 796.5999755859375 514.0999755859375 L 814 514.0999755859375 L 830.4000244140625 528.2999877929688 L 830.4000244140625 627.2999877929688 L 836.5999755859375 627.2999877929688 L 836.5999755859375 526.5999755859375 L 812.7000122070312 505.1000061035156 L 799 505.1000061035156 Z" fill="#EABA7B"/>
		<path d="M 828.200012 627.299988 H 838.400012 V 681.899986 H 828.200012 V 627.299988 Z" fill="#EABA7B"/>
	</g>
	<g>
		<path d="M 315 514.0999755859375 L 297.6000061035156 514.0999755859375 L 281.1000061035156 528.2999877929688 L 281.1000061035156 627.2999877929688 L 274.8999938964844 627.2999877929688 L 274.8999938964844 526.5999755859375 L 298.8999938964844 505.1000061035156 L 312.6000061035156 505.1000061035156 Z" fill="#EABA7B"/>
		<path d="M 273.200012 627.299988 H 283.400012 V 681.899986 H 273.200012 V 627.299988 Z" fill="#EABA7B"/>
	</g>
	<g>
		<path d="M 144.89999389648438 514.0999755859375 L 127.5 514.0999755859375 L 111 528.2999877929688 L 111 627.2999877929688 L 104.80000305175781 627.2999877929688 L 104.80000305175781 526.5999755859375 L 128.8000030517578 505.1000061035156 L 142.39999389648438 505.1000061035156 Z" fill="#EABA7B"/>
		<path d="M 103.099998 627.299988 H 113.299998 V 681.899986 H 103.099998 V 627.299988 Z" fill="#EABA7B"/>
	</g>
	<g>
		<path d="M 1256 514.0999755859375 L 1238.5999755859375 514.0999755859375 L 1222.199951171875 528.2999877929688 L 1222.199951171875 627.2999877929688 L 1216 627.2999877929688 L 1216 526.5999755859375 L 1239.9000244140625 505.1000061035156 L 1253.5999755859375 505.1000061035156 Z" fill="#EABA7B"/>
		<path d="M 1214.300049 627.299988 H 1224.500049 V 681.899986 H 1214.300049 V 627.299988 Z" fill="#EABA7B"/>
	</g>
</g>
<g transform="matrix(1, 0, 0, 1, 0, -318.2356872558594)">
	<path fill="#4E3C38" d="M867.9,770.4v69l-9.7-0.6c-18.9,0-34.2-15.3-34.2-34.2c0-18.9,15.3-34.2,34.2-34.2L867.9,770.4z"/>
	<path fill="#664F4A" d="M901.6,804.9c0,19.1-15.5,34.6-34.6,34.6c-19.1,0-34.6-15.5-34.6-34.6c0-19.1,15.5-34.6,34.6-34.6&#10;&#9;&#9;C886.1,770.4,901.6,785.8,901.6,804.9z"/>
	<path fill="#4E3C38" d="M1144.9,770.4v69l-9.7-0.6c-18.9,0-34.2-15.3-34.2-34.2c0-18.9,15.3-34.2,34.2-34.2L1144.9,770.4z"/>
	<path fill="#664F4A" d="M1178.6,804.9c0,19.1-15.5,34.6-34.6,34.6c-19.1,0-34.6-15.5-34.6-34.6c0-19.1,15.5-34.6,34.6-34.6&#10;&#9;&#9;C1163.2,770.4,1178.6,785.8,1178.6,804.9z"/>
	<path fill="#4E3C38" d="M1165.2,804.9c0,11.7-9.5,21.1-21.1,21.1c-11.7,0-21.1-9.4-21.1-21.1c0-11.7,9.5-21.1,21.1-21.1&#10;&#9;&#9;C1155.7,783.8,1165.2,793.3,1165.2,804.9z"/>
	<path fill="#664F4A" d="M1009.1,804.9c0,19.1-15.5,34.6-34.6,34.6c-19.1,0-34.6-15.5-34.6-34.6c0-19.1,15.5-34.6,34.6-34.6&#10;&#9;&#9;C993.7,770.4,1009.1,785.8,1009.1,804.9z"/>
	<path fill="#4E3C38" d="M995.7,804.9c0,11.7-9.5,21.1-21.1,21.1c-11.7,0-21.1-9.4-21.1-21.1c0-11.7,9.4-21.1,21.1-21.1&#10;&#9;&#9;C986.2,783.8,995.7,793.3,995.7,804.9z"/>
	<path fill="#E36F32" d="M1314.1,736.2c-1.5,0-2.7-1-2.7-2.2c0-1.2,1.2-2.2,2.7-2.2h15v-12.1h-170.7V787h170.7v-31.5h-15&#10;&#9;&#9;c-1.5,0-2.7-1-2.7-2.2c0-1.2,1.2-2.2,2.7-2.2h15v-4.9h-15c-1.5,0-2.7-1-2.7-2.2c0-1.2,1.2-2.2,2.7-2.2h15v-5.6H1314.1z"/>
	<path fill="#C2552E" d="M1311.4,734c0,1.2,1.2,2.2,2.7,2.2h15v-4.4h-15C1312.6,731.8,1311.4,732.8,1311.4,734z"/>
	<path fill="#C2552E" d="M1311.4,744c0,1.2,1.2,2.2,2.7,2.2h15v-4.4h-15C1312.6,741.8,1311.4,742.8,1311.4,744z"/>
	<path fill="#C2552E" d="M1311.4,753.3c0,1.2,1.2,2.2,2.7,2.2h15v-4.4h-15C1312.6,751.1,1311.4,752.1,1311.4,753.3z"/>
	<path fill="#855E70" d="M1337.1,800c0,4.9-4,9-9,9h-169.8v-22h169.8c4.9,0,9,4,9,9V800z"/>
	<path fill="#363837" d="M1281.8,809c0-28.1-21.6-51-48.1-51s-48.1,22.8-48.1,51H1281.8z"/>
	<path fill="#4E3C38" d="M1240,770.4v69l-9.7-0.6c-18.9,0-34.2-15.3-34.2-34.2c0-18.9,15.3-34.2,34.2-34.2L1240,770.4z"/>
	<path fill="#664F4B" d="M1273.7,804.9c0,19.1-15.5,34.6-34.6,34.6s-34.6-15.5-34.6-34.6c0-19.1,15.5-34.6,34.6-34.6&#10;&#9;&#9;S1273.7,785.8,1273.7,804.9z"/>
	<path fill="#E4E3B4" d="M1260.3,804.9c0,11.7-9.5,21.1-21.1,21.1c-11.7,0-21.1-9.4-21.1-21.1c0-11.7,9.4-21.1,21.1-21.1&#10;&#9;&#9;C1250.8,783.8,1260.3,793.3,1260.3,804.9z"/>
	<path d="M 1251.799952 804.900024 A 12.6 12.6 0 0 1 1239.199951 817.500025 A 12.6 12.6 0 0 1 1226.599951 804.900024 A 12.6 12.6 0 0 1 1239.199951 792.300024 A 12.6 12.6 0 0 1 1251.799952 804.900024 Z" fill="#CDCBA2"/>
	<path fill="#FFAD3D" d="M1331.2,779.3h-23.4v-17.4h23.4c2.5,0,4.5,2,4.5,4.5v8.4C1335.7,777.3,1333.7,779.3,1331.2,779.3z"/>
	<path d="M 878.799988 554.200012 H 1139.799988 V 787.000015 H 878.799988 V 554.200012 Z" fill="#ECE6B3" style="fill: rgb(64, 79, 214);"/>
	<path d="M 691 771 H 750.5 V 839.400002 H 691 V 771 Z" fill="#DD8F36"/>
	<path d="M 670.599976 771 H 690.999975 V 839.400002 H 670.599976 V 771 Z" fill="#B77A2F"/>
	<path d="M 878.799988 565.700012 H 1139.799988 V 572.200012 H 878.799988 V 565.700012 Z" fill="#CDCBA2" style="fill: rgb(49, 60, 163);"/>
	<path d="M 878.799988 767.799988 H 1139.799988 V 774.299988 H 878.799988 V 767.799988 Z" fill="#CDCBA2" style="fill: rgb(49, 61, 164);"/>
	<path fill="#855E70" d="M766.1,809h373.7v-22H766.1c-5,0-9,4-9,9v4C757.1,805,761.1,809,766.1,809z"/>
	<path d="M 765.200012 554.200012 H 878.900009 V 787.000015 H 765.200012 V 554.200012 Z" fill="#CDCBA2" style="fill: rgb(49, 61, 164);"/>
	<path fill="#F47A3B" d="M1329.1,716.7c0-5-3.8-10.2-8.6-11.8l-43.4-14.1c0,0-6.7-20.2-16.9-49.9c-10.1-29.7-20.1-29.2-38.5-29.2&#10;&#9;&#9;c-18.4,0-63.3,0-63.3,0v108h170.7V716.7z"/>
	<path d="M 703.900024 831.400024 H 789.900024 V 839.500025 H 703.900024 V 831.400024 Z" fill="#B6B48E"/>
	<path d="M 858.5999755859375 778.7000122070312 L 781.0999755859375 778.7000122070312 L 703.9000244140625 831.4000244140625 L 790 831.4000244140625 Z" fill="#ECE6B3"/>
	<path d="M 790 831.4000244140625 L 790 839.4000244140625 L 858.5999755859375 787 L 858.5999755859375 778.7000122070312 Z" fill="#CDCBA2"/>
	<g>
		<path fill="#B6B48E" d="M841,787h-59.4c-0.5,0-1-0.4-1-1c0-0.5,0.4-1,1-1H841c0.5,0,1,0.4,1,1C841.9,786.5,841.5,787,841,787z"/>
	</g>
	<g>
		<path fill="#B6B48E" d="M823.2,799h-59.4c-0.5,0-1-0.4-1-1c0-0.5,0.4-1,1-1h59.4c0.5,0,1,0.4,1,1C824.2,798.5,823.8,799,823.2,799&#10;&#9;&#9;&#9;z"/>
	</g>
	<g>
		<path fill="#B6B48E" d="M804,811.5h-59.4c-0.5,0-1-0.4-1-1c0-0.5,0.4-1,1-1H804c0.5,0,1,0.4,1,1&#10;&#9;&#9;&#9;C804.9,811.1,804.5,811.5,804,811.5z"/>
	</g>
	<path d="M 790 576.099976 H 862.800003 V 778.699982 H 790 V 576.099976 Z" fill="#5C4150"/>
	<g>
		<path fill="#B6B48E" d="M786,823.6h-59.4c-0.5,0-1-0.4-1-1c0-0.5,0.4-1,1-1H786c0.5,0,1,0.4,1,1&#10;&#9;&#9;&#9;C786.9,823.2,786.5,823.6,786,823.6z"/>
	</g>
	<path d="M 1165.699951 619.5 H 1192.399952 V 690.599998 H 1165.699951 V 619.5 Z" fill="#E36F32"/>
	<path fill="#B7DED3" d="M1265,686.9c0.9,2.7-0.6,4.8-3.4,4.8H1208c-2.8,0-5.1-2.3-5.1-5.1v-62c0-2.8,2.3-5.1,5.1-5.1h28.8&#10;&#9;&#9;c2.8,0,5.8,2.2,6.8,4.8L1265,686.9z"/>
	<path fill="#855E70" d="M1268,625.4l9.8,24.6c0,0,0.9,0,2.3,0l-9.8-24.6H1268z"/>
	<path fill="#E36F32" d="M1288.7,641.5l-4.2-12.5c-2.4-6.9-5.4-8.5-8.6-8.5h-2.3h-3.4h-2.3h-18.6v5h18.6h2.3l9.8,24.6&#10;&#9;&#9;c0,0,1.4,0,3.4,0c0.7,0,1.5,0,2.3,0C1289,650,1290.3,646.2,1288.7,641.5z"/>
	<path d="M 1139.800049 787 H 1158.400049 V 809 H 1139.800049 V 787 Z" fill="#684C5B"/>
	<path d="M 780.599976 576.099976 H 789.899976 V 778.699982 H 780.599976 V 576.099976 Z" fill="#B6B48E"/>
	<path d="M 824.299988 721.400024 H 862.799988 V 778.800026 H 824.299988 V 721.400024 Z" fill="#DD8F36"/>
	<path d="M 803.5 721.400024 H 824.299999 V 778.800026 H 803.5 V 721.400024 Z" fill="#B77A2F"/>
	<path d="M 819.799988 681.299988 H 849.999989 V 721.299988 H 819.799988 V 681.299988 Z" fill="#B77A2F"/>
	<path d="M 922.299988 732.099976 H 947.499989 V 818.099976 H 922.299988 V 732.099976 Z" fill="#B77A2F"/>
	<path d="M 1139.800049 611.700012 H 1158.400049 V 787.000015 H 1139.800049 V 611.700012 Z" fill="#E06442"/>
	<path d="M 872.799988 772.299988 H 939.999985 V 839.399986 H 872.799988 V 772.299988 Z" fill="#DF8F36"/>
	<path d="M 844.299988 772.299988 H 872.799988 V 839.399986 H 844.299988 V 772.299988 Z" fill="#B77A2F"/>
	<path fill="#C2552E" d="M1139.8,611.7v-21.1h47.1c28.8,0,27.6,21.1,27.6,21.1H1139.8z"/>
	<path d="M 910.599976 818.099976 H 993.599976 V 839.399975 H 910.599976 V 818.099976 Z" fill="#DF8F36"/>
	<path d="M 894.799988 818.099976 H 910.599988 V 839.399975 H 894.799988 V 818.099976 Z" fill="#B77A2F"/>
	<path d="M 947.5 732.099976 H 979.900002 V 818.099976 H 947.5 V 732.099976 Z" fill="#DD8F36"/>
	<path d="M 850 681.299988 H 862.8 V 721.299988 H 850 V 681.299988 Z" fill="#DD8F36"/>
	<path fill="#D55F3C" d="M765.4,772.3h15.2V755h-15.2c-2.5,0-4.5,2-4.5,4.5v8.3C760.9,770.3,763,772.3,765.4,772.3z"/>
	<path fill="#F47A3B" d="M894,772.3h-15.2V755H894c2.5,0,4.5,2,4.5,4.5v8.3C898.5,770.3,896.5,772.3,894,772.3z"/>
	<path d="M 862.799988 755 H 878.899988 V 772.299999 H 862.799988 V 755 Z" fill="#D55F3C"/>
	<path d="M 650.799988 797 H 684.499989 V 839.400002 H 650.799988 V 797 Z" fill="#DD8F36"/>
	<path d="M 634 797 H 650.799999 V 839.400002 H 634 V 797 Z" fill="#B77A2F"/>
	<path d="M 664.0999755859375 755 L 684.5 755 L 691 771 L 670.5999755859375 771 Z" fill="#C2822E"/>
	<path d="M 757 755 L 697.5 755 L 691 771 L 750.5 771 Z" fill="#C2822E"/>
<path d="M 828.6113891601562 569.1481323242188 L 828.6113891601562 569.1481323242188" style="fill: rgb(64, 79, 214); fill-opacity: 1; stroke: rgb(0, 0, 0); stroke-opacity: 1; stroke-width: 0; paint-order: fill;"/><path d="M 803.4507446289062 564.7877807617188 L 803.4507446289062 564.7877807617188" style="fill: rgb(49, 61, 164); fill-opacity: 1; stroke: rgb(0, 0, 0); stroke-opacity: 1; stroke-width: 0; paint-order: fill;"/><path d="M 936.9917602539062 660.0550537109375 L 936.9917602539062 676.3750610351562 L 933.6717529296875 676.3750610351562 L 933.6717529296875 663.7550659179688 L 933.311767578125 663.7550659179688 L 930.1217651367188 675.6550903320312 L 926.811767578125 675.6550903320312 L 923.6217651367188 663.7550659179688 L 923.2617797851562 663.7550659179688 L 923.2617797851562 676.3750610351562 L 919.9517822265625 676.3750610351562 L 919.9517822265625 660.0550537109375 L 925.5917358398438 660.0550537109375 L 928.4717407226562 671.93505859375 L 931.3517456054688 660.0550537109375 L 936.9917602539062 660.0550537109375 ZM 943.1817016601562 676.6650390625 C 940.7017211914062 676.6650390625 939.4617309570312 675.3517456054688 939.4617309570312 672.7250366210938 C 939.4617309570312 671.4783935546875 939.791748046875 670.578369140625 940.4517211914062 670.0250854492188 C 941.118408203125 669.4717407226562 942.1884155273438 669.1483764648438 943.6617431640625 669.0550537109375 L 946.2217407226562 668.8650512695312 L 946.2217407226562 668.1150512695312 C 946.2217407226562 667.6350708007812 946.1150512695312 667.3017578125 945.9017333984375 667.1150512695312 C 945.6884155273438 666.9217529296875 945.3250732421875 666.8250732421875 944.8117065429688 666.8250732421875 C 944.2850341796875 666.8250732421875 943.5550537109375 666.8450317382812 942.6217041015625 666.8850708007812 C 941.695068359375 666.925048828125 940.9216918945312 666.9683837890625 940.3016967773438 667.0150756835938 L 940.2017211914062 664.7850341796875 C 941.9284057617188 664.3184204101562 943.5617065429688 664.0850830078125 945.1017456054688 664.0850830078125 C 946.6350708007812 664.0850830078125 947.74169921875 664.4050903320312 948.4216918945312 665.0450439453125 C 949.1017456054688 665.68505859375 949.4417114257812 666.7083740234375 949.4417114257812 668.1150512695312 L 949.4417114257812 673.1150512695312 C 949.4750366210938 673.5150756835938 949.541748046875 673.7850341796875 949.6417236328125 673.925048828125 C 949.7484130859375 674.0717163085938 949.945068359375 674.175048828125 950.231689453125 674.2350463867188 L 950.1417236328125 676.6650390625 C 949.3084106445312 676.6650390625 948.6483764648438 676.6083984375 948.1617431640625 676.4950561523438 C 947.6683959960938 676.3817138671875 947.1817016601562 676.1583862304688 946.7017211914062 675.8250732421875 C 945.5350341796875 676.3850708007812 944.3616943359375 676.6650390625 943.1817016601562 676.6650390625 M 943.8717041015625 674.0450439453125 C 944.4783935546875 674.0450439453125 945.1417236328125 673.9483642578125 945.8616943359375 673.7550659179688 L 946.2217407226562 673.6650390625 L 946.2217407226562 671.0950317382812 L 944.041748046875 671.2850341796875 C 943.1483764648438 671.3650512695312 942.7017211914062 671.8450317382812 942.7017211914062 672.7250366210938 C 942.7017211914062 673.6050415039062 943.0917358398438 674.0450439453125 943.8717041015625 674.0450439453125 ZM 956.7145385742188 676.6650390625 C 955.654541015625 676.6650390625 954.3645629882812 676.521728515625 952.8445434570312 676.2350463867188 L 952.0845336914062 676.0850830078125 L 952.174560546875 673.3950805664062 C 954.1145629882812 673.6550903320312 955.5245361328125 673.7850341796875 956.404541015625 673.7850341796875 C 956.9912109375 673.7850341796875 957.4578857421875 673.7217407226562 957.8045654296875 673.5950317382812 C 958.1511840820312 673.4617309570312 958.3245239257812 673.2217407226562 958.3245239257812 672.8750610351562 C 958.3245239257812 672.5550537109375 958.1578979492188 672.3217163085938 957.8245239257812 672.175048828125 C 957.4978637695312 672.0283813476562 956.9512329101562 671.8917236328125 956.1845092773438 671.7650756835938 C 955.8978881835938 671.7317504882812 955.6978759765625 671.7017211914062 955.5845336914062 671.675048828125 C 954.7845458984375 671.5283813476562 954.1278686523438 671.348388671875 953.6145629882812 671.1350708007812 C 953.1011962890625 670.9150390625 952.6845092773438 670.5684204101562 952.3645629882812 670.0950317382812 C 952.0445556640625 669.62841796875 951.884521484375 668.9683837890625 951.884521484375 668.1150512695312 C 951.884521484375 666.7550659179688 952.3012084960938 665.7484130859375 953.134521484375 665.0950317382812 C 953.9678955078125 664.4417114257812 955.1112060546875 664.1150512695312 956.5645141601562 664.1150512695312 C 957.4312133789062 664.1150512695312 958.7045288085938 664.2650756835938 960.384521484375 664.5650634765625 L 961.174560546875 664.715087890625 L 961.12451171875 667.3750610351562 C 959.1912231445312 667.1217041015625 957.76123046875 666.9950561523438 956.8345336914062 666.9950561523438 C 956.287841796875 666.9950561523438 955.8578491210938 667.0484008789062 955.5445556640625 667.1550903320312 C 955.2378540039062 667.2683715820312 955.0845336914062 667.4850463867188 955.0845336914062 667.8050537109375 C 955.0845336914062 668.1450805664062 955.2445068359375 668.3817138671875 955.5645141601562 668.5150756835938 C 955.884521484375 668.6483764648438 956.404541015625 668.78173828125 957.12451171875 668.9150390625 L 957.9645385742188 669.0550537109375 C 959.2445068359375 669.3084106445312 960.154541015625 669.6884155273438 960.6945190429688 670.195068359375 C 961.2412109375 670.7017211914062 961.5145263671875 671.5150756835938 961.5145263671875 672.6350708007812 C 961.5145263671875 674.0084228515625 961.1212158203125 675.021728515625 960.3345336914062 675.675048828125 C 959.5545654296875 676.3350830078125 958.3478393554688 676.6650390625 956.7145385742188 676.6650390625 ZM 968.0414428710938 676.6650390625 C 966.9814453125 676.6650390625 965.6914672851562 676.521728515625 964.1714477539062 676.2350463867188 L 963.4114379882812 676.0850830078125 L 963.50146484375 673.3950805664062 C 965.4414672851562 673.6550903320312 966.8514404296875 673.7850341796875 967.7314453125 673.7850341796875 C 968.318115234375 673.7850341796875 968.7847900390625 673.7217407226562 969.1314697265625 673.5950317382812 C 969.4780883789062 673.4617309570312 969.6514282226562 673.2217407226562 969.6514282226562 672.8750610351562 C 969.6514282226562 672.5550537109375 969.4848022460938 672.3217163085938 969.1514282226562 672.175048828125 C 968.8247680664062 672.0283813476562 968.2781372070312 671.8917236328125 967.5114135742188 671.7650756835938 C 967.2247924804688 671.7317504882812 967.0247802734375 671.7017211914062 966.9114379882812 671.675048828125 C 966.1114501953125 671.5283813476562 965.4547729492188 671.348388671875 964.9414672851562 671.1350708007812 C 964.4281005859375 670.9150390625 964.0114135742188 670.5684204101562 963.6914672851562 670.0950317382812 C 963.3714599609375 669.62841796875 963.21142578125 668.9683837890625 963.21142578125 668.1150512695312 C 963.21142578125 666.7550659179688 963.6281127929688 665.7484130859375 964.46142578125 665.0950317382812 C 965.2947998046875 664.4417114257812 966.4381103515625 664.1150512695312 967.8914184570312 664.1150512695312 C 968.7581176757812 664.1150512695312 970.0314331054688 664.2650756835938 971.71142578125 664.5650634765625 L 972.50146484375 664.715087890625 L 972.451416015625 667.3750610351562 C 970.5181274414062 667.1217041015625 969.088134765625 666.9950561523438 968.1614379882812 666.9950561523438 C 967.61474609375 666.9950561523438 967.1847534179688 667.0484008789062 966.8714599609375 667.1550903320312 C 966.5647583007812 667.2683715820312 966.4114379882812 667.4850463867188 966.4114379882812 667.8050537109375 C 966.4114379882812 668.1450805664062 966.5714111328125 668.3817138671875 966.8914184570312 668.5150756835938 C 967.21142578125 668.6483764648438 967.7314453125 668.78173828125 968.451416015625 668.9150390625 L 969.2914428710938 669.0550537109375 C 970.5714111328125 669.3084106445312 971.4814453125 669.6884155273438 972.0214233398438 670.195068359375 C 972.568115234375 670.7017211914062 972.8414306640625 671.5150756835938 972.8414306640625 672.6350708007812 C 972.8414306640625 674.0084228515625 972.4481201171875 675.021728515625 971.6614379882812 675.675048828125 C 970.8814697265625 676.3350830078125 969.6747436523438 676.6650390625 968.0414428710938 676.6650390625 ZM 992.4983520507812 660.0550537109375 L 992.4983520507812 676.3750610351562 L 989.1783447265625 676.3750610351562 L 989.1783447265625 663.7550659179688 L 988.818359375 663.7550659179688 L 985.6283569335938 675.6550903320312 L 982.318359375 675.6550903320312 L 979.1283569335938 663.7550659179688 L 978.7683715820312 663.7550659179688 L 978.7683715820312 676.3750610351562 L 975.4583740234375 676.3750610351562 L 975.4583740234375 660.0550537109375 L 981.0983276367188 660.0550537109375 L 983.9783325195312 671.93505859375 L 986.8583374023438 660.0550537109375 L 992.4983520507812 660.0550537109375 ZM 1000.5043334960938 676.6650390625 C 998.6976318359375 676.6650390625 997.32763671875 676.1150512695312 996.3943481445312 675.0150756835938 C 995.454345703125 673.9217529296875 994.9843139648438 672.368408203125 994.9843139648438 670.3550415039062 C 994.9843139648438 668.3550415039062 995.454345703125 666.8084106445312 996.3943481445312 665.715087890625 C 997.32763671875 664.62841796875 998.6976318359375 664.0850830078125 1000.5043334960938 664.0850830078125 C 1002.3176879882812 664.0850830078125 1003.6909790039062 664.62841796875 1004.6243286132812 665.715087890625 C 1005.5576782226562 666.8084106445312 1006.0243530273438 668.3550415039062 1006.0243530273438 670.3550415039062 C 1006.0243530273438 672.368408203125 1005.5576782226562 673.9217529296875 1004.6243286132812 675.0150756835938 C 1003.6909790039062 676.1150512695312 1002.3176879882812 676.6650390625 1000.5043334960938 676.6650390625 M 1000.5043334960938 673.925048828125 C 1001.2776489257812 673.925048828125 1001.84765625 673.6450805664062 1002.21435546875 673.0850830078125 C 1002.5809936523438 672.5250854492188 1002.7643432617188 671.6150512695312 1002.7643432617188 670.3550415039062 C 1002.7643432617188 669.08837890625 1002.5809936523438 668.1817016601562 1002.21435546875 667.6350708007812 C 1001.84765625 667.0950317382812 1001.2776489257812 666.8250732421875 1000.5043334960938 666.8250732421875 C 999.7376708984375 666.8250732421875 999.1710205078125 667.0950317382812 998.8043212890625 667.6350708007812 C 998.4376831054688 668.1817016601562 998.2543334960938 669.08837890625 998.2543334960938 670.3550415039062 C 998.2543334960938 671.6150512695312 998.4376831054688 672.5250854492188 998.8043212890625 673.0850830078125 C 999.1710205078125 673.6450805664062 999.7376708984375 673.925048828125 1000.5043334960938 673.925048828125 ZM 1007.0830688476562 664.3750610351562 L 1010.4430541992188 664.3750610351562 L 1012.3630981445312 673.6350708007812 L 1013.0330810546875 673.6350708007812 L 1015.0531005859375 664.3750610351562 L 1018.3131103515625 664.3750610351562 L 1015.43310546875 676.3750610351562 L 1009.9630737304688 676.3750610351562 L 1007.0830688476562 664.3750610351562 ZM 1020.1639404296875 676.3750610351562 M 1020.1639404296875 664.3750610351562 L 1023.3739624023438 664.3750610351562 L 1023.3739624023438 676.3750610351562 L 1020.1639404296875 676.3750610351562 L 1020.1639404296875 664.3750610351562 M 1020.1639404296875 659.5950317382812 L 1023.3739624023438 659.5950317382812 L 1023.3739624023438 662.8350830078125 L 1020.1639404296875 662.8350830078125 L 1020.1639404296875 659.5950317382812 ZM 1026.3553466796875 664.3750610351562 L 1029.54541015625 664.3750610351562 L 1029.54541015625 665.0450439453125 C 1030.1519775390625 664.6917114257812 1030.6920166015625 664.445068359375 1031.1654052734375 664.3050537109375 C 1031.638671875 664.1583862304688 1032.1453857421875 664.0850830078125 1032.685302734375 664.0850830078125 C 1034.15869140625 664.0850830078125 1035.208740234375 664.5584106445312 1035.8353271484375 665.5050659179688 C 1036.455322265625 666.445068359375 1036.765380859375 667.9017333984375 1036.765380859375 669.8750610351562 L 1036.765380859375 676.3750610351562 L 1033.5552978515625 676.3750610351562 L 1033.5552978515625 669.965087890625 C 1033.5552978515625 668.8650512695312 1033.4219970703125 668.08837890625 1033.1553955078125 667.6350708007812 C 1032.8953857421875 667.1884155273438 1032.3953857421875 666.965087890625 1031.6553955078125 666.965087890625 C 1031.128662109375 666.965087890625 1030.5286865234375 667.078369140625 1029.8553466796875 667.3050537109375 L 1029.5653076171875 667.3950805664062 L 1029.5653076171875 676.3750610351562 L 1026.3553466796875 676.3750610351562 L 1026.3553466796875 664.3750610351562 ZM 1044.446044921875 681.8950805664062 C 1042.732666015625 681.8950805664062 1041.4027099609375 681.6417236328125 1040.4559326171875 681.1350708007812 C 1039.502685546875 680.6350708007812 1039.0260009765625 679.8150634765625 1039.0260009765625 678.675048828125 C 1039.0260009765625 678.08837890625 1039.166015625 677.5650634765625 1039.446044921875 677.1050415039062 C 1039.7259521484375 676.6517333984375 1040.16259765625 676.18505859375 1040.7559814453125 675.705078125 C 1040.462646484375 675.51171875 1040.24267578125 675.26171875 1040.095947265625 674.955078125 C 1039.942626953125 674.6550903320312 1039.865966796875 674.3350830078125 1039.865966796875 673.9950561523438 C 1039.865966796875 673.7550659179688 1039.926025390625 673.5084228515625 1040.0460205078125 673.2550659179688 C 1040.166015625 673.001708984375 1040.416015625 672.5684204101562 1040.7960205078125 671.955078125 C 1039.7093505859375 671.1550903320312 1039.166015625 669.9884033203125 1039.166015625 668.455078125 C 1039.166015625 667.001708984375 1039.609375 665.9183959960938 1040.4959716796875 665.205078125 C 1041.3892822265625 664.49169921875 1042.6259765625 664.1350708007812 1044.2059326171875 664.1350708007812 C 1044.8792724609375 664.1350708007812 1045.6893310546875 664.2384033203125 1046.635986328125 664.445068359375 L 1050.4959716796875 664.3250732421875 L 1050.4959716796875 666.8950805664062 L 1048.696044921875 666.7550659179688 C 1048.9027099609375 667.08837890625 1049.0426025390625 667.3750610351562 1049.115966796875 667.6150512695312 C 1049.1893310546875 667.8550415039062 1049.2259521484375 668.1817016601562 1049.2259521484375 668.5950317382812 C 1049.2259521484375 670.0350341796875 1048.8160400390625 671.0650634765625 1047.9959716796875 671.68505859375 C 1047.1826171875 672.2984008789062 1045.942626953125 672.6050415039062 1044.2760009765625 672.6050415039062 C 1043.7960205078125 672.6050415039062 1043.4293212890625 672.5750732421875 1043.176025390625 672.5150756835938 C 1043.0159912109375 672.8950805664062 1042.93603515625 673.2217407226562 1042.93603515625 673.4950561523438 C 1042.93603515625 673.828369140625 1043.099365234375 674.03173828125 1043.426025390625 674.1050415039062 C 1043.752685546875 674.1784057617188 1044.365966796875 674.2217407226562 1045.2659912109375 674.2350463867188 C 1046.499267578125 674.2683715820312 1047.4793701171875 674.3650512695312 1048.2059326171875 674.5250854492188 C 1048.9326171875 674.68505859375 1049.4959716796875 675.0084228515625 1049.89599609375 675.4950561523438 C 1050.2960205078125 675.9884033203125 1050.4959716796875 676.705078125 1050.4959716796875 677.6450805664062 C 1050.4959716796875 679.1050415039062 1049.999267578125 680.1784057617188 1049.0059814453125 680.8650512695312 C 1048.0126953125 681.5517578125 1046.49267578125 681.8950805664062 1044.446044921875 681.8950805664062 M 1044.2359619140625 670.1550903320312 C 1045.4493408203125 670.1550903320312 1046.0560302734375 669.5650634765625 1046.0560302734375 668.3850708007812 C 1046.0560302734375 667.2183837890625 1045.4493408203125 666.6350708007812 1044.2359619140625 666.6350708007812 C 1043.002685546875 666.6350708007812 1042.385986328125 667.2183837890625 1042.385986328125 668.3850708007812 C 1042.385986328125 669.5650634765625 1043.002685546875 670.1550903320312 1044.2359619140625 670.1550903320312 M 1044.666015625 679.2550659179688 C 1045.579345703125 679.2550659179688 1046.2393798828125 679.1517333984375 1046.64599609375 678.945068359375 C 1047.0526123046875 678.7384033203125 1047.2559814453125 678.4183959960938 1047.2559814453125 677.9850463867188 C 1047.2559814453125 677.5850830078125 1047.109375 677.3317260742188 1046.8160400390625 677.2250366210938 C 1046.5159912109375 677.1250610351562 1046.1693115234375 677.0650634765625 1045.7760009765625 677.0450439453125 C 1045.3892822265625 677.03173828125 1045.1292724609375 677.0250854492188 1044.9959716796875 677.0250854492188 L 1042.8359375 676.8550415039062 C 1042.4093017578125 677.2883911132812 1042.196044921875 677.7217407226562 1042.196044921875 678.1550903320312 C 1042.196044921875 678.5350341796875 1042.3992919921875 678.8150634765625 1042.8060302734375 678.9950561523438 C 1043.212646484375 679.1683959960938 1043.8326416015625 679.2550659179688 1044.666015625 679.2550659179688 Z" transform="matrix(1.5834990739822388, 0, 0, 1.5834990739822388, -552.8291015625, -419.0712585449219)" style="fill: rgb(255, 255, 255); white-space: pre; color: rgb(255, 255, 255);"/></g>
<g transform="matrix(1, 0, 0, 1, 0, -318.2356872558594)">
	<path d="M 398.899994 600.099976 H 407.699994 V 766.399979 H 398.899994 V 600.099976 Z" fill="#363837"/>
	<path d="M 408.20001220703125 824.7000122070312 L 220 824.7000122070312 L 220 786.5 L 344.1000061035156 786.5 L 367.20001220703125 768.2999877929688 L 408.20001220703125 759.5 Z" fill="#363837"/>
	<path d="M 407.70001220703125 591.4000244140625 L 407.70001220703125 712.5 L 391.1000061035156 712.5 L 391.1000061035156 732.9000244140625 L 407.70001220703125 732.9000244140625 L 407.70001220703125 806.4000244140625 L 419.29998779296875 806.4000244140625 L 419.29998779296875 591.4000244140625 Z" fill="#F47A3B" style="fill: rgb(46, 56, 153);"/>
	<path fill="#4E3C38" d="M428,806.4c0,18.3-14.8,33.1-33.1,33.1c-18.3,0-33.1-14.8-33.1-33.1c0-18.3,14.8-33.1,33.1-33.1&#10;&#9;&#9;C413.2,773.3,428,788.1,428,806.4z"/>
	<path d="M 417.499994 806.400024 A 22.6 22.6 0 0 1 394.899994 829.000025 A 22.6 22.6 0 0 1 372.299994 806.400024 A 22.6 22.6 0 0 1 394.899994 783.800024 A 22.6 22.6 0 0 1 417.499994 806.400024 Z" fill="#664F4B"/>
	<g>
		<path fill="#C2552E" d="M272.7,749.1c-7.4,0-10.9-12.4-13.3-20.7l-0.3-1.1c-1.9-6.6-6.1-20.2-6.1-20.3c-0.3-1,0.3-2.1,1.3-2.5&#10;&#9;&#9;&#9;c1-0.3,2.1,0.3,2.5,1.3c0,0.1,4.3,13.8,6.2,20.4l0.3,1.2c1.5,5.3,5,17.8,9.5,17.8c1.1,0,2,0.9,2,2&#10;&#9;&#9;&#9;C274.7,748.2,273.8,749.1,272.7,749.1z"/>
	</g>
	
		<path d="M 391.200012 789.799988 H 398.700012 V 822.899986 H 391.200012 V 789.799988 Z" transform="matrix(0.9204 0.3909 -0.3909 0.9204 346.6307 -90.2233)" fill="#E4E3B4"/>
	
		<path d="M 391.200012 789.799988 H 398.700012 V 822.899986 H 391.200012 V 789.799988 Z" transform="matrix(-0.3908 0.9205 -0.9205 -0.3908 1291.5577 757.9938)" fill="#E4E3B4"/>
	<path fill="#363837" d="M394.9,787c-10.7,0-19.4,8.7-19.4,19.4c0,10.7,8.7,19.4,19.4,19.4c10.7,0,19.4-8.7,19.4-19.4&#10;&#9;&#9;C414.3,795.7,405.7,787,394.9,787z M394.9,821.7c-8.5,0-15.3-6.9-15.3-15.4c0-8.5,6.9-15.3,15.3-15.3c8.5,0,15.3,6.9,15.3,15.3&#10;&#9;&#9;C410.3,814.9,403.4,821.7,394.9,821.7z"/>
	<path d="M 406.799994 806.400024 A 11.9 11.9 0 0 1 394.899994 818.300024 A 11.9 11.9 0 0 1 382.999994 806.400024 A 11.9 11.9 0 0 1 394.899994 794.500025 A 11.9 11.9 0 0 1 406.799994 806.400024 Z" fill="#CDCBA2"/>
	<path fill="#E4E3B4" d="M404.8,806.1c0,1.3-1,2.3-2.3,2.3c-1.3,0-2.3-1-2.3-2.3c0-1.3,1-2.3,2.3-2.3&#10;&#9;&#9;C403.8,803.8,404.8,804.8,404.8,806.1z"/>
	<path fill="#E4E3B4" d="M389.7,806.1c0,1.3-1,2.3-2.3,2.3c-1.3,0-2.3-1-2.3-2.3c0-1.3,1-2.3,2.3-2.3&#10;&#9;&#9;C388.7,803.8,389.7,804.8,389.7,806.1z"/>
	<path fill="#5C4150" d="M304.4,738h-28.8c-2.6,0-4.6,2.1-4.6,4.6v5.2h38v-5.2C309,740.1,306.9,738,304.4,738z"/>
	<path fill="#5C4150" d="M274.2,731.8l-8.5-27.5c-0.8-2.4-3.4-3.8-5.8-3.1l-5,1.5l11.3,36.3l5-1.5&#10;&#9;&#9;C273.6,736.9,275,734.3,274.2,731.8z"/>
	<path fill="#C2552E" d="M306.2,751.1h-32.5c-1.5,0-2.8-0.7-2.8-1.6v-1.6h38c0,0,0,0.7,0,1.6S307.8,751.1,306.2,751.1z"/>
	<path d="M 276.899994 751.099976 H 285.799994 V 754.599976 H 276.899994 V 751.099976 Z" fill="#855E70"/>
	<path d="M 294.700012 751.099976 H 303.600012 V 755.999976 H 294.700012 V 751.099976 Z" fill="#855E70"/>
	<path d="M 401.199994 812.599976 A 2.3 2.3 0 0 1 398.899994 814.899976 A 2.3 2.3 0 0 1 396.599994 812.599976 A 2.3 2.3 0 0 1 398.899994 810.299976 A 2.3 2.3 0 0 1 401.199994 812.599976 Z" fill="#E4E3B4"/>
	<path d="M 393.400006 799.599976 A 2.3 2.3 0 0 1 391.100006 801.899976 A 2.3 2.3 0 0 1 388.800006 799.599976 A 2.3 2.3 0 0 1 391.100006 797.299976 A 2.3 2.3 0 0 1 393.400006 799.599976 Z" fill="#E4E3B4"/>
	<path d="M 407.70001220703125 742.5 L 403.20001220703125 737.7999877929688 L 407.70001220703125 733.0999755859375 Z" fill="#4E4F4F"/>
	<path d="M 407.70001220703125 751.7999877929688 L 403.20001220703125 747.2000122070312 L 407.70001220703125 742.5 Z" fill="#4E4F4F"/>
	<path d="M 407.70001220703125 759.5 L 403.20001220703125 754.7999877929688 L 407.70001220703125 750.0999755859375 Z" fill="#4E4F4F"/>
	<g>
		<path fill="#363837" d="M303.6,762.2v-3.9c6.4,0,8-1.5,9.6-6.1c1.9-5.4,6.6-23.4,6.6-23.6l3.8,1c-0.2,0.7-4.8,18.3-6.7,23.9&#10;&#9;&#9;&#9;C314.7,759.9,311.2,762.2,303.6,762.2z"/>
	</g>
	<path d="M 393.500012 812.599976 A 2.3 2.3 0 0 1 391.200012 814.899976 A 2.3 2.3 0 0 1 388.900012 812.599976 A 2.3 2.3 0 0 1 391.200012 810.299976 A 2.3 2.3 0 0 1 393.500012 812.599976 Z" fill="#E4E3B4"/>
	<path d="M 401.000012 799.5 A 2.3 2.3 0 0 1 398.700012 801.8 A 2.3 2.3 0 0 1 396.400012 799.5 A 2.3 2.3 0 0 1 398.700012 797.2 A 2.3 2.3 0 0 1 401.000012 799.5 Z" fill="#E4E3B4"/>
	<path fill="#363837" d="M327.3,704.7l-4.4,2.7l4.9,7.9c0.8,1.3,2.3,2.3,3.4,2.3l1.9-0.1l22.9,36.7l3.1-1.9l-22.9-36.7&#10;&#9;&#9;c0,0,0.4-0.8,0.9-1.7c0.5-0.9,0.2-2.8-0.6-4.1l-4.9-7.9L327.3,704.7z"/>
	<path fill="#ECE6B3" d="M407.5,729.1h-16.4v-12.3h16.4c1.5,0,2.8,1.2,2.8,2.8v6.8C410.3,727.9,409,729.1,407.5,729.1z"/>
	<path fill="#F47A3B" d="M401.5,764c-32.9,0-43.1,19.7-48.6,28.4c-4.1,6.5-12.6,22.5-16.8,30.3h6.1c0,0,9.1-16.2,14.7-27&#10;&#9;&#9;c11.5-22.3,25.3-26.9,50.9-26.9V764H401.5z"/>
	<path fill="#F47A3B" d="M398.9,759.5v-16.2h-39.6l-20.8,36.3H309v-15.7c0-5.1-4.2-9.3-9.3-9.3h-75.8v24.9h-44.1v33.8&#10;&#9;&#9;c0,5.1,4.2,9.3,9.3,9.3h35v-36.1H268c5.1,0,9.3,4.2,9.3,9.3v26.8h53.9c0,0,13.6-26,19.1-34.7C355.8,779.2,366,759.5,398.9,759.5z" style="fill: rgb(64, 79, 214);"/>
	<path fill="#E36F32" d="M401.5,764h6.2v-4.4h-8.8c-32.9,0-43.1,19.7-48.6,28.4c-5.5,8.8-19.1,34.7-19.1,34.7h5&#10;&#9;&#9;c4.1-7.8,12.7-23.8,16.8-30.3C358.4,783.6,368.6,764,401.5,764z"/>
	<path d="M 397.299988 749.700012 H 410.199987 V 753.700012 H 397.299988 V 749.700012 Z" fill="#C2552E"/>
	<path fill="#ECE6B3" d="M415,746v11.3h-4.7c-3.1,0-5.7-2.5-5.7-5.7c0-3.1,2.5-5.7,5.7-5.7H415z"/>
	<path d="M 412.200012 751.700012 A 2 2 0 0 1 410.200012 753.700012 A 2 2 0 0 1 408.200012 751.700012 A 2 2 0 0 1 410.200012 749.700012 A 2 2 0 0 1 412.200012 751.700012 Z" fill="#C2552E"/>
	<path fill="#ECE6B3" d="M381.8,757.8h15.5v-12h-15.5c-5.1,0-7,2.7-7,6C374.8,755.1,376.7,757.8,381.8,757.8z"/>
	<path d="M 382.400012 751.700012 A 2.2 2.2 0 0 1 380.200012 753.900012 A 2.2 2.2 0 0 1 378.000012 751.700012 A 2.2 2.2 0 0 1 380.200012 749.500012 A 2.2 2.2 0 0 1 382.400012 751.700012 Z" fill="#C2552E"/>
	<path d="M 223.899994 773.299988 H 308.999992 V 779.599988 H 223.899994 V 773.299988 Z" fill="#E36F32" style="fill: rgb(49, 61, 166);"/>
	<path fill="#855E70" d="M194.5,754.6h-5.4c-5.1,0-9.3,4.2-9.3,9.3v15.7h5.4v-15.7C185.2,758.8,189.3,754.6,194.5,754.6z"/>
	<path fill="#684C5B" d="M194.5,754.6c-5.1,0-9.3,4.2-9.3,9.3v15.7h38.7v-24.9H194.5z"/>
	<path fill="#4E3C38" d="M274.6,814.9c0,13.3-10.8,24.2-24.2,24.2c-13.3,0-24.2-10.8-24.2-24.2c0-13.3,10.8-24.2,24.2-24.2&#10;&#9;&#9;C263.8,790.7,274.6,801.5,274.6,814.9z"/>
	<path fill="#363837" d="M267.1,814.9c0,9.2-7.4,16.6-16.6,16.6c-9.2,0-16.6-7.4-16.6-16.6c0-9.2,7.4-16.6,16.6-16.6&#10;&#9;&#9;C259.6,798.2,267.1,805.7,267.1,814.9z"/>
	<path d="M 264.8 814.900024 A 14.3 14.3 0 0 1 250.5 829.200025 A 14.3 14.3 0 0 1 236.2 814.900024 A 14.3 14.3 0 0 1 250.5 800.600024 A 14.3 14.3 0 0 1 264.8 814.900024 Z" fill="#E4E3B4"/>
	<path d="M 262.4 814.900024 A 11.9 11.9 0 0 1 250.5 826.800024 A 11.9 11.9 0 0 1 238.6 814.900024 A 11.9 11.9 0 0 1 250.5 803.000025 A 11.9 11.9 0 0 1 262.4 814.900024 Z" fill="#CDCBA2"/>
	<path fill="#E36F32" d="M224.1,786.5h-12.7v-7h-26.2v33.8c0,5.1,4.2,9.3,9.3,9.3h16.9v-30.4h12.7V786.5z" style="fill: rgb(46, 56, 153);"/>
	<path d="M 253.3 814.900024 A 2.8 2.8 0 0 1 250.5 817.700024 A 2.8 2.8 0 0 1 247.7 814.900024 A 2.8 2.8 0 0 1 250.5 812.100024 A 2.8 2.8 0 0 1 253.3 814.900024 Z" fill="#E4E3B4"/>
	<g>
		<path fill="#E4E3B4" d="M255.4,808.6c0,0.8-0.7,1.5-1.5,1.5c-0.8,0-1.5-0.7-1.5-1.5c0-0.8,0.7-1.5,1.5-1.5&#10;&#9;&#9;&#9;C254.7,807.1,255.4,807.8,255.4,808.6z"/>
		<path fill="#E4E3B4" d="M255.4,821.1c0,0.8-0.7,1.5-1.5,1.5c-0.8,0-1.5-0.7-1.5-1.5c0-0.8,0.7-1.5,1.5-1.5&#10;&#9;&#9;&#9;C254.7,819.6,255.4,820.3,255.4,821.1z"/>
		<path d="M 244.899994 814.900024 A 1.5 1.5 0 0 1 243.399994 816.400024 A 1.5 1.5 0 0 1 241.899994 814.900024 A 1.5 1.5 0 0 1 243.399994 813.400024 A 1.5 1.5 0 0 1 244.899994 814.900024 Z" fill="#E4E3B4"/>
	</g>
	
		<path d="M 335.899994 690.599976 H 338.699994 V 698.199975 H 335.899994 V 690.599976 Z" transform="matrix(0.7928 -0.6094 0.6094 0.7928 -353.3248 349.3993)" fill="#363837"/>
	<path d="M 325.5 729.099976 A 4 4 0 0 1 321.5 733.099976 A 4 4 0 0 1 317.5 729.099976 A 4 4 0 0 1 321.5 725.099976 A 4 4 0 0 1 325.5 729.099976 Z" fill="#C2552E"/>
	<path fill="#C2552E" d="M344.9,694.9c0.6,1.1,0.1,2.7-1.1,3.4l-29,16.3c-1.3,0.7-2.8,0.4-3.5-0.8c-0.6-1.1-0.1-2.7,1.1-3.4l29-16.3&#10;&#9;&#9;C342.7,693.4,344.2,693.8,344.9,694.9z"/>
	<path d="M 337.499994 689.799988 A 3.6 3.6 0 0 1 333.899994 693.399988 A 3.6 3.6 0 0 1 330.299994 689.799988 A 3.6 3.6 0 0 1 333.899994 686.199988 A 3.6 3.6 0 0 1 337.499994 689.799988 Z" fill="#C2552E"/>
	<path d="M 407.70001220703125 609.4000244140625 L 403.20001220703125 604.7000122070312 L 407.70001220703125 600.0999755859375 Z" fill="#4E4F4F"/>
	<path d="M 407.70001220703125 618.7999877929688 L 403.20001220703125 614.0999755859375 L 407.70001220703125 609.4000244140625 Z" fill="#4E4F4F"/>
	<path d="M 407.70001220703125 628.2000122070312 L 403.20001220703125 623.5 L 407.70001220703125 618.7999877929688 Z" fill="#4E4F4F"/>
	<path d="M 407.70001220703125 637.5 L 403.20001220703125 632.7999877929688 L 407.70001220703125 628.2000122070312 Z" fill="#4E4F4F"/>
	<path d="M 407.70001220703125 646.9000244140625 L 403.20001220703125 642.2000122070312 L 407.70001220703125 637.5 Z" fill="#4E4F4F"/>
	<path d="M 407.70001220703125 656.2999877929688 L 403.20001220703125 651.5999755859375 L 407.70001220703125 646.9000244140625 Z" fill="#4E4F4F"/>
	<path d="M 407.70001220703125 665.5999755859375 L 403.20001220703125 660.9000244140625 L 407.70001220703125 656.2999877929688 Z" fill="#4E4F4F"/>
	<path d="M 407.70001220703125 675 L 403.20001220703125 670.2999877929688 L 407.70001220703125 665.5999755859375 Z" fill="#4E4F4F"/>
	<path d="M 407.70001220703125 684.4000244140625 L 403.20001220703125 679.7000122070312 L 407.70001220703125 675 Z" fill="#4E4F4F"/>
	<path d="M 407.70001220703125 693.7000122070312 L 403.20001220703125 689 L 407.70001220703125 684.4000244140625 Z" fill="#4E4F4F"/>
	<path d="M 407.70001220703125 703.0999755859375 L 403.20001220703125 698.4000244140625 L 407.70001220703125 693.7000122070312 Z" fill="#4E4F4F"/>
	<path d="M 407.70001220703125 712.5 L 403.20001220703125 707.7999877929688 L 407.70001220703125 703.0999755859375 Z" fill="#4E4F4F"/>
	<path d="M 419.299988 683.200012 H 424.099988 V 754.200012 H 419.299988 V 683.200012 Z" fill="#363837"/>
	<path d="M 453.200012 652.700012 H 548.900009 V 747.800011 H 453.200012 V 652.700012 Z" fill="#B77A2F"/>
	<path d="M 424 651.599976 H 431.3 V 769.699974 H 424 V 651.599976 Z" fill="#F47A3B"/>
	<path d="M 424 764 H 431.3 V 769.8 H 424 V 764 Z" fill="#E36F32"/>
	<path d="M 424 712.099976 H 431.3 V 717.899976 H 424 V 712.099976 Z" fill="#E36F32"/>
	<path d="M 424 696 H 431.3 V 701.8 H 424 V 696 Z" fill="#E36F32"/>
	<path d="M 491.5 657.200012 H 495.2 V 743.600014 H 491.5 V 657.200012 Z" fill="#CE8638"/>
	<path d="M 506.100006 657.200012 H 509.800006 V 743.600014 H 506.100006 V 657.200012 Z" fill="#CE8638"/>
	<path d="M 473.5 657.200012 H 477.2 V 743.600014 H 473.5 V 657.200012 Z" fill="#CE8638"/>
	<path d="M 457.299988 657.200012 H 460.999988 V 743.600014 H 457.299988 V 657.200012 Z" fill="#CE8638"/>
	<path d="M 573.7999877929688 765.5 L 431.3999938964844 769.7000122070312 L 431.3999938964844 764 L 573.7999877929688 764 Z" fill="#363837"/>
	<path d="M 522.5 657.200012 H 526.2 V 743.600014 H 522.5 V 657.200012 Z" fill="#CE8638"/>
	<path d="M 541.299988 657.200012 H 544.999988 V 743.600014 H 541.299988 V 657.200012 Z" fill="#CE8638"/>
	<g>
		<path fill="#ECE6B3" d="M220.1,754.6h-7.9v-9.8l32.7-108.9c2-6.6,8.9-11.7,15.7-11.7h86.2c7.2,0,13.4,5.6,14.3,12.7l12.4,106.4&#10;&#9;&#9;&#9;h-8.1l-12.1-105.5c-0.4-3.1-3.3-5.7-6.4-5.7h-86.2c-3.4,0-7.2,2.8-8.2,6.1L220.1,746V754.6z"/>
	</g>
	<path d="M 566.7000122070312 760.7000122070312 L 431.3999938964844 760.7000122070312 L 431.3999938964844 764 L 573.7999877929688 764 Z" fill="#4E4F4F"/>
	<path d="M 450.799988 584 H 503.599987 V 645 H 450.799988 V 584 Z" fill="#B77A2F"/>
	<path d="M 503.600006 584 H 541.300007 V 645 H 503.600006 V 584 Z" fill="#DD8F36"/>
	<path fill="#DD8F36" d="M444.1,644.9V756h113.2V644.9H444.1z M491,700.5l-34.6,34.6v-69.3L491,700.5z M467.1,657.2h67.1l-33.5,33.5&#10;&#9;&#9;L467.1,657.2z M500.7,710.2l33.5,33.5h-67.1L500.7,710.2z M510.3,700.5l34.6-34.6v69.3L510.3,700.5z"/>
	<path d="M 444.100006 756 H 557.300003 V 759.5 H 444.100006 V 756 Z" fill="#CE8638"/>
	<path d="M 444.100006 771.599976 H 557.300003 V 775.099976 H 444.100006 V 771.599976 Z" fill="#CE8638"/>
	<path d="M 444.100006 759.5 H 462.400005 V 771.5 H 444.100006 V 759.5 Z" fill="#B77A2F"/>
	<path d="M 539 759.5 H 557.299999 V 771.5 H 539 V 759.5 Z" fill="#B77A2F"/>
	<path d="M 491.5 759.5 H 509.799999 V 771.5 H 491.5 V 759.5 Z" fill="#B77A2F"/>
	<path fill="#CE8638" d="M552.6,744.4c0.4,0.4,0.4,1.1,0,1.5l-5.5,5.6c-0.4,0.4-1.1,0.4-1.6,0l-0.4-0.4c-0.4-0.4-0.4-1.1,0-1.6&#10;&#9;&#9;l5.5-5.6c0.4-0.4,1.1-0.4,1.6,0L552.6,744.4z"/>
	<path fill="#CE8638" d="M456.9,751.1c0.4-0.4,0.4-1.1,0-1.6l-5.5-5.6c-0.4-0.4-1.1-0.4-1.6,0l-0.4,0.4c-0.4,0.4-0.4,1.1,0,1.5&#10;&#9;&#9;l5.5,5.6c0.4,0.4,1.1,0.4,1.5,0L456.9,751.1z"/>
	<path fill="#CE8638" d="M449.5,656.1c-0.4-0.4-0.4-1.1,0-1.6l5.5-5.6c0.4-0.4,1.1-0.4,1.6,0l0.4,0.4c0.4,0.4,0.4,1.1,0,1.6&#10;&#9;&#9;l-5.5,5.6c-0.4,0.4-1.1,0.4-1.6,0L449.5,656.1z"/>
	<path fill="#CE8638" d="M545.2,649.3c-0.4,0.4-0.4,1.1,0,1.5l5.5,5.6c0.4,0.4,1.1,0.4,1.6,0l0.4-0.4c0.4-0.4,0.4-1.1,0-1.6&#10;&#9;&#9;l-5.5-5.6c-0.4-0.4-1.1-0.4-1.5,0L545.2,649.3z"/>
<path d="M 191.9621124267578 794.8540649414062" style="fill: rgb(46, 56, 153); fill-opacity: 1; stroke: rgb(0, 0, 0); stroke-opacity: 1; stroke-width: 0; paint-order: fill;"/><path d="M 256.00775146484375 776.7667236328125 L 256.00775146484375 776.7667236328125" style="fill: rgb(49, 61, 166); fill-opacity: 1; stroke: rgb(0, 0, 0); stroke-opacity: 1; stroke-width: 0; paint-order: fill;"/><path d="M 1687.9195556640625 760.510498046875" style="fill: rgb(46, 56, 153); fill-opacity: 1; stroke: rgb(0, 0, 0); stroke-opacity: 1; stroke-width: 0; paint-order: fill;"/></g>
</svg>