<?xml version="1.0" encoding="utf-8"?>
<svg id="master-artboard" viewBox="0 0 1400 677.6896362304688" version="1.0" xmlns="http://www.w3.org/2000/svg" x="0px" y="0px" width="1400px" height="677.6896362304688px" enable-background="new 0 0 1400 980"><rect id="ee-background" x="0" y="0" width="1400" height="677.6896362304688" style="fill: white; fill-opacity: 0; pointer-events: none;"/>
<metadata>
	<sfw>
		<slices/>
		<slicesourcebounds x="0" y="-980" bottomleftorigin="true" width="4300" height="980"/>
	</sfw>
</metadata>
<path d="M 0 0 H 1400 V 980 H 0 V 0 Z" fill="#DFDDCF" transform="matrix(1, 0, 0, 1, 2.842170943040401e-14, -302.31036376953125)" style="fill-opacity: 0;"/>


<g transform="matrix(1, 0, 0, 1, 2.842170943040401e-14, -302.31036376953125)">
		<g>
			<g>
				<path d="M 697.200012 534.5 H 866.300018 V 703.600006 H 697.200012 V 534.5 Z" fill="#D9B287"/>
			</g>
			<g>
				<path d="M 758.5 534.5 H 805 V 587.400002 H 758.5 V 534.5 Z" fill="#FEDBB4"/>
			</g>
		</g>
		<g>
			<g>
				<path d="M 414.200012 431 H 835.400024 V 703.600006 H 414.200012 V 431 Z" fill="#C7C8CA"/>
			</g>
			<g>
				<path d="M 414.200012 431 H 835.400024 V 703.600006 H 414.200012 V 431 Z" fill="#C7C8CA"/>
			</g>
			<g>
				<path d="M 393.799988 735 H 835.5 V 754.799999 H 393.799988 V 735 Z" fill="#636466"/>
			</g>
			<g>
				<path d="M 795.700024 784.5 A 62.299999 62.299999 0 0 1 733.400024 846.799999 A 62.299999 62.299999 0 0 1 671.100025 784.5 A 62.299999 62.299999 0 0 1 733.400024 722.200001 A 62.299999 62.299999 0 0 1 795.700024 784.5 Z" fill="#322B29"/>
			</g>
			<g>
				<path d="M 763.800024 784.5 A 30.4 30.4 0 0 1 733.400024 814.9 A 30.4 30.4 0 0 1 703.000025 784.5 A 30.4 30.4 0 0 1 733.400024 754.1 A 30.4 30.4 0 0 1 763.800024 784.5 Z" fill="#C7C8CA"/>
			</g>
			<g>
				<path d="M 746.600024 784.5 A 13.2 13.2 0 0 1 733.400024 797.7 A 13.2 13.2 0 0 1 720.200025 784.5 A 13.2 13.2 0 0 1 733.400024 771.3 A 13.2 13.2 0 0 1 746.600024 784.5 Z" fill="#F1F2F2"/>
			</g>
			<g>
				<path d="M 510.100006 735 H 558.500008 V 770.400002 H 510.100006 V 735 Z" fill="#A7A9AC"/>
			</g>
			<g>
				<path d="M 558.5 735 H 575.299999 V 770.400002 H 558.5 V 735 Z" fill="#C7C8CA"/>
			</g>
			<g>
				<path d="M 493.299988 735 H 510.099987 V 770.400002 H 493.299988 V 735 Z" fill="#C7C8CA"/>
			</g>
			<g>
				<path d="M 256.1000061035156 514.0999755859375 L 198.8000030517578 647.7000122070312 L 166.8000030517578 679.9000244140625 L 166.8000030517578 754.7999877929688 L 393.79998779296875 754.7999877929688 L 393.79998779296875 514.0999755859375 Z" fill="#009BDF" style="fill: rgb(64, 79, 214);"/>
			<path d="M 257.6522521972656 704.3502807617188 L 257.6522521972656 704.3502807617188" style="fill: rgb(64, 79, 214); fill-opacity: 1; stroke: rgb(0, 0, 0); stroke-opacity: 1; stroke-width: 0; paint-order: fill;"/></g>
			<g>
				<path d="M 270.1000061035156 546 L 228 644.2000122070312 L 364.79998779296875 644.5 L 364.79998779296875 546 Z" fill="#9DDCF9"/>
			</g>
			<g>
				<path d="M 143.199997 731.299988 H 224.5 V 770.399986 H 143.199997 V 731.299988 Z" fill="#0061AF" style="fill: rgb(42, 52, 142);"/>
			<path d="M 223.74940490722656 857.6195068359375" style="fill: rgb(42, 52, 142); fill-opacity: 1; stroke: rgb(0, 0, 0); stroke-opacity: 1; stroke-width: 0; paint-order: fill;"/></g>
			<g>
				<path d="M 166.800003 707.299988 H 185.900003 V 731.399988 H 166.800003 V 707.299988 Z" fill="#FFF579"/>
			</g>
			<g>
				<path d="M 393.799988 703.599976 H 851.799988 V 734.999975 H 393.799988 V 703.599976 Z" fill="#C7C8CA"/>
			</g>
			<g>
				<path d="M 393.799988 703.599976 H 851.799988 V 714.999975 H 393.799988 V 703.599976 Z" fill="#A7A9AC"/>
			</g>
			<g>
				<path fill="#007DC5" d="M393.8,703.6c0,0-86.8,0-88.6,0c-30.3,0-55.7,22.5-61.3,51.1l149.9,0V703.6z" style="fill: rgb(43, 53, 143);"/>
			</g>
			<g>
				<path d="M 338.899994 666.900024 H 364.799994 V 672.900024 H 338.899994 V 666.900024 Z" fill="#322B29"/>
			</g>
			<g>
				<path d="M 382.900005 784.5 A 62.299999 62.299999 0 0 1 320.600006 846.799999 A 62.299999 62.299999 0 0 1 258.300007 784.5 A 62.299999 62.299999 0 0 1 320.600006 722.200001 A 62.299999 62.299999 0 0 1 382.900005 784.5 Z" fill="#322B29"/>
			</g>
			<g>
				<path d="M 351.000006 784.5 A 30.4 30.4 0 0 1 320.600006 814.9 A 30.4 30.4 0 0 1 290.200006 784.5 A 30.4 30.4 0 0 1 320.600006 754.1 A 30.4 30.4 0 0 1 351.000006 784.5 Z" fill="#C7C8CA"/>
			</g>
			<g>
				<path d="M 333.800006 784.5 A 13.2 13.2 0 0 1 320.600006 797.7 A 13.2 13.2 0 0 1 307.400006 784.5 A 13.2 13.2 0 0 1 320.600006 771.3 A 13.2 13.2 0 0 1 333.800006 784.5 Z" fill="#F1F2F2"/>
			</g>
			<g>
				<g>
					<path d="M 449.899994 446 H 461.699994 V 688.600006 H 449.899994 V 446 Z" fill="#636466"/>
				</g>
				<g>
					<path d="M 492.200012 446 H 504.000012 V 688.600006 H 492.200012 V 446 Z" fill="#636466"/>
				</g>
				<g>
					<path d="M 534.400024 446 H 546.200025 V 688.600006 H 534.400024 V 446 Z" fill="#636466"/>
				</g>
				<g>
					<path d="M 576.700012 446 H 588.500012 V 688.600006 H 576.700012 V 446 Z" fill="#636466"/>
				</g>
				<g>
					<path d="M 618.900024 446 H 630.700025 V 688.600006 H 618.900024 V 446 Z" fill="#636466"/>
				</g>
				<g>
					<path d="M 661.200012 446 H 673.000012 V 688.600006 H 661.200012 V 446 Z" fill="#636466"/>
				</g>
				<g>
					<path d="M 703.5 446 H 715.3 V 688.600006 H 703.5 V 446 Z" fill="#636466"/>
				</g>
				<g>
					<path d="M 745.700012 446 H 757.500012 V 688.600006 H 745.700012 V 446 Z" fill="#636466"/>
				</g>
				<g>
					<path d="M 788 446 H 799.8 V 688.600006 H 788 V 446 Z" fill="#636466"/>
				</g>
			</g>
		</g>
		<g>
			<g>
				<path d="M 909.200012 661.599976 H 1078.300018 V 830.699982 H 909.200012 V 661.599976 Z" fill="#D9B287"/>
			</g>
			<g>
				<path d="M 970.5 661.599976 H 1017 V 714.499977 H 970.5 V 661.599976 Z" fill="#FEDBB4"/>
			</g>
		</g>
		<g>
			<g>
				<path d="M 1087.699951 661.599976 H 1256.799957 V 830.699982 H 1087.699951 V 661.599976 Z" fill="#D9B287"/>
			</g>
			<g>
				<path d="M 1149 661.599976 H 1195.5 V 714.499977 H 1149 V 661.599976 Z" fill="#FEDBB4"/>
			</g>
		</g>
	</g><path fill="#FFFFFF" d="M961.1,502.3H686.6c-5,0-9-4-9-9s4-9,9-9h274.5c5,0,9,4,9,9S966,502.3,961.1,502.3z" transform="matrix(1, 0, 0, 1, 5.684341886080802e-14, -302.31036376953125)"/><path fill="#FFFFFF" d="M998.6,569.1h-384c-5,0-9-4-9-9s4-9,9-9h384c5,0,9,4,9,9S1003.5,569.1,998.6,569.1z" transform="matrix(1, 0, 0, 1, 5.684341886080802e-14, -302.31036376953125)"/><path fill="#FFFFFF" d="M905.6,635.8h-186c-5,0-9-4-9-9s4-9,9-9h186c5,0,9,4,9,9S910.6,635.8,905.6,635.8z" transform="matrix(1, 0, 0, 1, 5.684341886080802e-14, -302.31036376953125)"/><path fill="#FFFFFF" d="M1160.6,502.3h-82.5c-5,0-9-4-9-9s4-9,9-9h82.5c5,0,9,4,9,9S1165.5,502.3,1160.6,502.3z" transform="matrix(1, 0, 0, 1, 5.684341886080802e-14, -302.31036376953125)"/><path fill="#FFFFFF" d="M1030.1,502.3h-34.5c-5,0-9-4-9-9s4-9,9-9h34.5c5,0,9,4,9,9S1035,502.3,1030.1,502.3z" transform="matrix(1, 0, 0, 1, 5.684341886080802e-14, -302.31036376953125)"/>
</svg>