<?xml version="1.0" encoding="utf-8"?>
<svg id="master-artboard" viewBox="0 0 1400 980" version="1.1" xmlns="http://www.w3.org/2000/svg" x="0px" y="0px" enable-background="new 0 0 1400 980" width="1400px" height="980px" xmlns:xlink="http://www.w3.org/1999/xlink">
<defs>
		<path d="M 0 0 H 1400 V 980 H 0 V 0 Z" id="SVGID_1_"/>
	<style id="ee-google-fonts">@import url(https://fonts.googleapis.com/css?family=Cairo:200,300,600,700,900,400);</style></defs><clipPath id="SVGID_2_">
		<use overflow="visible" xlink:href="#SVGID_1_"/>
	</clipPath><path d="M 0 0 H 1400 V 696.799988 H 0 V 0 Z" fill="#77C7E8" transform="matrix(1, 0, 0, 1, 5.684341886080802e-14, 1.4210854715202004e-14)"/><path d="M 1057.300049 469.100006 H 1078.100048 V 678.900009 H 1057.300049 V 469.100006 Z" fill="#947543" transform="matrix(1, 0, 0, 1, 8.526512829121202e-14, 2.1316282072803006e-14)"/><path d="M 1155.399979 421.899994 A 86.800003 136 0 0 1 1068.599976 557.899994 A 86.800003 136 0 0 1 981.799973 421.899994 A 86.800003 136 0 0 1 1068.599976 285.899994 A 86.800003 136 0 0 1 1155.399979 421.899994 Z" fill="#A3D06A" transform="matrix(1, 0, 0, 1, 8.526512829121202e-14, 2.1316282072803006e-14)"/><path fill="#7AB75F" d="M1032.8,545.7c10.9,7.8,23.1,12.1,35.8,12.1c48,0,86.8-60.9,86.8-136c0-45.2-14.1-85.2-35.7-109.9&#10;&#9;&#9;&#9;&#9;C1105.2,361.6,1071.1,471.1,1032.8,545.7z" transform="matrix(1, 0, 0, 1, 8.526512829121202e-14, 2.1316282072803006e-14)"/><path d="M 1325.300049 514.900024 H 1341.50005 V 678.900024 H 1325.300049 V 514.900024 Z" fill="#947543" transform="matrix(1, 0, 0, 1, 8.526512829121202e-14, 2.1316282072803006e-14)"/><path d="M 1401.999977 478 A 67.900002 106.300003 0 0 1 1334.099976 584.300003 A 67.900002 106.300003 0 0 1 1266.199974 478 A 67.900002 106.300003 0 0 1 1334.099976 371.699997 A 67.900002 106.300003 0 0 1 1401.999977 478 Z" fill="#A3D06A" transform="matrix(1, 0, 0, 1, 8.526512829121202e-14, 2.1316282072803006e-14)"/><path fill="#7AB75F" d="M1306.1,574.8c8.5,6.1,18,9.5,28,9.5c37.5,0,67.9-47.6,67.9-106.3c0-35.3-11-66.6-27.9-85.9&#10;&#9;&#9;&#9;&#9;C1362.7,430.8,1336.1,516.5,1306.1,574.8z" transform="matrix(1, 0, 0, 1, 8.526512829121202e-14, 2.1316282072803006e-14)"/><path d="M 0 671.799988 H 1400 V 800.099991 H 0 V 671.799988 Z" fill="#72B355" transform="matrix(1, 0, 0, 1, 5.684341886080802e-14, 1.4210854715202004e-14)"/><path d="M 0 766.5 H 1400 V 980 H 0 V 766.5 Z" fill="#BABAA2" transform="matrix(1, 0, 0, 1, 5.684341886080802e-14, 1.4210854715202004e-14)"/><path d="M 153.5 373.200012 H 913.700012 V 682.300018 H 153.5 V 373.200012 Z" fill="#FCF6AD" transform="matrix(1, 0, 0, 1, 8.526512829121202e-14, 2.1316282072803006e-14)"/><path d="M 153.5 373.200012 H 913.700012 V 394.000011 H 153.5 V 373.200012 Z" fill="#D2CE92" transform="matrix(1, 0, 0, 1, 8.526512829121202e-14, 2.1316282072803006e-14)"/><path d="M 266.299988 135.100006 H 318.499989 V 193.600006 H 266.299988 V 135.100006 Z" fill="#988A6B" transform="matrix(1, 0, 0, 1, 1.1368683772161603e-13, 2.842170943040401e-14)"/><path d="M 282.799988 140.600006 H 318.499989 V 151.000006 H 282.799988 V 140.600006 Z" fill="#988A6B" transform="matrix(1, 0, 0, 1, 1.1368683772161603e-13, 2.842170943040401e-14)"/><path d="M 267.899994 166 H 287.799994 V 176.4 H 267.899994 V 166 Z" fill="#988A6B" transform="matrix(1, 0, 0, 1, 1.1368683772161603e-13, 2.842170943040401e-14)"/><path d="M 911.7000122070312 181.10000610351562 L 558.7000122070312 181.10000610351562 L 508.6000061035156 181.10000610351562 L 155.60000610351562 181.10000610351562 L 111.80000305175781 373.20001220703125 L 508.6000061035156 373.20001220703125 L 558.7000122070312 373.20001220703125 L 955.5 373.20001220703125 Z" fill="#BA3026" transform="matrix(1, 0, 0, 1, 8.526512829121202e-14, 2.1316282072803006e-14)"/><path d="M 111.800003 373.200012 H 955.500015 V 381.600012 H 111.800003 V 373.200012 Z" fill="#79180C" transform="matrix(1, 0, 0, 1, 8.526512829121202e-14, 2.1316282072803006e-14)"/><path d="M 187 308.5 H 251.699997 V 318.9 H 187 V 308.5 Z" opacity="0.25" fill="#2A3F4F" transform="matrix(1, 0, 0, 1, 8.526512829121202e-14, 2.1316282072803006e-14)"/><path d="M 469.899994 251 H 534.599991 V 261.4 H 469.899994 V 251 Z" opacity="0.25" fill="#2A3F4F" transform="matrix(1, 0, 0, 1, 8.526512829121202e-14, 2.1316282072803006e-14)"/><path d="M 844.799988 341.899994 H 909.499985 V 352.299994 H 844.799988 V 341.899994 Z" opacity="0.25" fill="#2A3F4F" transform="matrix(1, 0, 0, 1, 8.526512829121202e-14, 2.1316282072803006e-14)"/><path d="M 780.099976 204 H 844.799973 V 214.4 H 780.099976 V 204 Z" opacity="0.25" fill="#2A3F4F" transform="matrix(1, 0, 0, 1, 8.526512829121202e-14, 2.1316282072803006e-14)"/><path d="M 466.899994 477.600006 H 602.5 V 682.300003 H 466.899994 V 477.600006 Z" fill="#786E3A" transform="matrix(1, 0, 0, 1, 1.1368683772161603e-13, 2.842170943040401e-14)"/><path d="M 473.799988 488.100006 H 595.499985 V 682.300003 H 473.799988 V 488.100006 Z" fill="#AE8B69" transform="matrix(1, 0, 0, 1, 1.1368683772161603e-13, 2.842170943040401e-14)"/><g transform="matrix(1, 0, 0, 1, 1.4210854715202004e-13, 3.552713678800501e-14)">
						<path d="M 484.200012 499.799988 H 528.100014 V 671.799988 H 484.200012 V 499.799988 Z" fill="#907457"/>
						<path d="M 541.299988 499.799988 H 585.199989 V 671.799988 H 541.299988 V 499.799988 Z" fill="#907457"/>
					</g><path d="M 493.800006 586.200012 A 4.2 4.2 0 0 1 489.600006 590.400012 A 4.2 4.2 0 0 1 485.400006 586.200012 A 4.2 4.2 0 0 1 489.600006 582.000012 A 4.2 4.2 0 0 1 493.800006 586.200012 Z" fill="#FAF17D" transform="matrix(1, 0, 0, 1, 1.1368683772161603e-13, 2.842170943040401e-14)"/><path d="M 466.899994 429.5 H 602.5 V 467.099998 H 466.899994 V 429.5 Z" fill="#786E3A" transform="matrix(1, 0, 0, 1, 1.1368683772161603e-13, 2.842170943040401e-14)"/><path d="M 473.799988 436.5 H 595.499985 V 460.200001 H 473.799988 V 436.5 Z" fill="#51A4DB" transform="matrix(1, 0, 0, 1, 1.1368683772161603e-13, 2.842170943040401e-14)"/><path d="M 555.0999755859375 436.5 L 476.20001220703125 460.20001220703125 L 510.5 460.20001220703125 L 563.2000122070312 436.5 Z" fill="#8EB0DD" transform="matrix(1, 0, 0, 1, 1.1368683772161603e-13, 2.842170943040401e-14)"/><path d="M 568.2999877929688 436.5 L 521.9000244140625 460.20001220703125 L 533.7000122070312 460.20001220703125 L 571.2999877929688 436.5 Z" fill="#8EB0DD" transform="matrix(1, 0, 0, 1, 1.1368683772161603e-13, 2.842170943040401e-14)"/><path d="M 280.899994 477.600006 H 370.699997 V 597.300003 H 280.899994 V 477.600006 Z" fill="#786E3A" transform="matrix(1, 0, 0, 1, 1.1368683772161603e-13, 2.842170943040401e-14)"/><path d="M 286.5 482.399994 H 322.900002 V 535.099995 H 286.5 V 482.399994 Z" fill="#7CD0E3" transform="matrix(1, 0, 0, 1, 1.4210854715202004e-13, 3.552713678800501e-14)"/><path d="M 286.5 539.799988 H 322.900002 V 592.499989 H 286.5 V 539.799988 Z" fill="#7CD0E3" transform="matrix(1, 0, 0, 1, 1.4210854715202004e-13, 3.552713678800501e-14)"/><path d="M 328.799988 482.399994 H 365.199989 V 535.099995 H 328.799988 V 482.399994 Z" fill="#7CD0E3" transform="matrix(1, 0, 0, 1, 1.4210854715202004e-13, 3.552713678800501e-14)"/><path d="M 328.799988 539.799988 H 365.199989 V 592.499989 H 328.799988 V 539.799988 Z" fill="#7CD0E3" transform="matrix(1, 0, 0, 1, 1.4210854715202004e-13, 3.552713678800501e-14)"/><path d="M 266.299988 595.900024 H 385.299988 V 604.300024 H 266.299988 V 595.900024 Z" fill="#595127" transform="matrix(1, 0, 0, 1, 1.1368683772161603e-13, 2.842170943040401e-14)"/><path d="M 312.29998779296875 482.3999938964844 L 286.5 535.0999755859375 L 294.20001220703125 535.0999755859375 L 314.1000061035156 482.3999938964844 Z" fill="#A9DEE5" transform="matrix(1, 0, 0, 1, 1.1368683772161603e-13, 2.842170943040401e-14)"/><path d="M 358.8999938964844 539.7999877929688 L 333.20001220703125 592.4000244140625 L 340.79998779296875 592.4000244140625 L 360.79998779296875 539.7999877929688 Z" fill="#A9DEE5" transform="matrix(1, 0, 0, 1, 1.1368683772161603e-13, 2.842170943040401e-14)"/><path d="M 316.6000061035156 482.3999938964844 L 300.29998779296875 535.0999755859375 L 304.70001220703125 535.0999755859375 L 317.79998779296875 482.3999938964844 Z" fill="#A9DEE5" transform="matrix(1, 0, 0, 1, 1.1368683772161603e-13, 2.842170943040401e-14)"/><path d="M 355.29998779296875 539.7999877929688 L 328.79998779296875 588.0999755859375 L 328.79998779296875 575.5999755859375 L 353 539.7999877929688 Z" fill="#A9DEE5" transform="matrix(1, 0, 0, 1, 1.1368683772161603e-13, 2.842170943040401e-14)"/><path d="M 715.200012 477.600006 H 805.000015 V 597.300003 H 715.200012 V 477.600006 Z" fill="#786E3A" transform="matrix(1, 0, 0, 1, 1.1368683772161603e-13, 2.842170943040401e-14)"/><path d="M 720.799988 482.399994 H 757.199989 V 535.099995 H 720.799988 V 482.399994 Z" fill="#7CD0E3" transform="matrix(1, 0, 0, 1, 1.4210854715202004e-13, 3.552713678800501e-14)"/><path d="M 720.799988 539.799988 H 757.199989 V 592.499989 H 720.799988 V 539.799988 Z" fill="#7CD0E3" transform="matrix(1, 0, 0, 1, 1.4210854715202004e-13, 3.552713678800501e-14)"/><path d="M 763 482.399994 H 799.400002 V 535.099995 H 763 V 482.399994 Z" fill="#7CD0E3" transform="matrix(1, 0, 0, 1, 1.4210854715202004e-13, 3.552713678800501e-14)"/><path d="M 763 539.799988 H 799.400002 V 592.499989 H 763 V 539.799988 Z" fill="#7CD0E3" transform="matrix(1, 0, 0, 1, 1.4210854715202004e-13, 3.552713678800501e-14)"/><path d="M 700.599976 595.900024 H 819.599976 V 604.300024 H 700.599976 V 595.900024 Z" fill="#595127" transform="matrix(1, 0, 0, 1, 1.1368683772161603e-13, 2.842170943040401e-14)"/><path d="M 746.5 482.3999938964844 L 720.7999877929688 535.0999755859375 L 728.4000244140625 535.0999755859375 L 748.4000244140625 482.3999938964844 Z" fill="#A9DEE5" transform="matrix(1, 0, 0, 1, 1.1368683772161603e-13, 2.842170943040401e-14)"/><path d="M 793.2000122070312 539.7999877929688 L 767.4000244140625 592.4000244140625 L 775.0999755859375 592.4000244140625 L 795 539.7999877929688 Z" fill="#A9DEE5" transform="matrix(1, 0, 0, 1, 1.1368683772161603e-13, 2.842170943040401e-14)"/><path d="M 750.9000244140625 482.3999938964844 L 734.5999755859375 535.0999755859375 L 738.9000244140625 535.0999755859375 L 752.0999755859375 482.3999938964844 Z" fill="#A9DEE5" transform="matrix(1, 0, 0, 1, 1.1368683772161603e-13, 2.842170943040401e-14)"/><path d="M 789.5 539.7999877929688 L 763 588.0999755859375 L 763 575.5999755859375 L 787.2000122070312 539.7999877929688 Z" fill="#A9DEE5" transform="matrix(1, 0, 0, 1, 1.1368683772161603e-13, 2.842170943040401e-14)"/><path d="M 891.700012 409.799988 H 916.500011 V 671.799988 H 891.700012 V 409.799988 Z" fill="#AEAB7B" transform="matrix(1, 0, 0, 1, 8.526512829121202e-14, 2.1316282072803006e-14)"/><path d="M 150.699997 409.799988 H 175.499996 V 671.799988 H 150.699997 V 409.799988 Z" fill="#AEAB7B" transform="matrix(1, 0, 0, 1, 8.526512829121202e-14, 2.1316282072803006e-14)"/><g transform="matrix(1, 0, 0, 1, 8.526512829121202e-14, 2.1316282072803006e-14)">
				<path d="M 374 913.2999877929688 L 374 915.5999755859375 L 322.5 915.5999755859375 L 322.5 909.7999877929688 L 370.79998779296875 909.7999877929688 Z" fill="#231F20"/>
				<path fill="#263719" d="M322.5,896.5v17.1H374c0,0-1.5-9.7-12.9-9.7c-11.5,0-16.2,0-16.2,0v-5.6L322.5,896.5z"/>
			</g><path d="M 333.3999938964844 913.2999877929688 L 333.3999938964844 915.5999755859375 L 281.8999938964844 915.5999755859375 L 281.8999938964844 909.7999877929688 L 330.20001220703125 909.7999877929688 Z" fill="#231F20" transform="matrix(1, 0, 0, 1, 1.1368683772161603e-13, 2.842170943040401e-14)"/><path fill="#162709" d="M281.9,896.5v17.1h51.5c0,0-1.5-9.7-12.9-9.7c-11.5,0-16.2,0-16.2,0v-5.6L281.9,896.5z" transform="matrix(1, 0, 0, 1, 1.1368683772161603e-13, 2.842170943040401e-14)"/><path fill="#766F6D" d="M347.3,759.2v-7.6h-8.8c-1.7-0.6-3.5-1-5.4-1c-1.9,0-3.7,0.4-5.4,1h-28.9c-1.7-0.6-3.5-1-5.4-1&#10;&#9;&#9;&#9;&#9;c-1.9,0-3.7,0.4-5.4,1h-4.1v2.2c-4,2.9-6.6,7.6-6.6,13v126.7c0,8.9,7.2,10.2,16.2,10.2c8.9,0,16.2-1.2,16.2-10.2v-100h7.4v100&#10;&#9;&#9;&#9;&#9;c0,8.9,7.2,10.2,16.2,10.2c8.9,0,16.2-1.2,16.2-10.2V766.7C349.3,764,348.5,761.4,347.3,759.2z" transform="matrix(1, 0, 0, 1, 8.526512829121202e-14, 2.1316282072803006e-14)"/><g transform="matrix(1, 0, 0, 1, 1.1368683772161603e-13, 2.842170943040401e-14)">
					<path fill="#0093B8" d="M313.4,785.5c-20.2,0-36.6-1.7-36.6-14.3V653c0-12.5,16.4-22.7,36.6-22.7l0,0&#10;&#9;&#9;&#9;&#9;&#9;&#9;c20.3,0,36.7,10.2,36.7,22.7v118.2C350.1,783.7,333.7,785.5,313.4,785.5L313.4,785.5z"/>
				</g><path fill="#007592" d="M321.7,777.2c-20.2,0-36.6-1.7-36.6-14.3V644.7c0-2.7,0.8-5.2,2.1-7.6c-6.4,4.1-10.4,9.7-10.4,15.8v118.2&#10;&#9;&#9;&#9;&#9;c0,12.5,16.4,14.3,36.6,14.3c18.6,0,33.9-1.5,36.3-11.4C343,776.7,332.9,777.2,321.7,777.2z" transform="matrix(1, 0, 0, 1, 8.526512829121202e-14, 2.1316282072803006e-14)"/><path d="M 337.5 657 H 477.600006 V 752.400002 H 337.5 V 657 Z" fill="#C3996B" transform="matrix(1, 0, 0, 1, 1.1368683772161603e-13, 2.842170943040401e-14)"/><path fill="#FED49F" d="M409.1,720h-4.7c1.7-2.9,1.8-6.1-0.1-7.7c-2.3-1.9-6.3-0.9-9,2.2l-5.3,6.2c-1.8,2.1-2.5,4.6-2.1,6.7&#10;&#9;&#9;&#9;&#9;&#9;c-0.3,1-0.5,2-0.5,3.1c0,5.8,4.7,10.5,10.5,10.5h11.3c5.8,0,10.5-4.7,10.5-10.5C419.6,724.7,414.9,720,409.1,720z" transform="matrix(1, 0, 0, 1, 1.1368683772161603e-13, 2.842170943040401e-14)"/><path fill="#F9AE67" d="M391.7,730.6c0-1.1,0.2-2.1,0.5-3.1c-0.4-2,0.3-4.6,2.1-6.7l5.3-6.2c1.1-1.3,2.5-2.2,3.8-2.7&#10;&#9;&#9;&#9;&#9;&#9;c-2.3-1.2-5.8-0.1-8.2,2.7l-5.3,6.2c-1.8,2.1-2.5,4.6-2.1,6.7c-0.3,1-0.5,2-0.5,3.1c0,5.8,4.7,10.5,10.5,10.5h4.4&#10;&#9;&#9;&#9;&#9;&#9;C396.4,741.1,391.7,736.4,391.7,730.6z" transform="matrix(1, 0, 0, 1, 1.1368683772161603e-13, 2.842170943040401e-14)"/><path d="M 334.600006 653.5 H 480.600006 V 665.6 H 334.600006 V 653.5 Z" fill="#A87D50" transform="matrix(1, 0, 0, 1, 1.1368683772161603e-13, 2.842170943040401e-14)"/><path fill="#0093B8" d="M394.6,730.6c0,8.1-1.1,14.7-9.2,14.7H323c-8.1,0-14.7-6.6-14.7-14.7l0,0c0-8.1,6.6-14.7,14.7-14.7h62.3&#10;&#9;&#9;&#9;&#9;C393.5,715.9,394.6,722.5,394.6,730.6L394.6,730.6z" transform="matrix(1, 0, 0, 1, 8.526512829121202e-14, 2.1316282072803006e-14)"/><path fill="#0093B8" d="M326.1,737.8c-7.4,3.3-13.9,5-17.2-2.4l-31.2-69.8c-3.3-7.4,0-16.1,7.4-19.4l0,0c7.4-3.3,16.1,0,19.4,7.4&#10;&#9;&#9;&#9;&#9;l31.2,69.8C339.1,730.8,333.5,734.5,326.1,737.8L326.1,737.8z" transform="matrix(1, 0, 0, 1, 8.526512829121202e-14, 2.1316282072803006e-14)"/><path fill="#0093B8" d="M385.4,715.9h-53l-27.9-62.3c-3.3-7.4-12-10.7-19.4-7.4c-7.4,3.3-10.7,12-7.4,19.4l31.2,69.8&#10;&#9;&#9;&#9;&#9;c0.2,0.5,0.5,0.9,0.8,1.4c2.3,5,7.4,8.5,13.3,8.5h62.3c8.1,0,9.2-6.6,9.2-14.7C394.6,722.5,393.5,715.9,385.4,715.9z" transform="matrix(1, 0, 0, 1, 8.526512829121202e-14, 2.1316282072803006e-14)"/><path fill="#007592" d="M389.2,741.4h-62.3c-5.9,0-10.9-3.5-13.3-8.5c-0.3-0.4-0.6-0.8-0.8-1.4l-31.2-69.8&#10;&#9;&#9;&#9;&#9;c-2.2-4.8-1.5-10.2,1.3-14.3c-5.8,3.9-8.1,11.5-5.2,18.1l31.2,69.8c0.2,0.5,0.5,0.9,0.8,1.4c2.3,5,7.4,8.5,13.3,8.5h62.3&#10;&#9;&#9;&#9;&#9;c4.2,0,6.5-1.8,7.8-4.6C392.1,741.1,390.8,741.4,389.2,741.4z" transform="matrix(1, 0, 0, 1, 8.526512829121202e-14, 2.1316282072803006e-14)"/><path fill="#F9AE67" d="M301.6,613.4v20.8c0,0,4.7,6.3,19.2,6.3v-16.9L301.6,613.4z" transform="matrix(1, 0, 0, 1, 1.1368683772161603e-13, 2.842170943040401e-14)"/><path d="M 340.79998779296875 582.4000244140625 L 342.3999938964844 586.5 L 340.1000061035156 611.2999877929688 L 333.3999938964844 584.2000122070312 L 335.20001220703125 580.2999877929688 Z" fill="#727172" transform="matrix(1, 0, 0, 1, 1.1368683772161603e-13, 2.842170943040401e-14)"/><g transform="matrix(1, 0, 0, 1, 1.1368683772161603e-13, 2.842170943040401e-14)">
					<path fill="#FCC394" d="M299.6,601c0.4,0,0.8,0.1,1.2,0.2v-10.4c0-10.9,8.9-11.8,19.8-11.8c10.9,0,19.8,0.9,19.8,11.8v26.6&#10;&#9;&#9;&#9;&#9;&#9;&#9;c0,10.9-8.9,19.8-19.8,19.8c-10.5,0-19.1-8.2-19.7-18.5c-0.4,0.1-0.8,0.2-1.2,0.2c-2.1,0-3.8-1.7-3.8-3.8v-10.3&#10;&#9;&#9;&#9;&#9;&#9;&#9;C295.7,602.8,297.4,601,299.6,601z"/>
				</g><path fill="#007592" d="M301.6,627.5v2.9l7.9,5.9l5.3,4.7c0,0-4.1-2.4-7.1-1.5c-2.9,0.9-2.9,5.3-2.9,5.3s-5-5.6-5.9-8.2&#10;&#9;&#9;&#9;&#9;&#9;c-0.9-2.6,0-7.4,0-7.4S299,627.5,301.6,627.5z" transform="matrix(1, 0, 0, 1, 1.1368683772161603e-13, 2.842170943040401e-14)"/><path fill="#231F20" d="M320.8,606.7c0,2.4-1,4.3-2.2,4.3c-1.2,0-2.2-1.9-2.2-4.3c0-2.4,1-4.3,2.2-4.3&#10;&#9;&#9;&#9;&#9;&#9;C319.9,602.4,320.8,604.4,320.8,606.7z" transform="matrix(1, 0, 0, 1, 1.1368683772161603e-13, 2.842170943040401e-14)"/><path fill="#231F20" d="M336.9,606.7c0,2.4-1,4.3-2.2,4.3c-1.2,0-2.2-1.9-2.2-4.3c0-2.4,1-4.3,2.2-4.3&#10;&#9;&#9;&#9;&#9;&#9;C336,602.4,336.9,604.4,336.9,606.7z" transform="matrix(1, 0, 0, 1, 1.1368683772161603e-13, 2.842170943040401e-14)"/><path fill="#231F20" d="M319.3,625.8c-0.1-0.3,0-0.6,0.2-0.8l0,0c0.3-0.2,0.6,0,0.8,0.2l0,0c0,0,0.5,0.9,1.4,1.7l0,0&#10;&#9;&#9;&#9;&#9;&#9;c1,0.9,2.5,1.7,4.7,1.7l0,0c4.3,0,6.9-4,7-4l0,0c0.2-0.3,0.5-0.4,0.8-0.2l0,0c0.3,0.2,0.4,0.5,0.2,0.8l0,0c0,0-2.9,4.6-8,4.6&#10;&#9;&#9;&#9;&#9;&#9;l0,0C321.5,629.9,319.4,625.9,319.3,625.8L319.3,625.8z" transform="matrix(1, 0, 0, 1, 1.1368683772161603e-13, 2.842170943040401e-14)"/><path fill="#231F20" d="M321.4,599.5c0,0-0.4-0.4-1-0.8l0,0c-0.6-0.4-1.5-0.7-2.5-0.7l0,0c-0.8,0-1.8,0.2-2.8,1l0,0&#10;&#9;&#9;&#9;&#9;&#9;c-0.3,0.2-0.6,0.1-0.8-0.1l0,0c-0.2-0.3-0.1-0.6,0.1-0.8l0,0c1.2-0.9,2.4-1.2,3.5-1.2l0,0c2.6,0,4.3,1.8,4.3,1.9l0,0&#10;&#9;&#9;&#9;&#9;&#9;c0.2,0.2,0.2,0.6,0,0.8l0,0c-0.1,0.1-0.3,0.2-0.4,0.2l0,0C321.7,599.7,321.5,599.6,321.4,599.5L321.4,599.5z" transform="matrix(1, 0, 0, 1, 1.1368683772161603e-13, 2.842170943040401e-14)"/><path fill="#231F20" d="M337.7,599.5c0,0-0.4-0.4-1-0.8l0,0c-0.6-0.4-1.5-0.7-2.5-0.7l0,0c-0.8,0-1.8,0.2-2.8,1l0,0&#10;&#9;&#9;&#9;&#9;&#9;c-0.3,0.2-0.6,0.1-0.8-0.1l0,0c-0.2-0.3-0.1-0.6,0.1-0.8l0,0c1.2-0.9,2.4-1.2,3.5-1.2l0,0c2.6,0,4.3,1.8,4.3,1.9l0,0h0&#10;&#9;&#9;&#9;&#9;&#9;c0.2,0.2,0.2,0.6,0,0.8l0,0c-0.1,0.1-0.3,0.2-0.4,0.2l0,0C337.9,599.7,337.8,599.6,337.7,599.5L337.7,599.5z" transform="matrix(1, 0, 0, 1, 1.1368683772161603e-13, 2.842170943040401e-14)"/><path fill="#727172" d="M299.6,601l1.3,13.3l3.1,2.6l0.8-2.4l-1.2-19.2l6.3-14.5c0,0-13.3,3.7-15.5,5.5c-2.2,1.8,2,16.3,2,16.3&#10;&#9;&#9;&#9;&#9;&#9;L299.6,601z" transform="matrix(1, 0, 0, 1, 1.1368683772161603e-13, 2.842170943040401e-14)"/><path fill="#231F20" d="M294.3,586.3c0,0,11.8-5.1,17.7-5.3c5.9-0.2,14.7-0.2,14.7-0.2l-1.8-1.6c0,0,7.1,3.7,13.5,4.5&#10;&#9;&#9;&#9;&#9;&#9;c6.5,0.8,10.2-0.6,10.2-0.6l-5.1-0.6l10.2-3.9c0,0-5.3-13.1-26.3-13.3c-21-0.2-31.2,5.7-35.1,10.6&#10;&#9;&#9;&#9;&#9;&#9;C288.5,580.8,294.3,586.3,294.3,586.3z" transform="matrix(1, 0, 0, 1, 1.1368683772161603e-13, 2.842170943040401e-14)"/><path d="M 1188.099976 484.799988 H 1206.899975 V 675.199982 H 1188.099976 V 484.799988 Z" fill="#745C35" transform="matrix(1, 0, 0, 1, 8.526512829121202e-14, 2.1316282072803006e-14)"/><path d="M 1276.300003 484.799988 A 78.800003 80.5 0 0 1 1197.5 565.299988 A 78.800003 80.5 0 0 1 1118.699997 484.799988 A 78.800003 80.5 0 0 1 1197.5 404.299988 A 78.800003 80.5 0 0 1 1276.300003 484.799988 Z" fill="#89AF58" transform="matrix(1, 0, 0, 1, 8.526512829121202e-14, 2.1316282072803006e-14)"/><path fill="#64964D" d="M1165,558.2c9.9,4.6,20.9,7.2,32.5,7.2c43.5,0,78.8-36,78.8-80.5c0-26.7-12.8-50.4-32.4-65.1&#10;&#9;&#9;&#9;&#9;C1230.7,449.1,1199.7,514,1165,558.2z" transform="matrix(1, 0, 0, 1, 8.526512829121202e-14, 2.1316282072803006e-14)"/><path fill="#BABAA2" d="M1247.9,897.5H556.2c-5.3,0-9.6,4.3-9.6,9.6v0c0,5.3,4.3,9.6,9.6,9.6&#10;&#9;&#9;&#9;h691.7c5.3,0,9.6-4.3,9.6-9.6v0C1257.4,901.8,1253.2,897.5,1247.9,897.5z" transform="matrix(1, 0, 0, 1, 5.684341886080802e-14, 1.4210854715202004e-14)"/><path fill="#FFCA2C" d="M1039.9,542.1c0,10.5-8.5,19-19.1,19h-381c-10.5,0-19-8.5-19-19l0,0c0-10.5,8.5-19,19-19h381&#10;&#9;&#9;&#9;&#9;C1031.3,523,1039.9,531.6,1039.9,542.1L1039.9,542.1z" transform="matrix(1, 0, 0, 1, 8.526512829121202e-14, 2.1316282072803006e-14)" style="fill: rgb(64, 79, 214);"/><path fill="#CCA324" d="M 1054.8 550.7 C 1054.8 562 1045.7 571.1 1034.3999999999999 571.1 L 626.3 571.1 C 615 571.1 605.9 562 605.9 550.7 L 605.9 550.7 C 605.9 539.4000000000001 615 530.3000000000001 626.3 530.3000000000001 L 769.078369140625 530.2999877929688 L 1034.4000244140625 530.2999877929688 C 1045.6 530.3 1054.8 539.5 1054.8 550.7 L 1054.8 550.7 Z" transform="matrix(1, 0, 0, 1, 8.526512829121202e-14, 2.1316282072803006e-14)" style="fill: rgb(36, 44, 120);"/><path d="M 386.100006 564.099976 H 422.200005 V 574.299975 H 386.100006 V 564.099976 Z" fill="#231F20" transform="matrix(1, 0, 0, 1, 8.526512829121202e-14, 2.1316282072803006e-14)"/><path d="M 540.5999755859375 577.5 L 544 574.2000122070312 L 563.2000122070312 593.4000244140625 L 559.9000244140625 596.7000122070312 L 540.5999755859375 577.5 Z" fill="#231F20" transform="matrix(1, 0, 0, 1, 1.1368683772161603e-13, 2.842170943040401e-14)"/><path fill="#FFCA2C" d="M600.4,579c0,0-218.2,0-229.9,0c-11.8,0-17.3,10.2-17.3,10.2s0.8-22,15.7-22c14.9,0,220.5,0,220.5,0&#10;&#9;&#9;&#9;&#9;L600.4,579z" transform="matrix(1, 0, 0, 1, 8.526512829121202e-14, 2.1316282072803006e-14)" style="fill: rgb(64, 79, 214);"/><path fill="#231F20" d="M722.3,856c0,32.9-26.7,59.6-59.6,59.6c-32.9,0-59.6-26.7-59.6-59.6c0-32.9,26.7-59.6,59.6-59.6&#10;&#9;&#9;&#9;&#9;&#9;C695.6,796.4,722.3,823.1,722.3,856z" transform="matrix(1, 0, 0, 1, 1.1368683772161603e-13, 2.842170943040401e-14)"/><path d="M 688.999975 856 A 26.4 26.4 0 0 1 662.599976 882.4 A 26.4 26.4 0 0 1 636.199976 856 A 26.4 26.4 0 0 1 662.599976 829.6 A 26.4 26.4 0 0 1 688.999975 856 Z" fill="#6B625F" transform="matrix(1, 0, 0, 1, 1.1368683772161603e-13, 2.842170943040401e-14)"/><path d="M 685.399975 856 A 22.799999 22.799999 0 0 1 662.599976 878.799999 A 22.799999 22.799999 0 0 1 639.799976 856 A 22.799999 22.799999 0 0 1 662.599976 833.200001 A 22.799999 22.799999 0 0 1 685.399975 856 Z" fill="#BE202E" transform="matrix(1, 0, 0, 1, 1.1368683772161603e-13, 2.842170943040401e-14)"/><path fill="#6B625F" d="M668.8,856c0,3.4-2.8,6.1-6.1,6.1c-3.4,0-6.1-2.7-6.1-6.1s2.8-6.1,6.1-6.1&#10;&#9;&#9;&#9;&#9;&#9;C666,849.9,668.8,852.6,668.8,856z" transform="matrix(1, 0, 0, 1, 1.1368683772161603e-13, 2.842170943040401e-14)"/><path fill="#231F20" d="M665.7,842.4c0,1.7-1.4,3.1-3.1,3.1c-1.7,0-3.1-1.4-3.1-3.1c0-1.7,1.4-3.1,3.1-3.1&#10;&#9;&#9;&#9;&#9;&#9;C664.3,839.4,665.7,840.7,665.7,842.4z" transform="matrix(1, 0, 0, 1, 1.1368683772161603e-13, 2.842170943040401e-14)"/><path fill="#231F20" d="M674,848.7c-1.2,1.2-3.1,1.2-4.3,0c-1.2-1.2-1.2-3.1,0-4.3c1.2-1.2,3.1-1.2,4.3,0&#10;&#9;&#9;&#9;&#9;&#9;C675.2,845.6,675.2,847.5,674,848.7z" transform="matrix(1, 0, 0, 1, 1.1368683772161603e-13, 2.842170943040401e-14)"/><path fill="#231F20" d="M675.5,859.1c-1.7,0-3.1-1.4-3.1-3.1c0-1.7,1.4-3.1,3.1-3.1c1.7,0,3.1,1.4,3.1,3.1&#10;&#9;&#9;&#9;&#9;&#9;C678.5,857.7,677.1,859.1,675.5,859.1z" transform="matrix(1, 0, 0, 1, 1.1368683772161603e-13, 2.842170943040401e-14)"/><path fill="#231F20" d="M669.2,867.4c-1.2-1.2-1.2-3.1,0-4.3c1.2-1.2,3.1-1.2,4.3,0c1.2,1.2,1.2,3.1,0,4.3&#10;&#9;&#9;&#9;&#9;&#9;C672.3,868.6,670.4,868.6,669.2,867.4z" transform="matrix(1, 0, 0, 1, 1.1368683772161603e-13, 2.842170943040401e-14)"/><path fill="#231F20" d="M658.8,868.8c0-1.7,1.4-3.1,3.1-3.1c1.7,0,3.1,1.4,3.1,3.1c0,1.7-1.4,3.1-3.1,3.1&#10;&#9;&#9;&#9;&#9;&#9;C660.2,871.9,658.8,870.5,658.8,868.8z" transform="matrix(1, 0, 0, 1, 1.1368683772161603e-13, 2.842170943040401e-14)"/><path fill="#231F20" d="M650.5,862.5c1.2-1.2,3.1-1.2,4.3,0c1.2,1.2,1.2,3.1,0,4.3c-1.2,1.2-3.1,1.2-4.3,0&#10;&#9;&#9;&#9;&#9;&#9;C649.3,865.7,649.3,863.7,650.5,862.5z" transform="matrix(1, 0, 0, 1, 1.1368683772161603e-13, 2.842170943040401e-14)"/><path fill="#231F20" d="M649.1,852.2c1.7,0,3.1,1.4,3.1,3.1c0,1.7-1.4,3.1-3.1,3.1c-1.7,0-3.1-1.4-3.1-3.1&#10;&#9;&#9;&#9;&#9;&#9;C646,853.6,647.4,852.2,649.1,852.2z" transform="matrix(1, 0, 0, 1, 1.1368683772161603e-13, 2.842170943040401e-14)"/><path fill="#231F20" d="M655.4,843.9c1.2,1.2,1.2,3.1,0,4.3c-1.2,1.2-3.1,1.2-4.3,0c-1.2-1.2-1.2-3.1,0-4.3&#10;&#9;&#9;&#9;&#9;&#9;C652.2,842.7,654.2,842.7,655.4,843.9z" transform="matrix(1, 0, 0, 1, 1.1368683772161603e-13, 2.842170943040401e-14)"/><path fill="#231F20" d="M662.6,853.1c2.8,0,5.2,1.9,5.9,4.5c0.1-0.5,0.2-1.1,0.2-1.6c0-3.4-2.8-6.1-6.1-6.1&#10;&#9;&#9;&#9;&#9;&#9;c-3.4,0-6.1,2.7-6.1,6.1c0,0.6,0.1,1.1,0.2,1.6C657.4,855,659.8,853.1,662.6,853.1z" transform="matrix(1, 0, 0, 1, 1.1368683772161603e-13, 2.842170943040401e-14)"/><path fill="#231F20" d="M1154.7,856c0,32.9-26.7,59.6-59.6,59.6c-32.9,0-59.6-26.7-59.6-59.6c0-32.9,26.7-59.6,59.6-59.6&#10;&#9;&#9;&#9;&#9;&#9;C1128,796.4,1154.7,823.1,1154.7,856z" transform="matrix(1, 0, 0, 1, 1.1368683772161603e-13, 2.842170943040401e-14)"/><path d="M 1121.4 856 A 26.4 26.4 0 0 1 1095 882.4 A 26.4 26.4 0 0 1 1068.6 856 A 26.4 26.4 0 0 1 1095 829.6 A 26.4 26.4 0 0 1 1121.4 856 Z" fill="#6B625F" transform="matrix(1, 0, 0, 1, 1.1368683772161603e-13, 2.842170943040401e-14)"/><path d="M 1117.799999 856 A 22.799999 22.799999 0 0 1 1095 878.799999 A 22.799999 22.799999 0 0 1 1072.200001 856 A 22.799999 22.799999 0 0 1 1095 833.200001 A 22.799999 22.799999 0 0 1 1117.799999 856 Z" fill="#BE202E" transform="matrix(1, 0, 0, 1, 1.1368683772161603e-13, 2.842170943040401e-14)"/><path fill="#6B625F" d="M1101.2,856c0,3.4-2.8,6.1-6.1,6.1c-3.4,0-6.1-2.7-6.1-6.1s2.8-6.1,6.1-6.1&#10;&#9;&#9;&#9;&#9;&#9;C1098.4,849.9,1101.2,852.6,1101.2,856z" transform="matrix(1, 0, 0, 1, 1.1368683772161603e-13, 2.842170943040401e-14)"/><path fill="#231F20" d="M1098.1,842.4c0,1.7-1.4,3.1-3.1,3.1c-1.7,0-3.1-1.4-3.1-3.1c0-1.7,1.4-3.1,3.1-3.1&#10;&#9;&#9;&#9;&#9;&#9;C1096.7,839.4,1098.1,840.7,1098.1,842.4z" transform="matrix(1, 0, 0, 1, 1.1368683772161603e-13, 2.842170943040401e-14)"/><path fill="#231F20" d="M1106.4,848.7c-1.2,1.2-3.1,1.2-4.3,0c-1.2-1.2-1.2-3.1,0-4.3c1.2-1.2,3.1-1.2,4.3,0&#10;&#9;&#9;&#9;&#9;&#9;C1107.6,845.6,1107.6,847.5,1106.4,848.7z" transform="matrix(1, 0, 0, 1, 1.1368683772161603e-13, 2.842170943040401e-14)"/><path d="M 1111.000024 856 A 3.1 3.1 0 0 1 1107.900024 859.1 A 3.1 3.1 0 0 1 1104.800025 856 A 3.1 3.1 0 0 1 1107.900024 852.9 A 3.1 3.1 0 0 1 1111.000024 856 Z" fill="#231F20" transform="matrix(1, 0, 0, 1, 1.1368683772161603e-13, 2.842170943040401e-14)"/><path fill="#231F20" d="M1101.6,867.4c-1.2-1.2-1.2-3.1,0-4.3c1.2-1.2,3.1-1.2,4.3,0c1.2,1.2,1.2,3.1,0,4.3&#10;&#9;&#9;&#9;&#9;&#9;C1104.7,868.6,1102.8,868.6,1101.6,867.4z" transform="matrix(1, 0, 0, 1, 1.1368683772161603e-13, 2.842170943040401e-14)"/><path fill="#231F20" d="M1091.2,868.8c0-1.7,1.4-3.1,3.1-3.1c1.7,0,3.1,1.4,3.1,3.1c0,1.7-1.4,3.1-3.1,3.1&#10;&#9;&#9;&#9;&#9;&#9;C1092.6,871.9,1091.2,870.5,1091.2,868.8z" transform="matrix(1, 0, 0, 1, 1.1368683772161603e-13, 2.842170943040401e-14)"/><path fill="#231F20" d="M1082.9,862.5c1.2-1.2,3.1-1.2,4.3,0c1.2,1.2,1.2,3.1,0,4.3c-1.2,1.2-3.1,1.2-4.3,0&#10;&#9;&#9;&#9;&#9;&#9;C1081.7,865.7,1081.7,863.7,1082.9,862.5z" transform="matrix(1, 0, 0, 1, 1.1368683772161603e-13, 2.842170943040401e-14)"/><path fill="#231F20" d="M1081.5,852.2c1.7,0,3.1,1.4,3.1,3.1c0,1.7-1.4,3.1-3.1,3.1c-1.7,0-3.1-1.4-3.1-3.1&#10;&#9;&#9;&#9;&#9;&#9;C1078.4,853.6,1079.8,852.2,1081.5,852.2z" transform="matrix(1, 0, 0, 1, 1.1368683772161603e-13, 2.842170943040401e-14)"/><path fill="#231F20" d="M1087.8,843.9c1.2,1.2,1.2,3.1,0,4.3c-1.2,1.2-3.1,1.2-4.3,0c-1.2-1.2-1.2-3.1,0-4.3&#10;&#9;&#9;&#9;&#9;&#9;C1084.6,842.7,1086.6,842.7,1087.8,843.9z" transform="matrix(1, 0, 0, 1, 1.1368683772161603e-13, 2.842170943040401e-14)"/><path fill="#231F20" d="M1095,853.1c2.8,0,5.2,1.9,5.9,4.5c0.1-0.5,0.2-1.1,0.2-1.6c0-3.4-2.8-6.1-6.1-6.1&#10;&#9;&#9;&#9;&#9;&#9;c-3.4,0-6.1,2.7-6.1,6.1c0,0.6,0.1,1.1,0.2,1.6C1089.8,855,1092.2,853.1,1095,853.1z" transform="matrix(1, 0, 0, 1, 1.1368683772161603e-13, 2.842170943040401e-14)"/><path fill="#FFCA2C" d="M1205.1,687.7c0,0-78.3-108.9-98.9-129.5c-20.6-20.6-31.8-17.7-57.7-17.7H648.3&#10;&#9;&#9;&#9;&#9;c-44.7,0-90.6,5.9-90.6,57.7v240.1c0,9.9,12.4,27,54.3,29.2c-0.8-3.7-1.3-7.6-1.3-11.5c0-28.7,23.3-52,52-52&#10;&#9;&#9;&#9;&#9;c28.7,0,52,23.3,52,52c0,4.1-0.5,8-1.4,11.8h331.4c-0.9-3.8-1.4-7.7-1.4-11.8c0-28.7,23.3-52,52-52s52,23.3,52,52&#10;&#9;&#9;&#9;&#9;c0,4.1-0.5,8-1.4,11.8h63.8c34.1,0,56.5-10.6,56.5-38.8c0-28.3,0-75.3,0-75.3L1205.1,687.7z" transform="matrix(1, 0, 0, 1, 8.526512829121202e-14, 2.1316282072803006e-14)" style="fill: rgb(64, 79, 214);"/><path fill="#D8DCDC" d="M1266.3,818.8v-45.4c-2.4-1.9-5.4-3-8.6-3c-7.8,0-14.1,6.3-14.1,14.1v23.2c0,7.8,6.3,14.1,14.1,14.1&#10;&#9;&#9;&#9;&#9;C1260.9,821.9,1263.9,820.7,1266.3,818.8z" transform="matrix(1, 0, 0, 1, 8.526512829121202e-14, 2.1316282072803006e-14)"/><path fill="#E86F32" d="M1266.3,813.8v-35.2c-1.9-1.4-4.2-2.3-6.7-2.3c-6.1,0-11,4.9-11,11v18c0,6.1,4.9,11,11,11&#10;&#9;&#9;&#9;&#9;C1262.1,816.1,1264.4,815.2,1266.3,813.8z" transform="matrix(1, 0, 0, 1, 8.526512829121202e-14, 2.1316282072803006e-14)"/><path fill="#BED639" d="M560.6,577.7c-1.9,5.9-3,12.6-3,20.5v240.1c0,2.7,0.9,5.8,3,9.1V577.7z" transform="matrix(1, 0, 0, 1, 8.526512829121202e-14, 2.1316282072803006e-14)" style="fill: rgb(36, 44, 119);"/><path fill="#BCE6FB" d="M1024.9,586.8v82.8c0,0,0.8,11.4,11.4,11.4c10.6,0,125.2,0,125.2,0l-71.4-94.2H1024.9z" transform="matrix(1, 0, 0, 1, 8.526512829121202e-14, 2.1316282072803006e-14)"/><path d="M 1002.200012 540.5 H 1012.400012 V 867.700012 H 1002.200012 V 540.5 Z" fill="#CCA324" transform="matrix(1, 0, 0, 1, 8.526512829121202e-14, 2.1316282072803006e-14)" style="fill: rgb(255, 255, 255);"/><path d="M 1001.599976 540.5 H 1006.699975 V 867.700012 H 1001.599976 V 540.5 Z" fill="#F15F2E" transform="matrix(1, 0, 0, 1, 8.526512829121202e-14, 2.1316282072803006e-14)"/><path d="M 557.599976 725.900024 H 574.999975 V 807.100021 H 557.599976 V 725.900024 Z" fill="#FFCA2C" transform="matrix(1, 0, 0, 1, 8.526512829121202e-14, 2.1316282072803006e-14)"/><path d="M 557.599976 728.299988 H 572.899976 V 804.799988 H 557.599976 V 728.299988 Z" fill="#8F8987" transform="matrix(1, 0, 0, 1, 8.526512829121202e-14, 2.1316282072803006e-14)"/><path d="M 557.599976 733 H 572.899976 V 800.099998 H 557.599976 V 733 Z" fill="#F69321" transform="matrix(1, 0, 0, 1, 8.526512829121202e-14, 2.1316282072803006e-14)"/><path d="M 557.599976 755.900024 H 572.899976 V 777.100025 H 557.599976 V 755.900024 Z" fill="#BE202E" transform="matrix(1, 0, 0, 1, 8.526512829121202e-14, 2.1316282072803006e-14)"/><path fill="#766F6D" d="M619,870.5c-1.3-4.2-2-8.6-2-13.2c0-25.3,20.5-45.8,45.8-45.8c25.3,0,45.8,20.5,45.8,45.8&#10;&#9;&#9;&#9;&#9;&#9;c0,4.6-0.7,9-2,13.2h20c0.9-4.3,1.4-8.7,1.4-13.2c0-36-29.2-65.2-65.2-65.2c-36,0-65.3,29.2-65.3,65.2c0,4.5,0.5,8.9,1.4,13.2&#10;&#9;&#9;&#9;&#9;&#9;H619z" transform="matrix(1, 0, 0, 1, 1.1368683772161603e-13, 2.842170943040401e-14)"/><path fill="#47403D" d="M662.9,805c-30.1,0-54.5,24.4-54.5,54.5c0,3.8,0.4,7.5,1.2,11h9.4c-1.3-4.2-2-8.6-2-13.2&#10;&#9;&#9;&#9;&#9;&#9;c0-25.3,20.5-45.8,45.8-45.8c25.3,0,45.8,20.5,45.8,45.8c0,4.6-0.7,9-2,13.2h9.4c0.7-3.6,1.2-7.2,1.2-11&#10;&#9;&#9;&#9;&#9;&#9;C717.4,829.4,693,805,662.9,805z" transform="matrix(1, 0, 0, 1, 1.1368683772161603e-13, 2.842170943040401e-14)"/><path fill="#766F6D" d="M1053.4,870.5c-1.3-4.2-2-8.6-2-13.2c0-25.3,20.5-45.8,45.8-45.8c25.3,0,45.8,20.5,45.8,45.8&#10;&#9;&#9;&#9;&#9;&#9;c0,4.6-0.7,9-2,13.2h20c0.9-4.3,1.4-8.7,1.4-13.2c0-36-29.2-65.2-65.2-65.2c-36,0-65.3,29.2-65.3,65.2c0,4.5,0.5,8.9,1.4,13.2&#10;&#9;&#9;&#9;&#9;&#9;H1053.4z" transform="matrix(1, 0, 0, 1, 1.1368683772161603e-13, 2.842170943040401e-14)"/><path fill="#47403D" d="M1097.3,805c-30.1,0-54.5,24.4-54.5,54.5c0,3.8,0.4,7.5,1.2,11h9.4c-1.3-4.2-2-8.6-2-13.2&#10;&#9;&#9;&#9;&#9;&#9;c0-25.3,20.5-45.8,45.8-45.8c25.3,0,45.8,20.5,45.8,45.8c0,4.6-0.7,9-2,13.2h9.4c0.7-3.6,1.2-7.2,1.2-11&#10;&#9;&#9;&#9;&#9;&#9;C1151.7,829.4,1127.4,805,1097.3,805z" transform="matrix(1, 0, 0, 1, 1.1368683772161603e-13, 2.842170943040401e-14)"/><path fill="#D8DCDC" d="M1254.2,785.1l4.7,9.1l7.4,4.7c0-23.1,0-45.3,0-45.3l-0.5-0.6h-43.6&#10;&#9;&#9;&#9;&#9;C1222.1,753,1219.2,785.1,1254.2,785.1z" transform="matrix(1, 0, 0, 1, 8.526512829121202e-14, 2.1316282072803006e-14)"/><path fill="#FFFFFF" d="M1266.3,758.7h-34.9c0,0-1.2,20.8,18,20.8v-8.2h7.5c0,0-0.7,17.4,9.4,19.4V758.7z" transform="matrix(1, 0, 0, 1, 8.526512829121202e-14, 2.1316282072803006e-14)"/><path fill="#766F6D" d="M1017.5,580.5c0,0,0.8,11,7.9,11c7.1,0,38.5-3.1,60,2.4c10.6,1.2,69.1,88.3,69.1,88.3h12.6&#10;&#9;&#9;&#9;&#9;c0,0-62.8-85.5-67.5-91.4c-4.7-5.9-13.3-10.2-23.5-10.2C1065.8,580.5,1017.5,580.5,1017.5,580.5z" transform="matrix(1, 0, 0, 1, 8.526512829121202e-14, 2.1316282072803006e-14)"/><path fill="#BDBABA" d="M1071.2,585.3c10.2,0,23.2,4.3,27.9,10.2c4,5.1,50,68.8,63.2,86.7h4.7c0,0-62.8-85.5-67.5-91.4&#10;&#9;&#9;&#9;&#9;c-4.7-5.9-13.3-10.2-23.5-10.2c-10.2,0-58.5,0-58.5,0s0.2,2.1,0.9,4.7H1071.2z" transform="matrix(1, 0, 0, 1, 8.526512829121202e-14, 2.1316282072803006e-14)"/><path fill="#231F20" d="M1164.9,677.9c0,7.5-6.1,7.8-13.6,7.8l0,0c-7.5,0-13.6-0.3-13.6-7.8v-28.7c0-7.5,6.1-7.8,13.6-7.8l0,0&#10;&#9;&#9;&#9;&#9;c7.5,0,13.6,0.3,13.6,7.8V677.9z" transform="matrix(1, 0, 0, 1, 8.526512829121202e-14, 2.1316282072803006e-14)"/><path fill="#766F6D" d="M1157.8,677.9c0,7.5-4.5,7.8-10.1,7.8l0,0c-5.6,0-10.1-0.3-10.1-7.8v-28.7c0-7.5,4.5-7.8,10.1-7.8l0,0&#10;&#9;&#9;&#9;&#9;c5.6,0,10.1,0.3,10.1,7.8V677.9z" transform="matrix(1, 0, 0, 1, 8.526512829121202e-14, 2.1316282072803006e-14)"/><path fill="#FFFFFF" d="M1156.2,675.7c0,6.4-3.8,6.6-8.5,6.6l0,0c-4.7,0-8.5-0.2-8.5-6.6v-24.3c0-6.4,3.8-6.6,8.5-6.6l0,0&#10;&#9;&#9;&#9;&#9;c4.7,0,8.5,0.2,8.5,6.6V675.7z" transform="matrix(1, 0, 0, 1, 8.526512829121202e-14, 2.1316282072803006e-14)"/><path fill="#BDBABA" d="M1141.5,677.3V653c0-6.4,3.8-6.6,8.5-6.6c1.9,0,3.6,0.1,5,0.5c-1.5-1.9-4.2-2.1-7.3-2.1&#10;&#9;&#9;&#9;&#9;c-4.7,0-8.5,0.2-8.5,6.6v24.3c0,3.9,1.4,5.4,3.6,6.1C1141.9,680.8,1141.5,679.4,1141.5,677.3z" transform="matrix(1, 0, 0, 1, 8.526512829121202e-14, 2.1316282072803006e-14)"/><path fill="#231F20" d="M1029,697.1c0,0.3-0.1,0.6-0.1,1c0,4.4,3.6,8,8,8h34.5c4.4,0,8-3.6,8-8c0-0.3-0.1-0.7-0.1-1H1029z" transform="matrix(1, 0, 0, 1, 1.1368683772161603e-13, 2.842170943040401e-14)"/><path d="M 1035.5 697.099976 H 1072.799999 V 702.199975 H 1035.5 V 697.099976 Z" fill="#47403D" transform="matrix(1, 0, 0, 1, 1.1368683772161603e-13, 2.842170943040401e-14)"/><path fill="#BABAA2" d="M386.2,912.7H269.5c-3.4,0-6.2,2.8-6.2,6.2s2.8,6.2,6.2,6.2h116.7&#10;&#9;&#9;&#9;c3.4,0,6.2-2.8,6.2-6.2S389.6,912.7,386.2,912.7z" transform="matrix(1, 0, 0, 1, 5.684341886080802e-14, 1.4210854715202004e-14)"/><path d="M 38 544.900024 H 54.200001 V 708.900024 H 38 V 544.900024 Z" fill="#947543" transform="matrix(1, 0, 0, 1, 8.526512829121202e-14, 2.1316282072803006e-14)"/><path d="M 114.800003 508 A 67.900002 106.300003 0 0 1 46.900002 614.300003 A 67.900002 106.300003 0 0 1 -21 508 A 67.900002 106.300003 0 0 1 46.900002 401.699997 A 67.900002 106.300003 0 0 1 114.800003 508 Z" fill="#A3D06A" transform="matrix(1, 0, 0, 1, 8.526512829121202e-14, 2.1316282072803006e-14)"/><path fill="#7AB75F" d="M18.8,604.8c8.5,6.1,18,9.5,28,9.5c37.5,0,67.9-47.6,67.9-106.3c0-35.3-11-66.6-27.9-85.9&#10;&#9;&#9;&#9;&#9;C75.5,460.8,48.8,546.5,18.8,604.8z" transform="matrix(1, 0, 0, 1, 8.526512829121202e-14, 2.1316282072803006e-14)"/><path fill="#FFFFFF" d="M1211,305.8c-3.6,0-7,1.3-9.6,3.4c-3.2-6.1-9.6-10.3-17-10.3c-5.1,0-9.7,2-13.1,5.2&#10;&#9;&#9;&#9;c-1.8-0.8-3.9-1.2-6-1.2c-8.3,0-15.1,6.8-15.1,15.1h75.6C1224.5,311.1,1218.4,305.8,1211,305.8z" transform="matrix(1, 0, 0, 1, 5.684341886080802e-14, 1.4210854715202004e-14)"/><path fill="#FFFFFF" d="M418.3,37.9c-3.6,0-7,1.3-9.6,3.4c-3.2-6.1-9.6-10.3-17-10.3c-5.1,0-9.7,2-13.1,5.2&#10;&#9;&#9;&#9;c-1.8-0.8-3.9-1.2-6-1.2c-8.3,0-15.1,6.8-15.1,15.1h75.6C431.8,43.2,425.7,37.9,418.3,37.9z" transform="matrix(1, 0, 0, 1, 5.684341886080802e-14, 1.4210854715202004e-14)"/><path fill="#FFFFFF" d="M75.8,206.5c-5.7,0-10.9,2-15,5.4c-4.9-9.6-14.9-16.1-26.5-16.1c-7.9,0-15.1,3.1-20.4,8.1&#10;&#9;&#9;&#9;c-2.9-1.2-6-1.9-9.3-1.9c-13,0-23.6,10.6-23.6,23.6H98.9C96.8,214.7,87.2,206.5,75.8,206.5z" transform="matrix(1, 0, 0, 1, 5.684341886080802e-14, 1.4210854715202004e-14)"/><path d="M 1117.800049 97.699997 A 75 75 0 0 1 1042.800049 172.699997 A 75 75 0 0 1 967.800049 97.699997 A 75 75 0 0 1 1042.800049 22.699997 A 75 75 0 0 1 1117.800049 97.699997 Z" fill="#F89830" transform="matrix(1, 0, 0, 1, 5.684341886080802e-14, 1.4210854715202004e-14)"/><path fill="#FFFFFF" d="M1003.4,90.7c-9.7,0-18.6,3.4-25.5,9.1c-8.4-16.3-25.4-27.5-45.1-27.5c-13.5,0-25.7,5.3-34.8,13.8&#10;&#9;&#9;&#9;c-4.9-2.1-10.3-3.3-15.9-3.3c-22.2,0-40.2,18-40.2,40.2h200.8C1039.2,104.6,1022.9,90.7,1003.4,90.7z" transform="matrix(1, 0, 0, 1, 5.684341886080802e-14, 1.4210854715202004e-14)"/>
<path d="M 888.898681640625 528.0701904296875 L 888.898681640625 528.0701904296875" style="fill: rgb(64, 79, 214); fill-opacity: 1; stroke: rgb(0, 0, 0); stroke-opacity: 1; stroke-width: 0; paint-order: fill;"/><path d="M 725.0348510742188 536.5458984375" style="fill: rgb(64, 79, 214); fill-opacity: 1; stroke: rgb(0, 0, 0); stroke-opacity: 1; stroke-width: 0; paint-order: fill;"/><path d="M 560.5506591796875 636.2921142578125 L 560.5506591796875 636.2921142578125" style="fill: rgb(64, 79, 214); fill-opacity: 1; stroke: rgb(0, 0, 0); stroke-opacity: 1; stroke-width: 0; paint-order: fill;"/><path d="M 430.00750732421875 787.9094848632812" style="fill: rgb(36, 44, 119); fill-opacity: 1; stroke: rgb(0, 0, 0); stroke-opacity: 1; stroke-width: 0; paint-order: fill;"/><path d="M 716.273681640625 722.0428466796875 L 716.273681640625 729.6028442382812 L 692.28369140625 729.6028442382812 L 692.28369140625 687.44287109375 L 700.8336791992188 687.44287109375 L 700.8336791992188 722.0428466796875 L 716.273681640625 722.0428466796875 ZM 733.4420166015625 730.3428344726562 C 728.775390625 730.3428344726562 725.2320556640625 728.9295043945312 722.81201171875 726.1028442382812 C 720.3920288085938 723.26953125 719.1820068359375 719.24951171875 719.1820068359375 714.0428466796875 C 719.1820068359375 708.8761596679688 720.3920288085938 704.8861694335938 722.81201171875 702.0728149414062 C 725.2320556640625 699.2661743164062 728.775390625 697.8628540039062 733.4420166015625 697.8628540039062 C 738.1153564453125 697.8628540039062 741.6620483398438 699.2661743164062 744.08203125 702.0728149414062 C 746.495361328125 704.8861694335938 747.7020263671875 708.8761596679688 747.7020263671875 714.0428466796875 C 747.7020263671875 719.24951171875 746.495361328125 723.26953125 744.08203125 726.1028442382812 C 741.6620483398438 728.9295043945312 738.1153564453125 730.3428344726562 733.4420166015625 730.3428344726562 M 733.4420166015625 723.2828369140625 C 735.4287109375 723.2828369140625 736.8953857421875 722.5595092773438 737.842041015625 721.1128540039062 C 738.7953491210938 719.6661987304688 739.2720336914062 717.3095092773438 739.2720336914062 714.0428466796875 C 739.2720336914062 710.7761840820312 738.7953491210938 708.4395141601562 737.842041015625 707.0328369140625 C 736.8953857421875 705.6261596679688 735.4287109375 704.9228515625 733.4420166015625 704.9228515625 C 731.4620361328125 704.9228515625 729.995361328125 705.6261596679688 729.0420532226562 707.0328369140625 C 728.0886840820312 708.4395141601562 727.6119995117188 710.7761840820312 727.6119995117188 714.0428466796875 C 727.6119995117188 717.3095092773438 728.0886840820312 719.6661987304688 729.0420532226562 721.1128540039062 C 729.995361328125 722.5595092773438 731.4620361328125 723.2828369140625 733.4420166015625 723.2828369140625 ZM 764.999755859375 730.3428344726562 C 760.5330810546875 730.3428344726562 757.29638671875 729.0528564453125 755.2897338867188 726.4728393554688 C 753.2897338867188 723.8861694335938 752.2897338867188 719.7628173828125 752.2897338867188 714.1028442382812 C 752.2897338867188 708.356201171875 753.3230590820312 704.2128295898438 755.3897705078125 701.6728515625 C 757.4564208984375 699.1328735351562 760.8230590820312 697.8628540039062 765.48974609375 697.8628540039062 C 766.6897583007812 697.8628540039062 768.0130615234375 697.9661865234375 769.4597778320312 698.1728515625 C 770.9064331054688 698.3795166015625 772.8497314453125 698.7294921875 775.2897338867188 699.2228393554688 L 775.0397338867188 705.7928466796875 C 771.5264282226562 705.4661865234375 769.08642578125 705.3028564453125 767.7197265625 705.3028564453125 C 765.8197631835938 705.3028564453125 764.3731079101562 705.5595092773438 763.3797607421875 706.0728149414062 C 762.39306640625 706.5928344726562 761.7030639648438 707.4728393554688 761.3097534179688 708.7128295898438 C 760.9164428710938 709.9528198242188 760.7197265625 711.7294921875 760.7197265625 714.0428466796875 C 760.7197265625 716.3961791992188 760.9164428710938 718.19287109375 761.3097534179688 719.432861328125 C 761.7030639648438 720.6728515625 762.403076171875 721.5628662109375 763.4097290039062 722.1028442382812 C 764.423095703125 722.6361694335938 765.903076171875 722.90283203125 767.8497314453125 722.90283203125 L 775.0397338867188 722.412841796875 L 775.2897338867188 729.0428466796875 C 770.9097290039062 729.9094848632812 767.479736328125 730.3428344726562 764.999755859375 730.3428344726562 ZM 788.9863891601562 730.3428344726562 C 782.5797729492188 730.3428344726562 779.3764038085938 726.9561767578125 779.3764038085938 720.182861328125 C 779.3764038085938 716.9561767578125 780.2330932617188 714.6295166015625 781.9464111328125 713.2028198242188 C 783.6597290039062 711.7761840820312 786.4197387695312 710.9395141601562 790.2264404296875 710.69287109375 L 796.8564453125 710.19287109375 L 796.8564453125 708.2728271484375 C 796.8564453125 707.0328369140625 796.5797729492188 706.1661987304688 796.0264282226562 705.6728515625 C 795.4664306640625 705.1728515625 794.5230712890625 704.9228515625 793.1964111328125 704.9228515625 C 791.83642578125 704.9228515625 789.9564208984375 704.9761962890625 787.556396484375 705.0828247070312 C 785.1630859375 705.182861328125 783.1597290039062 705.2962036132812 781.54638671875 705.4228515625 L 781.29638671875 699.65283203125 C 785.7630615234375 698.4595336914062 789.979736328125 697.8628540039062 793.9464111328125 697.8628540039062 C 797.9130859375 697.8628540039062 800.7730712890625 698.6895141601562 802.5264282226562 700.3428344726562 C 804.2864379882812 701.9961547851562 805.1664428710938 704.6395263671875 805.1664428710938 708.2728271484375 L 805.1664428710938 721.1728515625 C 805.2463989257812 722.2061767578125 805.423095703125 722.9094848632812 805.6964111328125 723.2828369140625 C 805.9630737304688 723.6495361328125 806.4697265625 723.9161987304688 807.2164306640625 724.0828247070312 L 806.9664306640625 730.3428344726562 C 804.8131103515625 730.3428344726562 803.1064453125 730.1995239257812 801.846435546875 729.912841796875 C 800.58642578125 729.6261596679688 799.33642578125 729.0462036132812 798.096435546875 728.1728515625 C 795.0830688476562 729.6195068359375 792.04638671875 730.3428344726562 788.9863891601562 730.3428344726562 M 790.7864379882812 723.5928344726562 C 792.3530883789062 723.5928344726562 794.06640625 723.3428344726562 795.9263916015625 722.8428344726562 L 796.8564453125 722.5928344726562 L 796.8564453125 715.9628295898438 L 791.2164306640625 716.4628295898438 C 788.903076171875 716.6694946289062 787.7463989257812 717.9094848632812 787.7463989257812 720.182861328125 C 787.7463989257812 722.4561767578125 788.759765625 723.5928344726562 790.7864379882812 723.5928344726562 ZM 813.4723510742188 686.2028198242188 L 821.7723999023438 686.2028198242188 L 821.7723999023438 729.6028442382812 L 813.4723510742188 729.6028442382812 L 813.4723510742188 686.2028198242188 ZM 888.2365112304688 687.44287109375 L 888.2365112304688 729.6028442382812 L 879.676513671875 729.6028442382812 L 879.676513671875 696.9928588867188 L 878.7465209960938 696.9928588867188 L 870.5065307617188 727.7428588867188 L 861.946533203125 727.7428588867188 L 853.696533203125 696.9928588867188 L 852.7665405273438 696.9928588867188 L 852.7665405273438 729.6028442382812 L 844.216552734375 729.6028442382812 L 844.216552734375 687.44287109375 L 858.7864990234375 687.44287109375 L 866.2265014648438 718.1328735351562 L 873.66650390625 687.44287109375 L 888.2365112304688 687.44287109375 ZM 908.930419921875 730.3428344726562 C 904.2637939453125 730.3428344726562 900.720458984375 728.9295043945312 898.3004150390625 726.1028442382812 C 895.8804321289062 723.26953125 894.67041015625 719.24951171875 894.67041015625 714.0428466796875 C 894.67041015625 708.8761596679688 895.8804321289062 704.8861694335938 898.3004150390625 702.0728149414062 C 900.720458984375 699.2661743164062 904.2637939453125 697.8628540039062 908.930419921875 697.8628540039062 C 913.603759765625 697.8628540039062 917.1504516601562 699.2661743164062 919.5704345703125 702.0728149414062 C 921.9837646484375 704.8861694335938 923.1904296875 708.8761596679688 923.1904296875 714.0428466796875 C 923.1904296875 719.24951171875 921.9837646484375 723.26953125 919.5704345703125 726.1028442382812 C 917.1504516601562 728.9295043945312 913.603759765625 730.3428344726562 908.930419921875 730.3428344726562 M 908.930419921875 723.2828369140625 C 910.9171142578125 723.2828369140625 912.3837890625 722.5595092773438 913.3304443359375 721.1128540039062 C 914.2837524414062 719.6661987304688 914.7604370117188 717.3095092773438 914.7604370117188 714.0428466796875 C 914.7604370117188 710.7761840820312 914.2837524414062 708.4395141601562 913.3304443359375 707.0328369140625 C 912.3837890625 705.6261596679688 910.9171142578125 704.9228515625 908.930419921875 704.9228515625 C 906.950439453125 704.9228515625 905.4837646484375 705.6261596679688 904.5304565429688 707.0328369140625 C 903.5770874023438 708.4395141601562 903.1004028320312 710.7761840820312 903.1004028320312 714.0428466796875 C 903.1004028320312 717.3095092773438 903.5770874023438 719.6661987304688 904.5304565429688 721.1128540039062 C 905.4837646484375 722.5595092773438 906.950439453125 723.2828369140625 908.930419921875 723.2828369140625 ZM 925.9141235351562 698.6028442382812 L 934.5941162109375 698.6028442382812 L 939.5541381835938 722.5328369140625 L 941.2941284179688 722.5328369140625 L 946.494140625 698.6028442382812 L 954.9341430664062 698.6028442382812 L 947.494140625 729.6028442382812 L 933.3541259765625 729.6028442382812 L 925.9141235351562 698.6028442382812 ZM 959.6942749023438 729.6028442382812 M 959.6942749023438 698.6028442382812 L 968.0042724609375 698.6028442382812 L 968.0042724609375 729.6028442382812 L 959.6942749023438 729.6028442382812 L 959.6942749023438 698.6028442382812 M 959.6942749023438 686.2628173828125 L 968.0042724609375 686.2628173828125 L 968.0042724609375 694.6328125 L 959.6942749023438 694.6328125 L 959.6942749023438 686.2628173828125 ZM 975.6871948242188 698.6028442382812 L 983.9371948242188 698.6028442382812 L 983.9371948242188 700.3428344726562 C 985.510498046875 699.4295043945312 986.90380859375 698.7861938476562 988.1171875 698.412841796875 C 989.337158203125 698.0462036132812 990.6505126953125 697.8628540039062 992.0571899414062 697.8628540039062 C 995.8638305664062 697.8628540039062 998.5704956054688 699.0795288085938 1000.1771850585938 701.5128173828125 C 1001.79052734375 703.9528198242188 1002.59716796875 707.7161865234375 1002.59716796875 712.8028564453125 L 1002.59716796875 729.6028442382812 L 994.2871704101562 729.6028442382812 L 994.2871704101562 713.0528564453125 C 994.2871704101562 710.1995239257812 993.9471435546875 708.19287109375 993.2671508789062 707.0328369140625 C 992.587158203125 705.8795166015625 991.2971801757812 705.3028564453125 989.3971557617188 705.3028564453125 C 988.030517578125 705.3028564453125 986.4805297851562 705.5895385742188 984.7471923828125 706.162841796875 L 983.9971923828125 706.412841796875 L 983.9971923828125 729.6028442382812 L 975.6871948242188 729.6028442382812 L 975.6871948242188 698.6028442382812 ZM 1022.4365844726562 743.8628540039062 C 1018.0099487304688 743.8628540039062 1014.5665893554688 743.2128295898438 1012.1065673828125 741.912841796875 C 1009.6466064453125 740.606201171875 1008.4165649414062 738.4862060546875 1008.4165649414062 735.5528564453125 C 1008.4165649414062 734.0261840820312 1008.7799072265625 732.6728515625 1009.506591796875 731.4928588867188 C 1010.2265625 730.3128662109375 1011.353271484375 729.1028442382812 1012.8865966796875 727.8628540039062 C 1012.139892578125 727.3695068359375 1011.5699462890625 726.7294921875 1011.1765747070312 725.94287109375 C 1010.7832641601562 725.1561889648438 1010.5866088867188 724.3295288085938 1010.5866088867188 723.4628295898438 C 1010.5866088867188 722.8428344726562 1010.7432250976562 722.2028198242188 1011.0565795898438 721.5428466796875 C 1011.36328125 720.8828735351562 1012.0132446289062 719.7661743164062 1013.006591796875 718.19287109375 C 1010.1998901367188 716.1261596679688 1008.7965698242188 713.1094970703125 1008.7965698242188 709.142822265625 C 1008.7965698242188 705.3828735351562 1009.9432373046875 702.5828247070312 1012.236572265625 700.7428588867188 C 1014.5299072265625 698.90283203125 1017.7232666015625 697.9828491210938 1021.8165893554688 697.9828491210938 C 1023.5499267578125 697.9828491210938 1025.6365966796875 698.2528686523438 1028.0765380859375 698.7928466796875 L 1038.056640625 698.4828491210938 L 1038.056640625 705.1128540039062 L 1033.4066162109375 704.7428588867188 C 1033.946533203125 705.6094970703125 1034.306640625 706.3528442382812 1034.486572265625 706.9728393554688 C 1034.6732177734375 707.5928344726562 1034.7666015625 708.4395141601562 1034.7666015625 709.5128173828125 C 1034.7666015625 713.2328491210938 1033.7132568359375 715.8895263671875 1031.6065673828125 717.4828491210938 C 1029.4998779296875 719.076171875 1026.296630859375 719.8728637695312 1021.99658203125 719.8728637695312 C 1020.756591796875 719.8728637695312 1019.8065795898438 719.7894897460938 1019.1466064453125 719.6228637695312 C 1018.7332763671875 720.6161499023438 1018.526611328125 721.4628295898438 1018.526611328125 722.162841796875 C 1018.526611328125 723.029541015625 1018.949951171875 723.55615234375 1019.7965698242188 723.7428588867188 C 1020.6432495117188 723.9295043945312 1022.2232666015625 724.0428466796875 1024.53662109375 724.0828247070312 C 1027.7232666015625 724.1694946289062 1030.256591796875 724.4194946289062 1032.1365966796875 724.8328247070312 C 1034.0166015625 725.2461547851562 1035.4732666015625 726.0828247070312 1036.506591796875 727.3428344726562 C 1037.5399169921875 728.6028442382812 1038.056640625 730.4528198242188 1038.056640625 732.892822265625 C 1038.056640625 736.65283203125 1036.776611328125 739.4194946289062 1034.216552734375 741.19287109375 C 1031.64990234375 742.9728393554688 1027.7232666015625 743.8628540039062 1022.4365844726562 743.8628540039062 M 1021.8765869140625 713.5428466796875 C 1025.0166015625 713.5428466796875 1026.5865478515625 712.0128173828125 1026.5865478515625 708.9528198242188 C 1026.5865478515625 705.9395141601562 1025.0166015625 704.432861328125 1021.8765869140625 704.432861328125 C 1018.68994140625 704.432861328125 1017.0965576171875 705.9395141601562 1017.0965576171875 708.9528198242188 C 1017.0965576171875 712.0128173828125 1018.68994140625 713.5428466796875 1021.8765869140625 713.5428466796875 M 1022.986572265625 737.0428466796875 C 1025.3465576171875 737.0428466796875 1027.05322265625 736.7728271484375 1028.1065673828125 736.2328491210938 C 1029.159912109375 735.6995239257812 1029.6866455078125 734.8728637695312 1029.6866455078125 733.7528686523438 C 1029.6866455078125 732.719482421875 1029.30322265625 732.0695190429688 1028.53662109375 731.8028564453125 C 1027.776611328125 731.5361938476562 1026.889892578125 731.3828735351562 1025.8765869140625 731.3428344726562 C 1024.86328125 731.2962036132812 1024.18994140625 731.2728271484375 1023.8565673828125 731.2728271484375 L 1018.276611328125 730.8428344726562 C 1017.1632690429688 731.9561767578125 1016.6065673828125 733.0728149414062 1016.6065673828125 734.19287109375 C 1016.6065673828125 735.1861572265625 1017.1332397460938 735.9094848632812 1018.1865844726562 736.3628540039062 C 1019.2399291992188 736.816162109375 1020.8399047851562 737.0428466796875 1022.986572265625 737.0428466796875 Z" transform="matrix(1, 0, 0, 1, -71.88378143310547, -61.31263732910156)" style="fill: rgb(255, 255, 255); white-space: pre; color: rgb(51, 51, 51);"/><path d="M 751.9055786132812 768.205810546875 L 751.9055786132812 793.6658325195312 L 748.3555297851562 793.6658325195312 L 748.3555297851562 772.0558471679688 L 747.7955322265625 772.0558471679688 L 741.175537109375 792.6658325195312 L 737.3955688476562 792.6658325195312 L 730.7355346679688 772.0558471679688 L 730.2255859375 772.0558471679688 L 730.2255859375 793.6658325195312 L 726.6655883789062 793.6658325195312 L 726.6655883789062 768.205810546875 L 732.8855590820312 768.205810546875 L 739.2855834960938 788.9658203125 L 745.6555786132812 768.205810546875 L 751.9055786132812 768.205810546875 ZM 761.6557006835938 794.0758056640625 C 759.9090576171875 794.0758056640625 758.5790405273438 793.58251953125 757.6657104492188 792.5958251953125 C 756.7523803710938 791.6091918945312 756.2957153320312 790.1891479492188 756.2957153320312 788.3358154296875 C 756.2957153320312 786.5091552734375 756.7623901367188 785.1724853515625 757.6957397460938 784.3258056640625 C 758.6357421875 783.4724731445312 760.1290283203125 782.9491577148438 762.1757202148438 782.755859375 L 767.4357299804688 782.2658081054688 L 767.4357299804688 780.8258056640625 C 767.4357299804688 779.7391357421875 767.1990356445312 778.955810546875 766.7257080078125 778.475830078125 C 766.259033203125 777.995849609375 765.5690307617188 777.755859375 764.6557006835938 777.755859375 C 762.5823974609375 777.755859375 760.1890258789062 777.9025268554688 757.4757080078125 778.1958618164062 L 757.36572265625 775.6858520507812 C 759.9790649414062 775.0658569335938 762.4090576171875 774.755859375 764.6557006835938 774.755859375 C 766.8290405273438 774.755859375 768.4090576171875 775.2424926757812 769.3956909179688 776.2158203125 C 770.3823852539062 777.1958618164062 770.875732421875 778.7324829101562 770.875732421875 780.8258056640625 L 770.875732421875 789.745849609375 C 770.92236328125 790.2391357421875 771.0890502929688 790.6158447265625 771.375732421875 790.8758544921875 C 771.6557006835938 791.1358032226562 772.105712890625 791.3125 772.7257080078125 791.4058227539062 L 772.61572265625 794.0758056640625 C 771.549072265625 794.0758056640625 770.6456909179688 793.9591674804688 769.9057006835938 793.725830078125 C 769.17236328125 793.48583984375 768.51904296875 793.119140625 767.9457397460938 792.6258544921875 C 765.8524169921875 793.592529296875 763.7557373046875 794.0758056640625 761.6557006835938 794.0758056640625 M 762.2857055664062 791.1858520507812 C 763.7923583984375 791.1858520507812 765.2490234375 790.9525146484375 766.6557006835938 790.48583984375 L 767.4357299804688 790.225830078125 L 767.4357299804688 784.7858276367188 L 762.625732421875 785.225830078125 C 761.6590576171875 785.3258056640625 760.9490356445312 785.6158447265625 760.4957275390625 786.0958251953125 C 760.0357055664062 786.58251953125 759.8057250976562 787.29248046875 759.8057250976562 788.225830078125 C 759.8057250976562 790.1991577148438 760.6323852539062 791.1858520507812 762.2857055664062 791.1858520507812 ZM 782.11669921875 794.0758056640625 C 780.683349609375 794.0758056640625 778.820068359375 793.879150390625 776.5267333984375 793.48583984375 L 775.4166870117188 793.2958374023438 L 775.5667114257812 790.3358154296875 C 778.5466918945312 790.755859375 780.6800537109375 790.9658203125 781.9667358398438 790.9658203125 C 783.2733764648438 790.9658203125 784.2600708007812 790.7691650390625 784.9266967773438 790.3758544921875 C 785.5933837890625 789.9824829101562 785.9266967773438 789.3391723632812 785.9266967773438 788.4458618164062 C 785.9266967773438 787.8058471679688 785.7600708007812 787.3191528320312 785.4266967773438 786.98583984375 C 785.0933837890625 786.6525268554688 784.6666870117188 786.4058227539062 784.146728515625 786.245849609375 C 783.626708984375 786.0858154296875 782.88671875 785.9324951171875 781.9266967773438 785.7858276367188 L 781.0366821289062 785.6358032226562 C 779.6300659179688 785.4158325195312 778.5167236328125 785.1325073242188 777.6967163085938 784.7858276367188 C 776.8700561523438 784.4391479492188 776.2333984375 783.9324951171875 775.7866821289062 783.2658081054688 C 775.3400268554688 782.5991821289062 775.11669921875 781.6891479492188 775.11669921875 780.5358276367188 C 775.11669921875 776.7091674804688 777.4600219726562 774.7958374023438 782.146728515625 774.7958374023438 C 783.626708984375 774.7958374023438 785.4766845703125 774.9824829101562 787.6967163085938 775.3558349609375 L 788.7767333984375 775.5758056640625 L 788.6967163085938 778.455810546875 C 785.9367065429688 778.0625 783.8167114257812 777.8658447265625 782.3367309570312 777.8658447265625 C 779.8233642578125 777.8658447265625 778.5667114257812 778.6325073242188 778.5667114257812 780.1658325195312 C 778.5667114257812 780.7324829101562 778.7266845703125 781.169189453125 779.0466918945312 781.475830078125 C 779.36669921875 781.782470703125 779.780029296875 782.0091552734375 780.2866821289062 782.1558227539062 C 780.7866821289062 782.302490234375 781.5067138671875 782.4625244140625 782.4467163085938 782.6358032226562 C 782.6200561523438 782.6624755859375 782.9667358398438 782.725830078125 783.4866943359375 782.8258056640625 C 784.9400634765625 783.0991821289062 786.0800170898438 783.4124755859375 786.90673828125 783.7658081054688 C 787.7333984375 784.1258544921875 788.3500366210938 784.6525268554688 788.7567138671875 785.3458251953125 C 789.1633911132812 786.032470703125 789.36669921875 786.9691772460938 789.36669921875 788.1558227539062 C 789.36669921875 790.2025146484375 788.7733764648438 791.6991577148438 787.5867309570312 792.6458129882812 C 786.40673828125 793.5991821289062 784.5833740234375 794.0758056640625 782.11669921875 794.0758056640625 ZM 799.38916015625 794.0758056640625 C 797.955810546875 794.0758056640625 796.092529296875 793.879150390625 793.7991943359375 793.48583984375 L 792.6891479492188 793.2958374023438 L 792.8391723632812 790.3358154296875 C 795.8191528320312 790.755859375 797.9525146484375 790.9658203125 799.2391967773438 790.9658203125 C 800.5458374023438 790.9658203125 801.5325317382812 790.7691650390625 802.1991577148438 790.3758544921875 C 802.8658447265625 789.9824829101562 803.1991577148438 789.3391723632812 803.1991577148438 788.4458618164062 C 803.1991577148438 787.8058471679688 803.0325317382812 787.3191528320312 802.6991577148438 786.98583984375 C 802.3658447265625 786.6525268554688 801.9391479492188 786.4058227539062 801.419189453125 786.245849609375 C 800.899169921875 786.0858154296875 800.1591796875 785.9324951171875 799.1991577148438 785.7858276367188 L 798.3091430664062 785.6358032226562 C 796.9025268554688 785.4158325195312 795.7891845703125 785.1325073242188 794.9691772460938 784.7858276367188 C 794.1425170898438 784.4391479492188 793.505859375 783.9324951171875 793.0591430664062 783.2658081054688 C 792.6124877929688 782.5991821289062 792.38916015625 781.6891479492188 792.38916015625 780.5358276367188 C 792.38916015625 776.7091674804688 794.7324829101562 774.7958374023438 799.419189453125 774.7958374023438 C 800.899169921875 774.7958374023438 802.7491455078125 774.9824829101562 804.9691772460938 775.3558349609375 L 806.0491943359375 775.5758056640625 L 805.9691772460938 778.455810546875 C 803.2091674804688 778.0625 801.0891723632812 777.8658447265625 799.6091918945312 777.8658447265625 C 797.0958251953125 777.8658447265625 795.8391723632812 778.6325073242188 795.8391723632812 780.1658325195312 C 795.8391723632812 780.7324829101562 795.9991455078125 781.169189453125 796.3191528320312 781.475830078125 C 796.63916015625 781.782470703125 797.052490234375 782.0091552734375 797.5591430664062 782.1558227539062 C 798.0591430664062 782.302490234375 798.7791748046875 782.4625244140625 799.7191772460938 782.6358032226562 C 799.8925170898438 782.6624755859375 800.2391967773438 782.725830078125 800.7591552734375 782.8258056640625 C 802.2125244140625 783.0991821289062 803.3524780273438 783.4124755859375 804.17919921875 783.7658081054688 C 805.005859375 784.1258544921875 805.6224975585938 784.6525268554688 806.0291748046875 785.3458251953125 C 806.4358520507812 786.032470703125 806.63916015625 786.9691772460938 806.63916015625 788.1558227539062 C 806.63916015625 790.2025146484375 806.0458374023438 791.6991577148438 804.8591918945312 792.6458129882812 C 803.67919921875 793.5991821289062 801.8558349609375 794.0758056640625 799.38916015625 794.0758056640625 ZM 836.3817138671875 768.205810546875 L 836.3817138671875 793.6658325195312 L 832.8316650390625 793.6658325195312 L 832.8316650390625 772.0558471679688 L 832.2716674804688 772.0558471679688 L 825.6516723632812 792.6658325195312 L 821.8717041015625 792.6658325195312 L 815.211669921875 772.0558471679688 L 814.7017211914062 772.0558471679688 L 814.7017211914062 793.6658325195312 L 811.1417236328125 793.6658325195312 L 811.1417236328125 768.205810546875 L 817.3616943359375 768.205810546875 L 823.76171875 788.9658203125 L 830.1317138671875 768.205810546875 L 836.3817138671875 768.205810546875 ZM 849.0169067382812 794.0758056640625 C 846.1369018554688 794.0758056640625 844.06689453125 793.302490234375 842.8069458007812 791.755859375 C 841.5469360351562 790.2158203125 840.9169311523438 787.79248046875 840.9169311523438 784.48583984375 C 840.9169311523438 781.1124877929688 841.5602416992188 778.6458129882812 842.846923828125 777.0858154296875 C 844.1268920898438 775.532470703125 846.18359375 774.755859375 849.0169067382812 774.755859375 C 851.8836059570312 774.755859375 853.9502563476562 775.5391845703125 855.2169189453125 777.1058349609375 C 856.490234375 778.6724853515625 857.1268920898438 781.1325073242188 857.1268920898438 784.48583984375 C 857.1268920898438 787.7725219726562 856.4969482421875 790.1925048828125 855.2369384765625 791.745849609375 C 853.9769287109375 793.2991943359375 851.903564453125 794.0758056640625 849.0169067382812 794.0758056640625 M 849.0169067382812 791.0758056640625 C 850.20361328125 791.0758056640625 851.1235961914062 790.8658447265625 851.7769165039062 790.4458618164062 C 852.4302368164062 790.0258178710938 852.8935546875 789.3491821289062 853.1669311523438 788.4158325195312 C 853.4402465820312 787.475830078125 853.576904296875 786.1658325195312 853.576904296875 784.48583984375 C 853.576904296875 782.7391357421875 853.43359375 781.3825073242188 853.1469116210938 780.4158325195312 C 852.8602294921875 779.455810546875 852.3902587890625 778.7725219726562 851.7369384765625 778.3658447265625 C 851.0835571289062 777.9591674804688 850.1769409179688 777.755859375 849.0169067382812 777.755859375 C 847.8635864257812 777.755859375 846.95361328125 777.9591674804688 846.2869262695312 778.3658447265625 C 845.6202392578125 778.7725219726562 845.1436157226562 779.4625244140625 844.85693359375 780.4358520507812 C 844.576904296875 781.4091796875 844.4368896484375 782.7591552734375 844.4368896484375 784.48583984375 C 844.4368896484375 786.13916015625 844.5702514648438 787.4425048828125 844.8369140625 788.3958129882812 C 845.1102294921875 789.342529296875 845.5802612304688 790.0258178710938 846.2469482421875 790.4458618164062 C 846.91357421875 790.8658447265625 847.8369140625 791.0758056640625 849.0169067382812 791.0758056640625 ZM 859.296630859375 775.1658325195312 L 862.9266357421875 775.1658325195312 L 866.8466186523438 790.705810546875 L 868.1066284179688 790.705810546875 L 872.1766357421875 775.1658325195312 L 875.6866455078125 775.1658325195312 L 870.7366333007812 793.6658325195312 L 864.2566528320312 793.6658325195312 L 859.296630859375 775.1658325195312 ZM 879.0118408203125 793.6658325195312 M 879.0118408203125 775.1658325195312 L 882.4518432617188 775.1658325195312 L 882.4518432617188 793.6658325195312 L 879.0118408203125 793.6658325195312 L 879.0118408203125 775.1658325195312 M 879.0118408203125 767.8058471679688 L 882.421875 767.8058471679688 L 882.421875 771.5358276367188 L 879.0118408203125 771.5358276367188 L 879.0118408203125 767.8058471679688 ZM 887.5186157226562 775.1658325195312 L 890.9286499023438 775.1658325195312 L 890.9286499023438 776.3858032226562 C 891.9886474609375 775.79248046875 892.9486083984375 775.3724975585938 893.8086547851562 775.1258544921875 C 894.67529296875 774.879150390625 895.588623046875 774.755859375 896.5486450195312 774.755859375 C 898.1019897460938 774.755859375 899.3219604492188 775.0658569335938 900.2086181640625 775.6858520507812 C 901.1019897460938 776.2991943359375 901.73193359375 777.255859375 902.0986328125 778.5558471679688 C 902.4719848632812 779.8491821289062 902.6586303710938 781.6058349609375 902.6586303710938 783.8258056640625 L 902.6586303710938 793.6658325195312 L 899.2086181640625 793.6658325195312 L 899.2086181640625 783.8958129882812 C 899.2086181640625 782.342529296875 899.11865234375 781.13916015625 898.9385986328125 780.2858276367188 C 898.751953125 779.4391479492188 898.4052734375 778.822509765625 897.8986206054688 778.4358520507812 C 897.3919677734375 778.0558471679688 896.6586303710938 777.8658447265625 895.6986083984375 777.8658447265625 C 894.3919677734375 777.8658447265625 893.02197265625 778.149169921875 891.588623046875 778.7158203125 L 890.9586181640625 779.0158081054688 L 890.9586181640625 793.6658325195312 L 887.5186157226562 793.6658325195312 L 887.5186157226562 775.1658325195312 ZM 914.5250854492188 802.2858276367188 C 911.811767578125 802.2858276367188 909.8317260742188 801.8858032226562 908.5850830078125 801.0858154296875 C 907.33837890625 800.2858276367188 906.715087890625 798.9458618164062 906.715087890625 797.0658569335938 C 906.715087890625 796.005859375 906.9183959960938 795.1624755859375 907.3250732421875 794.5358276367188 C 907.7317504882812 793.9091796875 908.4783935546875 793.1758422851562 909.5650634765625 792.3358154296875 C 909.1717529296875 792.0625 908.8817138671875 791.705810546875 908.695068359375 791.2658081054688 C 908.5084228515625 790.8191528320312 908.4151000976562 790.3491821289062 908.4151000976562 789.8558349609375 C 908.4151000976562 789.5091552734375 908.4950561523438 789.1458129882812 908.6550903320312 788.7658081054688 C 908.8150634765625 788.379150390625 909.1817626953125 787.705810546875 909.7550659179688 786.745849609375 C 907.8750610351562 785.7591552734375 906.93505859375 783.9224853515625 906.93505859375 781.23583984375 C 906.93505859375 776.9425048828125 909.3417358398438 774.7958374023438 914.1550903320312 774.7958374023438 C 915.2883911132812 774.7958374023438 916.5451049804688 774.955810546875 917.925048828125 775.2758178710938 L 923.5550537109375 775.1258544921875 L 923.5550537109375 777.975830078125 L 920.2550659179688 777.8658447265625 C 920.6550903320312 778.3125 920.9384155273438 778.7991943359375 921.1051025390625 779.3258056640625 C 921.2783813476562 779.8591918945312 921.3650512695312 780.5458374023438 921.3650512695312 781.3858032226562 C 921.3650512695312 783.5791625976562 920.78173828125 785.149169921875 919.6150512695312 786.0958251953125 C 918.4417724609375 787.0491943359375 916.6083984375 787.5258178710938 914.1150512695312 787.5258178710938 C 913.3750610351562 787.5258178710938 912.771728515625 787.475830078125 912.3050537109375 787.3758544921875 C 911.9117431640625 788.3158569335938 911.715087890625 788.995849609375 911.715087890625 789.4158325195312 C 911.715087890625 790.0025024414062 911.955078125 790.3825073242188 912.43505859375 790.5558471679688 C 912.9151000976562 790.7291870117188 913.6617431640625 790.8158569335938 914.675048828125 790.8158569335938 L 915.965087890625 790.8158569335938 C 917.6917724609375 790.842529296875 919.0750732421875 790.9791870117188 920.1150512695312 791.225830078125 C 921.1484375 791.4724731445312 921.9484252929688 791.9724731445312 922.5150756835938 792.725830078125 C 923.0817260742188 793.4724731445312 923.3650512695312 794.5625 923.3650512695312 795.995849609375 C 923.3650512695312 798.169189453125 922.6683959960938 799.7591552734375 921.2750854492188 800.7658081054688 C 919.8817138671875 801.7791748046875 917.6317138671875 802.2858276367188 914.5250854492188 802.2858276367188 M 914.195068359375 784.8258056640625 C 915.521728515625 784.8258056640625 916.47509765625 784.54248046875 917.0550537109375 783.975830078125 C 917.6350708007812 783.4091796875 917.925048828125 782.4691772460938 917.925048828125 781.1558227539062 C 917.925048828125 779.8758544921875 917.62841796875 778.9525146484375 917.0350952148438 778.3858032226562 C 916.4484252929688 777.8191528320312 915.5017700195312 777.5358276367188 914.195068359375 777.5358276367188 C 912.8617553710938 777.5358276367188 911.8917236328125 777.8258056640625 911.2850952148438 778.4058227539062 C 910.6784057617188 778.98583984375 910.3750610351562 779.9158325195312 910.3750610351562 781.1958618164062 C 910.3750610351562 782.4824829101562 910.6784057617188 783.4091796875 911.2850952148438 783.975830078125 C 911.8917236328125 784.54248046875 912.8617553710938 784.8258056640625 914.195068359375 784.8258056640625 M 914.8150634765625 799.4358520507812 C 916.6683959960938 799.4358520507812 917.9717407226562 799.1958618164062 918.72509765625 798.7158203125 C 919.4783935546875 798.23583984375 919.8551025390625 797.4158325195312 919.8551025390625 796.255859375 C 919.8551025390625 795.5625 919.7117309570312 795.0491943359375 919.425048828125 794.7158203125 C 919.1450805664062 794.3825073242188 918.7183837890625 794.1624755859375 918.1450805664062 794.0558471679688 C 917.5784301757812 793.9425048828125 916.7417602539062 793.8724975585938 915.6350708007812 793.8458251953125 L 911.8551025390625 793.6258544921875 C 911.195068359375 794.1458129882812 910.7417602539062 794.6158447265625 910.4950561523438 795.0358276367188 C 910.2484130859375 795.455810546875 910.1250610351562 795.9625244140625 910.1250610351562 796.5558471679688 C 910.1250610351562 797.6158447265625 910.4817504882812 798.3591918945312 911.195068359375 798.7858276367188 C 911.9083862304688 799.2191772460938 913.1150512695312 799.4358520507812 914.8150634765625 799.4358520507812 Z" transform="matrix(1, 0, 0, 1, 60.255523681640625, -35.941890716552734)" style="fill: rgb(255, 255, 255); white-space: pre; color: rgb(255, 255, 255);"/></svg>