<?xml version="1.0" encoding="utf-8"?>
<svg id="master-artboard" viewBox="0 0 1364.1895751953125 399.5480651855469" version="1.1" xmlns="http://www.w3.org/2000/svg" x="0px" y="0px" width="1364.1895751953125px" height="399.5480651855469px" enable-background="new 0 0 1400 1400"><defs><style id="ee-google-fonts">@import url(https://fonts.googleapis.com/css?family=Cairo:200,300,600,700,900,400);</style><linearGradient id="gradient-0" gradientUnits="userSpaceOnUse" x1="213.515625" y1="-149" x2="213.515625" y2="105.390625">
                <stop offset="0" style="stop-color: #404fd6"/>
                <stop offset="1" style="stop-color: #1f2a91"/>
              </linearGradient></defs><rect id="ee-background" x="0" y="0" width="1364.1895751953125" height="399.5480651855469" style="fill: white; fill-opacity: 0; pointer-events: none;"/>
<path d="M 0 0 H 1400 V 1400 H 0 V 0 Z" fill="#5AD1D6" transform="matrix(0.9447649717330933, 0, 0, 0.9447649717330933, 49.23929214477539, -487.3000011444092)" style="fill-opacity: 0;"/>
<g transform="matrix(1, 0, 0, 1, -75.69422912597656, -480.1203445196152)">
		
		<g>
			<g>
				<g>
					<path d="M 256.3999938964844 769.4000244140625 L 198.1999969482422 760 L 198.1999969482422 706.7000122070312 L 256.3999938964844 710.4000244140625 Z" fill="#F0B630"/>
					<path d="M 256.3999938964844 769.4000244140625 L 314.5 760 L 314.5 706.7000122070312 L 256.3999938964844 710.4000244140625 Z" fill="#FBCC34"/>
					<path d="M 198.1999969482422 706.7000122070312 L 256.3999938964844 710.4000244140625 L 314.5 706.7000122070312 L 254.39999389648438 703.7999877929688 Z" fill="#561B1C"/>
				</g>
				<path d="M 146.10000610351562 748.5 L 125.19999694824219 769.0999755859375 L 156.10000610351562 765.2000122070312 Z" fill="#561B1C"/>
				<g>
					<path d="M 211.3000030517578 825.2000122070312 L 146.10000610351562 814.7000122070312 L 146.10000610351562 748.5 L 211.3000030517578 759 Z" fill="#F0B630"/>
					<path d="M 211.3000030517578 825.2000122070312 L 276.6000061035156 814.7000122070312 L 276.6000061035156 748.5 L 211.3000030517578 759 Z" fill="#FBCC34"/>
					<path d="M 146.10000610351562 748.5 L 211.3000030517578 759 L 276.6000061035156 748.5 L 204.39999389648438 740.4000244140625 Z" fill="#561B1C"/>
				</g>
				<path d="M 211.3000030517578 759 L 276.6000061035156 748.5 L 285.8999938964844 761.5999755859375 L 266.70001220703125 779.7000122070312 L 228.6999969482422 790.4000244140625 Z" fill="#F0B630"/>
				<path d="M 198.199997 706.700012 L 197.699997 706 L 185.300003 687.299988 L 243.600006 684.799988 L 254.399994 703.799988" fill="#FBCC34"/>
				<path d="M 256.3999938964844 710.7999877929688 L 261.29998779296875 690.2000122070312 L 304 690.9000244140625 L 304 707.5999755859375 Z" fill="#F0B630"/>
			<path d="M 682.5114135742188 676.1937866210938 L 682.5114135742188 675.318603515625" style="fill: rgb(240, 182, 48); fill-opacity: 1; stroke: rgb(0, 0, 0); stroke-opacity: 1; stroke-width: 0; paint-order: fill;"/></g>
			<g>
				<g>
					<path fill="#561B1C" d="M711.6,682.5c-3-0.1-5.9,0.5-8.6,1.5l-2.8-17.9l-26.3,3.5c0,0-33.3-15.8-34.5,38&#10;&#9;&#9;&#9;&#9;&#9;&#9;c-1.2,53.8,25.7,52.6,25.7,52.6l41.3,4.1c1.1,0.2,2.2,0.3,3.3,0.3c16.4,0.4,30.2-17.7,30.7-40.4c0-0.1,0-0.2,0-0.2&#10;&#9;&#9;&#9;&#9;&#9;&#9;C740.8,701.5,728,682.9,711.6,682.5z"/>
					<path fill="#561B1C" d="M439.5,685.1c-3.6-0.1-7.1,0.6-10.5,1.9l-3.4-21.8l-32,4.3c0,0-40.5-19.2-41.9,46.2&#10;&#9;&#9;&#9;&#9;&#9;&#9;c-1.4,65.4,31.3,64,31.3,64l50.3,5c1.3,0.2,2.6,0.4,4,0.4c20,0.4,36.7-21.6,37.3-49.2c0-0.1,0-0.2,0-0.3&#10;&#9;&#9;&#9;&#9;&#9;&#9;C475.1,708.1,459.4,685.6,439.5,685.1z"/>
					<path fill="#561B1C" d="M419.3,777.5l68.2,10l393.8-49.8c0,0,19.4-7.5,19.4-19.9v-12.3l-19.1,1.3L575,728.5l-72.1,8.2&#10;&#9;&#9;&#9;&#9;&#9;&#9;l-121.2-2.5L419.3,777.5z"/>
					<path fill="#561B1C" d="M838.5,764.7l-43.3-4.3c0,0-26.1,1.1-25-51.1c1.1-52.2,33.5-36.9,33.5-36.9l25.5-3.4l9.7,62.9&#10;&#9;&#9;&#9;&#9;&#9;&#9;L838.5,764.7z"/>
					<path fill="#561B1C" d="M595.1,803.5l-54.3-5.4c0,0-32.7,1.4-31.3-64c1.4-65.4,41.9-46.2,41.9-46.2l32-4.3l12.1,78.7&#10;&#9;&#9;&#9;&#9;&#9;&#9;L595.1,803.5z"/>
					<path fill="#561B1C" d="M282.8,740.6v9.9l207.6,22.8L887,726.4c0,0,13.7-4.7,13.7-8.5v-12.3l-8.5-4.7V679l-17.1-10.4&#10;&#9;&#9;&#9;&#9;&#9;&#9;l-558.2,37.9L282.8,740.6z"/>
					<path d="M 794.5999755859375 570 L 834.4000244140625 594.0999755859375 L 857.2000122070312 643.9000244140625 L 885.5999755859375 663.7999877929688 L 885.5999755859375 713.5999755859375 L 797.5 724.0999755859375 Z" fill="#F0B630" style="fill: rgb(255, 255, 255);"/>
					<g>
						<path d="M 291.29998779296875 732.5999755859375 L 291.29998779296875 520.7000122070312 L 481.79998779296875 497.20001220703125 L 481.79998779296875 745.7000122070312 Z" fill="#561B1C"/>
						<path fill="#F0B630" d="M473.3,506.8v229.7l-173.4-11.9V528.2L473.3,506.8 M490.4,487.5l-207.6,25.6v227.5l207.6,14.2V487.5&#10;&#9;&#9;&#9;&#9;&#9;&#9;&#9;L490.4,487.5z" style="fill: rgb(255, 255, 255);"/>
					<path d="M 336.2449951171875 515.7869262695312 L 336.2449951171875 515.7869262695312" style="fill: rgb(64, 79, 214); fill-opacity: 1; stroke: rgb(0, 0, 0); stroke-opacity: 1; stroke-width: 0; paint-order: fill;"/></g>
					<path d="M 490.3999938964844 487.5 L 797.5 527.9000244140625 L 797.5 724.0999755859375 L 490.3999938964844 754.7999877929688 Z" fill="#FBCC34" style="stroke: rgb(255, 255, 255); paint-order: fill; stroke-opacity: 1; fill: rgb(255, 255, 255);"/>
					<path d="M 315.29998779296875 724.5999755859375 L 210.3000030517578 825.9000244140625 L 375.8999938964844 857.4000244140625 L 458.8999938964844 734.2999877929688 Z" fill="#561B1C"/>
					<path d="M 315.29998779296875 717.4000244140625 L 210.3000030517578 818.7000122070312 L 373.1000061035156 847.4000244140625 L 457.6000061035156 725.7000122070312 Z" fill="#FBCC34" style="fill: rgb(255, 255, 255);"/>
					<path d="M 210.3000030517578 818.7000122070312 L 210.3000030517578 825.9000244140625 L 375.8999938964844 857.4000244140625 L 374.5 847.4000244140625 Z" fill="#561B1C"/>
					<path d="M 461.8999938964844 598.4000244140625 L 309.79998779296875 608.4000244140625 L 309.79998779296875 531.5999755859375 L 461.8999938964844 514.5 Z" fill="#F0B630" style="fill: rgb(255, 255, 255);"/>
					<path fill="#561B1C" d="M470,529.6c0.2,1.8-1.2,3.4-2.9,3.5l-134.2,12.2c-1.8,0.2-3.4-1.1-3.5-2.9l0,0&#10;&#9;&#9;&#9;&#9;&#9;&#9;c-0.2-1.8,1.2-3.4,2.9-3.5l134.2-12.3C468.2,526.5,469.8,527.8,470,529.6L470,529.6z"/>
					<path fill="#561B1C" d="M464.1,541l-109.8,10c-1.8,0.2-3.1,1.7-2.9,3.5c0.2,1.8,1.7,3.1,3.5,2.9l109.2-10V541z"/>
					<path fill="#561B1C" d="M468.3,557.3l-109.8,10c-1.8,0.2-3.1,1.8-2.9,3.5c0.2,1.8,1.7,3.1,3.5,2.9l109.2-10V557.3z"/>
					<path fill="#FBCC34" d="M447.7,658.1"/>
					<path d="M 807.4000244140625 591.2999877929688 L 827.2999877929688 601.2999877929688 L 844.4000244140625 638.2000122070312 L 807.4000244140625 636.7999877929688 Z" fill="#561B1C"/>
					<path fill="#561B1C" stroke="#561B1C" stroke-width="2.8433" stroke-miterlimit="10" d="M597.7,693.7&#10;&#9;&#9;&#9;&#9;&#9;&#9;c-21.4,0-43.1,24.1-43.1,53.9l81.6-8C633.4,713.6,617.2,693.7,597.7,693.7z"/>
					<path fill="#561B1C" stroke="#561B1C" stroke-width="2.8433" stroke-miterlimit="10" d="M838.5,678c-17.6,0-32,19.7-32.2,44.1&#10;&#9;&#9;&#9;&#9;&#9;&#9;l64-6.6C867.8,694.3,854.5,678,838.5,678z"/>
					<path d="M 888.4000244140625 700.7999877929688 L 875.2000122070312 701.7000122070312 L 876.0999755859375 720.7000122070312 L 892.2000122070312 719.7000122070312 L 892.2000122070312 700.7999877929688 Z" fill="#561B1C"/>
					<path d="M 886.0999755859375 668.5 L 879 673.2999877929688 L 879 694.0999755859375 L 888.4000244140625 700.7999877929688 Z" fill="#561B1C"/>
					<path fill="#FBCC34" d="M888.4,679.9c0,3.7-1.1,6.6-2.4,6.6c-1.3,0-2.4-3-2.4-6.6c0-3.7,1.1-6.6,2.4-6.6&#10;&#9;&#9;&#9;&#9;&#9;&#9;C887.4,673.3,888.4,676.3,888.4,679.9z" style="fill: rgb(255, 255, 255);"/>
					<path fill="#561B1C" d="M844.4,641.8c0,4.3-3.5,7.8-7.8,7.8l0,0c-4.3,0-7.8-3.5-7.8-7.8v-14.2c0-4.3,3.5-7.8,7.8-7.8l0,0&#10;&#9;&#9;&#9;&#9;&#9;&#9;c4.3,0,7.8,3.5,7.8,7.8V641.8z"/>
					<path fill="#F9E4A7" d="M848.6,641.8c0,4.3-3.5,7.8-7.8,7.8l0,0c-4.3,0-7.8-3.5-7.8-7.8v-14.2c0-4.3,3.5-7.8,7.8-7.8l0,0&#10;&#9;&#9;&#9;&#9;&#9;&#9;c4.3,0,7.8,3.5,7.8,7.8V641.8z"/>
					<path fill="#F9E4A7" d="M506.5,505.5l273.9,32.2v152.6v14.2L654.3,715c0,0-18.2-55.5-83.4-35.1c0,0,52.1-32.7,91.9,16.6&#10;&#9;&#9;&#9;&#9;&#9;&#9;l104.3-5.2V557.7L515,527.8L506.5,505.5z"/>
					<path fill="#F9E4A7" d="M835.1,670.9c0,0,28.1-1.8,35.8,27h6.6C877.5,697.9,872.4,663.1,835.1,670.9z"/>
					<path d="M 768.9000244140625 639.2999877929688 L 515.5 636.7000122070312 L 507.3999938964844 648.5 L 769.5 649.2999877929688 Z" fill="#F9E4A7"/>
					<path fill="#561B1C" d="M672.3,746.3c0,0,0-22.7,11.4-25.6l73.9-7.1c0,0,12.8,6.4,12.8,18.5&#10;&#9;&#9;&#9;&#9;&#9;&#9;C770.4,739.2,672.3,746.3,672.3,746.3z"/>
					<path fill="none" stroke="#561B1C" stroke-width="8.5299" stroke-miterlimit="10" d="M466.2,673.8l22.7-1.4&#10;&#9;&#9;&#9;&#9;&#9;&#9;c0,0,19.9,4.3,19.9,8.5v79.6"/>
					<path d="M 467.600006 703.599976 L 489.399994 703.599976 L 507.399994 703.599976" fill="none" stroke="#561B1C" stroke-width="8.5299" stroke-miterlimit="10"/>
					<path d="M 457.700012 732.5 L 491.299988 732.5 L 508.399994 732" fill="none" stroke="#561B1C" stroke-width="8.5299" stroke-miterlimit="10"/>
					
						<path d="M 282.899994 681.799988 L 300.799988 680.299988" fill="none" stroke="#561B1C" stroke-width="7.1083" stroke-miterlimit="10"/>
					
						<path d="M 281.899994 701.700012 L 304.600006 701.700012" fill="none" stroke="#561B1C" stroke-width="7.1083" stroke-miterlimit="10"/>
					
						<path d="M 301.799988 721.099976 L 281.899994 721.099976" fill="none" stroke="#561B1C" stroke-width="7.1083" stroke-miterlimit="10"/>
					<path fill="#FBCC34" d="M243.6,799.6c-1.8-0.9,132.9,26,132.9,26l-12.3,16.9l-133.8-33.3L243.6,799.6z" style="fill: rgb(180, 180, 180);"/>
					<path d="M 315.29998779296875 717.4000244140625 L 373.1000061035156 847.4000244140625 L 210.3000030517578 818.7000122070312 Z" fill="#F0B630" style="fill: rgb(205, 205, 205);"/>
					
						<path d="M 252.899994 804.900024 L 349.799988 705.700012" fill="none" stroke="#561B1C" stroke-width="8.2216" stroke-linecap="round" stroke-linejoin="round" stroke-miterlimit="10"/>
					
						<path d="M 283.700012 812.299988 L 377.899994 710.700012" fill="none" stroke="#561B1C" stroke-width="8.2216" stroke-linecap="round" stroke-linejoin="round" stroke-miterlimit="10"/>
					
						<path d="M 328.299988 819.099976 L 417.299988 712.900024" fill="none" stroke="#561B1C" stroke-width="8.2216" stroke-linecap="round" stroke-linejoin="round" stroke-miterlimit="10"/>
					
						<path d="M 358.600006 825.299988 L 443.700012 715.900024" fill="none" stroke="#561B1C" stroke-width="8.2216" stroke-linecap="round" stroke-linejoin="round" stroke-miterlimit="10"/>
					<path d="M 313.20001220703125 715 L 457.70001220703125 715 L 311.20001220703125 618.2999877929688 Z" fill="#F0B630" style="fill: rgb(191, 191, 191);"/>
					<path d="M 385.200012 663.799988 H 463.400009 V 719.199989 H 385.200012 V 663.799988 Z" fill="#561B1C"/>
					<path fill="#F9E4A7" d="M797.5,586.3l29.9,14.9l9.2,18.5c0,0,5.7,0.7,5.7,2.8c0,2.1-9.9-24.2-9.9-24.2l-34.8-21.3V586.3z"/>
					<path d="M 845.0999755859375 645.2999877929688 L 877.7999877929688 670.2000122070312 L 882 667.4000244140625 L 848.5999755859375 641.7999877929688 Z" fill="#F9E4A7"/>
					<path d="M 772.5999755859375 539.4000244140625 L 793.2000122070312 530.2000122070312 L 776.7999877929688 545.7999877929688 Z" fill="#F9E4A7"/>
					<g>
						<path fill="#FBCC34" d="M597.3,703.6c-19.9-0.4-36.6,21.4-37.3,48.9c0,0.1,0,0.2,0,0.3c-0.6,27.6,15.1,50.3,35.1,50.8&#10;&#9;&#9;&#9;&#9;&#9;&#9;&#9;c20,0.4,36.7-21.6,37.3-49.2c0-0.1,0-0.2,0-0.3C632.9,726.6,617.2,704.1,597.3,703.6z" style="fill: rgb(255, 255, 255);"/>
						<path fill="#561B1C" d="M573.5,753.4c0.5-17.2,10.9-31,23.4-30.7c12.5,0.3,22.3,14.4,22,31.7c0,0.1,0,0.1,0,0.2&#10;&#9;&#9;&#9;&#9;&#9;&#9;&#9;c-0.4,17.3-10.9,31.1-23.4,30.9c-12.5-0.3-22.4-14.5-22-31.9C573.5,753.5,573.5,753.4,573.5,753.4z"/>
						<path fill="#F9E4A7" d="M611.1,754.4c0-0.1,0-0.1,0-0.2c0.3-15.4-7.5-28.3-18.1-31.1c1.3-0.3,2.6-0.4,3.9-0.4&#10;&#9;&#9;&#9;&#9;&#9;&#9;&#9;c12.5,0.3,22.3,14.4,22,31.7c0,0.1,0,0.1,0,0.2c-0.4,17.3-10.9,31.1-23.4,30.9c-1.3,0-2.6-0.2-3.9-0.6&#10;&#9;&#9;&#9;&#9;&#9;&#9;&#9;C602.3,782.5,610.8,769.9,611.1,754.4z"/>
						<path fill="#F9E4A7" d="M588.6,752.4c-0.1,5.5,3,10,7,10.1c4,0.1,7.3-4.3,7.4-9.8c0.1-5.5-3-10-7-10.1&#10;&#9;&#9;&#9;&#9;&#9;&#9;&#9;C592.1,742.5,588.8,746.9,588.6,752.4z"/>
					</g>
					<g>
						<path fill="#FBCC34" d="M840.3,684.9c-15.9-0.3-29.2,17.1-29.8,39c0,0.1,0,0.2,0,0.2c-0.5,22,12.1,40.2,28,40.5&#10;&#9;&#9;&#9;&#9;&#9;&#9;&#9;c16,0.3,29.3-17.2,29.8-39.3c0-0.1,0-0.2,0-0.2C868.7,703.3,856.2,685.3,840.3,684.9z" style="fill: rgb(255, 255, 255);"/>
						<path fill="#561B1C" d="M821.3,724.6c0.4-13.8,8.7-24.7,18.7-24.5s17.8,11.5,17.6,25.3c0,0.1,0,0.1,0,0.2&#10;&#9;&#9;&#9;&#9;&#9;&#9;&#9;c-0.3,13.8-8.7,24.9-18.7,24.6c-10-0.2-17.9-11.6-17.6-25.4C821.2,724.7,821.3,724.7,821.3,724.6z"/>
						<path fill="#F9E4A7" d="M851.3,725.5c0,0,0-0.1,0-0.1c0.2-12.3-6-22.6-14.5-24.8c1-0.2,2.1-0.3,3.1-0.3&#10;&#9;&#9;&#9;&#9;&#9;&#9;&#9;c10,0.2,17.8,11.5,17.6,25.3c0,0.1,0,0.1,0,0.2c-0.3,13.8-8.7,24.9-18.7,24.6c-1.1,0-2.1-0.2-3.1-0.4&#10;&#9;&#9;&#9;&#9;&#9;&#9;&#9;C844.3,747.9,851,737.8,851.3,725.5z"/>
						<path fill="#F9E4A7" d="M833.4,723.8c-0.1,4.4,2.4,8,5.6,8.1c3.2,0.1,5.8-3.4,5.9-7.8c0.1-4.4-2.4-8-5.6-8.1&#10;&#9;&#9;&#9;&#9;&#9;&#9;&#9;C836.1,715.9,833.5,719.4,833.4,723.8z"/>
					</g>
					<path d="M 516 541.2000122070312 L 499.8999938964844 500.79998779296875 L 499.8999938964844 646.7999877929688 L 515 623.0999755859375 L 759.5 629.0999755859375 L 759.5 564.7999877929688 L 519.7999877929688 542.0999755859375 Z" fill="#F0B630" style="fill: rgb(255, 255, 255);"/>
				<path d="M 674.6326293945312 677.1982421875 L 674.6326293945312 677.1982421875" style="fill: rgb(255, 255, 255); fill-opacity: 1; stroke: rgb(255, 255, 255); stroke-opacity: 1; stroke-width: 1; paint-order: stroke;"/><path d="M 860.8656616210938 611.5869750976562" style="fill: rgb(255, 255, 255); fill-opacity: 1; stroke: rgb(0, 0, 0); stroke-opacity: 1; stroke-width: 0; paint-order: fill;"/><path d="M 341.96868896484375 732.8115234375 L 341.96868896484375 732.8115234375" style="fill: rgb(255, 255, 255); fill-opacity: 1; stroke: rgb(0, 0, 0); stroke-opacity: 1; stroke-width: 0; paint-order: fill;"/><path d="M 301.6824035644531 776.1383056640625 L 301.6824035644531 776.1383056640625" style="fill: rgb(255, 255, 255); fill-opacity: 1; stroke: rgb(0, 0, 0); stroke-opacity: 1; stroke-width: 0; paint-order: fill;"/></g>
				<path d="M 296.1000061035156 525.4000244140625 L 285.70001220703125 516.9000244140625 L 285.70001220703125 671.4000244140625 L 295.6000061035156 670.4000244140625 Z" fill="#FBCC34" style="fill: rgb(255, 255, 255);"/>
				<path fill="#FBCC34" d="M793.9,652.4h50.5v10.7c0,0-43.4,1.4-46.9,57.6l-10-1.4l0.7-61.8L793.9,652.4z" style="fill: rgb(210, 210, 210);"/>
				<path fill="#FBCC34" d="M826.8,666.2c0,0,34.6-6.6,48.3,15.6v-8.1l-30.8-21.3l-49.3-1.9l-0.5,9.5l-2.4,19L826.8,666.2z" style="fill: rgb(255, 255, 255);"/>
				<path fill="#F9E4A7" d="M823.8,643.9c0,1.2-1,2.1-2.1,2.1H811c-1.2,0-2.1-1-2.1-2.1l0,0c0-1.2,1-2.1,2.1-2.1h10.7&#10;&#9;&#9;&#9;&#9;&#9;C822.8,641.8,823.8,642.7,823.8,643.9L823.8,643.9z"/>
				<path d="M 797.5 527.9000244140625 L 797.5 727.2999877929688 L 793.2000122070312 729.7000122070312 L 793.2000122070312 531.5999755859375 Z" fill="#561B1C"/>
			<path d="M 359.1678161621094 512.4159545898438" style="fill: rgb(255, 255, 255); fill-opacity: 1; stroke: rgb(0, 0, 0); stroke-opacity: 1; stroke-width: 0; paint-order: fill;"/><path d="M 804.4752807617188 683.9500732421875 L 804.4752807617188 683.9500732421875" style="fill: rgb(255, 255, 255); fill-opacity: 1; stroke: rgb(0, 0, 0); stroke-opacity: 1; stroke-width: 0; paint-order: fill;"/></g>
			<g>
				<path d="M 408 716.2000122070312 L 352.20001220703125 714.2999877929688 L 352.20001220703125 670.7000122070312 L 408 666.7000122070312 Z" fill="#E5A31F"/>
				<path d="M 408 716.2000122070312 L 463.79998779296875 714.2999877929688 L 463.79998779296875 670.5 L 408 666.7000122070312 Z" fill="#FBCC34"/>
				<path d="M 352.20001220703125 670.5 L 408 667.7000122070312 L 463.79998779296875 671.2000122070312 L 402 663.5999755859375 Z" fill="#561B1C"/>
			</g>
			<path d="M 408 667.7000122070312 L 423.1000061035156 685.9000244140625 L 463.6000061035156 685.9000244140625 L 463.6000061035156 670.5 Z" fill="#F0B630"/>
			<path d="M 352.20001220703125 670.5 L 337.70001220703125 687.2999877929688 L 352 686.2000122070312 Z" fill="#561B1C"/>
			<g>
				<g>
					<path fill="#561B1C" d="M536.4,614.3v-63.1l19.2,1.3l5.3,38.3l5.3-37.5l19.4,1.4v61.2l-11.5-0.4V571l-7.3,44.2l-11.3-0.4&#10;&#9;&#9;&#9;&#9;&#9;&#9;l-7.7-45.4v45.1L536.4,614.3z" style="fill-opacity: 1; fill: rgb(64, 79, 214);"/>
					<path fill="#561B1C" d="M594.6,612.2c-2.6-3.1-4-7.4-4-12.8v-29.1c0-5.3,1.3-9.1,4-11.6c2.6-2.5,6.5-3.5,11.6-3.2&#10;&#9;&#9;&#9;&#9;&#9;&#9;c5.1,0.4,9,1.9,11.6,4.8c2.6,2.8,4,6.8,4,11.9v28.5c0,5.4-1.3,9.5-4,12.3c-2.6,2.8-6.5,4.2-11.6,4&#10;&#9;&#9;&#9;&#9;&#9;&#9;C601.1,616.9,597.3,615.3,594.6,612.2z M608.5,604.6c0.4-0.9,0.6-2.2,0.6-3.9v-29.5c0-1.3-0.2-2.4-0.6-3.2&#10;&#9;&#9;&#9;&#9;&#9;&#9;c-0.4-0.8-1.1-1.3-2.2-1.4c-2.1-0.1-3.2,1.3-3.2,4.4v29.5c0,1.7,0.2,3.1,0.7,4c0.4,0.9,1.2,1.4,2.4,1.4&#10;&#9;&#9;&#9;&#9;&#9;&#9;C607.3,606,608.1,605.6,608.5,604.6z" style="fill-opacity: 1; fill: rgb(64, 79, 214);"/>
					<path fill="#561B1C" d="M632.7,617.3l-7.8-60l12,0.8l4.6,40.6l4.1-40l12,0.8l-7.8,58.3L632.7,617.3z" style="fill-opacity: 1; fill: rgb(64, 79, 214);"/>
					<path fill="#561B1C" d="M660.7,618.2v-58.4l12.2,0.9v57.9L660.7,618.2z" style="fill-opacity: 1; fill: rgb(64, 79, 214);"/>
					<path fill="#561B1C" d="M678,618.8v-57.7l13,0.9l5.8,27.7v-27.3l12.2,0.9v56.5l-12.3-0.4l-6.3-28.9v28.7L678,618.8z" style="fill-opacity: 1; fill: rgb(64, 79, 214);"/>
					<path fill="#561B1C" d="M717.4,616.3c-2.2-2.9-3.3-7.3-3.3-13.1v-24.3c0-5.2,1.3-9.1,3.9-11.5c2.6-2.5,6.5-3.5,11.6-3.2&#10;&#9;&#9;&#9;&#9;&#9;&#9;c4.2,0.3,7.4,1.3,9.7,2.9c2.3,1.6,3.9,3.8,4.8,6.7c0.9,2.8,1.3,6.4,1.3,10.8l-12.3-0.7v-5c0-1.3-0.2-2.4-0.6-3.1&#10;&#9;&#9;&#9;&#9;&#9;&#9;s-1.2-1.2-2.2-1.2c-2.4-0.2-3.6,1.2-3.6,3.9v27.1c0,1.7,0.2,3,0.7,3.9c0.5,0.9,1.3,1.4,2.6,1.4c1.2,0,2.1-0.4,2.6-1.2&#10;&#9;&#9;&#9;&#9;&#9;&#9;c0.5-0.8,0.7-2.1,0.7-3.8v-8l-3.4-0.2V588l15.4,0.8V621l-5.1-0.2l-2.1-4.7c-2.3,3.4-5.7,5-10.4,4.8&#10;&#9;&#9;&#9;&#9;&#9;&#9;C723,620.8,719.6,619.2,717.4,616.3z" style="fill-opacity: 1; fill: rgb(64, 79, 214);"/>
				<path d="M 643.233154296875 596.20654296875" style="fill: rgb(64, 79, 214); fill-opacity: 1; stroke: rgb(0, 0, 0); stroke-opacity: 1; stroke-width: 0; paint-order: fill;"/></g>
			</g>
		</g>
	<path d="M 373.8999938964844 857.4000244140625 L 905.2000122070312 857.4000244140625 L 904 739.2000122070312 L 375 810.2999877929688 Z" fill="#561B1C"/></g><path fill="#FBCC34" d="M846.6,642.8c0,4.3-3.5,7.8-7.8,7.8l0,0c-4.3,0-7.8-3.5-7.8-7.8v-14.2c0-4.3,3.5-7.8,7.8-7.8l0,0&#10;&#9;&#9;c4.3,0,7.8,3.5,7.8,7.8V642.8z" transform="matrix(1, 0, 0, 1, -74.33538818359375, -481.2016906738282)" style="fill: rgb(255, 255, 255);"/><path fill="#F9E4A7" d="M844.7,643c0,3.6-3,6.6-6.6,6.6l0,0c-3.6,0-6.6-3-6.6-6.6v-12c0-3.6,3-6.6,6.6-6.6l0,0c3.6,0,6.6,3,6.6,6.6&#10;&#9;&#9;V643z" transform="matrix(1, 0, 0, 1, -75.69422912597656, -480.1203445196152)"/>
<g transform="matrix(1, 0, 0, 1, -113.70975494384766, -454.3218002319336)">
		<path d="M 127.4800033569336 -47.37165832519531 L 127.4800033569336 67.4283447265625 L 111.47000122070312 67.4283447265625 L 111.47000122070312 -30.021652221679688 L 108.95999908447266 -30.021652221679688 L 79.08999633789062 62.91834259033203 L 62.06999969482422 62.91834259033203 L 32.040000915527344 -30.021652221679688 L 29.700000762939453 -30.021652221679688 L 29.700000762939453 67.4283447265625 L 13.680000305175781 67.4283447265625 L 13.680000305175781 -47.37165832519531 L 41.720001220703125 -47.37165832519531 L 70.58000183105469 46.23834228515625 L 99.27999877929688 -47.37165832519531 L 127.4800033569336 -47.37165832519531 ZM 214.24560546875 40.55834197998047 L 167.85560607910156 40.55834197998047 L 160.6756134033203 67.4283447265625 L 144.8256072998047 67.4283447265625 L 174.52560424804688 -47.37165832519531 L 207.56561279296875 -47.37165832519531 L 237.26560974121094 67.4283447265625 L 221.41561889648438 67.4283447265625 L 214.24560546875 40.55834197998047 M 171.19561767578125 26.378345489501953 L 210.90560913085938 26.378345489501953 L 195.38560485839844 -33.861656188964844 L 186.7056121826172 -33.861656188964844 L 171.19561767578125 26.378345489501953 ZM 285.31427001953125 69.09834289550781 C 277.6409606933594 69.09834289550781 267.297607421875 68.04167938232422 254.28428649902344 65.9283447265625 L 248.27427673339844 64.9283447265625 L 249.94427490234375 52.078346252441406 C 264.96429443359375 54.078346252441406 276.42095947265625 55.078346252441406 284.31427001953125 55.078346252441406 C 299.33428955078125 55.078346252441406 306.84429931640625 48.23834228515625 306.84429931640625 34.558345794677734 C 306.84429931640625 30.771678924560547 306.06427001953125 27.738346099853516 304.5042724609375 25.458343505859375 C 302.9509582519531 23.1783447265625 300.47760009765625 21.345012664794922 297.08428955078125 19.958343505859375 C 293.6909484863281 18.56501007080078 288.93426513671875 17.201679229736328 282.81427001953125 15.868343353271484 C 273.80096435546875 13.755012512207031 266.7942810058594 11.391677856445312 261.7942810058594 8.778343200683594 C 256.7876281738281 6.165012359619141 253.11428833007812 2.7983474731445312 250.77427673339844 -1.3216552734375 C 248.44094848632812 -5.434989929199219 247.27427673339844 -10.828323364257812 247.27427673339844 -17.50165557861328 C 247.27427673339844 -28.074989318847656 250.44427490234375 -36.031654357910156 256.7842712402344 -41.37165832519531 C 263.124267578125 -46.704986572265625 272.4676208496094 -49.37165832519531 284.81427001953125 -49.37165832519531 C 289.374267578125 -49.37165832519531 294.297607421875 -49.09498596191406 299.58428955078125 -48.541656494140625 C 304.8709411621094 -47.988319396972656 311.8509521484375 -46.988319396972656 320.5242919921875 -45.541656494140625 L 319.19427490234375 -32.52165222167969 C 303.95428466796875 -34.301658630371094 292.9409484863281 -35.19165802001953 286.154296875 -35.19165802001953 C 270.9142761230469 -35.19165802001953 263.2942810058594 -29.628318786621094 263.2942810058594 -18.50165557861328 C 263.2942810058594 -14.388320922851562 264.154296875 -11.164985656738281 265.874267578125 -8.831657409667969 C 267.6009521484375 -6.4916534423828125 270.3542785644531 -4.5716552734375 274.13427734375 -3.0716552734375 C 277.92095947265625 -1.5716552734375 283.65093994140625 0.0683441162109375 291.32427978515625 1.8483428955078125 C 299.3376159667969 3.855010986328125 305.567626953125 6.081676483154297 310.0142822265625 8.528343200683594 C 314.4609375 10.97500991821289 317.71429443359375 14.145011901855469 319.7742919921875 18.038345336914062 C 321.83428955078125 21.931678771972656 322.8642883300781 27.048343658447266 322.8642883300781 33.388343811035156 C 322.8642883300781 45.181678771972656 319.6642761230469 54.08168029785156 313.2642822265625 60.08834457397461 C 306.8709411621094 66.09500885009766 297.5542907714844 69.09834289550781 285.31427001953125 69.09834289550781 ZM 375.91412353515625 69.09834289550781 C 368.2408142089844 69.09834289550781 357.8974609375 68.04167938232422 344.8841247558594 65.9283447265625 L 338.8741455078125 64.9283447265625 L 340.54412841796875 52.078346252441406 C 355.56414794921875 54.078346252441406 367.02081298828125 55.078346252441406 374.91412353515625 55.078346252441406 C 389.93414306640625 55.078346252441406 397.44415283203125 48.23834228515625 397.44415283203125 34.558345794677734 C 397.44415283203125 30.771678924560547 396.66412353515625 27.738346099853516 395.1041259765625 25.458343505859375 C 393.5508117675781 23.1783447265625 391.07745361328125 21.345012664794922 387.68414306640625 19.958343505859375 C 384.2908020019531 18.56501007080078 379.53411865234375 17.201679229736328 373.41412353515625 15.868343353271484 C 364.40081787109375 13.755012512207031 357.3941345214844 11.391677856445312 352.3941345214844 8.778343200683594 C 347.3874816894531 6.165012359619141 343.7141418457031 2.7983474731445312 341.3741455078125 -1.3216552734375 C 339.0408020019531 -5.434989929199219 337.8741455078125 -10.828323364257812 337.8741455078125 -17.50165557861328 C 337.8741455078125 -28.074989318847656 341.04412841796875 -36.031654357910156 347.3841247558594 -41.37165832519531 C 353.72412109375 -46.704986572265625 363.0674743652344 -49.37165832519531 375.41412353515625 -49.37165832519531 C 379.97412109375 -49.37165832519531 384.8974609375 -49.09498596191406 390.18414306640625 -48.541656494140625 C 395.4707946777344 -47.988319396972656 402.4508056640625 -46.988319396972656 411.1241455078125 -45.541656494140625 L 409.79412841796875 -32.52165222167969 C 394.55413818359375 -34.301658630371094 383.5408020019531 -35.19165802001953 376.754150390625 -35.19165802001953 C 361.5141296386719 -35.19165802001953 353.8941345214844 -29.628318786621094 353.8941345214844 -18.50165557861328 C 353.8941345214844 -14.388320922851562 354.754150390625 -11.164985656738281 356.47412109375 -8.831657409667969 C 358.2008056640625 -6.4916534423828125 360.9541320800781 -4.5716552734375 364.734130859375 -3.0716552734375 C 368.52081298828125 -1.5716552734375 374.25079345703125 0.0683441162109375 381.92413330078125 1.8483428955078125 C 389.9374694824219 3.855010986328125 396.16748046875 6.081676483154297 400.6141357421875 8.528343200683594 C 405.060791015625 10.97500991821289 408.31414794921875 14.145011901855469 410.3741455078125 18.038345336914062 C 412.43414306640625 21.931678771972656 413.4641418457031 27.048343658447266 413.4641418457031 33.388343811035156 C 413.4641418457031 45.181678771972656 410.2641296386719 54.08168029785156 403.8641357421875 60.08834457397461 C 397.4707946777344 66.09500885009766 388.1541442871094 69.09834289550781 375.91412353515625 69.09834289550781 Z" transform="matrix(1.0061999559402466, 0, 0, 1, 935.5521850585938, 627.6697387695312)" style="white-space: pre; fill: rgb(255, 255, 255); color: rgb(86, 27, 28);"/>
		<path d="M 103.9000015258789 -66.3036117553711 L 103.9000015258789 27.266387939453125 L 90.8499984741211 27.266387939453125 L 90.8499984741211 -52.15361022949219 L 88.80999755859375 -52.15361022949219 L 64.45999908447266 23.59638786315918 L 50.59000015258789 23.59638786315918 L 26.110000610351562 -52.15361022949219 L 24.209999084472656 -52.15361022949219 L 24.209999084472656 27.266387939453125 L 11.149999618530273 27.266387939453125 L 11.149999618530273 -66.3036117553711 L 34 -66.3036117553711 L 57.529998779296875 9.996387481689453 L 80.91999816894531 -66.3036117553711 L 103.9000015258789 -66.3036117553711 ZM 150.40994262695312 28.766387939453125 C 139.8032684326172 28.766387939453125 132.18661499023438 25.933053970336914 127.55994415283203 20.266387939453125 C 122.93994140625 14.59972095489502 120.62994384765625 5.689722061157227 120.62994384765625 -6.463611602783203 C 120.62994384765625 -18.88361358642578 122.98661041259766 -27.950279235839844 127.69994354248047 -33.663612365722656 C 132.41326904296875 -39.37694549560547 139.9832763671875 -42.233612060546875 150.40994262695312 -42.233612060546875 C 160.92994689941406 -42.233612060546875 168.5232696533203 -39.353614807128906 173.18994140625 -33.59361267089844 C 177.8566131591797 -27.83361053466797 180.18994140625 -18.790279388427734 180.18994140625 -6.463611602783203 C 180.18994140625 5.59638786315918 177.87994384765625 14.483054161071777 173.25994873046875 20.196388244628906 C 168.63327026367188 25.90972137451172 161.0166015625 28.766387939453125 150.40994262695312 28.766387939453125 M 150.40994262695312 17.746387481689453 C 154.76327514648438 17.746387481689453 158.1399383544922 16.97638702392578 160.53994750976562 15.43638801574707 C 162.9466094970703 13.896388053894043 164.6466064453125 11.403054237365723 165.6399383544922 7.956388473510742 C 166.6399383544922 4.509721755981445 167.1399383544922 -0.29694557189941406 167.1399383544922 -6.463611602783203 C 167.1399383544922 -12.89694595336914 166.61660766601562 -17.88361358642578 165.5699462890625 -21.42361068725586 C 164.52993774414062 -24.95694351196289 162.8099365234375 -27.473613739013672 160.40994262695312 -28.973613739013672 C 158.00328063964844 -30.46694564819336 154.66993713378906 -31.213611602783203 150.40994262695312 -31.213611602783203 C 146.1499481201172 -31.213611602783203 142.79660034179688 -30.46694564819336 140.34994506835938 -28.973613739013672 C 137.8966064453125 -27.473613739013672 136.1499481201172 -24.933612823486328 135.1099395751953 -21.35361099243164 C 134.0699462890625 -17.77361297607422 133.54994201660156 -12.810279846191406 133.54994201660156 -6.463611602783203 C 133.54994201660156 -0.3902778625488281 134.04660034179688 4.393054962158203 135.03994750976562 7.886388778686523 C 136.03994750976562 11.379721641540527 137.76327514648438 13.896388053894043 140.20994567871094 15.43638801574707 C 142.6566162109375 16.97638702392578 146.05661010742188 17.746387481689453 150.40994262695312 17.746387481689453 ZM 188.21217346191406 -40.733612060546875 L 201.54217529296875 -40.733612060546875 L 215.96217346191406 16.38638687133789 L 220.58216857910156 16.38638687133789 L 235.54217529296875 -40.733612060546875 L 248.46217346191406 -40.733612060546875 L 230.24217224121094 27.266387939453125 L 206.44216918945312 27.266387939453125 L 188.21217346191406 -40.733612060546875 ZM 260.6946716308594 27.266387939453125 M 260.6946716308594 -40.733612060546875 L 273.34466552734375 -40.733612060546875 L 273.34466552734375 27.266387939453125 L 260.6946716308594 27.266387939453125 L 260.6946716308594 -40.733612060546875 M 260.6946716308594 -67.79360961914062 L 273.21466064453125 -67.79360961914062 L 273.21466064453125 -54.06361389160156 L 260.6946716308594 -54.06361389160156 L 260.6946716308594 -67.79360961914062 ZM 291.9730224609375 -40.733612060546875 L 304.4930114746094 -40.733612060546875 L 304.4930114746094 -36.24361038208008 C 308.3863525390625 -38.423614501953125 311.919677734375 -39.966941833496094 315.093017578125 -40.87361145019531 C 318.266357421875 -41.78028106689453 321.6230163574219 -42.233612060546875 325.16302490234375 -42.233612060546875 C 330.8763427734375 -42.233612060546875 335.3630065917969 -41.10028076171875 338.6230163574219 -38.83361053466797 C 341.8896789550781 -36.56694412231445 344.2030029296875 -33.053611755371094 345.5630187988281 -28.29361343383789 C 346.92303466796875 -23.533611297607422 347.60302734375 -17.073612213134766 347.60302734375 -8.913612365722656 L 347.60302734375 27.266387939453125 L 334.9530029296875 27.266387939453125 L 334.9530029296875 -8.633613586425781 C 334.9530029296875 -14.346946716308594 334.6130065917969 -18.766944885253906 333.9330139160156 -21.893611907958984 C 333.2530212402344 -25.026947021484375 331.9830322265625 -27.29361343383789 330.1230163574219 -28.69361114501953 C 328.26300048828125 -30.100276947021484 325.56634521484375 -30.803611755371094 322.03302001953125 -30.803611755371094 C 317.2263488769531 -30.803611755371094 312.1930236816406 -29.76028060913086 306.9330139160156 -27.67361068725586 L 304.6230163574219 -26.593612670898438 L 304.6230163574219 27.266387939453125 L 291.9730224609375 27.266387939453125 L 291.9730224609375 -40.733612060546875 ZM 391.25115966796875 58.956390380859375 C 381.2778015136719 58.956390380859375 374.00115966796875 57.483055114746094 369.421142578125 54.5363883972168 C 364.8478088378906 51.5897216796875 362.5611572265625 46.66972351074219 362.5611572265625 39.776390075683594 C 362.5611572265625 35.87638854980469 363.30780029296875 32.77305603027344 364.8011474609375 30.466388702392578 C 366.29449462890625 28.15305519104004 369.0378112792969 25.453054428100586 373.0311584472656 22.36638832092285 C 371.57781982421875 21.37305450439453 370.5111389160156 20.059720993041992 369.8311462402344 18.426387786865234 C 369.1511535644531 16.793054580688477 368.8111572265625 15.069721221923828 368.8111572265625 13.256387710571289 C 368.8111572265625 11.989721298217773 369.1078186035156 10.653055191040039 369.7011413574219 9.246387481689453 C 370.2878112792969 7.8397216796875 371.6244812011719 5.369720458984375 373.7111511230469 1.8363876342773438 C 366.81781005859375 -1.7902793884277344 363.37115478515625 -8.546943664550781 363.37115478515625 -18.433612823486328 C 363.37115478515625 -34.20694351196289 372.2111511230469 -42.09361267089844 389.8911437988281 -42.09361267089844 C 394.0644836425781 -42.09361267089844 398.68780517578125 -41.50360870361328 403.7611389160156 -40.3236083984375 L 424.441162109375 -40.87361145019531 L 424.441162109375 -30.393611907958984 L 412.3311462402344 -30.803611755371094 C 413.78448486328125 -29.17028045654297 414.82781982421875 -27.380279541015625 415.4611511230469 -25.433612823486328 C 416.094482421875 -23.48694610595703 416.4111328125 -20.970279693603516 416.4111328125 -17.88361358642578 C 416.4111328125 -9.816944122314453 414.2578125 -4.036945343017578 409.9511413574219 -0.5436115264892578 C 405.64447021484375 2.94305419921875 398.91448974609375 4.68638801574707 389.7611389160156 4.68638801574707 C 387.0411376953125 4.68638801574707 384.81781005859375 4.506387710571289 383.0911560058594 4.146387100219727 C 381.64447021484375 7.593053817749023 380.921142578125 10.086387634277344 380.921142578125 11.626387596130371 C 380.921142578125 13.799721717834473 381.8044738769531 15.206387519836426 383.5711364746094 15.84638786315918 C 385.33782958984375 16.479721069335938 388.0811462402344 16.79638671875 391.8011474609375 16.79638671875 L 396.5611572265625 16.79638671875 C 402.9078063964844 16.883054733276367 407.9844970703125 17.379722595214844 411.7911376953125 18.286388397216797 C 415.5978088378906 19.19305419921875 418.54449462890625 21.029720306396484 420.63116455078125 23.796388626098633 C 422.7178039550781 26.56305503845215 423.7611389160156 30.576387405395508 423.7611389160156 35.836387634277344 C 423.7611389160156 43.81638717651367 421.19781494140625 49.663055419921875 416.0711364746094 53.37638854980469 C 410.9511413574219 57.09638977050781 402.6778259277344 58.956390380859375 391.25115966796875 58.956390380859375 M 390.0311584472656 -5.233612060546875 C 394.9244689941406 -5.233612060546875 398.43780517578125 -6.276947021484375 400.5711364746094 -8.36361312866211 C 402.69781494140625 -10.450279235839844 403.7611389160156 -13.89694595336914 403.7611389160156 -18.70361328125 C 403.7611389160156 -23.416946411132812 402.6744689941406 -26.816944122314453 400.50115966796875 -28.903610229492188 C 398.32781982421875 -30.990280151367188 394.83782958984375 -32.03361129760742 390.0311584472656 -32.03361129760742 C 385.1311340332031 -32.03361129760742 381.5711364746094 -30.96694564819336 379.35113525390625 -28.83361053466797 C 377.1311340332031 -26.700279235839844 376.0211486816406 -23.276947021484375 376.0211486816406 -18.563613891601562 C 376.0211486816406 -13.850276947021484 377.1311340332031 -10.450279235839844 379.35113525390625 -8.36361312866211 C 381.5711364746094 -6.276947021484375 385.1311340332031 -5.233612060546875 390.0311584472656 -5.233612060546875 M 392.3411560058594 48.48638916015625 C 399.1411437988281 48.48638916015625 403.9244689941406 47.59972381591797 406.691162109375 45.826385498046875 C 409.45782470703125 44.059722900390625 410.8411560058594 41.04638671875 410.8411560058594 36.7863883972168 C 410.8411560058594 34.24638748168945 410.31781005859375 32.36638641357422 409.2711486816406 31.14638900756836 C 408.23114013671875 29.919721603393555 406.6678161621094 29.10305404663086 404.5811462402344 28.696388244628906 C 402.4944763183594 28.28972053527832 399.4111328125 28.03972053527832 395.3311462402344 27.946388244628906 L 381.4611511230469 27.126388549804688 C 379.01446533203125 29.03305435180664 377.33782958984375 30.75638771057129 376.43115234375 32.29638671875 C 375.52447509765625 33.836387634277344 375.0711364746094 35.696388244628906 375.0711364746094 37.87638854980469 C 375.0711364746094 41.776390075683594 376.3844909667969 44.51972198486328 379.0111389160156 46.106388092041016 C 381.64447021484375 47.69305419921875 386.08782958984375 48.48638916015625 392.3411560058594 48.48638916015625 Z" transform="matrix(1.0061999559402466, 0, 0, 1, 943.0787353515625, 795.03125)" style="white-space: pre; fill: rgb(64, 79, 214); color: rgb(86, 27, 28); stroke: rgb(255, 255, 255); stroke-width: 3;"/>
	</g>
</svg>