<?xml version="1.0" encoding="utf-8"?>
<svg id="master-artboard" viewBox="0 0 1400 1400" version="1.1" xmlns="http://www.w3.org/2000/svg" x="0px" y="0px" width="1400px" height="1400px" enable-background="new 0 0 1400 1400"><defs><style id="ee-google-fonts">@import url(https://fonts.googleapis.com/css?family=Cairo:200,300,600,700,900,400);</style><linearGradient id="gradient-0" gradientUnits="userSpaceOnUse" x1="213.515625" y1="-149" x2="213.515625" y2="105.390625">
                <stop offset="0" style="stop-color: #404fd6"/>
                <stop offset="1" style="stop-color: #1f2a91"/>
              </linearGradient></defs><rect id="ee-background" x="0" y="0" width="1400" height="1400" style="fill: white; fill-opacity: 0; pointer-events: none;"/>
<path d="M 0 0 H 1400 V 1400 H 0 V 0 Z" fill="#5AD1D6" transform="matrix(1.0023171950984604, 0, 0, 1.0023171950984604, 2.842170943040401e-14, -1.6220070050185313)" style="fill-opacity: 0;"/>
<g transform="matrix(1, 0, 0, 1, -75.69422887517271, 1.081346126788162)">
		
		<g>
			<g>
				<g>
					<path d="M 256.3999938964844 769.4000244140625 L 198.1999969482422 760 L 198.1999969482422 706.7000122070312 L 256.3999938964844 710.4000244140625 Z" fill="#F0B630"/>
					<path d="M 256.3999938964844 769.4000244140625 L 314.5 760 L 314.5 706.7000122070312 L 256.3999938964844 710.4000244140625 Z" fill="#FBCC34"/>
					<path d="M 198.1999969482422 706.7000122070312 L 256.3999938964844 710.4000244140625 L 314.5 706.7000122070312 L 254.39999389648438 703.7999877929688 Z" fill="#561B1C"/>
				</g>
				<path d="M 146.10000610351562 748.5 L 125.19999694824219 769.0999755859375 L 156.10000610351562 765.2000122070312 Z" fill="#561B1C"/>
				<g>
					<path d="M 211.3000030517578 825.2000122070312 L 146.10000610351562 814.7000122070312 L 146.10000610351562 748.5 L 211.3000030517578 759 Z" fill="#F0B630"/>
					<path d="M 211.3000030517578 825.2000122070312 L 276.6000061035156 814.7000122070312 L 276.6000061035156 748.5 L 211.3000030517578 759 Z" fill="#FBCC34"/>
					<path d="M 146.10000610351562 748.5 L 211.3000030517578 759 L 276.6000061035156 748.5 L 204.39999389648438 740.4000244140625 Z" fill="#561B1C"/>
				</g>
				<path d="M 211.3000030517578 759 L 276.6000061035156 748.5 L 285.8999938964844 761.5999755859375 L 266.70001220703125 779.7000122070312 L 228.6999969482422 790.4000244140625 Z" fill="#F0B630"/>
				<path d="M 198.199997 706.700012 L 197.699997 706 L 185.300003 687.299988 L 243.600006 684.799988 L 254.399994 703.799988" fill="#FBCC34"/>
				<path d="M 256.3999938964844 710.7999877929688 L 261.29998779296875 690.2000122070312 L 304 690.9000244140625 L 304 707.5999755859375 Z" fill="#F0B630"/>
			<path d="M 682.5114135742188 676.1937866210938 L 682.5114135742188 675.318603515625" style="fill: rgb(240, 182, 48); fill-opacity: 1; stroke: rgb(0, 0, 0); stroke-opacity: 1; stroke-width: 0; paint-order: fill;"/></g>
			<g>
				<g>
					<path fill="#561B1C" d="M711.6,682.5c-3-0.1-5.9,0.5-8.6,1.5l-2.8-17.9l-26.3,3.5c0,0-33.3-15.8-34.5,38&#10;&#9;&#9;&#9;&#9;&#9;&#9;c-1.2,53.8,25.7,52.6,25.7,52.6l41.3,4.1c1.1,0.2,2.2,0.3,3.3,0.3c16.4,0.4,30.2-17.7,30.7-40.4c0-0.1,0-0.2,0-0.2&#10;&#9;&#9;&#9;&#9;&#9;&#9;C740.8,701.5,728,682.9,711.6,682.5z"/>
					<path fill="#561B1C" d="M439.5,685.1c-3.6-0.1-7.1,0.6-10.5,1.9l-3.4-21.8l-32,4.3c0,0-40.5-19.2-41.9,46.2&#10;&#9;&#9;&#9;&#9;&#9;&#9;c-1.4,65.4,31.3,64,31.3,64l50.3,5c1.3,0.2,2.6,0.4,4,0.4c20,0.4,36.7-21.6,37.3-49.2c0-0.1,0-0.2,0-0.3&#10;&#9;&#9;&#9;&#9;&#9;&#9;C475.1,708.1,459.4,685.6,439.5,685.1z"/>
					<path fill="#561B1C" d="M419.3,777.5l68.2,10l393.8-49.8c0,0,19.4-7.5,19.4-19.9v-12.3l-19.1,1.3L575,728.5l-72.1,8.2&#10;&#9;&#9;&#9;&#9;&#9;&#9;l-121.2-2.5L419.3,777.5z"/>
					<path fill="#561B1C" d="M838.5,764.7l-43.3-4.3c0,0-26.1,1.1-25-51.1c1.1-52.2,33.5-36.9,33.5-36.9l25.5-3.4l9.7,62.9&#10;&#9;&#9;&#9;&#9;&#9;&#9;L838.5,764.7z"/>
					<path fill="#561B1C" d="M595.1,803.5l-54.3-5.4c0,0-32.7,1.4-31.3-64c1.4-65.4,41.9-46.2,41.9-46.2l32-4.3l12.1,78.7&#10;&#9;&#9;&#9;&#9;&#9;&#9;L595.1,803.5z"/>
					<path fill="#561B1C" d="M282.8,740.6v9.9l207.6,22.8L887,726.4c0,0,13.7-4.7,13.7-8.5v-12.3l-8.5-4.7V679l-17.1-10.4&#10;&#9;&#9;&#9;&#9;&#9;&#9;l-558.2,37.9L282.8,740.6z"/>
					<path d="M 794.5999755859375 570 L 834.4000244140625 594.0999755859375 L 857.2000122070312 643.9000244140625 L 885.5999755859375 663.7999877929688 L 885.5999755859375 713.5999755859375 L 797.5 724.0999755859375 Z" fill="#F0B630" style="fill: rgb(255, 255, 255);"/>
					<g>
						<path d="M 291.29998779296875 732.5999755859375 L 291.29998779296875 520.7000122070312 L 481.79998779296875 497.20001220703125 L 481.79998779296875 745.7000122070312 Z" fill="#561B1C"/>
						<path fill="#F0B630" d="M473.3,506.8v229.7l-173.4-11.9V528.2L473.3,506.8 M490.4,487.5l-207.6,25.6v227.5l207.6,14.2V487.5&#10;&#9;&#9;&#9;&#9;&#9;&#9;&#9;L490.4,487.5z" style="fill: rgb(255, 255, 255);"/>
					<path d="M 336.2449951171875 515.7869262695312 L 336.2449951171875 515.7869262695312" style="fill: rgb(64, 79, 214); fill-opacity: 1; stroke: rgb(0, 0, 0); stroke-opacity: 1; stroke-width: 0; paint-order: fill;"/></g>
					<path d="M 490.3999938964844 487.5 L 797.5 527.9000244140625 L 797.5 724.0999755859375 L 490.3999938964844 754.7999877929688 Z" fill="#FBCC34" style="stroke: rgb(255, 255, 255); paint-order: fill; stroke-opacity: 1; fill: rgb(255, 255, 255);"/>
					<path d="M 315.29998779296875 724.5999755859375 L 210.3000030517578 825.9000244140625 L 375.8999938964844 857.4000244140625 L 458.8999938964844 734.2999877929688 Z" fill="#561B1C"/>
					<path d="M 315.29998779296875 717.4000244140625 L 210.3000030517578 818.7000122070312 L 373.1000061035156 847.4000244140625 L 457.6000061035156 725.7000122070312 Z" fill="#FBCC34" style="fill: rgb(255, 255, 255);"/>
					<path d="M 210.3000030517578 818.7000122070312 L 210.3000030517578 825.9000244140625 L 375.8999938964844 857.4000244140625 L 374.5 847.4000244140625 Z" fill="#561B1C"/>
					<path d="M 461.8999938964844 598.4000244140625 L 309.79998779296875 608.4000244140625 L 309.79998779296875 531.5999755859375 L 461.8999938964844 514.5 Z" fill="#F0B630" style="fill: rgb(255, 255, 255);"/>
					<path fill="#561B1C" d="M470,529.6c0.2,1.8-1.2,3.4-2.9,3.5l-134.2,12.2c-1.8,0.2-3.4-1.1-3.5-2.9l0,0&#10;&#9;&#9;&#9;&#9;&#9;&#9;c-0.2-1.8,1.2-3.4,2.9-3.5l134.2-12.3C468.2,526.5,469.8,527.8,470,529.6L470,529.6z"/>
					<path fill="#561B1C" d="M464.1,541l-109.8,10c-1.8,0.2-3.1,1.7-2.9,3.5c0.2,1.8,1.7,3.1,3.5,2.9l109.2-10V541z"/>
					<path fill="#561B1C" d="M468.3,557.3l-109.8,10c-1.8,0.2-3.1,1.8-2.9,3.5c0.2,1.8,1.7,3.1,3.5,2.9l109.2-10V557.3z"/>
					<path fill="#FBCC34" d="M447.7,658.1"/>
					<path d="M 807.4000244140625 591.2999877929688 L 827.2999877929688 601.2999877929688 L 844.4000244140625 638.2000122070312 L 807.4000244140625 636.7999877929688 Z" fill="#561B1C"/>
					<path fill="#561B1C" stroke="#561B1C" stroke-width="2.8433" stroke-miterlimit="10" d="M597.7,693.7&#10;&#9;&#9;&#9;&#9;&#9;&#9;c-21.4,0-43.1,24.1-43.1,53.9l81.6-8C633.4,713.6,617.2,693.7,597.7,693.7z"/>
					<path fill="#561B1C" stroke="#561B1C" stroke-width="2.8433" stroke-miterlimit="10" d="M838.5,678c-17.6,0-32,19.7-32.2,44.1&#10;&#9;&#9;&#9;&#9;&#9;&#9;l64-6.6C867.8,694.3,854.5,678,838.5,678z"/>
					<path d="M 888.4000244140625 700.7999877929688 L 875.2000122070312 701.7000122070312 L 876.0999755859375 720.7000122070312 L 892.2000122070312 719.7000122070312 L 892.2000122070312 700.7999877929688 Z" fill="#561B1C"/>
					<path d="M 886.0999755859375 668.5 L 879 673.2999877929688 L 879 694.0999755859375 L 888.4000244140625 700.7999877929688 Z" fill="#561B1C"/>
					<path fill="#FBCC34" d="M888.4,679.9c0,3.7-1.1,6.6-2.4,6.6c-1.3,0-2.4-3-2.4-6.6c0-3.7,1.1-6.6,2.4-6.6&#10;&#9;&#9;&#9;&#9;&#9;&#9;C887.4,673.3,888.4,676.3,888.4,679.9z" style="fill: rgb(255, 255, 255);"/>
					<path fill="#561B1C" d="M844.4,641.8c0,4.3-3.5,7.8-7.8,7.8l0,0c-4.3,0-7.8-3.5-7.8-7.8v-14.2c0-4.3,3.5-7.8,7.8-7.8l0,0&#10;&#9;&#9;&#9;&#9;&#9;&#9;c4.3,0,7.8,3.5,7.8,7.8V641.8z"/>
					<path fill="#F9E4A7" d="M848.6,641.8c0,4.3-3.5,7.8-7.8,7.8l0,0c-4.3,0-7.8-3.5-7.8-7.8v-14.2c0-4.3,3.5-7.8,7.8-7.8l0,0&#10;&#9;&#9;&#9;&#9;&#9;&#9;c4.3,0,7.8,3.5,7.8,7.8V641.8z"/>
					<path fill="#F9E4A7" d="M506.5,505.5l273.9,32.2v152.6v14.2L654.3,715c0,0-18.2-55.5-83.4-35.1c0,0,52.1-32.7,91.9,16.6&#10;&#9;&#9;&#9;&#9;&#9;&#9;l104.3-5.2V557.7L515,527.8L506.5,505.5z"/>
					<path fill="#F9E4A7" d="M835.1,670.9c0,0,28.1-1.8,35.8,27h6.6C877.5,697.9,872.4,663.1,835.1,670.9z"/>
					<path d="M 768.9000244140625 639.2999877929688 L 515.5 636.7000122070312 L 507.3999938964844 648.5 L 769.5 649.2999877929688 Z" fill="#F9E4A7"/>
					<path fill="#561B1C" d="M672.3,746.3c0,0,0-22.7,11.4-25.6l73.9-7.1c0,0,12.8,6.4,12.8,18.5&#10;&#9;&#9;&#9;&#9;&#9;&#9;C770.4,739.2,672.3,746.3,672.3,746.3z"/>
					<path fill="none" stroke="#561B1C" stroke-width="8.5299" stroke-miterlimit="10" d="M466.2,673.8l22.7-1.4&#10;&#9;&#9;&#9;&#9;&#9;&#9;c0,0,19.9,4.3,19.9,8.5v79.6"/>
					<path d="M 467.600006 703.599976 L 489.399994 703.599976 L 507.399994 703.599976" fill="none" stroke="#561B1C" stroke-width="8.5299" stroke-miterlimit="10"/>
					<path d="M 457.700012 732.5 L 491.299988 732.5 L 508.399994 732" fill="none" stroke="#561B1C" stroke-width="8.5299" stroke-miterlimit="10"/>
					
						<path d="M 282.899994 681.799988 L 300.799988 680.299988" fill="none" stroke="#561B1C" stroke-width="7.1083" stroke-miterlimit="10"/>
					
						<path d="M 281.899994 701.700012 L 304.600006 701.700012" fill="none" stroke="#561B1C" stroke-width="7.1083" stroke-miterlimit="10"/>
					
						<path d="M 301.799988 721.099976 L 281.899994 721.099976" fill="none" stroke="#561B1C" stroke-width="7.1083" stroke-miterlimit="10"/>
					<path fill="#FBCC34" d="M243.6,799.6c-1.8-0.9,132.9,26,132.9,26l-12.3,16.9l-133.8-33.3L243.6,799.6z" style="fill: rgb(180, 180, 180);"/>
					<path d="M 315.29998779296875 717.4000244140625 L 373.1000061035156 847.4000244140625 L 210.3000030517578 818.7000122070312 Z" fill="#F0B630" style="fill: rgb(205, 205, 205);"/>
					
						<path d="M 252.899994 804.900024 L 349.799988 705.700012" fill="none" stroke="#561B1C" stroke-width="8.2216" stroke-linecap="round" stroke-linejoin="round" stroke-miterlimit="10"/>
					
						<path d="M 283.700012 812.299988 L 377.899994 710.700012" fill="none" stroke="#561B1C" stroke-width="8.2216" stroke-linecap="round" stroke-linejoin="round" stroke-miterlimit="10"/>
					
						<path d="M 328.299988 819.099976 L 417.299988 712.900024" fill="none" stroke="#561B1C" stroke-width="8.2216" stroke-linecap="round" stroke-linejoin="round" stroke-miterlimit="10"/>
					
						<path d="M 358.600006 825.299988 L 443.700012 715.900024" fill="none" stroke="#561B1C" stroke-width="8.2216" stroke-linecap="round" stroke-linejoin="round" stroke-miterlimit="10"/>
					<path d="M 313.20001220703125 715 L 457.70001220703125 715 L 311.20001220703125 618.2999877929688 Z" fill="#F0B630" style="fill: rgb(191, 191, 191);"/>
					<path d="M 385.200012 663.799988 H 463.400009 V 719.199989 H 385.200012 V 663.799988 Z" fill="#561B1C"/>
					<path fill="#F9E4A7" d="M797.5,586.3l29.9,14.9l9.2,18.5c0,0,5.7,0.7,5.7,2.8c0,2.1-9.9-24.2-9.9-24.2l-34.8-21.3V586.3z"/>
					<path d="M 845.0999755859375 645.2999877929688 L 877.7999877929688 670.2000122070312 L 882 667.4000244140625 L 848.5999755859375 641.7999877929688 Z" fill="#F9E4A7"/>
					<path d="M 772.5999755859375 539.4000244140625 L 793.2000122070312 530.2000122070312 L 776.7999877929688 545.7999877929688 Z" fill="#F9E4A7"/>
					<g>
						<path fill="#FBCC34" d="M597.3,703.6c-19.9-0.4-36.6,21.4-37.3,48.9c0,0.1,0,0.2,0,0.3c-0.6,27.6,15.1,50.3,35.1,50.8&#10;&#9;&#9;&#9;&#9;&#9;&#9;&#9;c20,0.4,36.7-21.6,37.3-49.2c0-0.1,0-0.2,0-0.3C632.9,726.6,617.2,704.1,597.3,703.6z" style="fill: rgb(255, 255, 255);"/>
						<path fill="#561B1C" d="M573.5,753.4c0.5-17.2,10.9-31,23.4-30.7c12.5,0.3,22.3,14.4,22,31.7c0,0.1,0,0.1,0,0.2&#10;&#9;&#9;&#9;&#9;&#9;&#9;&#9;c-0.4,17.3-10.9,31.1-23.4,30.9c-12.5-0.3-22.4-14.5-22-31.9C573.5,753.5,573.5,753.4,573.5,753.4z"/>
						<path fill="#F9E4A7" d="M611.1,754.4c0-0.1,0-0.1,0-0.2c0.3-15.4-7.5-28.3-18.1-31.1c1.3-0.3,2.6-0.4,3.9-0.4&#10;&#9;&#9;&#9;&#9;&#9;&#9;&#9;c12.5,0.3,22.3,14.4,22,31.7c0,0.1,0,0.1,0,0.2c-0.4,17.3-10.9,31.1-23.4,30.9c-1.3,0-2.6-0.2-3.9-0.6&#10;&#9;&#9;&#9;&#9;&#9;&#9;&#9;C602.3,782.5,610.8,769.9,611.1,754.4z"/>
						<path fill="#F9E4A7" d="M588.6,752.4c-0.1,5.5,3,10,7,10.1c4,0.1,7.3-4.3,7.4-9.8c0.1-5.5-3-10-7-10.1&#10;&#9;&#9;&#9;&#9;&#9;&#9;&#9;C592.1,742.5,588.8,746.9,588.6,752.4z"/>
					</g>
					<g>
						<path fill="#FBCC34" d="M840.3,684.9c-15.9-0.3-29.2,17.1-29.8,39c0,0.1,0,0.2,0,0.2c-0.5,22,12.1,40.2,28,40.5&#10;&#9;&#9;&#9;&#9;&#9;&#9;&#9;c16,0.3,29.3-17.2,29.8-39.3c0-0.1,0-0.2,0-0.2C868.7,703.3,856.2,685.3,840.3,684.9z" style="fill: rgb(255, 255, 255);"/>
						<path fill="#561B1C" d="M821.3,724.6c0.4-13.8,8.7-24.7,18.7-24.5s17.8,11.5,17.6,25.3c0,0.1,0,0.1,0,0.2&#10;&#9;&#9;&#9;&#9;&#9;&#9;&#9;c-0.3,13.8-8.7,24.9-18.7,24.6c-10-0.2-17.9-11.6-17.6-25.4C821.2,724.7,821.3,724.7,821.3,724.6z"/>
						<path fill="#F9E4A7" d="M851.3,725.5c0,0,0-0.1,0-0.1c0.2-12.3-6-22.6-14.5-24.8c1-0.2,2.1-0.3,3.1-0.3&#10;&#9;&#9;&#9;&#9;&#9;&#9;&#9;c10,0.2,17.8,11.5,17.6,25.3c0,0.1,0,0.1,0,0.2c-0.3,13.8-8.7,24.9-18.7,24.6c-1.1,0-2.1-0.2-3.1-0.4&#10;&#9;&#9;&#9;&#9;&#9;&#9;&#9;C844.3,747.9,851,737.8,851.3,725.5z"/>
						<path fill="#F9E4A7" d="M833.4,723.8c-0.1,4.4,2.4,8,5.6,8.1c3.2,0.1,5.8-3.4,5.9-7.8c0.1-4.4-2.4-8-5.6-8.1&#10;&#9;&#9;&#9;&#9;&#9;&#9;&#9;C836.1,715.9,833.5,719.4,833.4,723.8z"/>
					</g>
					<path d="M 516 541.2000122070312 L 499.8999938964844 500.79998779296875 L 499.8999938964844 646.7999877929688 L 515 623.0999755859375 L 759.5 629.0999755859375 L 759.5 564.7999877929688 L 519.7999877929688 542.0999755859375 Z" fill="#F0B630" style="fill: rgb(255, 255, 255);"/>
				<path d="M 674.6326293945312 677.1982421875 L 674.6326293945312 677.1982421875" style="fill: rgb(255, 255, 255); fill-opacity: 1; stroke: rgb(255, 255, 255); stroke-opacity: 1; stroke-width: 1; paint-order: stroke;"/><path d="M 860.8656616210938 611.5869750976562" style="fill: rgb(255, 255, 255); fill-opacity: 1; stroke: rgb(0, 0, 0); stroke-opacity: 1; stroke-width: 0; paint-order: fill;"/><path d="M 341.96868896484375 732.8115234375 L 341.96868896484375 732.8115234375" style="fill: rgb(255, 255, 255); fill-opacity: 1; stroke: rgb(0, 0, 0); stroke-opacity: 1; stroke-width: 0; paint-order: fill;"/><path d="M 301.6824035644531 776.1383056640625 L 301.6824035644531 776.1383056640625" style="fill: rgb(255, 255, 255); fill-opacity: 1; stroke: rgb(0, 0, 0); stroke-opacity: 1; stroke-width: 0; paint-order: fill;"/></g>
				<path d="M 296.1000061035156 525.4000244140625 L 285.70001220703125 516.9000244140625 L 285.70001220703125 671.4000244140625 L 295.6000061035156 670.4000244140625 Z" fill="#FBCC34" style="fill: rgb(255, 255, 255);"/>
				<path fill="#FBCC34" d="M793.9,652.4h50.5v10.7c0,0-43.4,1.4-46.9,57.6l-10-1.4l0.7-61.8L793.9,652.4z" style="fill: rgb(210, 210, 210);"/>
				<path fill="#FBCC34" d="M826.8,666.2c0,0,34.6-6.6,48.3,15.6v-8.1l-30.8-21.3l-49.3-1.9l-0.5,9.5l-2.4,19L826.8,666.2z" style="fill: rgb(255, 255, 255);"/>
				<path fill="#F9E4A7" d="M823.8,643.9c0,1.2-1,2.1-2.1,2.1H811c-1.2,0-2.1-1-2.1-2.1l0,0c0-1.2,1-2.1,2.1-2.1h10.7&#10;&#9;&#9;&#9;&#9;&#9;C822.8,641.8,823.8,642.7,823.8,643.9L823.8,643.9z"/>
				<path d="M 797.5 527.9000244140625 L 797.5 727.2999877929688 L 793.2000122070312 729.7000122070312 L 793.2000122070312 531.5999755859375 Z" fill="#561B1C"/>
			<path d="M 359.1678161621094 512.4159545898438" style="fill: rgb(255, 255, 255); fill-opacity: 1; stroke: rgb(0, 0, 0); stroke-opacity: 1; stroke-width: 0; paint-order: fill;"/><path d="M 804.4752807617188 683.9500732421875 L 804.4752807617188 683.9500732421875" style="fill: rgb(255, 255, 255); fill-opacity: 1; stroke: rgb(0, 0, 0); stroke-opacity: 1; stroke-width: 0; paint-order: fill;"/></g>
			<g>
				<path d="M 408 716.2000122070312 L 352.20001220703125 714.2999877929688 L 352.20001220703125 670.7000122070312 L 408 666.7000122070312 Z" fill="#E5A31F"/>
				<path d="M 408 716.2000122070312 L 463.79998779296875 714.2999877929688 L 463.79998779296875 670.5 L 408 666.7000122070312 Z" fill="#FBCC34"/>
				<path d="M 352.20001220703125 670.5 L 408 667.7000122070312 L 463.79998779296875 671.2000122070312 L 402 663.5999755859375 Z" fill="#561B1C"/>
			</g>
			<path d="M 408 667.7000122070312 L 423.1000061035156 685.9000244140625 L 463.6000061035156 685.9000244140625 L 463.6000061035156 670.5 Z" fill="#F0B630"/>
			<path d="M 352.20001220703125 670.5 L 337.70001220703125 687.2999877929688 L 352 686.2000122070312 Z" fill="#561B1C"/>
			<g>
				<g>
					<path fill="#561B1C" d="M536.4,614.3v-63.1l19.2,1.3l5.3,38.3l5.3-37.5l19.4,1.4v61.2l-11.5-0.4V571l-7.3,44.2l-11.3-0.4&#10;&#9;&#9;&#9;&#9;&#9;&#9;l-7.7-45.4v45.1L536.4,614.3z" style="fill-opacity: 1; fill: rgb(64, 79, 214);"/>
					<path fill="#561B1C" d="M594.6,612.2c-2.6-3.1-4-7.4-4-12.8v-29.1c0-5.3,1.3-9.1,4-11.6c2.6-2.5,6.5-3.5,11.6-3.2&#10;&#9;&#9;&#9;&#9;&#9;&#9;c5.1,0.4,9,1.9,11.6,4.8c2.6,2.8,4,6.8,4,11.9v28.5c0,5.4-1.3,9.5-4,12.3c-2.6,2.8-6.5,4.2-11.6,4&#10;&#9;&#9;&#9;&#9;&#9;&#9;C601.1,616.9,597.3,615.3,594.6,612.2z M608.5,604.6c0.4-0.9,0.6-2.2,0.6-3.9v-29.5c0-1.3-0.2-2.4-0.6-3.2&#10;&#9;&#9;&#9;&#9;&#9;&#9;c-0.4-0.8-1.1-1.3-2.2-1.4c-2.1-0.1-3.2,1.3-3.2,4.4v29.5c0,1.7,0.2,3.1,0.7,4c0.4,0.9,1.2,1.4,2.4,1.4&#10;&#9;&#9;&#9;&#9;&#9;&#9;C607.3,606,608.1,605.6,608.5,604.6z" style="fill-opacity: 1; fill: rgb(64, 79, 214);"/>
					<path fill="#561B1C" d="M632.7,617.3l-7.8-60l12,0.8l4.6,40.6l4.1-40l12,0.8l-7.8,58.3L632.7,617.3z" style="fill-opacity: 1; fill: rgb(64, 79, 214);"/>
					<path fill="#561B1C" d="M660.7,618.2v-58.4l12.2,0.9v57.9L660.7,618.2z" style="fill-opacity: 1; fill: rgb(64, 79, 214);"/>
					<path fill="#561B1C" d="M678,618.8v-57.7l13,0.9l5.8,27.7v-27.3l12.2,0.9v56.5l-12.3-0.4l-6.3-28.9v28.7L678,618.8z" style="fill-opacity: 1; fill: rgb(64, 79, 214);"/>
					<path fill="#561B1C" d="M717.4,616.3c-2.2-2.9-3.3-7.3-3.3-13.1v-24.3c0-5.2,1.3-9.1,3.9-11.5c2.6-2.5,6.5-3.5,11.6-3.2&#10;&#9;&#9;&#9;&#9;&#9;&#9;c4.2,0.3,7.4,1.3,9.7,2.9c2.3,1.6,3.9,3.8,4.8,6.7c0.9,2.8,1.3,6.4,1.3,10.8l-12.3-0.7v-5c0-1.3-0.2-2.4-0.6-3.1&#10;&#9;&#9;&#9;&#9;&#9;&#9;s-1.2-1.2-2.2-1.2c-2.4-0.2-3.6,1.2-3.6,3.9v27.1c0,1.7,0.2,3,0.7,3.9c0.5,0.9,1.3,1.4,2.6,1.4c1.2,0,2.1-0.4,2.6-1.2&#10;&#9;&#9;&#9;&#9;&#9;&#9;c0.5-0.8,0.7-2.1,0.7-3.8v-8l-3.4-0.2V588l15.4,0.8V621l-5.1-0.2l-2.1-4.7c-2.3,3.4-5.7,5-10.4,4.8&#10;&#9;&#9;&#9;&#9;&#9;&#9;C723,620.8,719.6,619.2,717.4,616.3z" style="fill-opacity: 1; fill: rgb(64, 79, 214);"/>
				<path d="M 643.233154296875 596.20654296875" style="fill: rgb(64, 79, 214); fill-opacity: 1; stroke: rgb(0, 0, 0); stroke-opacity: 1; stroke-width: 0; paint-order: fill;"/></g>
			</g>
		</g>
	<path d="M 373.8999938964844 857.4000244140625 L 905.2000122070312 857.4000244140625 L 904 739.2000122070312 L 375 810.2999877929688 Z" fill="#561B1C"/></g><path fill="#FBCC34" d="M846.6,642.8c0,4.3-3.5,7.8-7.8,7.8l0,0c-4.3,0-7.8-3.5-7.8-7.8v-14.2c0-4.3,3.5-7.8,7.8-7.8l0,0&#10;&#9;&#9;c4.3,0,7.8,3.5,7.8,7.8V642.8z" transform="matrix(1, 0, 0, 1, -74.33539111184444, -5.684341886080802e-14)" style="fill: rgb(255, 255, 255);"/><path fill="#F9E4A7" d="M844.7,643c0,3.6-3,6.6-6.6,6.6l0,0c-3.6,0-6.6-3-6.6-6.6v-12c0-3.6,3-6.6,6.6-6.6l0,0c3.6,0,6.6,3,6.6,6.6&#10;&#9;&#9;V643z" transform="matrix(1, 0, 0, 1, -75.69422887517271, 1.081346126788162)"/>
<g transform="matrix(1, 0, 0, 1, -113.70975520934883, 26.879890979909874)">
		<path d="M 127.4800033569336 -46.52131652832031 L 127.4800033569336 68.2786865234375 L 111.47000122070312 68.2786865234375 L 111.47000122070312 -29.171310424804688 L 108.95999908447266 -29.171310424804688 L 79.08999633789062 63.76868438720703 L 62.06999969482422 63.76868438720703 L 32.040000915527344 -29.171310424804688 L 29.700000762939453 -29.171310424804688 L 29.700000762939453 68.2786865234375 L 13.680000305175781 68.2786865234375 L 13.680000305175781 -46.52131652832031 L 41.720001220703125 -46.52131652832031 L 70.58000183105469 47.08868408203125 L 99.27999877929688 -46.52131652832031 L 127.4800033569336 -46.52131652832031 ZM 214.2556610107422 41.40868377685547 L 167.86566162109375 41.40868377685547 L 160.6856689453125 68.2786865234375 L 144.83566284179688 68.2786865234375 L 174.53565979003906 -46.52131652832031 L 207.57566833496094 -46.52131652832031 L 237.27566528320312 68.2786865234375 L 221.4256591796875 68.2786865234375 L 214.2556610107422 41.40868377685547 M 171.20565795898438 27.228687286376953 L 210.91566467285156 27.228687286376953 L 195.39566040039062 -33.011314392089844 L 186.71566772460938 -33.011314392089844 L 171.20565795898438 27.228687286376953 ZM 285.3313903808594 69.94868469238281 C 277.6580505371094 69.94868469238281 267.3147277832031 68.89202117919922 254.3013916015625 66.7786865234375 L 248.2913818359375 65.7786865234375 L 249.96139526367188 52.928688049316406 C 264.98138427734375 54.928688049316406 276.43804931640625 55.928688049316406 284.3313903808594 55.928688049316406 C 299.35137939453125 55.928688049316406 306.86138916015625 49.08868408203125 306.86138916015625 35.408687591552734 C 306.86138916015625 31.622020721435547 306.0813903808594 28.588687896728516 304.5213928222656 26.308685302734375 C 302.9680480957031 24.0286865234375 300.4947204589844 22.195354461669922 297.10137939453125 20.808685302734375 C 293.70806884765625 19.41535186767578 288.9513854980469 18.052021026611328 282.8313903808594 16.718685150146484 C 273.81805419921875 14.605354309082031 266.8114013671875 12.242019653320312 261.8114013671875 9.628684997558594 C 256.8047180175781 7.015354156494141 253.1313934326172 3.6486892700195312 250.7913818359375 -0.4713134765625 C 248.4580535888672 -4.584648132324219 247.2913818359375 -9.977981567382812 247.2913818359375 -16.65131378173828 C 247.2913818359375 -27.224647521972656 250.46139526367188 -35.181312561035156 256.8013916015625 -40.52131652832031 C 263.1413879394531 -45.854644775390625 272.4847106933594 -48.52131652832031 284.8313903808594 -48.52131652832031 C 289.3913879394531 -48.52131652832031 294.3147277832031 -48.24464416503906 299.60137939453125 -47.691314697265625 C 304.8880615234375 -47.137977600097656 311.8680419921875 -46.137977600097656 320.5413818359375 -44.691314697265625 L 319.2113952636719 -31.671310424804688 C 303.97137451171875 -33.451316833496094 292.95806884765625 -34.34131622314453 286.17138671875 -34.34131622314453 C 270.931396484375 -34.34131622314453 263.3114013671875 -28.777976989746094 263.3114013671875 -17.65131378173828 C 263.3114013671875 -13.537979125976562 264.17138671875 -10.314643859863281 265.8913879394531 -7.981315612792969 C 267.6180419921875 -5.6413116455078125 270.37139892578125 -3.7213134765625 274.1513977050781 -2.2213134765625 C 277.93804931640625 -0.7213134765625 283.6680603027344 0.9186859130859375 291.3414001464844 2.6986846923828125 C 299.354736328125 4.705352783203125 305.584716796875 6.932018280029297 310.0313720703125 9.378684997558594 C 314.4780578613281 11.82535171508789 317.73138427734375 14.995353698730469 319.7913818359375 18.888687133789062 C 321.85137939453125 22.782020568847656 322.8813781738281 27.898685455322266 322.8813781738281 34.238685607910156 C 322.8813781738281 46.032020568847656 319.681396484375 54.93202209472656 313.2813720703125 60.93868637084961 C 306.8880615234375 66.94535064697266 297.5713806152344 69.94868469238281 285.3313903808594 69.94868469238281 ZM 375.9377136230469 69.94868469238281 C 368.264404296875 69.94868469238281 357.9210510253906 68.89202117919922 344.90771484375 66.7786865234375 L 338.8977355957031 65.7786865234375 L 340.5677185058594 52.928688049316406 C 355.5877380371094 54.928688049316406 367.0444030761719 55.928688049316406 374.9377136230469 55.928688049316406 C 389.9577331542969 55.928688049316406 397.46771240234375 49.08868408203125 397.46771240234375 35.408687591552734 C 397.46771240234375 31.622020721435547 396.687744140625 28.588687896728516 395.1277160644531 26.308685302734375 C 393.57440185546875 24.0286865234375 391.10107421875 22.195354461669922 387.7077331542969 20.808685302734375 C 384.31439208984375 19.41535186767578 379.5577392578125 18.052021026611328 373.4377136230469 16.718685150146484 C 364.42437744140625 14.605354309082031 357.417724609375 12.242019653320312 352.417724609375 9.628684997558594 C 347.41107177734375 7.015354156494141 343.73773193359375 3.6486892700195312 341.3977355957031 -0.4713134765625 C 339.06439208984375 -4.584648132324219 337.8977355957031 -9.977981567382812 337.8977355957031 -16.65131378173828 C 337.8977355957031 -27.224647521972656 341.0677185058594 -35.181312561035156 347.40771484375 -40.52131652832031 C 353.74774169921875 -45.854644775390625 363.091064453125 -48.52131652832031 375.4377136230469 -48.52131652832031 C 379.99774169921875 -48.52131652832031 384.9210510253906 -48.24464416503906 390.2077331542969 -47.691314697265625 C 395.494384765625 -47.137977600097656 402.4743957519531 -46.137977600097656 411.1477355957031 -44.691314697265625 L 409.8177185058594 -31.671310424804688 C 394.5777282714844 -33.451316833496094 383.56439208984375 -34.34131622314453 376.7777099609375 -34.34131622314453 C 361.5377197265625 -34.34131622314453 353.917724609375 -28.777976989746094 353.917724609375 -17.65131378173828 C 353.917724609375 -13.537979125976562 354.7777099609375 -10.314643859863281 356.49774169921875 -7.981315612792969 C 358.2243957519531 -5.6413116455078125 360.97772216796875 -3.7213134765625 364.7577209472656 -2.2213134765625 C 368.5444030761719 -0.7213134765625 374.2743835449219 0.9186859130859375 381.9477233886719 2.6986846923828125 C 389.9610595703125 4.705352783203125 396.1910705566406 6.932018280029297 400.6377258300781 9.378684997558594 C 405.0843811035156 11.82535171508789 408.33770751953125 14.995353698730469 410.3977355957031 18.888687133789062 C 412.4577331542969 22.782020568847656 413.48773193359375 27.898685455322266 413.48773193359375 34.238685607910156 C 413.48773193359375 46.032020568847656 410.2877197265625 54.93202209472656 403.8877258300781 60.93868637084961 C 397.494384765625 66.94535064697266 388.177734375 69.94868469238281 375.9377136230469 69.94868469238281 Z" transform="matrix(1.0061999559402466, 0, 0, 1, 935.5521850585938, 627.6697387695312)" style="white-space: pre; fill: rgb(255, 255, 255); color: rgb(86, 27, 28);"/>
		<path d="M 103.9000015258789 -65.73712921142578 L 103.9000015258789 27.832870483398438 L 90.8499984741211 27.832870483398438 L 90.8499984741211 -51.587127685546875 L 88.80999755859375 -51.587127685546875 L 64.45999908447266 24.162870407104492 L 50.59000015258789 24.162870407104492 L 26.110000610351562 -51.587127685546875 L 24.209999084472656 -51.587127685546875 L 24.209999084472656 27.832870483398438 L 11.149999618530273 27.832870483398438 L 11.149999618530273 -65.73712921142578 L 34 -65.73712921142578 L 57.529998779296875 10.562870025634766 L 80.91999816894531 -65.73712921142578 L 103.9000015258789 -65.73712921142578 ZM 150.40927124023438 29.332870483398438 C 139.8026123046875 29.332870483398438 132.18594360351562 26.499536514282227 127.55928039550781 20.832870483398438 C 122.93927764892578 15.166203498840332 120.62928009033203 6.256204605102539 120.62928009033203 -5.897129058837891 C 120.62928009033203 -18.31713104248047 122.98594665527344 -27.38379669189453 127.69927978515625 -33.097129821777344 C 132.41261291503906 -38.810462951660156 139.98260498046875 -41.66712951660156 150.40927124023438 -41.66712951660156 C 160.9292755126953 -41.66712951660156 168.52261352539062 -38.787132263183594 173.18927001953125 -33.027130126953125 C 177.85594177246094 -27.267127990722656 180.18927001953125 -18.223796844482422 180.18927001953125 -5.897129058837891 C 180.18927001953125 6.162870407104492 177.8792724609375 15.04953670501709 173.25927734375 20.76287078857422 C 168.6326141357422 26.47620391845703 161.0159454345703 29.332870483398438 150.40927124023438 29.332870483398438 M 150.40927124023438 18.312870025634766 C 154.76260375976562 18.312870025634766 158.1392822265625 17.542869567871094 160.53927612304688 16.002870559692383 C 162.94595336914062 14.462870597839355 164.6459503173828 11.969536781311035 165.6392822265625 8.522871017456055 C 166.6392822265625 5.076204299926758 167.1392822265625 0.26953697204589844 167.1392822265625 -5.897129058837891 C 167.1392822265625 -12.330463409423828 166.61593627929688 -17.31713104248047 165.56927490234375 -20.857128143310547 C 164.52928161621094 -24.390460968017578 162.8092803955078 -26.90713119506836 160.40927124023438 -28.40713119506836 C 158.0026092529297 -29.900463104248047 154.66928100585938 -30.64712905883789 150.40927124023438 -30.64712905883789 C 146.14927673339844 -30.64712905883789 142.7959442138672 -29.900463104248047 140.34927368164062 -28.40713119506836 C 137.8959503173828 -26.90713119506836 136.14927673339844 -24.367130279541016 135.10928344726562 -20.787128448486328 C 134.06927490234375 -17.207130432128906 133.54928588867188 -12.243797302246094 133.54928588867188 -5.897129058837891 C 133.54928588867188 0.17620468139648438 134.0459442138672 4.959537506103516 135.03927612304688 8.452871322631836 C 136.03927612304688 11.94620418548584 137.76260375976562 14.462870597839355 140.2092742919922 16.002870559692383 C 142.65594482421875 17.542869567871094 146.05593872070312 18.312870025634766 150.40927124023438 18.312870025634766 ZM 188.2111053466797 -40.16712951660156 L 201.54110717773438 -40.16712951660156 L 215.9611053466797 16.952869415283203 L 220.5811004638672 16.952869415283203 L 235.54110717773438 -40.16712951660156 L 248.4611053466797 -40.16712951660156 L 230.24110412597656 27.832870483398438 L 206.44110107421875 27.832870483398438 L 188.2111053466797 -40.16712951660156 ZM 260.6932067871094 27.832870483398438 M 260.6932067871094 -40.16712951660156 L 273.3432312011719 -40.16712951660156 L 273.3432312011719 27.832870483398438 L 260.6932067871094 27.832870483398438 L 260.6932067871094 -40.16712951660156 M 260.6932067871094 -67.22712707519531 L 273.2132263183594 -67.22712707519531 L 273.2132263183594 -53.49713134765625 L 260.6932067871094 -53.49713134765625 L 260.6932067871094 -67.22712707519531 ZM 291.9714050292969 -40.16712951660156 L 304.49139404296875 -40.16712951660156 L 304.49139404296875 -35.677127838134766 C 308.3847351074219 -37.85713195800781 311.9180603027344 -39.40045928955078 315.0914001464844 -40.30712890625 C 318.2647399902344 -41.21379852294922 321.62139892578125 -41.66712951660156 325.1614074707031 -41.66712951660156 C 330.8747253417969 -41.66712951660156 335.36138916015625 -40.53379821777344 338.62139892578125 -38.267127990722656 C 341.8880615234375 -36.00046157836914 344.201416015625 -32.48712921142578 345.5614013671875 -27.727130889892578 C 346.92138671875 -22.96712875366211 347.6014099121094 -16.507129669189453 347.6014099121094 -8.347129821777344 L 347.6014099121094 27.832870483398438 L 334.951416015625 27.832870483398438 L 334.951416015625 -8.067131042480469 C 334.951416015625 -13.780464172363281 334.61138916015625 -18.200462341308594 333.931396484375 -21.327129364013672 C 333.25140380859375 -24.460464477539062 331.98138427734375 -26.727130889892578 330.12139892578125 -28.12712860107422 C 328.26141357421875 -29.533794403076172 325.5647277832031 -30.23712921142578 322.0314025878906 -30.23712921142578 C 317.2247314453125 -30.23712921142578 312.19140625 -29.193798065185547 306.931396484375 -27.107128143310547 L 304.62139892578125 -26.027130126953125 L 304.62139892578125 27.832870483398438 L 291.9714050292969 27.832870483398438 L 291.9714050292969 -40.16712951660156 ZM 391.24908447265625 59.52287292480469 C 381.2757263183594 59.52287292480469 373.99908447265625 58.049537658691406 369.4190673828125 55.10287094116211 C 364.8457336425781 52.15620422363281 362.55908203125 47.2362060546875 362.55908203125 40.342872619628906 C 362.55908203125 36.44287109375 363.30572509765625 33.33953857421875 364.799072265625 31.03287124633789 C 366.29241943359375 28.71953773498535 369.0357360839844 26.0195369720459 373.0290832519531 22.932870864868164 C 371.57574462890625 21.939537048339844 370.5090637207031 20.626203536987305 369.8290710449219 18.992870330810547 C 369.1490783691406 17.35953712463379 368.80908203125 15.63620376586914 368.80908203125 13.822870254516602 C 368.80908203125 12.556203842163086 369.1057434082031 11.219537734985352 369.6990661621094 9.812870025634766 C 370.2857360839844 8.406204223632812 371.6224060058594 5.9362030029296875 373.7090759277344 2.4028701782226562 C 366.81573486328125 -1.2237968444824219 363.36907958984375 -7.980461120605469 363.36907958984375 -17.867130279541016 C 363.36907958984375 -33.64046096801758 372.2090759277344 -41.527130126953125 389.8890686035156 -41.527130126953125 C 394.0624084472656 -41.527130126953125 398.68572998046875 -40.93712615966797 403.7590637207031 -39.75712585449219 L 424.4390869140625 -40.30712890625 L 424.4390869140625 -29.827129364013672 L 412.3290710449219 -30.23712921142578 C 413.78240966796875 -28.603797912597656 414.82574462890625 -26.813796997070312 415.4590759277344 -24.867130279541016 C 416.0924072265625 -22.92046356201172 416.4090576171875 -20.403797149658203 416.4090576171875 -17.31713104248047 C 416.4090576171875 -9.25046157836914 414.2557373046875 -3.4704627990722656 409.9490661621094 0.022871017456054688 C 405.64239501953125 3.5095367431640625 398.91241455078125 5.252870559692383 389.7590637207031 5.252870559692383 C 387.0390625 5.252870559692383 384.81573486328125 5.072870254516602 383.0890808105469 4.712869644165039 C 381.64239501953125 8.159536361694336 380.9190673828125 10.652870178222656 380.9190673828125 12.192870140075684 C 380.9190673828125 14.366204261779785 381.8023986816406 15.772870063781738 383.5690612792969 16.412870407104492 C 385.33575439453125 17.04620361328125 388.0790710449219 17.362869262695312 391.799072265625 17.362869262695312 L 396.55908203125 17.362869262695312 C 402.9057312011719 17.44953727722168 407.982421875 17.946205139160156 411.7890625 18.85287094116211 C 415.5957336425781 19.759536743164062 418.54241943359375 21.596202850341797 420.62908935546875 24.362871170043945 C 422.7157287597656 27.12953758239746 423.7590637207031 31.14286994934082 423.7590637207031 36.402870178222656 C 423.7590637207031 44.382869720458984 421.19573974609375 50.22953796386719 416.0690612792969 53.94287109375 C 410.9490661621094 57.662872314453125 402.6757507324219 59.52287292480469 391.24908447265625 59.52287292480469 M 390.0290832519531 -4.6671295166015625 C 394.9223937988281 -4.6671295166015625 398.43572998046875 -5.7104644775390625 400.5690612792969 -7.797130584716797 C 402.69573974609375 -9.883796691894531 403.7590637207031 -13.330463409423828 403.7590637207031 -18.137130737304688 C 403.7590637207031 -22.8504638671875 402.6723937988281 -26.25046157836914 400.49908447265625 -28.337127685546875 C 398.32574462890625 -30.423797607421875 394.83575439453125 -31.46712875366211 390.0290832519531 -31.46712875366211 C 385.1290588378906 -31.46712875366211 381.5690612792969 -30.400463104248047 379.34906005859375 -28.267127990722656 C 377.1290588378906 -26.13379669189453 376.0190734863281 -22.710464477539062 376.0190734863281 -17.99713134765625 C 376.0190734863281 -13.283794403076172 377.1290588378906 -9.883796691894531 379.34906005859375 -7.797130584716797 C 381.5690612792969 -5.7104644775390625 385.1290588378906 -4.6671295166015625 390.0290832519531 -4.6671295166015625 M 392.3390808105469 49.05287170410156 C 399.1390686035156 49.05287170410156 403.9223937988281 48.16620635986328 406.6890869140625 46.39286804199219 C 409.45574951171875 44.62620544433594 410.8390808105469 41.61286926269531 410.8390808105469 37.35287094116211 C 410.8390808105469 34.812870025634766 410.31573486328125 32.93286895751953 409.2690734863281 31.712871551513672 C 408.22906494140625 30.486204147338867 406.6657409667969 29.669536590576172 404.5790710449219 29.26287078857422 C 402.4924011230469 28.856203079223633 399.4090576171875 28.606203079223633 395.3290710449219 28.51287078857422 L 381.4590759277344 27.69287109375 C 379.01239013671875 29.599536895751953 377.33575439453125 31.3228702545166 376.4290771484375 32.86286926269531 C 375.52239990234375 34.402870178222656 375.0690612792969 36.26287078857422 375.0690612792969 38.44287109375 C 375.0690612792969 42.342872619628906 376.3824157714844 45.086204528808594 379.0090637207031 46.67287063598633 C 381.64239501953125 48.25953674316406 386.08575439453125 49.05287170410156 392.3390808105469 49.05287170410156 Z" transform="matrix(1.0061999559402466, 0, 0, 1, 943.0787353515625, 795.03125)" style="white-space: pre; fill: rgb(64, 79, 214); color: rgb(86, 27, 28); stroke: rgb(255, 255, 255); stroke-width: 3;"/>
	</g>
</svg>