<?xml version="1.0" encoding="utf-8"?>
<svg id="master-artboard" viewBox="0 0 777.7496337890625 369.1791687011719" version="1.1" xmlns="http://www.w3.org/2000/svg" x="0px" y="0px" width="777.7496337890625px" height="369.1791687011719px" enable-background="new 0 0 1400 1400"><defs><style id="ee-google-fonts">@import url(https://fonts.googleapis.com/css?family=Cairo:200,300,600,700,900,400);</style><linearGradient id="gradient-0" gradientUnits="userSpaceOnUse" x1="213.515625" y1="-149" x2="213.515625" y2="105.390625">
                <stop offset="0" style="stop-color: #404fd6"/>
                <stop offset="1" style="stop-color: #1f2a91"/>
              </linearGradient></defs><rect id="ee-background" x="0" y="0" width="777.7496337890625" height="369.1791687011719" style="fill: white; fill-opacity: 0; pointer-events: none;"/>
<path d="M 0 0 H 1400 V 1400 H 0 V 0 Z" fill="#5AD1D6" transform="matrix(0.9447651505470276, 0, 0, 0.9447651505470276, -1.2625885009765625, -494.157470703125)" style="fill-opacity: 0;"/>
<g transform="matrix(1, 0, 0, 1, -126.19610977172852, -486.9778137207031)">
		
		<g>
			<g>
				<g>
					<path d="M 256.3999938964844 769.4000244140625 L 198.1999969482422 760 L 198.1999969482422 706.7000122070312 L 256.3999938964844 710.4000244140625 Z" fill="#F0B630"/>
					<path d="M 256.3999938964844 769.4000244140625 L 314.5 760 L 314.5 706.7000122070312 L 256.3999938964844 710.4000244140625 Z" fill="#FBCC34"/>
					<path d="M 198.1999969482422 706.7000122070312 L 256.3999938964844 710.4000244140625 L 314.5 706.7000122070312 L 254.39999389648438 703.7999877929688 Z" fill="#561B1C"/>
				</g>
				<path d="M 146.10000610351562 748.5 L 125.19999694824219 769.0999755859375 L 156.10000610351562 765.2000122070312 Z" fill="#561B1C"/>
				<g>
					<path d="M 211.3000030517578 825.2000122070312 L 146.10000610351562 814.7000122070312 L 146.10000610351562 748.5 L 211.3000030517578 759 Z" fill="#F0B630"/>
					<path d="M 211.3000030517578 825.2000122070312 L 276.6000061035156 814.7000122070312 L 276.6000061035156 748.5 L 211.3000030517578 759 Z" fill="#FBCC34"/>
					<path d="M 146.10000610351562 748.5 L 211.3000030517578 759 L 276.6000061035156 748.5 L 204.39999389648438 740.4000244140625 Z" fill="#561B1C"/>
				</g>
				<path d="M 211.3000030517578 759 L 276.6000061035156 748.5 L 285.8999938964844 761.5999755859375 L 266.70001220703125 779.7000122070312 L 228.6999969482422 790.4000244140625 Z" fill="#F0B630"/>
				<path d="M 198.199997 706.700012 L 197.699997 706 L 185.300003 687.299988 L 243.600006 684.799988 L 254.399994 703.799988" fill="#FBCC34"/>
				<path d="M 256.3999938964844 710.7999877929688 L 261.29998779296875 690.2000122070312 L 304 690.9000244140625 L 304 707.5999755859375 Z" fill="#F0B630"/>
			<path d="M 682.5114135742188 676.1937866210938 L 682.5114135742188 675.318603515625" style="fill: rgb(240, 182, 48); fill-opacity: 1; stroke: rgb(0, 0, 0); stroke-opacity: 1; stroke-width: 0; paint-order: fill;"/></g>
			<g>
				<g>
					<path fill="#561B1C" d="M711.6,682.5c-3-0.1-5.9,0.5-8.6,1.5l-2.8-17.9l-26.3,3.5c0,0-33.3-15.8-34.5,38&#10;&#9;&#9;&#9;&#9;&#9;&#9;c-1.2,53.8,25.7,52.6,25.7,52.6l41.3,4.1c1.1,0.2,2.2,0.3,3.3,0.3c16.4,0.4,30.2-17.7,30.7-40.4c0-0.1,0-0.2,0-0.2&#10;&#9;&#9;&#9;&#9;&#9;&#9;C740.8,701.5,728,682.9,711.6,682.5z"/>
					<path fill="#561B1C" d="M439.5,685.1c-3.6-0.1-7.1,0.6-10.5,1.9l-3.4-21.8l-32,4.3c0,0-40.5-19.2-41.9,46.2&#10;&#9;&#9;&#9;&#9;&#9;&#9;c-1.4,65.4,31.3,64,31.3,64l50.3,5c1.3,0.2,2.6,0.4,4,0.4c20,0.4,36.7-21.6,37.3-49.2c0-0.1,0-0.2,0-0.3&#10;&#9;&#9;&#9;&#9;&#9;&#9;C475.1,708.1,459.4,685.6,439.5,685.1z"/>
					<path fill="#561B1C" d="M419.3,777.5l68.2,10l393.8-49.8c0,0,19.4-7.5,19.4-19.9v-12.3l-19.1,1.3L575,728.5l-72.1,8.2&#10;&#9;&#9;&#9;&#9;&#9;&#9;l-121.2-2.5L419.3,777.5z"/>
					<path fill="#561B1C" d="M838.5,764.7l-43.3-4.3c0,0-26.1,1.1-25-51.1c1.1-52.2,33.5-36.9,33.5-36.9l25.5-3.4l9.7,62.9&#10;&#9;&#9;&#9;&#9;&#9;&#9;L838.5,764.7z"/>
					<path fill="#561B1C" d="M595.1,803.5l-54.3-5.4c0,0-32.7,1.4-31.3-64c1.4-65.4,41.9-46.2,41.9-46.2l32-4.3l12.1,78.7&#10;&#9;&#9;&#9;&#9;&#9;&#9;L595.1,803.5z"/>
					<path fill="#561B1C" d="M282.8,740.6v9.9l207.6,22.8L887,726.4c0,0,13.7-4.7,13.7-8.5v-12.3l-8.5-4.7V679l-17.1-10.4&#10;&#9;&#9;&#9;&#9;&#9;&#9;l-558.2,37.9L282.8,740.6z"/>
					<path d="M 794.5999755859375 570 L 834.4000244140625 594.0999755859375 L 857.2000122070312 643.9000244140625 L 885.5999755859375 663.7999877929688 L 885.5999755859375 713.5999755859375 L 797.5 724.0999755859375 Z" fill="#F0B630" style="fill: rgb(255, 255, 255);"/>
					<g>
						<path d="M 291.29998779296875 732.5999755859375 L 291.29998779296875 520.7000122070312 L 481.79998779296875 497.20001220703125 L 481.79998779296875 745.7000122070312 Z" fill="#561B1C"/>
						<path fill="#F0B630" d="M473.3,506.8v229.7l-173.4-11.9V528.2L473.3,506.8 M490.4,487.5l-207.6,25.6v227.5l207.6,14.2V487.5&#10;&#9;&#9;&#9;&#9;&#9;&#9;&#9;L490.4,487.5z" style="fill: rgb(255, 255, 255);"/>
					<path d="M 336.2449951171875 515.7869262695312 L 336.2449951171875 515.7869262695312" style="fill: rgb(64, 79, 214); fill-opacity: 1; stroke: rgb(0, 0, 0); stroke-opacity: 1; stroke-width: 0; paint-order: fill;"/></g>
					<path d="M 490.3999938964844 487.5 L 797.5 527.9000244140625 L 797.5 724.0999755859375 L 490.3999938964844 754.7999877929688 Z" fill="#FBCC34" style="stroke: rgb(255, 255, 255); paint-order: fill; stroke-opacity: 1; fill: rgb(255, 255, 255);"/>
					<path d="M 315.29998779296875 724.5999755859375 L 210.3000030517578 825.9000244140625 L 375.8999938964844 857.4000244140625 L 458.8999938964844 734.2999877929688 Z" fill="#561B1C"/>
					<path d="M 315.29998779296875 717.4000244140625 L 210.3000030517578 818.7000122070312 L 373.1000061035156 847.4000244140625 L 457.6000061035156 725.7000122070312 Z" fill="#FBCC34" style="fill: rgb(255, 255, 255);"/>
					<path d="M 210.3000030517578 818.7000122070312 L 210.3000030517578 825.9000244140625 L 375.8999938964844 857.4000244140625 L 374.5 847.4000244140625 Z" fill="#561B1C"/>
					<path d="M 461.8999938964844 598.4000244140625 L 309.79998779296875 608.4000244140625 L 309.79998779296875 531.5999755859375 L 461.8999938964844 514.5 Z" fill="#F0B630" style="fill: rgb(255, 255, 255);"/>
					<path fill="#561B1C" d="M470,529.6c0.2,1.8-1.2,3.4-2.9,3.5l-134.2,12.2c-1.8,0.2-3.4-1.1-3.5-2.9l0,0&#10;&#9;&#9;&#9;&#9;&#9;&#9;c-0.2-1.8,1.2-3.4,2.9-3.5l134.2-12.3C468.2,526.5,469.8,527.8,470,529.6L470,529.6z"/>
					<path fill="#561B1C" d="M464.1,541l-109.8,10c-1.8,0.2-3.1,1.7-2.9,3.5c0.2,1.8,1.7,3.1,3.5,2.9l109.2-10V541z"/>
					<path fill="#561B1C" d="M468.3,557.3l-109.8,10c-1.8,0.2-3.1,1.8-2.9,3.5c0.2,1.8,1.7,3.1,3.5,2.9l109.2-10V557.3z"/>
					<path fill="#FBCC34" d="M447.7,658.1"/>
					<path d="M 807.4000244140625 591.2999877929688 L 827.2999877929688 601.2999877929688 L 844.4000244140625 638.2000122070312 L 807.4000244140625 636.7999877929688 Z" fill="#561B1C"/>
					<path fill="#561B1C" stroke="#561B1C" stroke-width="2.8433" stroke-miterlimit="10" d="M597.7,693.7&#10;&#9;&#9;&#9;&#9;&#9;&#9;c-21.4,0-43.1,24.1-43.1,53.9l81.6-8C633.4,713.6,617.2,693.7,597.7,693.7z"/>
					<path fill="#561B1C" stroke="#561B1C" stroke-width="2.8433" stroke-miterlimit="10" d="M838.5,678c-17.6,0-32,19.7-32.2,44.1&#10;&#9;&#9;&#9;&#9;&#9;&#9;l64-6.6C867.8,694.3,854.5,678,838.5,678z"/>
					<path d="M 888.4000244140625 700.7999877929688 L 875.2000122070312 701.7000122070312 L 876.0999755859375 720.7000122070312 L 892.2000122070312 719.7000122070312 L 892.2000122070312 700.7999877929688 Z" fill="#561B1C"/>
					<path d="M 886.0999755859375 668.5 L 879 673.2999877929688 L 879 694.0999755859375 L 888.4000244140625 700.7999877929688 Z" fill="#561B1C"/>
					<path fill="#FBCC34" d="M888.4,679.9c0,3.7-1.1,6.6-2.4,6.6c-1.3,0-2.4-3-2.4-6.6c0-3.7,1.1-6.6,2.4-6.6&#10;&#9;&#9;&#9;&#9;&#9;&#9;C887.4,673.3,888.4,676.3,888.4,679.9z" style="fill: rgb(255, 255, 255);"/>
					<path fill="#561B1C" d="M844.4,641.8c0,4.3-3.5,7.8-7.8,7.8l0,0c-4.3,0-7.8-3.5-7.8-7.8v-14.2c0-4.3,3.5-7.8,7.8-7.8l0,0&#10;&#9;&#9;&#9;&#9;&#9;&#9;c4.3,0,7.8,3.5,7.8,7.8V641.8z"/>
					<path fill="#F9E4A7" d="M848.6,641.8c0,4.3-3.5,7.8-7.8,7.8l0,0c-4.3,0-7.8-3.5-7.8-7.8v-14.2c0-4.3,3.5-7.8,7.8-7.8l0,0&#10;&#9;&#9;&#9;&#9;&#9;&#9;c4.3,0,7.8,3.5,7.8,7.8V641.8z"/>
					<path fill="#F9E4A7" d="M506.5,505.5l273.9,32.2v152.6v14.2L654.3,715c0,0-18.2-55.5-83.4-35.1c0,0,52.1-32.7,91.9,16.6&#10;&#9;&#9;&#9;&#9;&#9;&#9;l104.3-5.2V557.7L515,527.8L506.5,505.5z"/>
					<path fill="#F9E4A7" d="M835.1,670.9c0,0,28.1-1.8,35.8,27h6.6C877.5,697.9,872.4,663.1,835.1,670.9z"/>
					<path d="M 768.9000244140625 639.2999877929688 L 515.5 636.7000122070312 L 507.3999938964844 648.5 L 769.5 649.2999877929688 Z" fill="#F9E4A7"/>
					<path fill="#561B1C" d="M672.3,746.3c0,0,0-22.7,11.4-25.6l73.9-7.1c0,0,12.8,6.4,12.8,18.5&#10;&#9;&#9;&#9;&#9;&#9;&#9;C770.4,739.2,672.3,746.3,672.3,746.3z"/>
					<path fill="none" stroke="#561B1C" stroke-width="8.5299" stroke-miterlimit="10" d="M466.2,673.8l22.7-1.4&#10;&#9;&#9;&#9;&#9;&#9;&#9;c0,0,19.9,4.3,19.9,8.5v79.6"/>
					<path d="M 467.600006 703.599976 L 489.399994 703.599976 L 507.399994 703.599976" fill="none" stroke="#561B1C" stroke-width="8.5299" stroke-miterlimit="10"/>
					<path d="M 457.700012 732.5 L 491.299988 732.5 L 508.399994 732" fill="none" stroke="#561B1C" stroke-width="8.5299" stroke-miterlimit="10"/>
					
						<path d="M 282.899994 681.799988 L 300.799988 680.299988" fill="none" stroke="#561B1C" stroke-width="7.1083" stroke-miterlimit="10"/>
					
						<path d="M 281.899994 701.700012 L 304.600006 701.700012" fill="none" stroke="#561B1C" stroke-width="7.1083" stroke-miterlimit="10"/>
					
						<path d="M 301.799988 721.099976 L 281.899994 721.099976" fill="none" stroke="#561B1C" stroke-width="7.1083" stroke-miterlimit="10"/>
					<path fill="#FBCC34" d="M243.6,799.6c-1.8-0.9,132.9,26,132.9,26l-12.3,16.9l-133.8-33.3L243.6,799.6z" style="fill: rgb(180, 180, 180);"/>
					<path d="M 315.29998779296875 717.4000244140625 L 373.1000061035156 847.4000244140625 L 210.3000030517578 818.7000122070312 Z" fill="#F0B630" style="fill: rgb(205, 205, 205);"/>
					
						<path d="M 252.899994 804.900024 L 349.799988 705.700012" fill="none" stroke="#561B1C" stroke-width="8.2216" stroke-linecap="round" stroke-linejoin="round" stroke-miterlimit="10"/>
					
						<path d="M 283.700012 812.299988 L 377.899994 710.700012" fill="none" stroke="#561B1C" stroke-width="8.2216" stroke-linecap="round" stroke-linejoin="round" stroke-miterlimit="10"/>
					
						<path d="M 328.299988 819.099976 L 417.299988 712.900024" fill="none" stroke="#561B1C" stroke-width="8.2216" stroke-linecap="round" stroke-linejoin="round" stroke-miterlimit="10"/>
					
						<path d="M 358.600006 825.299988 L 443.700012 715.900024" fill="none" stroke="#561B1C" stroke-width="8.2216" stroke-linecap="round" stroke-linejoin="round" stroke-miterlimit="10"/>
					<path d="M 313.20001220703125 715 L 457.70001220703125 715 L 311.20001220703125 618.2999877929688 Z" fill="#F0B630" style="fill: rgb(191, 191, 191);"/>
					<path d="M 385.200012 663.799988 H 463.400009 V 719.199989 H 385.200012 V 663.799988 Z" fill="#561B1C"/>
					<path fill="#F9E4A7" d="M797.5,586.3l29.9,14.9l9.2,18.5c0,0,5.7,0.7,5.7,2.8c0,2.1-9.9-24.2-9.9-24.2l-34.8-21.3V586.3z"/>
					<path d="M 845.0999755859375 645.2999877929688 L 877.7999877929688 670.2000122070312 L 882 667.4000244140625 L 848.5999755859375 641.7999877929688 Z" fill="#F9E4A7"/>
					<path d="M 772.5999755859375 539.4000244140625 L 793.2000122070312 530.2000122070312 L 776.7999877929688 545.7999877929688 Z" fill="#F9E4A7"/>
					<g>
						<path fill="#FBCC34" d="M597.3,703.6c-19.9-0.4-36.6,21.4-37.3,48.9c0,0.1,0,0.2,0,0.3c-0.6,27.6,15.1,50.3,35.1,50.8&#10;&#9;&#9;&#9;&#9;&#9;&#9;&#9;c20,0.4,36.7-21.6,37.3-49.2c0-0.1,0-0.2,0-0.3C632.9,726.6,617.2,704.1,597.3,703.6z" style="fill: rgb(255, 255, 255);"/>
						<path fill="#561B1C" d="M573.5,753.4c0.5-17.2,10.9-31,23.4-30.7c12.5,0.3,22.3,14.4,22,31.7c0,0.1,0,0.1,0,0.2&#10;&#9;&#9;&#9;&#9;&#9;&#9;&#9;c-0.4,17.3-10.9,31.1-23.4,30.9c-12.5-0.3-22.4-14.5-22-31.9C573.5,753.5,573.5,753.4,573.5,753.4z"/>
						<path fill="#F9E4A7" d="M611.1,754.4c0-0.1,0-0.1,0-0.2c0.3-15.4-7.5-28.3-18.1-31.1c1.3-0.3,2.6-0.4,3.9-0.4&#10;&#9;&#9;&#9;&#9;&#9;&#9;&#9;c12.5,0.3,22.3,14.4,22,31.7c0,0.1,0,0.1,0,0.2c-0.4,17.3-10.9,31.1-23.4,30.9c-1.3,0-2.6-0.2-3.9-0.6&#10;&#9;&#9;&#9;&#9;&#9;&#9;&#9;C602.3,782.5,610.8,769.9,611.1,754.4z"/>
						<path fill="#F9E4A7" d="M588.6,752.4c-0.1,5.5,3,10,7,10.1c4,0.1,7.3-4.3,7.4-9.8c0.1-5.5-3-10-7-10.1&#10;&#9;&#9;&#9;&#9;&#9;&#9;&#9;C592.1,742.5,588.8,746.9,588.6,752.4z"/>
					</g>
					<g>
						<path fill="#FBCC34" d="M840.3,684.9c-15.9-0.3-29.2,17.1-29.8,39c0,0.1,0,0.2,0,0.2c-0.5,22,12.1,40.2,28,40.5&#10;&#9;&#9;&#9;&#9;&#9;&#9;&#9;c16,0.3,29.3-17.2,29.8-39.3c0-0.1,0-0.2,0-0.2C868.7,703.3,856.2,685.3,840.3,684.9z" style="fill: rgb(255, 255, 255);"/>
						<path fill="#561B1C" d="M821.3,724.6c0.4-13.8,8.7-24.7,18.7-24.5s17.8,11.5,17.6,25.3c0,0.1,0,0.1,0,0.2&#10;&#9;&#9;&#9;&#9;&#9;&#9;&#9;c-0.3,13.8-8.7,24.9-18.7,24.6c-10-0.2-17.9-11.6-17.6-25.4C821.2,724.7,821.3,724.7,821.3,724.6z"/>
						<path fill="#F9E4A7" d="M851.3,725.5c0,0,0-0.1,0-0.1c0.2-12.3-6-22.6-14.5-24.8c1-0.2,2.1-0.3,3.1-0.3&#10;&#9;&#9;&#9;&#9;&#9;&#9;&#9;c10,0.2,17.8,11.5,17.6,25.3c0,0.1,0,0.1,0,0.2c-0.3,13.8-8.7,24.9-18.7,24.6c-1.1,0-2.1-0.2-3.1-0.4&#10;&#9;&#9;&#9;&#9;&#9;&#9;&#9;C844.3,747.9,851,737.8,851.3,725.5z"/>
						<path fill="#F9E4A7" d="M833.4,723.8c-0.1,4.4,2.4,8,5.6,8.1c3.2,0.1,5.8-3.4,5.9-7.8c0.1-4.4-2.4-8-5.6-8.1&#10;&#9;&#9;&#9;&#9;&#9;&#9;&#9;C836.1,715.9,833.5,719.4,833.4,723.8z"/>
					</g>
					<path d="M 516 541.2000122070312 L 499.8999938964844 500.79998779296875 L 499.8999938964844 646.7999877929688 L 515 623.0999755859375 L 759.5 629.0999755859375 L 759.5 564.7999877929688 L 519.7999877929688 542.0999755859375 Z" fill="#F0B630" style="fill: rgb(255, 255, 255);"/>
				<path d="M 674.6326293945312 677.1982421875 L 674.6326293945312 677.1982421875" style="fill: rgb(255, 255, 255); fill-opacity: 1; stroke: rgb(255, 255, 255); stroke-opacity: 1; stroke-width: 1; paint-order: stroke;"/><path d="M 860.8656616210938 611.5869750976562" style="fill: rgb(255, 255, 255); fill-opacity: 1; stroke: rgb(0, 0, 0); stroke-opacity: 1; stroke-width: 0; paint-order: fill;"/><path d="M 341.96868896484375 732.8115234375 L 341.96868896484375 732.8115234375" style="fill: rgb(255, 255, 255); fill-opacity: 1; stroke: rgb(0, 0, 0); stroke-opacity: 1; stroke-width: 0; paint-order: fill;"/><path d="M 301.6824035644531 776.1383056640625 L 301.6824035644531 776.1383056640625" style="fill: rgb(255, 255, 255); fill-opacity: 1; stroke: rgb(0, 0, 0); stroke-opacity: 1; stroke-width: 0; paint-order: fill;"/></g>
				<path d="M 296.1000061035156 525.4000244140625 L 285.70001220703125 516.9000244140625 L 285.70001220703125 671.4000244140625 L 295.6000061035156 670.4000244140625 Z" fill="#FBCC34" style="fill: rgb(255, 255, 255);"/>
				<path fill="#FBCC34" d="M793.9,652.4h50.5v10.7c0,0-43.4,1.4-46.9,57.6l-10-1.4l0.7-61.8L793.9,652.4z" style="fill: rgb(210, 210, 210);"/>
				<path fill="#FBCC34" d="M826.8,666.2c0,0,34.6-6.6,48.3,15.6v-8.1l-30.8-21.3l-49.3-1.9l-0.5,9.5l-2.4,19L826.8,666.2z" style="fill: rgb(255, 255, 255);"/>
				<path fill="#F9E4A7" d="M823.8,643.9c0,1.2-1,2.1-2.1,2.1H811c-1.2,0-2.1-1-2.1-2.1l0,0c0-1.2,1-2.1,2.1-2.1h10.7&#10;&#9;&#9;&#9;&#9;&#9;C822.8,641.8,823.8,642.7,823.8,643.9L823.8,643.9z"/>
				<path d="M 797.5 527.9000244140625 L 797.5 727.2999877929688 L 793.2000122070312 729.7000122070312 L 793.2000122070312 531.5999755859375 Z" fill="#561B1C"/>
			<path d="M 359.1678161621094 512.4159545898438" style="fill: rgb(255, 255, 255); fill-opacity: 1; stroke: rgb(0, 0, 0); stroke-opacity: 1; stroke-width: 0; paint-order: fill;"/><path d="M 804.4752807617188 683.9500732421875 L 804.4752807617188 683.9500732421875" style="fill: rgb(255, 255, 255); fill-opacity: 1; stroke: rgb(0, 0, 0); stroke-opacity: 1; stroke-width: 0; paint-order: fill;"/></g>
			<g>
				<path d="M 408 716.2000122070312 L 352.20001220703125 714.2999877929688 L 352.20001220703125 670.7000122070312 L 408 666.7000122070312 Z" fill="#E5A31F"/>
				<path d="M 408 716.2000122070312 L 463.79998779296875 714.2999877929688 L 463.79998779296875 670.5 L 408 666.7000122070312 Z" fill="#FBCC34"/>
				<path d="M 352.20001220703125 670.5 L 408 667.7000122070312 L 463.79998779296875 671.2000122070312 L 402 663.5999755859375 Z" fill="#561B1C"/>
			</g>
			<path d="M 408 667.7000122070312 L 423.1000061035156 685.9000244140625 L 463.6000061035156 685.9000244140625 L 463.6000061035156 670.5 Z" fill="#F0B630"/>
			<path d="M 352.20001220703125 670.5 L 337.70001220703125 687.2999877929688 L 352 686.2000122070312 Z" fill="#561B1C"/>
			<g>
				<g>
					<path fill="#561B1C" d="M536.4,614.3v-63.1l19.2,1.3l5.3,38.3l5.3-37.5l19.4,1.4v61.2l-11.5-0.4V571l-7.3,44.2l-11.3-0.4&#10;&#9;&#9;&#9;&#9;&#9;&#9;l-7.7-45.4v45.1L536.4,614.3z" style="fill-opacity: 1; fill: rgb(64, 79, 214);"/>
					<path fill="#561B1C" d="M594.6,612.2c-2.6-3.1-4-7.4-4-12.8v-29.1c0-5.3,1.3-9.1,4-11.6c2.6-2.5,6.5-3.5,11.6-3.2&#10;&#9;&#9;&#9;&#9;&#9;&#9;c5.1,0.4,9,1.9,11.6,4.8c2.6,2.8,4,6.8,4,11.9v28.5c0,5.4-1.3,9.5-4,12.3c-2.6,2.8-6.5,4.2-11.6,4&#10;&#9;&#9;&#9;&#9;&#9;&#9;C601.1,616.9,597.3,615.3,594.6,612.2z M608.5,604.6c0.4-0.9,0.6-2.2,0.6-3.9v-29.5c0-1.3-0.2-2.4-0.6-3.2&#10;&#9;&#9;&#9;&#9;&#9;&#9;c-0.4-0.8-1.1-1.3-2.2-1.4c-2.1-0.1-3.2,1.3-3.2,4.4v29.5c0,1.7,0.2,3.1,0.7,4c0.4,0.9,1.2,1.4,2.4,1.4&#10;&#9;&#9;&#9;&#9;&#9;&#9;C607.3,606,608.1,605.6,608.5,604.6z" style="fill-opacity: 1; fill: rgb(64, 79, 214);"/>
					<path fill="#561B1C" d="M632.7,617.3l-7.8-60l12,0.8l4.6,40.6l4.1-40l12,0.8l-7.8,58.3L632.7,617.3z" style="fill-opacity: 1; fill: rgb(64, 79, 214);"/>
					<path fill="#561B1C" d="M660.7,618.2v-58.4l12.2,0.9v57.9L660.7,618.2z" style="fill-opacity: 1; fill: rgb(64, 79, 214);"/>
					<path fill="#561B1C" d="M678,618.8v-57.7l13,0.9l5.8,27.7v-27.3l12.2,0.9v56.5l-12.3-0.4l-6.3-28.9v28.7L678,618.8z" style="fill-opacity: 1; fill: rgb(64, 79, 214);"/>
					<path fill="#561B1C" d="M717.4,616.3c-2.2-2.9-3.3-7.3-3.3-13.1v-24.3c0-5.2,1.3-9.1,3.9-11.5c2.6-2.5,6.5-3.5,11.6-3.2&#10;&#9;&#9;&#9;&#9;&#9;&#9;c4.2,0.3,7.4,1.3,9.7,2.9c2.3,1.6,3.9,3.8,4.8,6.7c0.9,2.8,1.3,6.4,1.3,10.8l-12.3-0.7v-5c0-1.3-0.2-2.4-0.6-3.1&#10;&#9;&#9;&#9;&#9;&#9;&#9;s-1.2-1.2-2.2-1.2c-2.4-0.2-3.6,1.2-3.6,3.9v27.1c0,1.7,0.2,3,0.7,3.9c0.5,0.9,1.3,1.4,2.6,1.4c1.2,0,2.1-0.4,2.6-1.2&#10;&#9;&#9;&#9;&#9;&#9;&#9;c0.5-0.8,0.7-2.1,0.7-3.8v-8l-3.4-0.2V588l15.4,0.8V621l-5.1-0.2l-2.1-4.7c-2.3,3.4-5.7,5-10.4,4.8&#10;&#9;&#9;&#9;&#9;&#9;&#9;C723,620.8,719.6,619.2,717.4,616.3z" style="fill-opacity: 1; fill: rgb(64, 79, 214);"/>
				<path d="M 643.233154296875 596.20654296875" style="fill: rgb(64, 79, 214); fill-opacity: 1; stroke: rgb(0, 0, 0); stroke-opacity: 1; stroke-width: 0; paint-order: fill;"/></g>
			</g>
		</g>
	</g><path fill="#FBCC34" d="M846.6,642.8c0,4.3-3.5,7.8-7.8,7.8l0,0c-4.3,0-7.8-3.5-7.8-7.8v-14.2c0-4.3,3.5-7.8,7.8-7.8l0,0&#10;&#9;&#9;c4.3,0,7.8,3.5,7.8,7.8V642.8z" transform="matrix(1, 0, 0, 1, -124.8372688293457, -488.0591735839844)" style="fill: rgb(255, 255, 255);"/><path fill="#F9E4A7" d="M844.7,643c0,3.6-3,6.6-6.6,6.6l0,0c-3.6,0-6.6-3-6.6-6.6v-12c0-3.6,3-6.6,6.6-6.6l0,0c3.6,0,6.6,3,6.6,6.6&#10;&#9;&#9;V643z" transform="matrix(1, 0, 0, 1, -126.19610977172852, -486.9778137207031)"/>

</svg>