<?xml version="1.0" encoding="utf-8"?>
<svg id="master-artboard" viewBox="0 0 1400 980" version="1.1" xmlns="http://www.w3.org/2000/svg" x="0px" y="0px" style="enable-background:new 0 0 1400 980;" width="1400px" height="980px"><rect id="ee-background" x="0" y="0" width="1400" height="980" style="fill: white; fill-opacity: 0; pointer-events: none;"/>

<metadata><!--?xpacket begin="﻿" id="W5M0MpCehiHzreSzNTczkc9d"?-->

                                                                                                    
                                                                                                    
                                                                                                    
                                                                                                    
                                                                                                    
                                                                                                    
                                                                                                    
                                                                                                    
                                                                                                    
                                                                                                    
                                                                                                    
                                                                                                    
                                                                                                    
                                                                                                    
                                                                                                    
                                                                                                    
                                                                                                    
                                                                                                    
                                                                                                    
                                                                                                    
                           
<!--?xpacket end="w"?-->
	</metadata>
<path d="M 0 0 H 1400 V 980 H 0 V 0 Z" className="st0" style="fill: rgb(175, 203, 230); fill-opacity: 0;"/>
<g>
	<path className="st1" d="M1168,392v-0.3c0-13.5-10.9-24.5-24.5-24.5h-170c-13.5,0-24.5-10.9-24.5-24.5v0c0-13.5,10.9-24.5,24.5-24.5&#10;&#9;&#9;h75.6c13.5,0,24.5-10.9,24.5-24.5v-0.3c0-13.5-10.9-24.5-24.5-24.5H426.9c-13.5,0-24.5,10.9-24.5,24.5v0.3&#10;&#9;&#9;c0,13.5,10.9,24.5,24.5,24.5h107.7c13.5,0,24.5,10.9,24.5,24.5v0c0,13.5-10.9,24.5-24.5,24.5H280.8c-13.5,0-24.5,10.9-24.5,24.5&#10;&#9;&#9;v0.3c0,13.5,10.9,24.5,24.5,24.5h169c13.5,0,24.5,10.9,24.5,24.5v0c0,13.5-10.9,24.5-24.5,24.5H348.2c-13.5,0-24.5,10.9-24.5,24.5&#10;&#9;&#9;v0.3c0,13.5,10.9,24.5,24.5,24.5h160.2c13.5,0,24.5,10.9,24.5,24.5v0c0,13.5-10.9,24.5-24.5,24.5H402.1&#10;&#9;&#9;c-13.5,0-24.5,10.9-24.5,24.5v0.3c0,13.5,10.9,24.5,24.5,24.5h135c13.5,0,24.5,10.9,24.5,24.5v0c0,13.5-10.9,24.5-24.5,24.5H304&#10;&#9;&#9;c-13.5,0-24.5,10.9-24.5,24.5v0.3c0,13.5,10.9,24.5,24.5,24.5h838.2c13.5,0,24.5-10.9,24.5-24.5v-0.3c0-13.5-10.9-24.5-24.5-24.5&#10;&#9;&#9;H950.3c-13.5,0-24.5-10.9-24.5-24.5v0c0-13.5,10.9-24.5,24.5-24.5h123.6c13.5,0,24.5-10.9,24.5-24.5V588&#10;&#9;&#9;c0-13.5-10.9-24.5-24.5-24.5h-76.3c-13.5,0-24.5-10.9-24.5-24.5v0c0-13.5,10.9-24.5,24.5-24.5h46.5c13.5,0,24.5-10.9,24.5-24.5&#10;&#9;&#9;v-0.3c0-13.5-10.9-24.5-24.5-24.5H926.6c-13.5,0-24.5-10.9-24.5-24.5v0c0-13.5,10.9-24.5,24.5-24.5h216.9&#10;&#9;&#9;C1157.1,416.5,1168,405.5,1168,392z" style="fill: rgb(64, 79, 214);"/>
	<path className="st1" d="M339.9,269.1h-17.3c-13.6,0-24.6,11-24.6,24.6v0c0,13.6,11,24.6,24.6,24.6h17.3c13.6,0,24.6-11,24.6-24.6v0&#10;&#9;&#9;C364.5,280.2,353.5,269.1,339.9,269.1z" style="fill: rgb(64, 79, 214);"/>
<path d="M 1523.6856689453125 372.76507568359375" style="fill: rgb(64, 79, 214); fill-opacity: 1; stroke: rgb(0, 0, 0); stroke-opacity: 1; stroke-width: 0; paint-order: fill;"/><path d="M 1637.944580078125 451.3180847167969" style="fill: rgb(64, 79, 214); fill-opacity: 1; stroke: rgb(0, 0, 0); stroke-opacity: 1; stroke-width: 0; paint-order: fill;"/></g>
<g>
	<path d="M 315.700012 545.700012 H 350.000011 V 710.800018 H 315.700012 V 545.700012 Z" className="st2" style="fill: rgb(241, 209, 169);"/>
	<path className="st3" d="M350,714.9h-34.3c-2.2,0-4-1.8-4-4V545.7c0-2.2,1.8-4,4-4H350c2.2,0,4,1.8,4,4v165.1&#10;&#9;&#9;C354,713.1,352.2,714.9,350,714.9z M319.7,706.9H346V549.7h-26.3V706.9z" style="fill: rgb(82, 83, 136);"/>
	<path d="M 350 545.700012 H 437.199997 V 710.800018 H 350 V 545.700012 Z" className="st4" style="fill: rgb(236, 192, 134);"/>
	<g>
		<path d="M 384.399994 545.700012 H 404.799994 V 571.800013 H 384.399994 V 545.700012 Z" className="st5" style="fill: rgb(248, 248, 249);"/>
		<g>
			<path className="st3" d="M404.8,574.4h-20.4c-1.4,0-2.5-1.1-2.5-2.5v-26.1c0-1.4,1.1-2.5,2.5-2.5h20.4c1.4,0,2.5,1.1,2.5,2.5v26.1&#10;&#9;&#9;&#9;&#9;C407.3,573.3,406.2,574.4,404.8,574.4z M386.9,569.4h15.4v-21.1h-15.4V569.4z" style="fill: rgb(82, 83, 136);"/>
		</g>
	</g>
	<path className="st3" d="M437.2,714.9H350c-2.2,0-4-1.8-4-4V545.7c0-2.2,1.8-4,4-4h87.2c2.2,0,4,1.8,4,4v165.1&#10;&#9;&#9;C441.2,713.1,439.4,714.9,437.2,714.9z M354,706.9h79.2V549.7H354V706.9z" style="fill: rgb(82, 83, 136);"/>
</g>
<g>
	<g>
		<path className="st6" d="M309.9,606.6L309.9,606.6c-8.4,0-15.2,6.8-15.2,15.2v89h15.2h15.2h33.2V606.6H309.9z" style="fill: rgb(151, 195, 157);"/>
		<path className="st7" d="M358.3,714.9h-63.6c-2.2,0-4-1.8-4-4v-89c0-10.6,8.6-19.2,19.2-19.2h48.4c2.2,0,4,1.8,4,4v104.2&#10;&#9;&#9;&#9;C362.3,713.1,360.5,714.9,358.3,714.9z M298.7,706.9h55.6v-96.2h-44.4c-6.2,0-11.2,5-11.2,11.2V706.9z" style="fill: rgb(7, 7, 78);"/>
		<path className="st8" d="M358.3,606.6L358.3,606.6c-8.4,0-15.2,6.8-15.2,15.2v89h30.4v-89C373.5,613.4,366.7,606.6,358.3,606.6z" style="fill: rgb(95, 168, 113);"/>
		<path className="st7" d="M373.5,714.9h-30.4c-2.2,0-4-1.8-4-4v-89c0-10.6,8.6-19.2,19.2-19.2s19.2,8.6,19.2,19.2v89&#10;&#9;&#9;&#9;C377.5,713.1,375.8,714.9,373.5,714.9z M347.1,706.9h22.4v-85c0-6.2-5-11.2-11.2-11.2s-11.2,5-11.2,11.2V706.9z" style="fill: rgb(7, 7, 78);"/>
		<g>
			<path className="st9" d="M355.9,629.2c-0.6,0-1.3-0.2-1.8-0.7c-1-1-1-2.6,0-3.5l4.9-4.9c1-1,2.6-1,3.5,0c1,1,1,2.6,0,3.5l-4.9,4.9&#10;&#9;&#9;&#9;&#9;C357.2,629,356.5,629.2,355.9,629.2z" style="fill: rgb(0, 125, 55);"/>
			<path className="st9" d="M360.8,629.2c-0.6,0-1.3-0.2-1.8-0.7l-4.9-4.9c-1-1-1-2.6,0-3.5c1-1,2.6-1,3.5,0l4.9,4.9c1,1,1,2.6,0,3.5&#10;&#9;&#9;&#9;&#9;C362.1,629,361.4,629.2,360.8,629.2z" style="fill: rgb(0, 125, 55);"/>
		</g>
	</g>
	<path className="st8" d="M298.1,527c-19.2,0-19.2,10.1-38.5,10.1c-19.2,0-19.2-10.1-38.5-10.1c-2.4,0-4.5,0.2-6.4,0.4&#10;&#9;&#9;c-11.1,1.6-19.2,11.2-19.2,22.4v95.7h128.1v-95.7c0-11.2-8.2-20.8-19.2-22.4C302.6,527.2,300.5,527,298.1,527z" style="fill: rgb(95, 168, 113);"/>
	<g>
		<g>
			<path className="st9" d="M290.7,613.8c-0.6,0-1.3-0.2-1.8-0.7c-1-1-1-2.6,0-3.5l4.9-4.9c1-1,2.6-1,3.5,0c1,1,1,2.6,0,3.5l-4.9,4.9&#10;&#9;&#9;&#9;&#9;C292,613.5,291.4,613.8,290.7,613.8z" style="fill: rgb(0, 125, 55);"/>
			<path className="st9" d="M295.7,613.8c-0.6,0-1.3-0.2-1.8-0.7l-4.9-4.9c-1-1-1-2.6,0-3.5c1-1,2.6-1,3.5,0l4.9,4.9c1,1,1,2.6,0,3.5&#10;&#9;&#9;&#9;&#9;C296.9,613.5,296.3,613.8,295.7,613.8z" style="fill: rgb(0, 125, 55);"/>
		</g>
		<g>
			<path className="st9" d="M223.7,613.8c-0.6,0-1.3-0.2-1.8-0.7c-1-1-1-2.6,0-3.5l4.9-4.9c1-1,2.6-1,3.5,0c1,1,1,2.6,0,3.5l-4.9,4.9&#10;&#9;&#9;&#9;&#9;C224.9,613.5,224.3,613.8,223.7,613.8z" style="fill: rgb(0, 125, 55);"/>
			<path className="st9" d="M228.6,613.8c-0.6,0-1.3-0.2-1.8-0.7l-4.9-4.9c-1-1-1-2.6,0-3.5c1-1,2.6-1,3.5,0l4.9,4.9c1,1,1,2.6,0,3.5&#10;&#9;&#9;&#9;&#9;C229.9,613.5,229.2,613.8,228.6,613.8z" style="fill: rgb(0, 125, 55);"/>
		</g>
	</g>
	<g>
		<path className="st8" d="M241.7,659h113.9v36.7c0,8.4-6.8,15.2-15.2,15.2h-98.7V659z" style="fill: rgb(95, 168, 113);"/>
		<path className="st7" d="M340.4,714.9h-98.7c-2.2,0-4-1.8-4-4V659c0-2.2,1.8-4,4-4h113.9c2.2,0,4,1.8,4,4v36.7&#10;&#9;&#9;&#9;C359.5,706.3,350.9,714.9,340.4,714.9z M245.7,706.9h94.7c6.2,0,11.2-5,11.2-11.2V663H245.7V706.9z" style="fill: rgb(7, 7, 78);"/>
	</g>
	<path className="st7" d="M323.7,649.5H195.6c-2.2,0-4-1.8-4-4v-95.7c0-13.1,9.7-24.4,22.7-26.3c2.2-0.3,4.4-0.5,6.9-0.5&#10;&#9;&#9;c10.6,0,16.2,2.9,21.1,5.5c4.7,2.5,8.7,4.6,17.4,4.6c8.6,0,12.7-2.1,17.4-4.6c4.9-2.6,10.5-5.5,21.1-5.5c2.5,0,4.8,0.2,6.9,0.5&#10;&#9;&#9;c12.9,1.9,22.7,13.2,22.7,26.3v95.7C327.7,647.7,325.9,649.5,323.7,649.5z M199.6,641.5h120.1v-91.7c0-9.2-6.8-17.1-15.8-18.4&#10;&#9;&#9;c-1.8-0.3-3.7-0.4-5.8-0.4c-8.6,0-12.7,2.1-17.4,4.6c-4.9,2.6-10.5,5.5-21.1,5.5c-10.6,0-16.2-2.9-21.1-5.5&#10;&#9;&#9;c-4.7-2.5-8.7-4.6-17.4-4.6c-2.1,0-4,0.1-5.8,0.4c-9,1.3-15.8,9.2-15.8,18.4V641.5z" style="fill: rgb(7, 7, 78);"/>
	<g>
		<path className="st6" d="M190.8,606.6L190.8,606.6c-8.4,0-15.2,6.8-15.2,15.2v89h15.2h3.7h33.2V606.6H190.8z" style="fill: rgb(151, 195, 157);"/>
		<path className="st7" d="M227.7,714.9h-52.1c-2.2,0-4-1.8-4-4v-89c0-10.6,8.6-19.2,19.2-19.2h36.9c2.2,0,4,1.8,4,4v104.2&#10;&#9;&#9;&#9;C231.7,713.1,229.9,714.9,227.7,714.9z M179.6,706.9h44.1v-96.2h-32.9c-6.2,0-11.2,5-11.2,11.2V706.9z" style="fill: rgb(7, 7, 78);"/>
		<path className="st8" d="M227.7,606.6L227.7,606.6c-8.4,0-15.2,6.8-15.2,15.2v89h30.4v-89C242.9,613.4,236.1,606.6,227.7,606.6z" style="fill: rgb(95, 168, 113);"/>
		<path className="st7" d="M242.9,714.9h-30.4c-2.2,0-4-1.8-4-4v-89c0-10.6,8.6-19.2,19.2-19.2s19.2,8.6,19.2,19.2v89&#10;&#9;&#9;&#9;C246.9,713.1,245.1,714.9,242.9,714.9z M216.5,706.9h22.4v-85c0-6.2-5-11.2-11.2-11.2s-11.2,5-11.2,11.2V706.9z" style="fill: rgb(7, 7, 78);"/>
		<g>
			<path className="st9" d="M225.2,629.2c-0.6,0-1.3-0.2-1.8-0.7c-1-1-1-2.6,0-3.5l4.9-4.9c1-1,2.6-1,3.5,0c1,1,1,2.6,0,3.5l-4.9,4.9&#10;&#9;&#9;&#9;&#9;C226.5,629,225.8,629.2,225.2,629.2z" style="fill: rgb(0, 125, 55);"/>
			<path className="st9" d="M230.1,629.2c-0.6,0-1.3-0.2-1.8-0.7l-4.9-4.9c-1-1-1-2.6,0-3.5c1-1,2.6-1,3.5,0l4.9,4.9c1,1,1,2.6,0,3.5&#10;&#9;&#9;&#9;&#9;C231.4,629,230.8,629.2,230.1,629.2z" style="fill: rgb(0, 125, 55);"/>
		</g>
	</g>
	<g>
		<path className="st6" d="M242.9,672.5H342c7.5,0,13.5-6,13.5-13.5v0c0-7.5-6-13.5-13.5-13.5h-99.1V672.5z" style="fill: rgb(151, 195, 157);"/>
		<path className="st7" d="M342,676.5h-99.1c-2.2,0-4-1.8-4-4v-27c0-2.2,1.8-4,4-4H342c9.7,0,17.5,7.9,17.5,17.5S351.7,676.5,342,676.5z&#10;&#9;&#9;&#9; M246.9,668.5H342c5.2,0,9.5-4.3,9.5-9.5s-4.3-9.5-9.5-9.5h-95.1V668.5z" style="fill: rgb(7, 7, 78);"/>
	</g>
	<g>
		<g>
			<path className="st9" d="M290.7,570.5c-0.6,0-1.3-0.2-1.8-0.7c-1-1-1-2.6,0-3.5l4.9-4.9c1-1,2.6-1,3.5,0c1,1,1,2.6,0,3.5l-4.9,4.9&#10;&#9;&#9;&#9;&#9;C292,570.3,291.4,570.5,290.7,570.5z" style="fill: rgb(0, 125, 55);"/>
			<path className="st9" d="M295.7,570.5c-0.6,0-1.3-0.2-1.8-0.7l-4.9-4.9c-1-1-1-2.6,0-3.5c1-1,2.6-1,3.5,0l4.9,4.9c1,1,1,2.6,0,3.5&#10;&#9;&#9;&#9;&#9;C296.9,570.3,296.3,570.5,295.7,570.5z" style="fill: rgb(0, 125, 55);"/>
		</g>
		<g>
			<path className="st9" d="M223.7,570.5c-0.6,0-1.3-0.2-1.8-0.7c-1-1-1-2.6,0-3.5l4.9-4.9c1-1,2.6-1,3.5,0c1,1,1,2.6,0,3.5l-4.9,4.9&#10;&#9;&#9;&#9;&#9;C224.9,570.3,224.3,570.5,223.7,570.5z" style="fill: rgb(0, 125, 55);"/>
			<path className="st9" d="M228.6,570.5c-0.6,0-1.3-0.2-1.8-0.7l-4.9-4.9c-1-1-1-2.6,0-3.5c1-1,2.6-1,3.5,0l4.9,4.9c1,1,1,2.6,0,3.5&#10;&#9;&#9;&#9;&#9;C229.9,570.3,229.2,570.5,228.6,570.5z" style="fill: rgb(0, 125, 55);"/>
		</g>
	</g>
</g>
<g>
	<path d="M 503.3999938964844 531.7999877929688 L 440.70001220703125 531.7999877929688 L 452.70001220703125 469 L 491.3999938964844 469 Z" className="st10" style="fill: rgb(224, 217, 236);"/>
	<path className="st3" d="M503.4,535.8h-62.8c-1.2,0-2.3-0.5-3.1-1.5s-1.1-2.1-0.8-3.3l12-62.8c0.4-1.9,2-3.2,3.9-3.2h38.8&#10;&#9;&#9;c1.9,0,3.6,1.4,3.9,3.2l12,62.8c0.2,1.2-0.1,2.4-0.8,3.3S504.6,535.8,503.4,535.8z M445.5,527.8h53.1L488.1,473H456L445.5,527.8z" style="fill: rgb(82, 83, 136);"/>
	<path className="st3" d="M483.7,534.3h-23.2c-0.7,0-1.4-0.3-1.8-0.8c-0.5-0.5-0.7-1.2-0.7-1.9l4.4-62.8c0.1-1.3,1.2-2.3,2.5-2.3h14.3&#10;&#9;&#9;c1.3,0,2.4,1,2.5,2.3l4.4,62.8c0,0.7-0.2,1.4-0.7,1.9C485,534,484.4,534.3,483.7,534.3z M463.1,529.3H481l-4.1-57.8h-9.7&#10;&#9;&#9;L463.1,529.3z" style="fill: rgb(82, 83, 136);"/>
	<path className="st3" d="M472.1,713.4c-1.4,0-2.5-1.1-2.5-2.5V531.8c0-1.4,1.1-2.5,2.5-2.5s2.5,1.1,2.5,2.5v179.1&#10;&#9;&#9;C474.6,712.2,473.4,713.4,472.1,713.4z" style="fill: rgb(82, 83, 136);"/>
	<path className="st3" d="M491.4,554.8c-1.4,0-2.5-1.1-2.5-2.5v-20.5c0-1.4,1.1-2.5,2.5-2.5s2.5,1.1,2.5,2.5v20.5&#10;&#9;&#9;C493.9,553.7,492.8,554.8,491.4,554.8z" style="fill: rgb(82, 83, 136);"/>
	<path className="st3" d="M491.4,562.7c-3.5,0-6.4-2.9-6.4-6.4s2.9-6.4,6.4-6.4c3.5,0,6.4,2.9,6.4,6.4S495,562.7,491.4,562.7z&#10;&#9;&#9; M491.4,554.9c-0.8,0-1.4,0.6-1.4,1.4s0.6,1.4,1.4,1.4s1.4-0.6,1.4-1.4S492.2,554.9,491.4,554.9z" style="fill: rgb(82, 83, 136);"/>
	<path className="st11" d="M453.4,710.9L453.4,710.9h37.2l0,0c0-3.6-2.9-6.6-6.6-6.6H460C456.4,704.3,453.4,707.2,453.4,710.9z" style="fill: rgb(217, 241, 253);"/>
	<path className="st3" d="M490.7,713.4h-37.2c-1.4,0-2.5-1.1-2.5-2.5c0-5,4.1-9.1,9.1-9.1h24.1c5,0,9.1,4.1,9.1,9.1&#10;&#9;&#9;C493.2,712.2,492.1,713.4,490.7,713.4z M456.8,708.4h30.5c-0.7-1-1.9-1.6-3.2-1.6H460C458.7,706.8,457.5,707.4,456.8,708.4z" style="fill: rgb(82, 83, 136);"/>
</g>
<g>
	<path d="M 384.399994 605.700012 H 423.999992 V 710.800011 H 384.399994 V 605.700012 Z" className="st2" style="fill: rgb(241, 209, 169);"/>
	<path className="st7" d="M424,714.9h-39.6c-2.2,0-4-1.8-4-4V605.7c0-2.2,1.8-4,4-4H424c2.2,0,4,1.8,4,4v105.1&#10;&#9;&#9;C428,713.1,426.2,714.9,424,714.9z M388.4,706.9H420v-97.1h-31.6V706.9z" style="fill: rgb(7, 7, 78);"/>
	<path d="M 424 605.700012 H 524.5 V 710.800011 H 424 V 605.700012 Z" className="st4" style="fill: rgb(236, 192, 134);"/>
	<g>
		<path d="M 463.700012 605.700012 H 487.200012 V 635.900013 H 463.700012 V 605.700012 Z" className="st5" style="fill: rgb(248, 248, 249);"/>
		<g>
			<path className="st7" d="M487.2,638.4h-23.5c-1.4,0-2.5-1.1-2.5-2.5v-30.2c0-1.4,1.1-2.5,2.5-2.5h23.5c1.4,0,2.5,1.1,2.5,2.5v30.2&#10;&#9;&#9;&#9;&#9;C489.7,637.3,488.6,638.4,487.2,638.4z M466.2,633.4h18.5v-25.2h-18.5V633.4z" style="fill: rgb(7, 7, 78);"/>
		</g>
	</g>
	<path className="st7" d="M524.5,714.9H424c-2.2,0-4-1.8-4-4V605.7c0-2.2,1.8-4,4-4h100.5c2.2,0,4,1.8,4,4v105.1&#10;&#9;&#9;C528.5,713.1,526.7,714.9,524.5,714.9z M428,706.9h92.5v-97.1H428V706.9z" style="fill: rgb(7, 7, 78);"/>
</g>
<g>
	<path d="M 195.199997 666.700012 H 234.799995 V 710.800011 H 195.199997 V 666.700012 Z" className="st2" style="fill: rgb(241, 209, 169);"/>
	<path className="st7" d="M234.8,714.9h-39.6c-2.2,0-4-1.8-4-4v-44.1c0-2.2,1.8-4,4-4h39.6c2.2,0,4,1.8,4,4v44.1&#10;&#9;&#9;C238.8,713.1,237,714.9,234.8,714.9z M199.2,706.9h31.6v-36.1h-31.6V706.9z" style="fill: rgb(7, 7, 78);"/>
	<path d="M 234.800003 666.700012 H 335.300003 V 710.800011 H 234.800003 V 666.700012 Z" className="st4" style="fill: rgb(236, 192, 134);"/>
	<g>
		<path d="M 274.5 666.700012 H 298 V 696.900013 H 274.5 V 666.700012 Z" className="st5" style="fill: rgb(248, 248, 249);"/>
		<g>
			<path className="st7" d="M298.1,699.4h-23.5c-1.4,0-2.5-1.1-2.5-2.5v-30.2c0-1.4,1.1-2.5,2.5-2.5h23.5c1.4,0,2.5,1.1,2.5,2.5v30.2&#10;&#9;&#9;&#9;&#9;C300.6,698.3,299.5,699.4,298.1,699.4z M277,694.4h18.5v-25.2H277V694.4z" style="fill: rgb(7, 7, 78);"/>
		</g>
	</g>
	<path className="st7" d="M335.3,714.9H234.8c-2.2,0-4-1.8-4-4v-44.1c0-2.2,1.8-4,4-4h100.5c2.2,0,4,1.8,4,4v44.1&#10;&#9;&#9;C339.3,713.1,337.5,714.9,335.3,714.9z M238.8,706.9h92.5v-36.1h-92.5V706.9z" style="fill: rgb(7, 7, 78);"/>
</g>
<g>
	<g>
		<g>
			<path className="st12" d="M1075.5,659.2c0-21.1-12.6-39.2-30.7-47.2v-4.5h-21c-28.5,0-51.7,23.1-51.7,51.7&#10;&#9;&#9;&#9;&#9;c0,28.5,23.1,51.7,51.7,51.7h21v-4.5C1062.9,698.4,1075.5,680.3,1075.5,659.2z" style="fill: rgb(83, 97, 110);"/>
			<path className="st7" d="M1044.9,714.9h-21c-30.7,0-55.7-25-55.7-55.7s25-55.7,55.7-55.7h21c2.2,0,4,1.8,4,4v1.9&#10;&#9;&#9;&#9;&#9;c18.7,9.4,30.7,28.7,30.7,49.7s-12,40.3-30.7,49.7v1.9C1048.9,713.1,1047.1,714.9,1044.9,714.9z M1023.9,611.5&#10;&#9;&#9;&#9;&#9;c-26.3,0-47.7,21.4-47.7,47.7s21.4,47.7,47.7,47.7h17v-0.5c0-1.6,0.9-3,2.4-3.7c17.2-7.7,28.3-24.8,28.3-43.6&#10;&#9;&#9;&#9;&#9;s-11.1-35.9-28.3-43.6c-1.4-0.6-2.4-2.1-2.4-3.7v-0.5H1023.9z" style="fill: rgb(7, 7, 78);"/>
			<path d="M 1096.600025 659.200012 A 51.700001 51.700001 0 0 1 1044.900024 710.900013 A 51.700001 51.700001 0 0 1 993.200024 659.200012 A 51.700001 51.700001 0 0 1 1044.900024 607.500011 A 51.700001 51.700001 0 0 1 1096.600025 659.200012 Z" className="st13" style="fill: rgb(117, 128, 142);"/>
			<path className="st7" d="M1044.9,714.9c-30.7,0-55.7-25-55.7-55.7s25-55.7,55.7-55.7s55.7,25,55.7,55.7S1075.6,714.9,1044.9,714.9z&#10;&#9;&#9;&#9;&#9; M1044.9,611.5c-26.3,0-47.7,21.4-47.7,47.7s21.4,47.7,47.7,47.7s47.7-21.4,47.7-47.7S1071.2,611.5,1044.9,611.5z" style="fill: rgb(7, 7, 78);"/>
			<path d="M 1069.600025 659.200012 A 24.700001 24.700001 0 0 1 1044.900024 683.900013 A 24.700001 24.700001 0 0 1 1020.200024 659.200012 A 24.700001 24.700001 0 0 1 1044.900024 634.500011 A 24.700001 24.700001 0 0 1 1069.600025 659.200012 Z" className="st14" style="fill: rgb(228, 229, 230);"/>
			<path className="st15" d="M1044.9,666.9c-9.9,0-18.6-4.6-24.4-11.7c-0.2,1.3-0.3,2.7-0.3,4c0,13.6,11.1,24.7,24.7,24.7&#10;&#9;&#9;&#9;&#9;s24.7-11.1,24.7-24.7c0-1.4-0.1-2.7-0.3-4C1063.5,662.3,1054.7,666.9,1044.9,666.9z" style="fill: rgb(194, 196, 198);"/>
			<path className="st7" d="M1044.9,687.9c-15.8,0-28.7-12.9-28.7-28.7s12.9-28.7,28.7-28.7s28.7,12.9,28.7,28.7&#10;&#9;&#9;&#9;&#9;S1060.7,687.9,1044.9,687.9z M1044.9,638.5c-11.4,0-20.7,9.3-20.7,20.7s9.3,20.7,20.7,20.7s20.7-9.3,20.7-20.7&#10;&#9;&#9;&#9;&#9;S1056.3,638.5,1044.9,638.5z" style="fill: rgb(7, 7, 78);"/>
		</g>
		<g>
			<path d="M 1044.900024 592.099976 H 1172.000023 V 631.599976 H 1044.900024 V 592.099976 Z" className="st16" style="fill: rgb(68, 81, 92);"/>
			<path className="st7" d="M1172,635.6h-127.1c-2.2,0-4-1.8-4-4v-39.5c0-2.2,1.8-4,4-4H1172c2.2,0,4,1.8,4,4v39.5&#10;&#9;&#9;&#9;&#9;C1176,633.8,1174.2,635.6,1172,635.6z M1048.9,627.6H1168v-31.5h-119.1V627.6z" style="fill: rgb(7, 7, 78);"/>
		</g>
		<g>
			<path className="st12" d="M1116.7,659.2c0-21.1-12.6-39.2-30.7-47.2v-4.5h-21c-28.5,0-51.7,23.1-51.7,51.7&#10;&#9;&#9;&#9;&#9;c0,28.5,23.1,51.7,51.7,51.7h21v-4.5C1104.1,698.4,1116.7,680.3,1116.7,659.2z" style="fill: rgb(83, 97, 110);"/>
			<path className="st7" d="M1086,714.9h-21c-30.7,0-55.7-25-55.7-55.7s25-55.7,55.7-55.7h21c2.2,0,4,1.8,4,4v1.9&#10;&#9;&#9;&#9;&#9;c18.7,9.4,30.7,28.7,30.7,49.7s-12,40.3-30.7,49.7v1.9C1090,713.1,1088.3,714.9,1086,714.9z M1065,611.5&#10;&#9;&#9;&#9;&#9;c-26.3,0-47.7,21.4-47.7,47.7s21.4,47.7,47.7,47.7h17v-0.5c0-1.6,0.9-3,2.4-3.7c17.2-7.7,28.3-24.8,28.3-43.6&#10;&#9;&#9;&#9;&#9;s-11.1-35.9-28.3-43.6c-1.4-0.6-2.4-2.1-2.4-3.7v-0.5H1065z" style="fill: rgb(7, 7, 78);"/>
			<path d="M 1137.700001 659.200012 A 51.700001 51.700001 0 0 1 1086 710.900013 A 51.700001 51.700001 0 0 1 1034.299999 659.200012 A 51.700001 51.700001 0 0 1 1086 607.500011 A 51.700001 51.700001 0 0 1 1137.700001 659.200012 Z" className="st17" style="fill: rgb(127, 138, 154);"/>
			<path className="st7" d="M1086,714.9c-30.7,0-55.7-25-55.7-55.7s25-55.7,55.7-55.7c30.7,0,55.7,25,55.7,55.7S1116.7,714.9,1086,714.9&#10;&#9;&#9;&#9;&#9;z M1086,611.5c-26.3,0-47.7,21.4-47.7,47.7s21.4,47.7,47.7,47.7s47.7-21.4,47.7-47.7S1112.3,611.5,1086,611.5z" style="fill: rgb(7, 7, 78);"/>
			<path d="M 1110.700001 659.200012 A 24.700001 24.700001 0 0 1 1086 683.900013 A 24.700001 24.700001 0 0 1 1061.299999 659.200012 A 24.700001 24.700001 0 0 1 1086 634.500011 A 24.700001 24.700001 0 0 1 1110.700001 659.200012 Z" className="st14" style="fill: rgb(228, 229, 230);"/>
			<path className="st15" d="M1086,666.9c-9.9,0-18.6-4.6-24.4-11.7c-0.2,1.3-0.3,2.7-0.3,4c0,13.6,11.1,24.7,24.7,24.7&#10;&#9;&#9;&#9;&#9;c13.6,0,24.7-11.1,24.7-24.7c0-1.4-0.1-2.7-0.3-4C1104.7,662.3,1095.9,666.9,1086,666.9z" style="fill: rgb(194, 196, 198);"/>
			<path className="st7" d="M1086,687.9c-15.8,0-28.7-12.9-28.7-28.7s12.9-28.7,28.7-28.7s28.7,12.9,28.7,28.7S1101.9,687.9,1086,687.9z&#10;&#9;&#9;&#9;&#9; M1086,638.5c-11.4,0-20.7,9.3-20.7,20.7s9.3,20.7,20.7,20.7s20.7-9.3,20.7-20.7S1097.5,638.5,1086,638.5z" style="fill: rgb(7, 7, 78);"/>
		</g>
		<g>
			<path className="st12" d="M745.3,659.2c0-21.1-12.6-39.2-30.7-47.2v-4.5h-21c-28.5,0-51.7,23.1-51.7,51.7c0,28.5,23.1,51.7,51.7,51.7&#10;&#9;&#9;&#9;&#9;h21v-4.5C732.7,698.4,745.3,680.3,745.3,659.2z" style="fill: rgb(83, 97, 110);"/>
			<path className="st7" d="M714.7,714.9h-21c-30.7,0-55.7-25-55.7-55.7s25-55.7,55.7-55.7h21c2.2,0,4,1.8,4,4v1.9&#10;&#9;&#9;&#9;&#9;c18.7,9.4,30.7,28.7,30.7,49.7s-12,40.3-30.7,49.7v1.9C718.7,713.1,716.9,714.9,714.7,714.9z M693.7,611.5&#10;&#9;&#9;&#9;&#9;c-26.3,0-47.7,21.4-47.7,47.7s21.4,47.7,47.7,47.7h17v-0.5c0-1.6,0.9-3,2.4-3.7c17.2-7.7,28.3-24.8,28.3-43.6&#10;&#9;&#9;&#9;&#9;s-11.1-35.9-28.3-43.6c-1.4-0.6-2.4-2.1-2.4-3.7v-0.5H693.7z" style="fill: rgb(7, 7, 78);"/>
			<path d="M 766.400013 659.200012 A 51.700001 51.700001 0 0 1 714.700012 710.900013 A 51.700001 51.700001 0 0 1 663.000011 659.200012 A 51.700001 51.700001 0 0 1 714.700012 607.500011 A 51.700001 51.700001 0 0 1 766.400013 659.200012 Z" className="st13" style="fill: rgb(117, 128, 142);"/>
			<path className="st7" d="M714.7,714.9c-30.7,0-55.7-25-55.7-55.7s25-55.7,55.7-55.7c30.7,0,55.7,25,55.7,55.7&#10;&#9;&#9;&#9;&#9;S745.4,714.9,714.7,714.9z M714.7,611.5c-26.3,0-47.7,21.4-47.7,47.7s21.4,47.7,47.7,47.7c26.3,0,47.7-21.4,47.7-47.7&#10;&#9;&#9;&#9;&#9;S741,611.5,714.7,611.5z" style="fill: rgb(7, 7, 78);"/>
			<path d="M 739.400013 659.200012 A 24.700001 24.700001 0 0 1 714.700012 683.900013 A 24.700001 24.700001 0 0 1 690.000011 659.200012 A 24.700001 24.700001 0 0 1 714.700012 634.500011 A 24.700001 24.700001 0 0 1 739.400013 659.200012 Z" className="st14" style="fill: rgb(228, 229, 230);"/>
			<path className="st15" d="M714.7,666.9c-9.9,0-18.6-4.6-24.4-11.7c-0.2,1.3-0.3,2.7-0.3,4c0,13.6,11.1,24.7,24.7,24.7&#10;&#9;&#9;&#9;&#9;s24.7-11.1,24.7-24.7c0-1.4-0.1-2.7-0.3-4C733.3,662.3,724.5,666.9,714.7,666.9z" style="fill: rgb(194, 196, 198);"/>
			<path className="st7" d="M714.7,687.9c-15.8,0-28.7-12.9-28.7-28.7s12.9-28.7,28.7-28.7s28.7,12.9,28.7,28.7S730.5,687.9,714.7,687.9&#10;&#9;&#9;&#9;&#9;z M714.7,638.5c-11.4,0-20.7,9.3-20.7,20.7s9.3,20.7,20.7,20.7s20.7-9.3,20.7-20.7S726.1,638.5,714.7,638.5z" style="fill: rgb(7, 7, 78);"/>
		</g>
		<path className="st5" d="M570.5,586.6c-12.4,0-22.5,10.1-22.5,22.5v0c0,12.4,10.1,22.5,22.5,22.5h343.2v-45H570.5z" style="fill: rgb(248, 248, 249);"/>
		<path className="st7" d="M913.7,635.6H570.5c-14.6,0-26.5-11.9-26.5-26.5s11.9-26.5,26.5-26.5h343.2c2.2,0,4,1.8,4,4v45&#10;&#9;&#9;&#9;C917.7,633.8,915.9,635.6,913.7,635.6z M570.5,590.6c-10.2,0-18.5,8.3-18.5,18.5s8.3,18.5,18.5,18.5h339.2v-37H570.5z" style="fill: rgb(7, 7, 78);"/>
		<g>
			<path d="M 570.299988 300.899994 H 672.399986 V 586.600006 H 570.299988 V 300.899994 Z" className="st17" style="fill: rgb(127, 138, 154);"/>
			<path d="M 570.2999877929688 374.70001220703125 L 672.2999877929688 569.4000244140625 L 672.2999877929688 374.70001220703125 Z" className="st18" style="fill: rgb(101, 117, 133);"/>
			<path className="st7" d="M672.3,590.6H570.3c-2.2,0-4-1.8-4-4V300.9c0-2.2,1.8-4,4-4h102.1c2.2,0,4,1.8,4,4v285.7&#10;&#9;&#9;&#9;&#9;C676.3,588.8,674.5,590.6,672.3,590.6z M574.3,582.6h94.1V304.9h-94.1V582.6z" style="fill: rgb(7, 7, 78);"/>
			<path d="M 570.299988 300.899994 H 672.399986 V 374.799995 H 570.299988 V 300.899994 Z" className="st19" style="fill: rgb(255, 233, 166);"/>
			<path className="st7" d="M672.3,378.7H570.3c-2.2,0-4-1.8-4-4v-73.9c0-2.2,1.8-4,4-4h102.1c2.2,0,4,1.8,4,4v73.9&#10;&#9;&#9;&#9;&#9;C676.3,376.9,674.5,378.7,672.3,378.7z M574.3,370.7h94.1v-65.9h-94.1V370.7z" style="fill: rgb(7, 7, 78);"/>
			<g>
				<path className="st7" d="M672.3,317.6H570.3c-1.4,0-2.5-1.1-2.5-2.5s1.1-2.5,2.5-2.5h102.1c1.4,0,2.5,1.1,2.5,2.5&#10;&#9;&#9;&#9;&#9;&#9;S673.7,317.6,672.3,317.6z" style="fill: rgb(7, 7, 78);"/>
				<path className="st7" d="M672.3,330.1H570.3c-1.4,0-2.5-1.1-2.5-2.5s1.1-2.5,2.5-2.5h102.1c1.4,0,2.5,1.1,2.5,2.5&#10;&#9;&#9;&#9;&#9;&#9;S673.7,330.1,672.3,330.1z" style="fill: rgb(7, 7, 78);"/>
				<path className="st7" d="M672.3,342.6H570.3c-1.4,0-2.5-1.1-2.5-2.5s1.1-2.5,2.5-2.5h102.1c1.4,0,2.5,1.1,2.5,2.5&#10;&#9;&#9;&#9;&#9;&#9;S673.7,342.6,672.3,342.6z" style="fill: rgb(7, 7, 78);"/>
				<path className="st7" d="M672.3,355.1H570.3c-1.4,0-2.5-1.1-2.5-2.5s1.1-2.5,2.5-2.5h102.1c1.4,0,2.5,1.1,2.5,2.5&#10;&#9;&#9;&#9;&#9;&#9;S673.7,355.1,672.3,355.1z" style="fill: rgb(7, 7, 78);"/>
			</g>
			<path className="st7" d="M626.1,365.4h-9.7c-1.4,0-2.5-1.1-2.5-2.5s1.1-2.5,2.5-2.5h9.7c1.4,0,2.5,1.1,2.5,2.5&#10;&#9;&#9;&#9;&#9;S627.5,365.4,626.1,365.4z" style="fill: rgb(7, 7, 78);"/>
		</g>
		<path d="M 736.5 586.599976 H 888 V 631.599976 H 736.5 V 586.599976 Z" className="st20" style="fill: rgb(117, 118, 121);"/>
		<g>
			<path className="st12" d="M789.7,659.2c0-21.1-12.6-39.2-30.7-47.2v-4.5h-21c-28.5,0-51.7,23.1-51.7,51.7c0,28.5,23.1,51.7,51.7,51.7&#10;&#9;&#9;&#9;&#9;h21v-4.5C777.1,698.4,789.7,680.3,789.7,659.2z" style="fill: rgb(83, 97, 110);"/>
			<path className="st7" d="M759,714.9h-21c-30.7,0-55.7-25-55.7-55.7s25-55.7,55.7-55.7h21c2.2,0,4,1.8,4,4v1.9&#10;&#9;&#9;&#9;&#9;c18.7,9.4,30.7,28.7,30.7,49.7s-12,40.3-30.7,49.7v1.9C763,713.1,761.2,714.9,759,714.9z M738,611.5c-26.3,0-47.7,21.4-47.7,47.7&#10;&#9;&#9;&#9;&#9;s21.4,47.7,47.7,47.7h17v-0.5c0-1.6,0.9-3,2.4-3.7c17.2-7.7,28.3-24.8,28.3-43.6s-11.1-35.9-28.3-43.6c-1.4-0.6-2.4-2.1-2.4-3.7&#10;&#9;&#9;&#9;&#9;v-0.5H738z" style="fill: rgb(7, 7, 78);"/>
			<path d="M 810.700001 659.200012 A 51.700001 51.700001 0 0 1 759 710.900013 A 51.700001 51.700001 0 0 1 707.299999 659.200012 A 51.700001 51.700001 0 0 1 759 607.500011 A 51.700001 51.700001 0 0 1 810.700001 659.200012 Z" className="st17" style="fill: rgb(127, 138, 154);"/>
			<path className="st7" d="M759,714.9c-30.7,0-55.7-25-55.7-55.7s25-55.7,55.7-55.7s55.7,25,55.7,55.7S789.7,714.9,759,714.9z&#10;&#9;&#9;&#9;&#9; M759,611.5c-26.3,0-47.7,21.4-47.7,47.7s21.4,47.7,47.7,47.7s47.7-21.4,47.7-47.7S785.3,611.5,759,611.5z" style="fill: rgb(7, 7, 78);"/>
			<path d="M 783.700001 659.200012 A 24.700001 24.700001 0 0 1 759 683.900013 A 24.700001 24.700001 0 0 1 734.299999 659.200012 A 24.700001 24.700001 0 0 1 759 634.500011 A 24.700001 24.700001 0 0 1 783.700001 659.200012 Z" className="st14" style="fill: rgb(228, 229, 230);"/>
			<path className="st15" d="M759,666.9c-9.9,0-18.6-4.6-24.4-11.7c-0.2,1.3-0.3,2.7-0.3,4c0,13.6,11.1,24.7,24.7,24.7&#10;&#9;&#9;&#9;&#9;s24.7-11.1,24.7-24.7c0-1.4-0.1-2.7-0.3-4C777.7,662.3,768.9,666.9,759,666.9z" style="fill: rgb(194, 196, 198);"/>
			<path className="st7" d="M759,687.9c-15.8,0-28.7-12.9-28.7-28.7s12.9-28.7,28.7-28.7s28.7,12.9,28.7,28.7S774.8,687.9,759,687.9z&#10;&#9;&#9;&#9;&#9; M759,638.5c-11.4,0-20.7,9.3-20.7,20.7s9.3,20.7,20.7,20.7s20.7-9.3,20.7-20.7S770.4,638.5,759,638.5z" style="fill: rgb(7, 7, 78);"/>
		</g>
		<path className="st21" d="M662.5,586.6c-12.4,0-22.5,10.1-22.5,22.5v0c0,12.4,10.1,22.5,22.5,22.5H702c10.3-21.1,31.9-35.7,57-35.7&#10;&#9;&#9;&#9;s46.7,14.6,57,35.7h189.7v-45H662.5z" style="fill: rgb(209, 211, 212);"/>
		<path className="st7" d="M1005.7,635.6H816c-1.5,0-2.9-0.9-3.6-2.3c-10-20.6-30.5-33.4-53.4-33.4s-43.4,12.8-53.4,33.4&#10;&#9;&#9;&#9;c-0.7,1.4-2.1,2.3-3.6,2.3h-39.5c-14.6,0-26.5-11.9-26.5-26.5s11.9-26.5,26.5-26.5h343.2c2.2,0,4,1.8,4,4v45&#10;&#9;&#9;&#9;C1009.7,633.8,1007.9,635.6,1005.7,635.6z M818.5,627.6h183.2v-37H662.5c-10.2,0-18.5,8.3-18.5,18.5s8.3,18.5,18.5,18.5h37.1&#10;&#9;&#9;&#9;c11.7-22.1,34.3-35.7,59.4-35.7S806.7,605.5,818.5,627.6z" style="fill: rgb(7, 7, 78);"/>
		<path className="st22" d="M1204.3,483.6l-64.1-20.2l-16.5-90.3c-2.6-14.4-15.1-24.8-29.7-24.8h-88.3v283.3h22.8&#10;&#9;&#9;&#9;c10.3-21.4,32.2-36.2,57.6-36.2s47.3,14.8,57.6,36.2h59.8c11.6,0,20.9-9.4,20.9-20.9v-99.7&#10;&#9;&#9;&#9;C1224.3,498.4,1216.2,487.4,1204.3,483.6z" style="fill: rgb(255, 225, 139);"/>
		<path className="st7" d="M1203.4,635.6h-59.8c-1.5,0-2.9-0.9-3.6-2.3c-9.9-20.6-31.1-34-54-34c-22.9,0-44.1,13.3-54,34&#10;&#9;&#9;&#9;c-0.7,1.4-2.1,2.3-3.6,2.3h-22.8c-2.2,0-4-1.8-4-4V348.3c0-2.2,1.8-4,4-4h88.3c16.5,0,30.7,11.8,33.7,28.1l16,88l61.8,19.5l0,0&#10;&#9;&#9;&#9;c13.6,4.3,22.8,16.8,22.8,31.1v99.7C1228.3,624.4,1217.2,635.6,1203.4,635.6z M1146.1,627.6h57.3c9.3,0,16.9-7.6,16.9-16.9v-99.7&#10;&#9;&#9;&#9;c0-10.8-6.9-20.2-17.2-23.5l-64.1-20.2c-1.4-0.4-2.5-1.6-2.7-3.1l-16.5-90.3c-2.3-12.5-13.1-21.5-25.8-21.5h-84.3v275.3h16.3&#10;&#9;&#9;&#9;c11.7-22.1,35-36.2,60-36.2S1134.4,605.5,1146.1,627.6z" style="fill: rgb(7, 7, 78);"/>
		<g>
			<path className="st15" d="M964.9,605.3h-78.2c-8.9,0-16.1,7.2-16.1,16.1v20.4c0,8.9,7.2,16.1,16.1,16.1h78.2&#10;&#9;&#9;&#9;&#9;c8.9,0,16.1-7.2,16.1-16.1v-20.4C981,612.5,973.8,605.3,964.9,605.3z" style="fill: rgb(194, 196, 198);"/>
			<path className="st7" d="M964.9,661.9h-78.2c-11.1,0-20.1-9-20.1-20.1v-20.4c0-11.1,9-20.1,20.1-20.1h78.2c11.1,0,20.1,9,20.1,20.1&#10;&#9;&#9;&#9;&#9;v20.4C985,652.8,976,661.9,964.9,661.9z M886.7,609.3c-6.7,0-12.1,5.4-12.1,12.1v20.4c0,6.7,5.4,12.1,12.1,12.1h78.2&#10;&#9;&#9;&#9;&#9;c6.7,0,12.1-5.4,12.1-12.1v-20.4c0-6.7-5.4-12.1-12.1-12.1H886.7z" style="fill: rgb(7, 7, 78);"/>
			<path className="st14" d="M912.3,641.7v-20.4c0-8.9-7.2-16.1-16.1-16.1h-9.5c-8.9,0-16.1,7.2-16.1,16.1v20.4&#10;&#9;&#9;&#9;&#9;c0,8.9,7.2,16.1,16.1,16.1h9.5C905.1,657.9,912.3,650.6,912.3,641.7z" style="fill: rgb(228, 229, 230);"/>
			<path className="st7" d="M896.2,661.9h-9.5c-11.1,0-20.1-9-20.1-20.1v-20.4c0-11.1,9-20.1,20.1-20.1h9.5c11.1,0,20.1,9,20.1,20.1&#10;&#9;&#9;&#9;&#9;v20.4C916.3,652.8,907.3,661.9,896.2,661.9z M886.7,609.3c-6.7,0-12.1,5.4-12.1,12.1v20.4c0,6.7,5.4,12.1,12.1,12.1h9.5&#10;&#9;&#9;&#9;&#9;c6.7,0,12.1-5.4,12.1-12.1v-20.4c0-6.7-5.4-12.1-12.1-12.1H886.7z" style="fill: rgb(7, 7, 78);"/>
			<path className="st7" d="M931.2,661.9c-2.2,0-4-1.8-4-4s1.8-4,4-4c6.7,0,12.1-5.4,12.1-12.1v-20.4c0-6.7-5.4-12.1-12.1-12.1&#10;&#9;&#9;&#9;&#9;c-2.2,0-4-1.8-4-4s1.8-4,4-4c11.1,0,20.1,9,20.1,20.1v20.4C951.3,652.8,942.3,661.9,931.2,661.9z" style="fill: rgb(7, 7, 78);"/>
		</g>
		<path className="st23" d="M1143,589.1h-92.5c-1.4,0-2.5-1.1-2.5-2.5v-75.9l-25.4-11.8c-0.9-0.4-1.4-1.3-1.4-2.3v-35.2&#10;&#9;&#9;&#9;c0-1.4,1.1-2.5,2.5-2.5s2.5,1.1,2.5,2.5V495l25.4,11.8c0.9,0.4,1.4,1.3,1.4,2.3v75h87.5V487l-20.9-24c-0.9-1-0.8-2.6,0.2-3.5&#10;&#9;&#9;&#9;c1-0.9,2.6-0.8,3.5,0.2l21.5,24.7c0.4,0.5,0.6,1,0.6,1.6v100.5C1145.5,588,1144.4,589.1,1143,589.1z" style="fill: rgb(229, 191, 69);"/>
		<path className="st18" d="M1005.7,631.6h22.8c10.3-21.4,32.2-36.2,57.6-36.2s47.3,14.8,57.6,36.2h59.8c11.6,0,20.9-9.4,20.9-20.9&#10;&#9;&#9;&#9;v-24.1h-218.7V631.6z" style="fill: rgb(101, 117, 133);"/>
		<path className="st7" d="M1203.4,635.6h-59.8c-1.5,0-2.9-0.9-3.6-2.3c-9.9-20.6-31.1-34-54-34c-22.9,0-44.1,13.3-54,34&#10;&#9;&#9;&#9;c-0.7,1.4-2.1,2.3-3.6,2.3h-22.8c-2.2,0-4-1.8-4-4v-45c0-2.2,1.8-4,4-4h218.7c2.2,0,4,1.8,4,4v24.1&#10;&#9;&#9;&#9;C1228.3,624.4,1217.2,635.6,1203.4,635.6z M1146.1,627.6h57.3c9.3,0,16.9-7.6,16.9-16.9v-20.1h-210.7v37h16.3&#10;&#9;&#9;&#9;c11.7-22.1,35-36.2,60-36.2S1134.4,605.5,1146.1,627.6z" style="fill: rgb(7, 7, 78);"/>
		<path className="st24" d="M1121.5,461.4l-15.5-85c-1.1-5.8-6.1-10-12-10h-70.3v95.1H1121.5z" style="fill: rgb(64, 196, 224);"/>
		<path className="st7" d="M1121.5,465.4h-97.9c-2.2,0-4-1.8-4-4v-95.1c0-2.2,1.8-4,4-4h70.3c7.8,0,14.6,5.6,16,13.3l15.5,85&#10;&#9;&#9;&#9;c0.2,1.2-0.1,2.4-0.9,3.3C1123.8,464.9,1122.7,465.4,1121.5,465.4z M1027.7,457.4h89.1l-14.7-80.3c-0.7-3.9-4.1-6.8-8.1-6.8h-66.3&#10;&#9;&#9;&#9;V457.4z" style="fill: rgb(7, 7, 78);"/>
		<path className="st25" d="M1036.3,437.3c-1,0-2-0.4-2.8-1.2c-1.6-1.6-1.6-4.1,0-5.7l46.8-46.8c1.6-1.6,4.1-1.6,5.7,0&#10;&#9;&#9;&#9;c1.6,1.6,1.6,4.1,0,5.7l-46.8,46.8C1038.3,436.9,1037.3,437.3,1036.3,437.3z" style="fill: rgb(255, 254, 249);"/>
		<path className="st25" d="M1050.5,455.6c-1,0-2-0.4-2.8-1.2c-1.6-1.6-1.6-4.1,0-5.7l18.6-18.6c1.6-1.6,4.1-1.6,5.7,0&#10;&#9;&#9;&#9;c1.6,1.6,1.6,4.1,0,5.7l-18.6,18.6C1052.5,455.2,1051.5,455.6,1050.5,455.6z" style="fill: rgb(255, 254, 249);"/>
		<path className="st25" d="M1076.3,429.8c-1,0-2-0.4-2.8-1.2c-1.6-1.6-1.6-4.1,0-5.7l4-4c1.6-1.6,4.1-1.6,5.7,0c1.6,1.6,1.6,4.1,0,5.7&#10;&#9;&#9;&#9;l-4,4C1078.3,429.4,1077.3,429.8,1076.3,429.8z" style="fill: rgb(255, 254, 249);"/>
		<path className="st26" d="M1197.7,528.1c0,12,9.7,21.7,21.7,21.7c1.7,0,3.4-0.2,5-0.6v-38.2c0-1.4-0.1-2.7-0.3-4&#10;&#9;&#9;&#9;c-1.5-0.3-3.1-0.5-4.7-0.5C1207.4,506.4,1197.7,516.1,1197.7,528.1z" style="fill: rgb(255, 253, 235);"/>
		<path className="st7" d="M1219.3,553.7c-14.2,0-25.7-11.5-25.7-25.7s11.5-25.7,25.7-25.7c1.9,0,3.7,0.2,5.6,0.6&#10;&#9;&#9;&#9;c1.6,0.4,2.9,1.7,3.1,3.3c0.2,1.6,0.3,3.1,0.3,4.6v38.2c0,1.9-1.3,3.5-3.1,3.9C1223.3,553.5,1221.3,553.7,1219.3,553.7z&#10;&#9;&#9;&#9; M1219.3,510.4c-9.7,0-17.7,7.9-17.7,17.7s7.9,17.7,17.7,17.7c0.3,0,0.7,0,1,0v-34.8c0-0.2,0-0.3,0-0.5&#10;&#9;&#9;&#9;C1220,510.4,1219.7,510.4,1219.3,510.4z" style="fill: rgb(7, 7, 78);"/>
		<g>
			<path d="M 610.200012 516.5 H 649.800011 V 582.800003 H 610.200012 V 516.5 Z" className="st2" style="fill: rgb(241, 209, 169);"/>
			<path className="st7" d="M649.8,586.9h-39.6c-2.2,0-4-1.8-4-4v-66.3c0-2.2,1.8-4,4-4h39.6c2.2,0,4,1.8,4,4v66.3&#10;&#9;&#9;&#9;&#9;C653.8,585.1,652,586.9,649.8,586.9z M614.2,578.9h31.6v-58.3h-31.6V578.9z" style="fill: rgb(7, 7, 78);"/>
			<path d="M 649.799988 516.5 H 750.299988 V 582.800003 H 649.799988 V 516.5 Z" className="st4" style="fill: rgb(236, 192, 134);"/>
			<g>
				<path d="M 689.5 516.5 H 713 V 535.5 H 689.5 V 516.5 Z" className="st5" style="fill: rgb(248, 248, 249);"/>
				<g>
					<path className="st7" d="M713.1,538.1h-23.5c-1.4,0-2.5-1.1-2.5-2.5v-19c0-1.4,1.1-2.5,2.5-2.5h23.5c1.4,0,2.5,1.1,2.5,2.5v19&#10;&#9;&#9;&#9;&#9;&#9;&#9;C715.6,536.9,714.4,538.1,713.1,538.1z M692,533.1h18.5v-14H692V533.1z" style="fill: rgb(7, 7, 78);"/>
				</g>
			</g>
			<path className="st7" d="M750.3,586.9H649.8c-2.2,0-4-1.8-4-4v-66.3c0-2.2,1.8-4,4-4h100.5c2.2,0,4,1.8,4,4v66.3&#10;&#9;&#9;&#9;&#9;C754.3,585.1,752.5,586.9,750.3,586.9z M653.8,578.9h92.5v-58.3h-92.5V578.9z" style="fill: rgb(7, 7, 78);"/>
		</g>
		<path d="M 672.299988 300.899994 H 1005.599976 V 586.600006 H 672.299988 V 300.899994 Z" className="st22" style="fill: rgb(255, 225, 139);"/>
		<path className="st7" d="M1005.7,590.6H672.3c-2.2,0-4-1.8-4-4V300.9c0-2.2,1.8-4,4-4h333.3c2.2,0,4,1.8,4,4v285.7&#10;&#9;&#9;&#9;C1009.7,588.8,1007.9,590.6,1005.7,590.6z M676.3,582.6h325.3V304.9H676.3V582.6z" style="fill: rgb(7, 7, 78);"/>
	</g>
	<path d="M 578 586.5999755859375 L 448.29998779296875 710.9000244140625 L 507.79998779296875 710.9000244140625 L 637.5 586.5999755859375 Z" className="st27" style="fill: rgb(232, 219, 190);"/>
	<path className="st7" d="M507.8,714.9h-59.5c-1.6,0-3.1-1-3.7-2.5c-0.6-1.5-0.2-3.3,0.9-4.4l129.8-124.3c0.7-0.7,1.7-1.1,2.8-1.1h59.5&#10;&#9;&#9;c1.6,0,3.1,1,3.7,2.5c0.6,1.5,0.2,3.3-0.9,4.4L510.5,713.8C509.8,714.5,508.8,714.9,507.8,714.9z M458.2,706.9h47.9l121.4-116.3&#10;&#9;&#9;h-47.9L458.2,706.9z" style="fill: rgb(7, 7, 78);"/>
</g>
<path className="st7" d="M1242.2,714.9H157.8c-2.2,0-4-1.8-4-4s1.8-4,4-4h1084.4c2.2,0,4,1.8,4,4S1244.4,714.9,1242.2,714.9z" style="fill: rgb(7, 7, 78);"/>
</svg>